<?xml version="1.0" encoding="utf-8" standalone="no"?>
<!DOCTYPE svg PUBLIC "-//W3C//DTD SVG 1.1//EN"
  "http://www.w3.org/Graphics/SVG/1.1/DTD/svg11.dtd">
<svg xmlns:xlink="http://www.w3.org/1999/xlink" width="864pt" height="576pt" viewBox="0 0 864 576" xmlns="http://www.w3.org/2000/svg" version="1.1">
 <metadata>
  <rdf:RDF xmlns:dc="http://purl.org/dc/elements/1.1/" xmlns:cc="http://creativecommons.org/ns#" xmlns:rdf="http://www.w3.org/1999/02/22-rdf-syntax-ns#">
   <cc:Work>
    <dc:type rdf:resource="http://purl.org/dc/dcmitype/StillImage"/>
    <dc:date>2026-01-15T19:54:15.584497</dc:date>
    <dc:format>image/svg+xml</dc:format>
    <dc:creator>
     <cc:Agent>
      <dc:title>Matplotlib v3.10.1, https://matplotlib.org/</dc:title>
     </cc:Agent>
    </dc:creator>
   </cc:Work>
  </rdf:RDF>
 </metadata>
 <defs>
  <style type="text/css">*{stroke-linejoin: round; stroke-linecap: butt}</style>
 </defs>
 <g id="figure_1">
  <g id="patch_1">
   <path d="M 0 576 
L 864 576 
L 864 0 
L 0 0 
z
" style="fill: #ffffff"/>
  </g>
  <g id="axes_1">
   <g id="patch_2">
    <path d="M 51.007656 535.092969 
L 849.3 535.092969 
L 849.3 11.36625 
L 51.007656 11.36625 
z
" style="fill: #ffffff"/>
   </g>
   <g id="matplotlib.axis_1">
    <g id="xtick_1">
     <g id="line2d_1">
      <defs>
       <path id="me454e398cb" d="M 0 0 
L 0 3.5 
" style="stroke: #000000; stroke-width: 0.8"/>
      </defs>
      <g>
       <use xlink:href="#me454e398cb" x="51.007656" y="535.092969" style="stroke: #000000; stroke-width: 0.8"/>
      </g>
     </g>
     <g id="text_1">
      <!-- 0.0 -->
      <g transform="translate(43.507656 550.425469) scale(0.12 -0.12)">
       <defs>
        <path id="TimesNewRomanPSMT-30" d="M 231 2094 
Q 231 2819 450 3342 
Q 669 3866 1031 4122 
Q 1313 4325 1613 4325 
Q 2100 4325 2488 3828 
Q 2972 3213 2972 2159 
Q 2972 1422 2759 906 
Q 2547 391 2217 158 
Q 1888 -75 1581 -75 
Q 975 -75 572 641 
Q 231 1244 231 2094 
z
M 844 2016 
Q 844 1141 1059 588 
Q 1238 122 1591 122 
Q 1759 122 1940 273 
Q 2122 425 2216 781 
Q 2359 1319 2359 2297 
Q 2359 3022 2209 3506 
Q 2097 3866 1919 4016 
Q 1791 4119 1609 4119 
Q 1397 4119 1231 3928 
Q 1006 3669 925 3112 
Q 844 2556 844 2016 
z
" transform="scale(0.015625)"/>
        <path id="TimesNewRomanPSMT-2e" d="M 800 606 
Q 947 606 1047 504 
Q 1147 403 1147 259 
Q 1147 116 1045 14 
Q 944 -88 800 -88 
Q 656 -88 554 14 
Q 453 116 453 259 
Q 453 406 554 506 
Q 656 606 800 606 
z
" transform="scale(0.015625)"/>
       </defs>
       <use xlink:href="#TimesNewRomanPSMT-30"/>
       <use xlink:href="#TimesNewRomanPSMT-2e" transform="translate(50 0)"/>
       <use xlink:href="#TimesNewRomanPSMT-30" transform="translate(75 0)"/>
      </g>
     </g>
    </g>
    <g id="xtick_2">
     <g id="line2d_2">
      <g>
       <use xlink:href="#me454e398cb" x="317.105104" y="535.092969" style="stroke: #000000; stroke-width: 0.8"/>
      </g>
     </g>
     <g id="text_2">
      <!-- 0.1 -->
      <g transform="translate(309.605104 550.425469) scale(0.12 -0.12)">
       <defs>
        <path id="TimesNewRomanPSMT-31" d="M 750 3822 
L 1781 4325 
L 1884 4325 
L 1884 747 
Q 1884 391 1914 303 
Q 1944 216 2037 169 
Q 2131 122 2419 116 
L 2419 0 
L 825 0 
L 825 116 
Q 1125 122 1212 167 
Q 1300 213 1334 289 
Q 1369 366 1369 747 
L 1369 3034 
Q 1369 3497 1338 3628 
Q 1316 3728 1258 3775 
Q 1200 3822 1119 3822 
Q 1003 3822 797 3725 
L 750 3822 
z
" transform="scale(0.015625)"/>
       </defs>
       <use xlink:href="#TimesNewRomanPSMT-30"/>
       <use xlink:href="#TimesNewRomanPSMT-2e" transform="translate(50 0)"/>
       <use xlink:href="#TimesNewRomanPSMT-31" transform="translate(75 0)"/>
      </g>
     </g>
    </g>
    <g id="xtick_3">
     <g id="line2d_3">
      <g>
       <use xlink:href="#me454e398cb" x="583.202552" y="535.092969" style="stroke: #000000; stroke-width: 0.8"/>
      </g>
     </g>
     <g id="text_3">
      <!-- 0.2 -->
      <g transform="translate(575.702552 550.425469) scale(0.12 -0.12)">
       <defs>
        <path id="TimesNewRomanPSMT-32" d="M 2934 816 
L 2638 0 
L 138 0 
L 138 116 
Q 1241 1122 1691 1759 
Q 2141 2397 2141 2925 
Q 2141 3328 1894 3587 
Q 1647 3847 1303 3847 
Q 991 3847 742 3664 
Q 494 3481 375 3128 
L 259 3128 
Q 338 3706 661 4015 
Q 984 4325 1469 4325 
Q 1984 4325 2329 3994 
Q 2675 3663 2675 3213 
Q 2675 2891 2525 2569 
Q 2294 2063 1775 1497 
Q 997 647 803 472 
L 1909 472 
Q 2247 472 2383 497 
Q 2519 522 2628 598 
Q 2738 675 2819 816 
L 2934 816 
z
" transform="scale(0.015625)"/>
       </defs>
       <use xlink:href="#TimesNewRomanPSMT-30"/>
       <use xlink:href="#TimesNewRomanPSMT-2e" transform="translate(50 0)"/>
       <use xlink:href="#TimesNewRomanPSMT-32" transform="translate(75 0)"/>
      </g>
     </g>
    </g>
    <g id="xtick_4">
     <g id="line2d_4">
      <g>
       <use xlink:href="#me454e398cb" x="849.3" y="535.092969" style="stroke: #000000; stroke-width: 0.8"/>
      </g>
     </g>
     <g id="text_4">
      <!-- 0.3 -->
      <g transform="translate(841.8 550.425469) scale(0.12 -0.12)">
       <defs>
        <path id="TimesNewRomanPSMT-33" d="M 325 3431 
Q 506 3859 782 4092 
Q 1059 4325 1472 4325 
Q 1981 4325 2253 3994 
Q 2459 3747 2459 3466 
Q 2459 3003 1878 2509 
Q 2269 2356 2469 2072 
Q 2669 1788 2669 1403 
Q 2669 853 2319 450 
Q 1863 -75 997 -75 
Q 569 -75 414 31 
Q 259 138 259 259 
Q 259 350 332 419 
Q 406 488 509 488 
Q 588 488 669 463 
Q 722 447 909 348 
Q 1097 250 1169 231 
Q 1284 197 1416 197 
Q 1734 197 1970 444 
Q 2206 691 2206 1028 
Q 2206 1275 2097 1509 
Q 2016 1684 1919 1775 
Q 1784 1900 1550 2001 
Q 1316 2103 1072 2103 
L 972 2103 
L 972 2197 
Q 1219 2228 1467 2375 
Q 1716 2522 1828 2728 
Q 1941 2934 1941 3181 
Q 1941 3503 1739 3701 
Q 1538 3900 1238 3900 
Q 753 3900 428 3381 
L 325 3431 
z
" transform="scale(0.015625)"/>
       </defs>
       <use xlink:href="#TimesNewRomanPSMT-30"/>
       <use xlink:href="#TimesNewRomanPSMT-2e" transform="translate(50 0)"/>
       <use xlink:href="#TimesNewRomanPSMT-33" transform="translate(75 0)"/>
      </g>
     </g>
    </g>
    <g id="text_5">
     <!-- FPR -->
     <g transform="translate(438.588906 566.019219) scale(0.13 -0.13)">
      <defs>
       <path id="TimesNewRomanPSMT-46" d="M 1309 4006 
L 1309 2341 
L 2081 2341 
Q 2347 2341 2470 2458 
Q 2594 2575 2634 2922 
L 2750 2922 
L 2750 1488 
L 2634 1488 
Q 2631 1734 2570 1850 
Q 2509 1966 2401 2023 
Q 2294 2081 2081 2081 
L 1309 2081 
L 1309 750 
Q 1309 428 1350 325 
Q 1381 247 1481 191 
Q 1619 116 1769 116 
L 1922 116 
L 1922 0 
L 103 0 
L 103 116 
L 253 116 
Q 516 116 634 269 
Q 709 369 709 750 
L 709 3488 
Q 709 3809 669 3913 
Q 638 3991 541 4047 
Q 406 4122 253 4122 
L 103 4122 
L 103 4238 
L 3256 4238 
L 3297 3306 
L 3188 3306 
Q 3106 3603 2998 3742 
Q 2891 3881 2733 3943 
Q 2575 4006 2244 4006 
L 1309 4006 
z
" transform="scale(0.015625)"/>
       <path id="TimesNewRomanPSMT-50" d="M 1313 1984 
L 1313 750 
Q 1313 350 1400 253 
Q 1519 116 1759 116 
L 1922 116 
L 1922 0 
L 106 0 
L 106 116 
L 266 116 
Q 534 116 650 291 
Q 713 388 713 750 
L 713 3488 
Q 713 3888 628 3984 
Q 506 4122 266 4122 
L 106 4122 
L 106 4238 
L 1659 4238 
Q 2228 4238 2556 4120 
Q 2884 4003 3109 3725 
Q 3334 3447 3334 3066 
Q 3334 2547 2992 2222 
Q 2650 1897 2025 1897 
Q 1872 1897 1694 1919 
Q 1516 1941 1313 1984 
z
M 1313 2163 
Q 1478 2131 1606 2115 
Q 1734 2100 1825 2100 
Q 2150 2100 2386 2351 
Q 2622 2603 2622 3003 
Q 2622 3278 2509 3514 
Q 2397 3750 2190 3867 
Q 1984 3984 1722 3984 
Q 1563 3984 1313 3925 
L 1313 2163 
z
" transform="scale(0.015625)"/>
       <path id="TimesNewRomanPSMT-52" d="M 4325 0 
L 3194 0 
L 1759 1981 
Q 1600 1975 1500 1975 
Q 1459 1975 1412 1976 
Q 1366 1978 1316 1981 
L 1316 750 
Q 1316 350 1403 253 
Q 1522 116 1759 116 
L 1925 116 
L 1925 0 
L 109 0 
L 109 116 
L 269 116 
Q 538 116 653 291 
Q 719 388 719 750 
L 719 3488 
Q 719 3888 631 3984 
Q 509 4122 269 4122 
L 109 4122 
L 109 4238 
L 1653 4238 
Q 2328 4238 2648 4139 
Q 2969 4041 3192 3777 
Q 3416 3513 3416 3147 
Q 3416 2756 3161 2468 
Q 2906 2181 2372 2063 
L 3247 847 
Q 3547 428 3762 290 
Q 3978 153 4325 116 
L 4325 0 
z
M 1316 2178 
Q 1375 2178 1419 2176 
Q 1463 2175 1491 2175 
Q 2097 2175 2405 2437 
Q 2713 2700 2713 3106 
Q 2713 3503 2464 3751 
Q 2216 4000 1806 4000 
Q 1625 4000 1316 3941 
L 1316 2178 
z
" transform="scale(0.015625)"/>
      </defs>
      <use xlink:href="#TimesNewRomanPSMT-46"/>
      <use xlink:href="#TimesNewRomanPSMT-50" transform="translate(55.615234 0)"/>
      <use xlink:href="#TimesNewRomanPSMT-52" transform="translate(111.230469 0)"/>
     </g>
    </g>
   </g>
   <g id="matplotlib.axis_2">
    <g id="ytick_1">
     <g id="line2d_5">
      <defs>
       <path id="m03d8bec550" d="M 0 0 
L -3.5 0 
" style="stroke: #000000; stroke-width: 0.8"/>
      </defs>
      <g>
       <use xlink:href="#m03d8bec550" x="51.007656" y="535.092969" style="stroke: #000000; stroke-width: 0.8"/>
      </g>
     </g>
     <g id="text_6">
      <!-- 0.70 -->
      <g transform="translate(23.007656 539.259219) scale(0.12 -0.12)">
       <defs>
        <path id="TimesNewRomanPSMT-37" d="M 644 4238 
L 2916 4238 
L 2916 4119 
L 1503 -88 
L 1153 -88 
L 2419 3728 
L 1253 3728 
Q 900 3728 750 3644 
Q 488 3500 328 3200 
L 238 3234 
L 644 4238 
z
" transform="scale(0.015625)"/>
       </defs>
       <use xlink:href="#TimesNewRomanPSMT-30"/>
       <use xlink:href="#TimesNewRomanPSMT-2e" transform="translate(50 0)"/>
       <use xlink:href="#TimesNewRomanPSMT-37" transform="translate(75 0)"/>
       <use xlink:href="#TimesNewRomanPSMT-30" transform="translate(125 0)"/>
      </g>
     </g>
    </g>
    <g id="ytick_2">
     <g id="line2d_6">
      <g>
       <use xlink:href="#m03d8bec550" x="51.007656" y="447.805182" style="stroke: #000000; stroke-width: 0.8"/>
      </g>
     </g>
     <g id="text_7">
      <!-- 0.75 -->
      <g transform="translate(23.007656 451.971432) scale(0.12 -0.12)">
       <defs>
        <path id="TimesNewRomanPSMT-35" d="M 2778 4238 
L 2534 3706 
L 1259 3706 
L 981 3138 
Q 1809 3016 2294 2522 
Q 2709 2097 2709 1522 
Q 2709 1188 2573 903 
Q 2438 619 2231 419 
Q 2025 219 1772 97 
Q 1413 -75 1034 -75 
Q 653 -75 479 54 
Q 306 184 306 341 
Q 306 428 378 495 
Q 450 563 559 563 
Q 641 563 702 538 
Q 763 513 909 409 
Q 1144 247 1384 247 
Q 1750 247 2026 523 
Q 2303 800 2303 1197 
Q 2303 1581 2056 1914 
Q 1809 2247 1375 2428 
Q 1034 2569 447 2591 
L 1259 4238 
L 2778 4238 
z
" transform="scale(0.015625)"/>
       </defs>
       <use xlink:href="#TimesNewRomanPSMT-30"/>
       <use xlink:href="#TimesNewRomanPSMT-2e" transform="translate(50 0)"/>
       <use xlink:href="#TimesNewRomanPSMT-37" transform="translate(75 0)"/>
       <use xlink:href="#TimesNewRomanPSMT-35" transform="translate(125 0)"/>
      </g>
     </g>
    </g>
    <g id="ytick_3">
     <g id="line2d_7">
      <g>
       <use xlink:href="#m03d8bec550" x="51.007656" y="360.517396" style="stroke: #000000; stroke-width: 0.8"/>
      </g>
     </g>
     <g id="text_8">
      <!-- 0.80 -->
      <g transform="translate(23.007656 364.683646) scale(0.12 -0.12)">
       <defs>
        <path id="TimesNewRomanPSMT-38" d="M 1228 2134 
Q 725 2547 579 2797 
Q 434 3047 434 3316 
Q 434 3728 753 4026 
Q 1072 4325 1600 4325 
Q 2113 4325 2425 4047 
Q 2738 3769 2738 3413 
Q 2738 3175 2569 2928 
Q 2400 2681 1866 2347 
Q 2416 1922 2594 1678 
Q 2831 1359 2831 1006 
Q 2831 559 2490 242 
Q 2150 -75 1597 -75 
Q 994 -75 656 303 
Q 388 606 388 966 
Q 388 1247 577 1523 
Q 766 1800 1228 2134 
z
M 1719 2469 
Q 2094 2806 2194 3001 
Q 2294 3197 2294 3444 
Q 2294 3772 2109 3958 
Q 1925 4144 1606 4144 
Q 1288 4144 1088 3959 
Q 888 3775 888 3528 
Q 888 3366 970 3203 
Q 1053 3041 1206 2894 
L 1719 2469 
z
M 1375 2016 
Q 1116 1797 991 1539 
Q 866 1281 866 981 
Q 866 578 1086 336 
Q 1306 94 1647 94 
Q 1984 94 2187 284 
Q 2391 475 2391 747 
Q 2391 972 2272 1150 
Q 2050 1481 1375 2016 
z
" transform="scale(0.015625)"/>
       </defs>
       <use xlink:href="#TimesNewRomanPSMT-30"/>
       <use xlink:href="#TimesNewRomanPSMT-2e" transform="translate(50 0)"/>
       <use xlink:href="#TimesNewRomanPSMT-38" transform="translate(75 0)"/>
       <use xlink:href="#TimesNewRomanPSMT-30" transform="translate(125 0)"/>
      </g>
     </g>
    </g>
    <g id="ytick_4">
     <g id="line2d_8">
      <g>
       <use xlink:href="#m03d8bec550" x="51.007656" y="273.229609" style="stroke: #000000; stroke-width: 0.8"/>
      </g>
     </g>
     <g id="text_9">
      <!-- 0.85 -->
      <g transform="translate(23.007656 277.395859) scale(0.12 -0.12)">
       <use xlink:href="#TimesNewRomanPSMT-30"/>
       <use xlink:href="#TimesNewRomanPSMT-2e" transform="translate(50 0)"/>
       <use xlink:href="#TimesNewRomanPSMT-38" transform="translate(75 0)"/>
       <use xlink:href="#TimesNewRomanPSMT-35" transform="translate(125 0)"/>
      </g>
     </g>
    </g>
    <g id="ytick_5">
     <g id="line2d_9">
      <g>
       <use xlink:href="#m03d8bec550" x="51.007656" y="185.941823" style="stroke: #000000; stroke-width: 0.8"/>
      </g>
     </g>
     <g id="text_10">
      <!-- 0.90 -->
      <g transform="translate(23.007656 190.108073) scale(0.12 -0.12)">
       <defs>
        <path id="TimesNewRomanPSMT-39" d="M 338 -88 
L 338 28 
Q 744 34 1094 217 
Q 1444 400 1770 856 
Q 2097 1313 2225 1859 
Q 1734 1544 1338 1544 
Q 891 1544 572 1889 
Q 253 2234 253 2806 
Q 253 3363 572 3797 
Q 956 4325 1575 4325 
Q 2097 4325 2469 3894 
Q 2925 3359 2925 2575 
Q 2925 1869 2578 1258 
Q 2231 647 1613 244 
Q 1109 -88 516 -88 
L 338 -88 
z
M 2275 2091 
Q 2331 2497 2331 2741 
Q 2331 3044 2228 3395 
Q 2125 3747 1936 3934 
Q 1747 4122 1506 4122 
Q 1228 4122 1018 3872 
Q 809 3622 809 3128 
Q 809 2469 1088 2097 
Q 1291 1828 1588 1828 
Q 1731 1828 1928 1897 
Q 2125 1966 2275 2091 
z
" transform="scale(0.015625)"/>
       </defs>
       <use xlink:href="#TimesNewRomanPSMT-30"/>
       <use xlink:href="#TimesNewRomanPSMT-2e" transform="translate(50 0)"/>
       <use xlink:href="#TimesNewRomanPSMT-39" transform="translate(75 0)"/>
       <use xlink:href="#TimesNewRomanPSMT-30" transform="translate(125 0)"/>
      </g>
     </g>
    </g>
    <g id="ytick_6">
     <g id="line2d_10">
      <g>
       <use xlink:href="#m03d8bec550" x="51.007656" y="98.654036" style="stroke: #000000; stroke-width: 0.8"/>
      </g>
     </g>
     <g id="text_11">
      <!-- 0.95 -->
      <g transform="translate(23.007656 102.820286) scale(0.12 -0.12)">
       <use xlink:href="#TimesNewRomanPSMT-30"/>
       <use xlink:href="#TimesNewRomanPSMT-2e" transform="translate(50 0)"/>
       <use xlink:href="#TimesNewRomanPSMT-39" transform="translate(75 0)"/>
       <use xlink:href="#TimesNewRomanPSMT-35" transform="translate(125 0)"/>
      </g>
     </g>
    </g>
    <g id="ytick_7">
     <g id="line2d_11">
      <g>
       <use xlink:href="#m03d8bec550" x="51.007656" y="11.36625" style="stroke: #000000; stroke-width: 0.8"/>
      </g>
     </g>
     <g id="text_12">
      <!-- 1.00 -->
      <g transform="translate(23.007656 15.5325) scale(0.12 -0.12)">
       <use xlink:href="#TimesNewRomanPSMT-31"/>
       <use xlink:href="#TimesNewRomanPSMT-2e" transform="translate(50 0)"/>
       <use xlink:href="#TimesNewRomanPSMT-30" transform="translate(75 0)"/>
       <use xlink:href="#TimesNewRomanPSMT-30" transform="translate(125 0)"/>
      </g>
     </g>
    </g>
    <g id="text_13">
     <!-- TPR -->
     <g transform="translate(16.226875 285.15) rotate(-90) scale(0.13 -0.13)">
      <defs>
       <path id="TimesNewRomanPSMT-54" d="M 3703 4238 
L 3750 3244 
L 3631 3244 
Q 3597 3506 3538 3619 
Q 3441 3800 3280 3886 
Q 3119 3972 2856 3972 
L 2259 3972 
L 2259 734 
Q 2259 344 2344 247 
Q 2463 116 2709 116 
L 2856 116 
L 2856 0 
L 1059 0 
L 1059 116 
L 1209 116 
Q 1478 116 1591 278 
Q 1659 378 1659 734 
L 1659 3972 
L 1150 3972 
Q 853 3972 728 3928 
Q 566 3869 450 3700 
Q 334 3531 313 3244 
L 194 3244 
L 244 4238 
L 3703 4238 
z
" transform="scale(0.015625)"/>
      </defs>
      <use xlink:href="#TimesNewRomanPSMT-54"/>
      <use xlink:href="#TimesNewRomanPSMT-50" transform="translate(61.083984 0)"/>
      <use xlink:href="#TimesNewRomanPSMT-52" transform="translate(116.699219 0)"/>
     </g>
    </g>
   </g>
   <g id="line2d_12">
    <path d="M 144.648987 577 
L 144.648987 552.891346 
L 147.250135 552.891346 
L 147.250135 541.53068 
L 152.452431 541.53068 
L 152.452431 537.743791 
L 157.654727 537.743791 
L 157.654727 533.956902 
L 160.255875 533.956902 
L 160.255875 515.022458 
L 162.857023 515.022458 
L 162.857023 492.301125 
L 165.458171 492.301125 
L 165.458171 488.514237 
L 168.05932 488.514237 
L 168.05932 450.645349 
L 170.660468 450.645349 
L 170.660468 446.85846 
L 173.261616 446.85846 
L 173.261616 443.071571 
L 181.06506 443.071571 
L 181.06506 427.924016 
L 183.666208 427.924016 
L 183.666208 420.350239 
L 186.267356 420.350239 
L 186.267356 416.56335 
L 191.469652 416.56335 
L 191.469652 408.989572 
L 194.0708 408.989572 
L 194.0708 401.415795 
L 199.273096 401.415795 
L 199.273096 397.628906 
L 201.874245 397.628906 
L 201.874245 393.842017 
L 204.475393 393.842017 
L 204.475393 382.481351 
L 209.677689 382.481351 
L 209.677689 378.694462 
L 217.481133 378.694462 
L 217.481133 374.907573 
L 220.082281 374.907573 
L 220.082281 363.546907 
L 222.683429 363.546907 
L 222.683429 359.760018 
L 227.885725 359.760018 
L 227.885725 355.973129 
L 238.290318 355.973129 
L 238.290318 333.251797 
L 246.093762 333.251797 
L 246.093762 325.678019 
L 248.69491 325.678019 
L 248.69491 318.104241 
L 253.897206 318.104241 
L 253.897206 299.169798 
L 256.498354 299.169798 
L 256.498354 287.809131 
L 259.099502 287.809131 
L 259.099502 284.022242 
L 264.301798 284.022242 
L 264.301798 280.235354 
L 269.504094 280.235354 
L 269.504094 272.661576 
L 272.105242 272.661576 
L 272.105242 257.514021 
L 274.706391 257.514021 
L 274.706391 238.579577 
L 285.110983 238.579577 
L 285.110983 227.218911 
L 287.712131 227.218911 
L 287.712131 219.645133 
L 290.313279 219.645133 
L 290.313279 212.071356 
L 295.515575 212.071356 
L 295.515575 200.710689 
L 300.717871 200.710689 
L 300.717871 196.9238 
L 305.920167 196.9238 
L 305.920167 193.136912 
L 311.122464 193.136912 
L 311.122464 185.563134 
L 318.925908 185.563134 
L 318.925908 166.62869 
L 324.128204 166.62869 
L 324.128204 162.841801 
L 337.133944 162.841801 
L 337.133944 159.054913 
L 344.937389 159.054913 
L 344.937389 155.268024 
L 360.544277 155.268024 
L 360.544277 151.481135 
L 376.151165 151.481135 
L 376.151165 147.694246 
L 381.353462 147.694246 
L 381.353462 143.907357 
L 386.555758 143.907357 
L 386.555758 140.120469 
L 389.156906 140.120469 
L 389.156906 136.33358 
L 396.96035 136.33358 
L 396.96035 132.546691 
L 415.168387 132.546691 
L 415.168387 128.759802 
L 420.370683 128.759802 
L 420.370683 124.972914 
L 425.572979 124.972914 
L 425.572979 117.399136 
L 435.977571 117.399136 
L 435.977571 113.612247 
L 438.578719 113.612247 
L 438.578719 109.825358 
L 443.781015 109.825358 
L 443.781015 106.03847 
L 472.393644 106.03847 
L 472.393644 102.251581 
L 474.994792 102.251581 
L 474.994792 94.677803 
L 480.197088 94.677803 
L 480.197088 90.890914 
L 485.399385 90.890914 
L 485.399385 83.317137 
L 493.202829 83.317137 
L 493.202829 79.530248 
L 506.208569 79.530248 
L 506.208569 75.743359 
L 527.017754 75.743359 
L 527.017754 71.956471 
L 555.630383 71.956471 
L 555.630383 68.169582 
L 597.248752 68.169582 
L 597.248752 64.382693 
L 607.653344 64.382693 
L 607.653344 60.595804 
L 628.462529 60.595804 
L 628.462529 56.808915 
L 633.664825 56.808915 
L 633.664825 53.022027 
L 646.670565 53.022027 
L 646.670565 49.235138 
L 862.565855 49.235138 
L 862.565855 45.448249 
L 865 45.448249 
L 865 45.448249 
" clip-path="url(#pe1cdba4bfd)" style="fill: none; stroke: #8dd3c7; stroke-width: 3; stroke-linecap: square"/>
   </g>
   <g id="line2d_13">
    <path d="M 142.047839 577 
L 142.047839 560.465124 
L 144.648987 560.465124 
L 144.648987 552.891346 
L 147.250135 552.891346 
L 147.250135 541.53068 
L 149.851283 541.53068 
L 149.851283 537.743791 
L 155.053579 537.743791 
L 155.053579 533.956902 
L 157.654727 533.956902 
L 157.654727 522.596236 
L 162.857023 522.596236 
L 162.857023 496.088014 
L 165.458171 496.088014 
L 165.458171 492.301125 
L 170.660468 492.301125 
L 170.660468 480.940459 
L 173.261616 480.940459 
L 173.261616 477.15357 
L 181.06506 477.15357 
L 181.06506 469.579793 
L 183.666208 469.579793 
L 183.666208 465.792904 
L 188.868504 465.792904 
L 188.868504 435.497794 
L 191.469652 435.497794 
L 191.469652 431.710905 
L 196.671948 431.710905 
L 196.671948 427.924016 
L 201.874245 427.924016 
L 201.874245 424.137127 
L 204.475393 424.137127 
L 204.475393 420.350239 
L 207.076541 420.350239 
L 207.076541 401.415795 
L 214.879985 401.415795 
L 214.879985 378.694462 
L 217.481133 378.694462 
L 217.481133 374.907573 
L 222.683429 374.907573 
L 222.683429 363.546907 
L 225.284577 363.546907 
L 225.284577 352.186241 
L 233.088021 352.186241 
L 233.088021 329.464908 
L 235.689169 329.464908 
L 235.689169 321.89113 
L 238.290318 321.89113 
L 238.290318 318.104241 
L 240.891466 318.104241 
L 240.891466 314.317353 
L 246.093762 314.317353 
L 246.093762 306.743575 
L 248.69491 306.743575 
L 248.69491 302.956686 
L 253.897206 302.956686 
L 253.897206 299.169798 
L 256.498354 299.169798 
L 256.498354 291.59602 
L 274.706391 291.59602 
L 274.706391 280.235354 
L 287.712131 280.235354 
L 287.712131 268.874687 
L 290.313279 268.874687 
L 290.313279 265.087798 
L 305.920167 265.087798 
L 305.920167 261.30091 
L 313.723612 261.30091 
L 313.723612 249.940243 
L 329.3305 249.940243 
L 329.3305 242.366466 
L 331.931648 242.366466 
L 331.931648 238.579577 
L 337.133944 238.579577 
L 337.133944 227.218911 
L 352.740833 227.218911 
L 352.740833 223.432022 
L 355.341981 223.432022 
L 355.341981 215.858244 
L 357.943129 215.858244 
L 357.943129 208.284467 
L 365.746573 208.284467 
L 365.746573 200.710689 
L 368.347721 200.710689 
L 368.347721 196.9238 
L 373.550017 196.9238 
L 373.550017 189.350023 
L 389.156906 189.350023 
L 389.156906 185.563134 
L 394.359202 185.563134 
L 394.359202 177.989356 
L 396.96035 177.989356 
L 396.96035 170.415579 
L 409.96609 170.415579 
L 409.96609 159.054913 
L 415.168387 159.054913 
L 415.168387 155.268024 
L 417.769535 155.268024 
L 417.769535 151.481135 
L 420.370683 151.481135 
L 420.370683 143.907357 
L 428.174127 143.907357 
L 428.174127 140.120469 
L 430.775275 140.120469 
L 430.775275 132.546691 
L 454.185608 132.546691 
L 454.185608 128.759802 
L 461.989052 128.759802 
L 461.989052 124.972914 
L 467.191348 124.972914 
L 467.191348 121.186025 
L 503.607421 121.186025 
L 503.607421 117.399136 
L 508.809717 117.399136 
L 508.809717 113.612247 
L 540.023494 113.612247 
L 540.023494 109.825358 
L 553.029234 109.825358 
L 553.029234 106.03847 
L 555.630383 106.03847 
L 555.630383 102.251581 
L 573.838419 102.251581 
L 573.838419 94.677803 
L 584.243011 94.677803 
L 584.243011 90.890914 
L 597.248752 90.890914 
L 597.248752 79.530248 
L 599.8499 79.530248 
L 599.8499 75.743359 
L 633.664825 75.743359 
L 633.664825 71.956471 
L 701.294675 71.956471 
L 701.294675 68.169582 
L 722.103859 68.169582 
L 722.103859 64.382693 
L 763.722228 64.382693 
L 763.722228 60.595804 
L 800.138301 60.595804 
L 800.138301 56.808915 
L 815.74519 56.808915 
L 815.74519 53.022027 
L 865 53.022027 
L 865 53.022027 
" clip-path="url(#pe1cdba4bfd)" style="fill: none; stroke: #ffffb3; stroke-opacity: 0.8; stroke-width: 2; stroke-linecap: square"/>
   </g>
   <g id="line2d_14">
    <path d="M 168.05932 577 
L 168.05932 564.252012 
L 173.261616 564.252012 
L 173.261616 537.743791 
L 175.862764 537.743791 
L 175.862764 522.596236 
L 188.868504 522.596236 
L 188.868504 518.809347 
L 194.0708 518.809347 
L 194.0708 503.661792 
L 196.671948 503.661792 
L 196.671948 488.514237 
L 199.273096 488.514237 
L 199.273096 480.940459 
L 201.874245 480.940459 
L 201.874245 473.366682 
L 204.475393 473.366682 
L 204.475393 454.432238 
L 209.677689 454.432238 
L 209.677689 439.284683 
L 212.278837 439.284683 
L 212.278837 420.350239 
L 214.879985 420.350239 
L 214.879985 412.776461 
L 217.481133 412.776461 
L 217.481133 401.415795 
L 220.082281 401.415795 
L 220.082281 393.842017 
L 222.683429 393.842017 
L 222.683429 386.26824 
L 227.885725 386.26824 
L 227.885725 378.694462 
L 230.486873 378.694462 
L 230.486873 371.120684 
L 233.088021 371.120684 
L 233.088021 367.333796 
L 235.689169 367.333796 
L 235.689169 359.760018 
L 240.891466 359.760018 
L 240.891466 348.399352 
L 243.492614 348.399352 
L 243.492614 344.612463 
L 246.093762 344.612463 
L 246.093762 337.038685 
L 253.897206 337.038685 
L 253.897206 333.251797 
L 261.70065 333.251797 
L 261.70065 325.678019 
L 264.301798 325.678019 
L 264.301798 318.104241 
L 272.105242 318.104241 
L 272.105242 310.530464 
L 274.706391 310.530464 
L 274.706391 302.956686 
L 277.307539 302.956686 
L 277.307539 295.382909 
L 279.908687 295.382909 
L 279.908687 284.022242 
L 282.509835 284.022242 
L 282.509835 268.874687 
L 285.110983 268.874687 
L 285.110983 265.087798 
L 287.712131 265.087798 
L 287.712131 261.30091 
L 290.313279 261.30091 
L 290.313279 249.940243 
L 295.515575 249.940243 
L 295.515575 231.005799 
L 298.116723 231.005799 
L 298.116723 223.432022 
L 303.319019 223.432022 
L 303.319019 215.858244 
L 308.521316 215.858244 
L 308.521316 212.071356 
L 311.122464 212.071356 
L 311.122464 208.284467 
L 316.32476 208.284467 
L 316.32476 204.497578 
L 324.128204 204.497578 
L 324.128204 200.710689 
L 329.3305 200.710689 
L 329.3305 193.136912 
L 331.931648 193.136912 
L 331.931648 189.350023 
L 337.133944 189.350023 
L 337.133944 185.563134 
L 344.937389 185.563134 
L 344.937389 181.776245 
L 350.139685 181.776245 
L 350.139685 177.989356 
L 355.341981 177.989356 
L 355.341981 170.415579 
L 370.948869 170.415579 
L 370.948869 159.054913 
L 373.550017 159.054913 
L 373.550017 155.268024 
L 389.156906 155.268024 
L 389.156906 151.481135 
L 396.96035 151.481135 
L 396.96035 147.694246 
L 417.769535 147.694246 
L 417.769535 143.907357 
L 420.370683 143.907357 
L 420.370683 140.120469 
L 428.174127 140.120469 
L 428.174127 136.33358 
L 461.989052 136.33358 
L 461.989052 132.546691 
L 467.191348 132.546691 
L 467.191348 128.759802 
L 469.792496 128.759802 
L 469.792496 124.972914 
L 472.393644 124.972914 
L 472.393644 117.399136 
L 482.798236 117.399136 
L 482.798236 109.825358 
L 493.202829 109.825358 
L 493.202829 102.251581 
L 498.405125 102.251581 
L 498.405125 98.464692 
L 503.607421 98.464692 
L 503.607421 94.677803 
L 519.214309 94.677803 
L 519.214309 90.890914 
L 553.029234 90.890914 
L 553.029234 87.104026 
L 576.439567 87.104026 
L 576.439567 83.317137 
L 612.85564 83.317137 
L 612.85564 79.530248 
L 615.456788 79.530248 
L 615.456788 75.743359 
L 618.057936 75.743359 
L 618.057936 71.956471 
L 675.283194 71.956471 
L 675.283194 68.169582 
L 753.317636 68.169582 
L 753.317636 64.382693 
L 768.924525 64.382693 
L 768.924525 60.595804 
L 771.525673 60.595804 
L 771.525673 56.808915 
L 792.334857 56.808915 
L 792.334857 53.022027 
L 818.346338 53.022027 
L 818.346338 49.235138 
L 828.75093 49.235138 
L 828.75093 45.448249 
L 865 45.448249 
L 865 45.448249 
" clip-path="url(#pe1cdba4bfd)" style="fill: none; stroke: #bebada; stroke-opacity: 0.8; stroke-width: 2; stroke-linecap: square"/>
   </g>
   <g id="line2d_15">
    <path d="M 157.654727 577 
L 157.654727 541.53068 
L 160.255875 541.53068 
L 160.255875 530.170013 
L 162.857023 530.170013 
L 162.857023 526.383125 
L 170.660468 526.383125 
L 170.660468 522.596236 
L 175.862764 522.596236 
L 175.862764 518.809347 
L 178.463912 518.809347 
L 178.463912 511.235569 
L 181.06506 511.235569 
L 181.06506 503.661792 
L 186.267356 503.661792 
L 186.267356 492.301125 
L 188.868504 492.301125 
L 188.868504 488.514237 
L 194.0708 488.514237 
L 194.0708 473.366682 
L 199.273096 473.366682 
L 199.273096 469.579793 
L 201.874245 469.579793 
L 201.874245 458.219126 
L 207.076541 458.219126 
L 207.076541 450.645349 
L 209.677689 450.645349 
L 209.677689 446.85846 
L 217.481133 446.85846 
L 217.481133 443.071571 
L 222.683429 443.071571 
L 222.683429 424.137127 
L 225.284577 424.137127 
L 225.284577 420.350239 
L 227.885725 420.350239 
L 227.885725 401.415795 
L 230.486873 401.415795 
L 230.486873 390.055128 
L 233.088021 390.055128 
L 233.088021 386.26824 
L 235.689169 386.26824 
L 235.689169 378.694462 
L 238.290318 378.694462 
L 238.290318 344.612463 
L 240.891466 344.612463 
L 240.891466 333.251797 
L 243.492614 333.251797 
L 243.492614 329.464908 
L 246.093762 329.464908 
L 246.093762 325.678019 
L 251.296058 325.678019 
L 251.296058 318.104241 
L 253.897206 318.104241 
L 253.897206 310.530464 
L 261.70065 310.530464 
L 261.70065 306.743575 
L 269.504094 306.743575 
L 269.504094 302.956686 
L 282.509835 302.956686 
L 282.509835 299.169798 
L 290.313279 299.169798 
L 290.313279 287.809131 
L 292.914427 287.809131 
L 292.914427 272.661576 
L 303.319019 272.661576 
L 303.319019 265.087798 
L 305.920167 265.087798 
L 305.920167 257.514021 
L 308.521316 257.514021 
L 308.521316 253.727132 
L 313.723612 253.727132 
L 313.723612 238.579577 
L 316.32476 238.579577 
L 316.32476 234.792688 
L 321.527056 234.792688 
L 321.527056 219.645133 
L 326.729352 219.645133 
L 326.729352 215.858244 
L 329.3305 215.858244 
L 329.3305 208.284467 
L 331.931648 208.284467 
L 331.931648 200.710689 
L 337.133944 200.710689 
L 337.133944 196.9238 
L 339.735092 196.9238 
L 339.735092 193.136912 
L 342.33624 193.136912 
L 342.33624 177.989356 
L 344.937389 177.989356 
L 344.937389 162.841801 
L 365.746573 162.841801 
L 365.746573 159.054913 
L 373.550017 159.054913 
L 373.550017 155.268024 
L 383.95461 155.268024 
L 383.95461 151.481135 
L 389.156906 151.481135 
L 389.156906 147.694246 
L 402.162646 147.694246 
L 402.162646 143.907357 
L 407.364942 143.907357 
L 407.364942 136.33358 
L 412.567238 136.33358 
L 412.567238 132.546691 
L 415.168387 132.546691 
L 415.168387 128.759802 
L 446.382163 128.759802 
L 446.382163 121.186025 
L 451.58446 121.186025 
L 451.58446 117.399136 
L 454.185608 117.399136 
L 454.185608 113.612247 
L 467.191348 113.612247 
L 467.191348 109.825358 
L 469.792496 109.825358 
L 469.792496 106.03847 
L 474.994792 106.03847 
L 474.994792 102.251581 
L 485.399385 102.251581 
L 485.399385 94.677803 
L 516.613161 94.677803 
L 516.613161 90.890914 
L 532.22005 90.890914 
L 532.22005 87.104026 
L 550.428086 87.104026 
L 550.428086 83.317137 
L 560.832679 83.317137 
L 560.832679 79.530248 
L 649.271713 79.530248 
L 649.271713 75.743359 
L 677.884342 75.743359 
L 677.884342 71.956471 
L 685.687786 71.956471 
L 685.687786 68.169582 
L 696.092378 68.169582 
L 696.092378 64.382693 
L 776.727969 64.382693 
L 776.727969 60.595804 
L 865 60.595804 
L 865 60.595804 
" clip-path="url(#pe1cdba4bfd)" style="fill: none; stroke: #80b1d3; stroke-opacity: 0.8; stroke-width: 2; stroke-linecap: square"/>
   </g>
   <g id="line2d_16">
    <path d="M 170.660468 577 
L 170.660468 552.891346 
L 186.267356 511.235569 
L 188.868504 492.301125 
L 199.273096 480.940459 
L 204.475393 462.006015 
L 212.278837 450.645349 
L 214.879985 443.071571 
L 220.082281 405.202683 
L 233.088021 386.26824 
L 251.296058 359.760018 
L 251.296058 344.612463 
L 264.301798 333.251797 
L 272.105242 325.678019 
L 272.105242 314.317353 
L 274.706391 295.382909 
L 279.908687 280.235354 
L 279.908687 272.661576 
L 282.509835 265.087798 
L 287.712131 246.153355 
L 292.914427 231.005799 
L 303.319019 219.645133 
L 308.521316 204.497578 
L 311.122464 200.710689 
L 311.122464 196.9238 
L 318.925908 193.136912 
L 324.128204 177.989356 
L 324.128204 170.415579 
L 326.729352 170.415579 
L 329.3305 166.62869 
L 339.735092 162.841801 
L 344.937389 159.054913 
L 347.538537 159.054913 
L 355.341981 155.268024 
L 357.943129 147.694246 
L 360.544277 143.907357 
L 360.544277 140.120469 
L 363.145425 136.33358 
L 370.948869 132.546691 
L 381.353462 124.972914 
L 391.758054 124.972914 
L 396.96035 124.972914 
L 415.168387 121.186025 
L 422.971831 121.186025 
L 435.977571 117.399136 
L 443.781015 117.399136 
L 448.983311 109.825358 
L 472.393644 109.825358 
L 490.601681 109.825358 
L 501.006273 102.251581 
L 516.613161 102.251581 
L 529.618902 98.464692 
L 545.22579 94.677803 
L 555.630383 94.677803 
L 573.838419 90.890914 
L 592.046456 90.890914 
L 605.052196 87.104026 
L 625.86138 87.104026 
L 633.664825 83.317137 
L 649.271713 83.317137 
L 675.283194 79.530248 
L 703.895823 75.743359 
L 740.311896 68.169582 
L 763.722228 64.382693 
L 779.329117 56.808915 
L 797.537153 49.235138 
L 836.554374 49.235138 
L 865 42.33303 
" clip-path="url(#pe1cdba4bfd)" style="fill: none; stroke: #fdb462; stroke-opacity: 0.8; stroke-width: 2; stroke-linecap: square"/>
   </g>
   <g id="patch_3">
    <path d="M 51.007656 535.092969 
L 51.007656 11.36625 
" style="fill: none; stroke: #000000; stroke-linejoin: miter; stroke-linecap: square"/>
   </g>
   <g id="patch_4">
    <path d="M 849.3 535.092969 
L 849.3 11.36625 
" style="fill: none; stroke: #000000; stroke-linejoin: miter; stroke-linecap: square"/>
   </g>
   <g id="patch_5">
    <path d="M 51.007656 535.092969 
L 849.3 535.092969 
" style="fill: none; stroke: #000000; stroke-linejoin: miter; stroke-linecap: square"/>
   </g>
   <g id="patch_6">
    <path d="M 51.007656 11.36625 
L 849.3 11.36625 
" style="fill: none; stroke: #000000; stroke-linejoin: miter; stroke-linecap: square"/>
   </g>
  </g>
  <g id="text_14">
   <!-- ROC Zoom -->
   <g transform="translate(392.2225 22.115) scale(0.16 -0.16)">
    <defs>
     <path id="TimesNewRomanPS-BoldMT-52" d="M 1700 1931 
L 1700 744 
Q 1700 400 1742 311 
Q 1784 222 1890 169 
Q 1997 116 2288 116 
L 2288 0 
L 119 0 
L 119 116 
Q 413 116 517 170 
Q 622 225 664 312 
Q 706 400 706 744 
L 706 3494 
Q 706 3838 664 3927 
Q 622 4016 515 4069 
Q 409 4122 119 4122 
L 119 4238 
L 2088 4238 
Q 2856 4238 3212 4131 
Q 3569 4025 3794 3739 
Q 4019 3453 4019 3069 
Q 4019 2600 3681 2294 
Q 3466 2100 3078 2003 
L 4097 569 
Q 4297 291 4381 222 
Q 4509 125 4678 116 
L 4678 0 
L 3344 0 
L 1978 1931 
L 1700 1931 
z
M 1700 4009 
L 1700 2153 
L 1878 2153 
Q 2313 2153 2528 2233 
Q 2744 2313 2867 2520 
Q 2991 2728 2991 3063 
Q 2991 3547 2764 3778 
Q 2538 4009 2034 4009 
L 1700 4009 
z
" transform="scale(0.015625)"/>
     <path id="TimesNewRomanPS-BoldMT-4f" d="M 2472 4297 
Q 3484 4334 4117 3706 
Q 4750 3078 4750 2134 
Q 4750 1328 4278 716 
Q 3653 -97 2513 -97 
Q 1369 -97 744 678 
Q 250 1291 250 2131 
Q 250 3075 892 3704 
Q 1534 4334 2472 4297 
z
M 2509 4097 
Q 1928 4097 1625 3503 
Q 1378 3016 1378 2103 
Q 1378 1019 1759 500 
Q 2025 138 2503 138 
Q 2825 138 3041 294 
Q 3316 494 3469 933 
Q 3622 1372 3622 2078 
Q 3622 2919 3465 3336 
Q 3309 3753 3067 3925 
Q 2825 4097 2509 4097 
z
" transform="scale(0.015625)"/>
     <path id="TimesNewRomanPS-BoldMT-43" d="M 4272 4334 
L 4272 2866 
L 4150 2866 
Q 4013 3441 3638 3747 
Q 3263 4053 2788 4053 
Q 2391 4053 2059 3825 
Q 1728 3597 1575 3228 
Q 1378 2756 1378 2178 
Q 1378 1609 1522 1142 
Q 1666 675 1972 436 
Q 2278 197 2766 197 
Q 3166 197 3498 372 
Q 3831 547 4200 975 
L 4200 609 
Q 3844 238 3458 70 
Q 3072 -97 2556 -97 
Q 1878 -97 1351 175 
Q 825 447 539 956 
Q 253 1466 253 2041 
Q 253 2647 570 3190 
Q 888 3734 1427 4034 
Q 1966 4334 2572 4334 
Q 3019 4334 3516 4141 
Q 3803 4028 3881 4028 
Q 3981 4028 4054 4101 
Q 4128 4175 4150 4334 
L 4272 4334 
z
" transform="scale(0.015625)"/>
     <path id="TimesNewRomanPS-BoldMT-20" transform="scale(0.015625)"/>
     <path id="TimesNewRomanPS-BoldMT-5a" d="M 3906 4238 
L 1416 238 
L 2222 238 
Q 2794 238 3022 309 
Q 3394 422 3662 723 
Q 3931 1025 4034 1531 
L 4156 1531 
L 3984 0 
L 103 0 
L 2597 4006 
L 1969 4006 
Q 1603 4006 1488 3984 
Q 1269 3944 1076 3823 
Q 884 3703 757 3503 
Q 631 3303 559 2997 
L 444 2997 
L 559 4238 
L 3906 4238 
z
" transform="scale(0.015625)"/>
     <path id="TimesNewRomanPS-BoldMT-6f" d="M 1594 3009 
Q 1975 3009 2303 2812 
Q 2631 2616 2801 2253 
Q 2972 1891 2972 1459 
Q 2972 838 2656 419 
Q 2275 -88 1603 -88 
Q 944 -88 587 375 
Q 231 838 231 1447 
Q 231 2075 595 2542 
Q 959 3009 1594 3009 
z
M 1606 2788 
Q 1447 2788 1333 2667 
Q 1219 2547 1183 2192 
Q 1147 1838 1147 1206 
Q 1147 872 1191 581 
Q 1225 359 1337 243 
Q 1450 128 1594 128 
Q 1734 128 1828 206 
Q 1950 313 1991 503 
Q 2053 800 2053 1703 
Q 2053 2234 1993 2432 
Q 1934 2631 1819 2722 
Q 1738 2788 1606 2788 
z
" transform="scale(0.015625)"/>
     <path id="TimesNewRomanPS-BoldMT-6d" d="M 1428 2922 
L 1428 2538 
Q 1669 2800 1873 2904 
Q 2078 3009 2322 3009 
Q 2603 3009 2793 2878 
Q 2984 2747 3088 2478 
Q 3338 2759 3567 2884 
Q 3797 3009 4047 3009 
Q 4350 3009 4529 2870 
Q 4709 2731 4779 2517 
Q 4850 2303 4850 1834 
L 4850 638 
Q 4850 300 4911 219 
Q 4972 138 5166 113 
L 5166 0 
L 3656 0 
L 3656 113 
Q 3834 128 3919 250 
Q 3975 334 3975 638 
L 3975 1894 
Q 3975 2284 3944 2390 
Q 3913 2497 3845 2548 
Q 3778 2600 3688 2600 
Q 3553 2600 3415 2501 
Q 3278 2403 3138 2206 
L 3138 638 
Q 3138 322 3191 241 
Q 3263 125 3466 113 
L 3466 0 
L 1953 0 
L 1953 113 
Q 2075 119 2145 173 
Q 2216 228 2239 304 
Q 2263 381 2263 638 
L 2263 1894 
Q 2263 2291 2231 2391 
Q 2200 2491 2126 2547 
Q 2053 2603 1969 2603 
Q 1844 2603 1741 2538 
Q 1594 2441 1428 2206 
L 1428 638 
Q 1428 328 1489 229 
Q 1550 131 1744 113 
L 1744 0 
L 238 0 
L 238 113 
Q 422 131 500 231 
Q 553 300 553 638 
L 553 2288 
Q 553 2619 492 2700 
Q 431 2781 238 2806 
L 238 2922 
L 1428 2922 
z
" transform="scale(0.015625)"/>
    </defs>
    <use xlink:href="#TimesNewRomanPS-BoldMT-52"/>
    <use xlink:href="#TimesNewRomanPS-BoldMT-4f" transform="translate(72.216797 0)"/>
    <use xlink:href="#TimesNewRomanPS-BoldMT-43" transform="translate(150 0)"/>
    <use xlink:href="#TimesNewRomanPS-BoldMT-20" transform="translate(222.216797 0)"/>
    <use xlink:href="#TimesNewRomanPS-BoldMT-5a" transform="translate(247.216797 0)"/>
    <use xlink:href="#TimesNewRomanPS-BoldMT-6f" transform="translate(313.916016 0)"/>
    <use xlink:href="#TimesNewRomanPS-BoldMT-6f" transform="translate(363.916016 0)"/>
    <use xlink:href="#TimesNewRomanPS-BoldMT-6d" transform="translate(413.916016 0)"/>
   </g>
  </g>
 </g>
 <defs>
  <clipPath id="pe1cdba4bfd">
   <rect x="51.007656" y="11.36625" width="798.292344" height="523.726719"/>
  </clipPath>
 </defs>
</svg>
