<?xml version="1.0" encoding="utf-8" standalone="no"?>
<!DOCTYPE svg PUBLIC "-//W3C//DTD SVG 1.1//EN"
  "http://www.w3.org/Graphics/SVG/1.1/DTD/svg11.dtd">
<svg xmlns:xlink="http://www.w3.org/1999/xlink" width="527.964219pt" height="563.800313pt" viewBox="0 0 527.964219 563.800313" xmlns="http://www.w3.org/2000/svg" version="1.1">
 <metadata>
  <rdf:RDF xmlns:dc="http://purl.org/dc/elements/1.1/" xmlns:cc="http://creativecommons.org/ns#" xmlns:rdf="http://www.w3.org/1999/02/22-rdf-syntax-ns#">
   <cc:Work>
    <dc:type rdf:resource="http://purl.org/dc/dcmitype/StillImage"/>
    <dc:date>2026-01-16T10:53:53.777062</dc:date>
    <dc:format>image/svg+xml</dc:format>
    <dc:creator>
     <cc:Agent>
      <dc:title>Matplotlib v3.10.1, https://matplotlib.org/</dc:title>
     </cc:Agent>
    </dc:creator>
   </cc:Work>
  </rdf:RDF>
 </metadata>
 <defs>
  <style type="text/css">*{stroke-linejoin: round; stroke-linecap: butt}</style>
 </defs>
 <g id="figure_1">
  <g id="patch_1">
   <path d="M 0 563.800313 
L 527.964219 563.800313 
L 527.964219 -0 
L 0 -0 
z
" style="fill: #ffffff"/>
  </g>
  <g id="axes_1">
   <g id="patch_2">
    <path d="M 57.539219 515.52 
L 503.939219 515.52 
L 503.939219 72 
L 57.539219 72 
z
" style="fill: #ffffff"/>
   </g>
   <g id="matplotlib.axis_1">
    <g id="xtick_1">
     <g id="line2d_1">
      <path d="M 57.539219 515.52 
L 57.539219 72 
" clip-path="url(#p116125b8eb)" style="fill: none; stroke: #b0b0b0; stroke-opacity: 0.25; stroke-width: 0.8; stroke-linecap: square"/>
     </g>
     <g id="line2d_2">
      <defs>
       <path id="m88262c636a" d="M 0 0 
L 0 5 
" style="stroke: #000000"/>
      </defs>
      <g>
       <use xlink:href="#m88262c636a" x="57.539219" y="515.52" style="stroke: #000000"/>
      </g>
     </g>
     <g id="text_1">
      <!-- 0.00 -->
      <g transform="translate(47.914219 531.658125) scale(0.11 -0.11)">
       <defs>
        <path id="TimesNewRomanPSMT-30" d="M 231 2094 
Q 231 2819 450 3342 
Q 669 3866 1031 4122 
Q 1313 4325 1613 4325 
Q 2100 4325 2488 3828 
Q 2972 3213 2972 2159 
Q 2972 1422 2759 906 
Q 2547 391 2217 158 
Q 1888 -75 1581 -75 
Q 975 -75 572 641 
Q 231 1244 231 2094 
z
M 844 2016 
Q 844 1141 1059 588 
Q 1238 122 1591 122 
Q 1759 122 1940 273 
Q 2122 425 2216 781 
Q 2359 1319 2359 2297 
Q 2359 3022 2209 3506 
Q 2097 3866 1919 4016 
Q 1791 4119 1609 4119 
Q 1397 4119 1231 3928 
Q 1006 3669 925 3112 
Q 844 2556 844 2016 
z
" transform="scale(0.015625)"/>
        <path id="TimesNewRomanPSMT-2e" d="M 800 606 
Q 947 606 1047 504 
Q 1147 403 1147 259 
Q 1147 116 1045 14 
Q 944 -88 800 -88 
Q 656 -88 554 14 
Q 453 116 453 259 
Q 453 406 554 506 
Q 656 606 800 606 
z
" transform="scale(0.015625)"/>
       </defs>
       <use xlink:href="#TimesNewRomanPSMT-30"/>
       <use xlink:href="#TimesNewRomanPSMT-2e" transform="translate(50 0)"/>
       <use xlink:href="#TimesNewRomanPSMT-30" transform="translate(75 0)"/>
       <use xlink:href="#TimesNewRomanPSMT-30" transform="translate(125 0)"/>
      </g>
     </g>
    </g>
    <g id="xtick_2">
     <g id="line2d_3">
      <path d="M 131.939219 515.52 
L 131.939219 72 
" clip-path="url(#p116125b8eb)" style="fill: none; stroke: #b0b0b0; stroke-opacity: 0.25; stroke-width: 0.8; stroke-linecap: square"/>
     </g>
     <g id="line2d_4">
      <g>
       <use xlink:href="#m88262c636a" x="131.939219" y="515.52" style="stroke: #000000"/>
      </g>
     </g>
     <g id="text_2">
      <!-- 0.05 -->
      <g transform="translate(122.314219 531.658125) scale(0.11 -0.11)">
       <defs>
        <path id="TimesNewRomanPSMT-35" d="M 2778 4238 
L 2534 3706 
L 1259 3706 
L 981 3138 
Q 1809 3016 2294 2522 
Q 2709 2097 2709 1522 
Q 2709 1188 2573 903 
Q 2438 619 2231 419 
Q 2025 219 1772 97 
Q 1413 -75 1034 -75 
Q 653 -75 479 54 
Q 306 184 306 341 
Q 306 428 378 495 
Q 450 563 559 563 
Q 641 563 702 538 
Q 763 513 909 409 
Q 1144 247 1384 247 
Q 1750 247 2026 523 
Q 2303 800 2303 1197 
Q 2303 1581 2056 1914 
Q 1809 2247 1375 2428 
Q 1034 2569 447 2591 
L 1259 4238 
L 2778 4238 
z
" transform="scale(0.015625)"/>
       </defs>
       <use xlink:href="#TimesNewRomanPSMT-30"/>
       <use xlink:href="#TimesNewRomanPSMT-2e" transform="translate(50 0)"/>
       <use xlink:href="#TimesNewRomanPSMT-30" transform="translate(75 0)"/>
       <use xlink:href="#TimesNewRomanPSMT-35" transform="translate(125 0)"/>
      </g>
     </g>
    </g>
    <g id="xtick_3">
     <g id="line2d_5">
      <path d="M 206.339219 515.52 
L 206.339219 72 
" clip-path="url(#p116125b8eb)" style="fill: none; stroke: #b0b0b0; stroke-opacity: 0.25; stroke-width: 0.8; stroke-linecap: square"/>
     </g>
     <g id="line2d_6">
      <g>
       <use xlink:href="#m88262c636a" x="206.339219" y="515.52" style="stroke: #000000"/>
      </g>
     </g>
     <g id="text_3">
      <!-- 0.10 -->
      <g transform="translate(196.714219 531.658125) scale(0.11 -0.11)">
       <defs>
        <path id="TimesNewRomanPSMT-31" d="M 750 3822 
L 1781 4325 
L 1884 4325 
L 1884 747 
Q 1884 391 1914 303 
Q 1944 216 2037 169 
Q 2131 122 2419 116 
L 2419 0 
L 825 0 
L 825 116 
Q 1125 122 1212 167 
Q 1300 213 1334 289 
Q 1369 366 1369 747 
L 1369 3034 
Q 1369 3497 1338 3628 
Q 1316 3728 1258 3775 
Q 1200 3822 1119 3822 
Q 1003 3822 797 3725 
L 750 3822 
z
" transform="scale(0.015625)"/>
       </defs>
       <use xlink:href="#TimesNewRomanPSMT-30"/>
       <use xlink:href="#TimesNewRomanPSMT-2e" transform="translate(50 0)"/>
       <use xlink:href="#TimesNewRomanPSMT-31" transform="translate(75 0)"/>
       <use xlink:href="#TimesNewRomanPSMT-30" transform="translate(125 0)"/>
      </g>
     </g>
    </g>
    <g id="xtick_4">
     <g id="line2d_7">
      <path d="M 280.739219 515.52 
L 280.739219 72 
" clip-path="url(#p116125b8eb)" style="fill: none; stroke: #b0b0b0; stroke-opacity: 0.25; stroke-width: 0.8; stroke-linecap: square"/>
     </g>
     <g id="line2d_8">
      <g>
       <use xlink:href="#m88262c636a" x="280.739219" y="515.52" style="stroke: #000000"/>
      </g>
     </g>
     <g id="text_4">
      <!-- 0.15 -->
      <g transform="translate(271.114219 531.658125) scale(0.11 -0.11)">
       <use xlink:href="#TimesNewRomanPSMT-30"/>
       <use xlink:href="#TimesNewRomanPSMT-2e" transform="translate(50 0)"/>
       <use xlink:href="#TimesNewRomanPSMT-31" transform="translate(75 0)"/>
       <use xlink:href="#TimesNewRomanPSMT-35" transform="translate(125 0)"/>
      </g>
     </g>
    </g>
    <g id="xtick_5">
     <g id="line2d_9">
      <path d="M 355.139219 515.52 
L 355.139219 72 
" clip-path="url(#p116125b8eb)" style="fill: none; stroke: #b0b0b0; stroke-opacity: 0.25; stroke-width: 0.8; stroke-linecap: square"/>
     </g>
     <g id="line2d_10">
      <g>
       <use xlink:href="#m88262c636a" x="355.139219" y="515.52" style="stroke: #000000"/>
      </g>
     </g>
     <g id="text_5">
      <!-- 0.20 -->
      <g transform="translate(345.514219 531.658125) scale(0.11 -0.11)">
       <defs>
        <path id="TimesNewRomanPSMT-32" d="M 2934 816 
L 2638 0 
L 138 0 
L 138 116 
Q 1241 1122 1691 1759 
Q 2141 2397 2141 2925 
Q 2141 3328 1894 3587 
Q 1647 3847 1303 3847 
Q 991 3847 742 3664 
Q 494 3481 375 3128 
L 259 3128 
Q 338 3706 661 4015 
Q 984 4325 1469 4325 
Q 1984 4325 2329 3994 
Q 2675 3663 2675 3213 
Q 2675 2891 2525 2569 
Q 2294 2063 1775 1497 
Q 997 647 803 472 
L 1909 472 
Q 2247 472 2383 497 
Q 2519 522 2628 598 
Q 2738 675 2819 816 
L 2934 816 
z
" transform="scale(0.015625)"/>
       </defs>
       <use xlink:href="#TimesNewRomanPSMT-30"/>
       <use xlink:href="#TimesNewRomanPSMT-2e" transform="translate(50 0)"/>
       <use xlink:href="#TimesNewRomanPSMT-32" transform="translate(75 0)"/>
       <use xlink:href="#TimesNewRomanPSMT-30" transform="translate(125 0)"/>
      </g>
     </g>
    </g>
    <g id="xtick_6">
     <g id="line2d_11">
      <path d="M 429.539219 515.52 
L 429.539219 72 
" clip-path="url(#p116125b8eb)" style="fill: none; stroke: #b0b0b0; stroke-opacity: 0.25; stroke-width: 0.8; stroke-linecap: square"/>
     </g>
     <g id="line2d_12">
      <g>
       <use xlink:href="#m88262c636a" x="429.539219" y="515.52" style="stroke: #000000"/>
      </g>
     </g>
     <g id="text_6">
      <!-- 0.25 -->
      <g transform="translate(419.914219 531.658125) scale(0.11 -0.11)">
       <use xlink:href="#TimesNewRomanPSMT-30"/>
       <use xlink:href="#TimesNewRomanPSMT-2e" transform="translate(50 0)"/>
       <use xlink:href="#TimesNewRomanPSMT-32" transform="translate(75 0)"/>
       <use xlink:href="#TimesNewRomanPSMT-35" transform="translate(125 0)"/>
      </g>
     </g>
    </g>
    <g id="xtick_7">
     <g id="line2d_13">
      <path d="M 503.939219 515.52 
L 503.939219 72 
" clip-path="url(#p116125b8eb)" style="fill: none; stroke: #b0b0b0; stroke-opacity: 0.25; stroke-width: 0.8; stroke-linecap: square"/>
     </g>
     <g id="line2d_14">
      <g>
       <use xlink:href="#m88262c636a" x="503.939219" y="515.52" style="stroke: #000000"/>
      </g>
     </g>
     <g id="text_7">
      <!-- 0.30 -->
      <g transform="translate(494.314219 531.658125) scale(0.11 -0.11)">
       <defs>
        <path id="TimesNewRomanPSMT-33" d="M 325 3431 
Q 506 3859 782 4092 
Q 1059 4325 1472 4325 
Q 1981 4325 2253 3994 
Q 2459 3747 2459 3466 
Q 2459 3003 1878 2509 
Q 2269 2356 2469 2072 
Q 2669 1788 2669 1403 
Q 2669 853 2319 450 
Q 1863 -75 997 -75 
Q 569 -75 414 31 
Q 259 138 259 259 
Q 259 350 332 419 
Q 406 488 509 488 
Q 588 488 669 463 
Q 722 447 909 348 
Q 1097 250 1169 231 
Q 1284 197 1416 197 
Q 1734 197 1970 444 
Q 2206 691 2206 1028 
Q 2206 1275 2097 1509 
Q 2016 1684 1919 1775 
Q 1784 1900 1550 2001 
Q 1316 2103 1072 2103 
L 972 2103 
L 972 2197 
Q 1219 2228 1467 2375 
Q 1716 2522 1828 2728 
Q 1941 2934 1941 3181 
Q 1941 3503 1739 3701 
Q 1538 3900 1238 3900 
Q 753 3900 428 3381 
L 325 3431 
z
" transform="scale(0.015625)"/>
       </defs>
       <use xlink:href="#TimesNewRomanPSMT-30"/>
       <use xlink:href="#TimesNewRomanPSMT-2e" transform="translate(50 0)"/>
       <use xlink:href="#TimesNewRomanPSMT-33" transform="translate(75 0)"/>
       <use xlink:href="#TimesNewRomanPSMT-30" transform="translate(125 0)"/>
      </g>
     </g>
    </g>
    <g id="text_8">
     <!-- FPR -->
     <g transform="translate(268.104844 546.619531) scale(0.13 -0.13)">
      <defs>
       <path id="TimesNewRomanPS-BoldMT-46" d="M 1759 3994 
L 1759 2253 
L 1881 2253 
Q 2163 2253 2341 2337 
Q 2519 2422 2642 2622 
Q 2766 2822 2803 3163 
L 2913 3163 
L 2913 1034 
L 2803 1034 
Q 2744 1638 2480 1830 
Q 2216 2022 1881 2022 
L 1759 2022 
L 1759 725 
Q 1759 400 1795 319 
Q 1831 238 1936 177 
Q 2041 116 2219 116 
L 2359 116 
L 2359 0 
L 144 0 
L 144 116 
L 284 116 
Q 469 116 581 181 
Q 663 225 706 331 
Q 741 406 741 725 
L 741 3513 
Q 741 3838 706 3919 
Q 672 4000 567 4061 
Q 463 4122 284 4122 
L 144 4122 
L 144 4238 
L 3719 4238 
L 3719 3022 
L 3591 3022 
Q 3547 3450 3367 3656 
Q 3188 3863 2847 3947 
Q 2659 3994 2153 3994 
L 1759 3994 
z
" transform="scale(0.015625)"/>
       <path id="TimesNewRomanPS-BoldMT-50" d="M 1728 1919 
L 1728 744 
Q 1728 400 1770 311 
Q 1813 222 1920 169 
Q 2028 116 2316 116 
L 2316 0 
L 163 0 
L 163 116 
Q 456 116 561 170 
Q 666 225 708 312 
Q 750 400 750 744 
L 750 3494 
Q 750 3838 708 3927 
Q 666 4016 559 4069 
Q 453 4122 163 4122 
L 163 4238 
L 2009 4238 
Q 2922 4238 3319 3913 
Q 3716 3588 3716 3100 
Q 3716 2688 3459 2394 
Q 3203 2100 2753 1994 
Q 2450 1919 1728 1919 
z
M 1728 3994 
L 1728 2163 
Q 1831 2156 1884 2156 
Q 2266 2156 2472 2382 
Q 2678 2609 2678 3084 
Q 2678 3556 2472 3775 
Q 2266 3994 1856 3994 
L 1728 3994 
z
" transform="scale(0.015625)"/>
       <path id="TimesNewRomanPS-BoldMT-52" d="M 1700 1931 
L 1700 744 
Q 1700 400 1742 311 
Q 1784 222 1890 169 
Q 1997 116 2288 116 
L 2288 0 
L 119 0 
L 119 116 
Q 413 116 517 170 
Q 622 225 664 312 
Q 706 400 706 744 
L 706 3494 
Q 706 3838 664 3927 
Q 622 4016 515 4069 
Q 409 4122 119 4122 
L 119 4238 
L 2088 4238 
Q 2856 4238 3212 4131 
Q 3569 4025 3794 3739 
Q 4019 3453 4019 3069 
Q 4019 2600 3681 2294 
Q 3466 2100 3078 2003 
L 4097 569 
Q 4297 291 4381 222 
Q 4509 125 4678 116 
L 4678 0 
L 3344 0 
L 1978 1931 
L 1700 1931 
z
M 1700 4009 
L 1700 2153 
L 1878 2153 
Q 2313 2153 2528 2233 
Q 2744 2313 2867 2520 
Q 2991 2728 2991 3063 
Q 2991 3547 2764 3778 
Q 2538 4009 2034 4009 
L 1700 4009 
z
" transform="scale(0.015625)"/>
      </defs>
      <use xlink:href="#TimesNewRomanPS-BoldMT-46"/>
      <use xlink:href="#TimesNewRomanPS-BoldMT-50" transform="translate(61.083984 0)"/>
      <use xlink:href="#TimesNewRomanPS-BoldMT-52" transform="translate(122.167969 0)"/>
     </g>
    </g>
   </g>
   <g id="matplotlib.axis_2">
    <g id="ytick_1">
     <g id="line2d_15">
      <path d="M 57.539219 515.52 
L 503.939219 515.52 
" clip-path="url(#p116125b8eb)" style="fill: none; stroke: #b0b0b0; stroke-opacity: 0.25; stroke-width: 0.8; stroke-linecap: square"/>
     </g>
     <g id="line2d_16">
      <defs>
       <path id="m2a504e7fcf" d="M 0 0 
L -5 0 
" style="stroke: #000000"/>
      </defs>
      <g>
       <use xlink:href="#m2a504e7fcf" x="57.539219" y="515.52" style="stroke: #000000"/>
      </g>
     </g>
     <g id="text_9">
      <!-- 0.70 -->
      <g transform="translate(29.789219 519.339062) scale(0.11 -0.11)">
       <defs>
        <path id="TimesNewRomanPSMT-37" d="M 644 4238 
L 2916 4238 
L 2916 4119 
L 1503 -88 
L 1153 -88 
L 2419 3728 
L 1253 3728 
Q 900 3728 750 3644 
Q 488 3500 328 3200 
L 238 3234 
L 644 4238 
z
" transform="scale(0.015625)"/>
       </defs>
       <use xlink:href="#TimesNewRomanPSMT-30"/>
       <use xlink:href="#TimesNewRomanPSMT-2e" transform="translate(50 0)"/>
       <use xlink:href="#TimesNewRomanPSMT-37" transform="translate(75 0)"/>
       <use xlink:href="#TimesNewRomanPSMT-30" transform="translate(125 0)"/>
      </g>
     </g>
    </g>
    <g id="ytick_2">
     <g id="line2d_17">
      <path d="M 57.539219 441.6 
L 503.939219 441.6 
" clip-path="url(#p116125b8eb)" style="fill: none; stroke: #b0b0b0; stroke-opacity: 0.25; stroke-width: 0.8; stroke-linecap: square"/>
     </g>
     <g id="line2d_18">
      <g>
       <use xlink:href="#m2a504e7fcf" x="57.539219" y="441.6" style="stroke: #000000"/>
      </g>
     </g>
     <g id="text_10">
      <!-- 0.75 -->
      <g transform="translate(29.789219 445.419062) scale(0.11 -0.11)">
       <use xlink:href="#TimesNewRomanPSMT-30"/>
       <use xlink:href="#TimesNewRomanPSMT-2e" transform="translate(50 0)"/>
       <use xlink:href="#TimesNewRomanPSMT-37" transform="translate(75 0)"/>
       <use xlink:href="#TimesNewRomanPSMT-35" transform="translate(125 0)"/>
      </g>
     </g>
    </g>
    <g id="ytick_3">
     <g id="line2d_19">
      <path d="M 57.539219 367.68 
L 503.939219 367.68 
" clip-path="url(#p116125b8eb)" style="fill: none; stroke: #b0b0b0; stroke-opacity: 0.25; stroke-width: 0.8; stroke-linecap: square"/>
     </g>
     <g id="line2d_20">
      <g>
       <use xlink:href="#m2a504e7fcf" x="57.539219" y="367.68" style="stroke: #000000"/>
      </g>
     </g>
     <g id="text_11">
      <!-- 0.80 -->
      <g transform="translate(29.789219 371.499062) scale(0.11 -0.11)">
       <defs>
        <path id="TimesNewRomanPSMT-38" d="M 1228 2134 
Q 725 2547 579 2797 
Q 434 3047 434 3316 
Q 434 3728 753 4026 
Q 1072 4325 1600 4325 
Q 2113 4325 2425 4047 
Q 2738 3769 2738 3413 
Q 2738 3175 2569 2928 
Q 2400 2681 1866 2347 
Q 2416 1922 2594 1678 
Q 2831 1359 2831 1006 
Q 2831 559 2490 242 
Q 2150 -75 1597 -75 
Q 994 -75 656 303 
Q 388 606 388 966 
Q 388 1247 577 1523 
Q 766 1800 1228 2134 
z
M 1719 2469 
Q 2094 2806 2194 3001 
Q 2294 3197 2294 3444 
Q 2294 3772 2109 3958 
Q 1925 4144 1606 4144 
Q 1288 4144 1088 3959 
Q 888 3775 888 3528 
Q 888 3366 970 3203 
Q 1053 3041 1206 2894 
L 1719 2469 
z
M 1375 2016 
Q 1116 1797 991 1539 
Q 866 1281 866 981 
Q 866 578 1086 336 
Q 1306 94 1647 94 
Q 1984 94 2187 284 
Q 2391 475 2391 747 
Q 2391 972 2272 1150 
Q 2050 1481 1375 2016 
z
" transform="scale(0.015625)"/>
       </defs>
       <use xlink:href="#TimesNewRomanPSMT-30"/>
       <use xlink:href="#TimesNewRomanPSMT-2e" transform="translate(50 0)"/>
       <use xlink:href="#TimesNewRomanPSMT-38" transform="translate(75 0)"/>
       <use xlink:href="#TimesNewRomanPSMT-30" transform="translate(125 0)"/>
      </g>
     </g>
    </g>
    <g id="ytick_4">
     <g id="line2d_21">
      <path d="M 57.539219 293.76 
L 503.939219 293.76 
" clip-path="url(#p116125b8eb)" style="fill: none; stroke: #b0b0b0; stroke-opacity: 0.25; stroke-width: 0.8; stroke-linecap: square"/>
     </g>
     <g id="line2d_22">
      <g>
       <use xlink:href="#m2a504e7fcf" x="57.539219" y="293.76" style="stroke: #000000"/>
      </g>
     </g>
     <g id="text_12">
      <!-- 0.85 -->
      <g transform="translate(29.789219 297.579062) scale(0.11 -0.11)">
       <use xlink:href="#TimesNewRomanPSMT-30"/>
       <use xlink:href="#TimesNewRomanPSMT-2e" transform="translate(50 0)"/>
       <use xlink:href="#TimesNewRomanPSMT-38" transform="translate(75 0)"/>
       <use xlink:href="#TimesNewRomanPSMT-35" transform="translate(125 0)"/>
      </g>
     </g>
    </g>
    <g id="ytick_5">
     <g id="line2d_23">
      <path d="M 57.539219 219.84 
L 503.939219 219.84 
" clip-path="url(#p116125b8eb)" style="fill: none; stroke: #b0b0b0; stroke-opacity: 0.25; stroke-width: 0.8; stroke-linecap: square"/>
     </g>
     <g id="line2d_24">
      <g>
       <use xlink:href="#m2a504e7fcf" x="57.539219" y="219.84" style="stroke: #000000"/>
      </g>
     </g>
     <g id="text_13">
      <!-- 0.90 -->
      <g transform="translate(29.789219 223.659062) scale(0.11 -0.11)">
       <defs>
        <path id="TimesNewRomanPSMT-39" d="M 338 -88 
L 338 28 
Q 744 34 1094 217 
Q 1444 400 1770 856 
Q 2097 1313 2225 1859 
Q 1734 1544 1338 1544 
Q 891 1544 572 1889 
Q 253 2234 253 2806 
Q 253 3363 572 3797 
Q 956 4325 1575 4325 
Q 2097 4325 2469 3894 
Q 2925 3359 2925 2575 
Q 2925 1869 2578 1258 
Q 2231 647 1613 244 
Q 1109 -88 516 -88 
L 338 -88 
z
M 2275 2091 
Q 2331 2497 2331 2741 
Q 2331 3044 2228 3395 
Q 2125 3747 1936 3934 
Q 1747 4122 1506 4122 
Q 1228 4122 1018 3872 
Q 809 3622 809 3128 
Q 809 2469 1088 2097 
Q 1291 1828 1588 1828 
Q 1731 1828 1928 1897 
Q 2125 1966 2275 2091 
z
" transform="scale(0.015625)"/>
       </defs>
       <use xlink:href="#TimesNewRomanPSMT-30"/>
       <use xlink:href="#TimesNewRomanPSMT-2e" transform="translate(50 0)"/>
       <use xlink:href="#TimesNewRomanPSMT-39" transform="translate(75 0)"/>
       <use xlink:href="#TimesNewRomanPSMT-30" transform="translate(125 0)"/>
      </g>
     </g>
    </g>
    <g id="ytick_6">
     <g id="line2d_25">
      <path d="M 57.539219 145.92 
L 503.939219 145.92 
" clip-path="url(#p116125b8eb)" style="fill: none; stroke: #b0b0b0; stroke-opacity: 0.25; stroke-width: 0.8; stroke-linecap: square"/>
     </g>
     <g id="line2d_26">
      <g>
       <use xlink:href="#m2a504e7fcf" x="57.539219" y="145.92" style="stroke: #000000"/>
      </g>
     </g>
     <g id="text_14">
      <!-- 0.95 -->
      <g transform="translate(29.789219 149.739062) scale(0.11 -0.11)">
       <use xlink:href="#TimesNewRomanPSMT-30"/>
       <use xlink:href="#TimesNewRomanPSMT-2e" transform="translate(50 0)"/>
       <use xlink:href="#TimesNewRomanPSMT-39" transform="translate(75 0)"/>
       <use xlink:href="#TimesNewRomanPSMT-35" transform="translate(125 0)"/>
      </g>
     </g>
    </g>
    <g id="ytick_7">
     <g id="line2d_27">
      <path d="M 57.539219 72 
L 503.939219 72 
" clip-path="url(#p116125b8eb)" style="fill: none; stroke: #b0b0b0; stroke-opacity: 0.25; stroke-width: 0.8; stroke-linecap: square"/>
     </g>
     <g id="line2d_28">
      <g>
       <use xlink:href="#m2a504e7fcf" x="57.539219" y="72" style="stroke: #000000"/>
      </g>
     </g>
     <g id="text_15">
      <!-- 1.00 -->
      <g transform="translate(29.789219 75.819062) scale(0.11 -0.11)">
       <use xlink:href="#TimesNewRomanPSMT-31"/>
       <use xlink:href="#TimesNewRomanPSMT-2e" transform="translate(50 0)"/>
       <use xlink:href="#TimesNewRomanPSMT-30" transform="translate(75 0)"/>
       <use xlink:href="#TimesNewRomanPSMT-30" transform="translate(125 0)"/>
      </g>
     </g>
    </g>
    <g id="text_16">
     <!-- TPR -->
     <g transform="translate(23.008438 306.76) rotate(-90) scale(0.13 -0.13)">
      <defs>
       <path id="TimesNewRomanPS-BoldMT-54" d="M 4038 4238 
L 4038 3091 
L 3925 3091 
Q 3825 3488 3703 3661 
Q 3581 3834 3369 3938 
Q 3250 3994 2953 3994 
L 2638 3994 
L 2638 725 
Q 2638 400 2673 319 
Q 2709 238 2814 177 
Q 2919 116 3100 116 
L 3241 116 
L 3241 0 
L 1022 0 
L 1022 116 
L 1163 116 
Q 1347 116 1459 181 
Q 1541 225 1588 331 
Q 1622 406 1622 725 
L 1622 3994 
L 1316 3994 
Q 888 3994 694 3813 
Q 422 3559 350 3091 
L 231 3091 
L 231 4238 
L 4038 4238 
z
" transform="scale(0.015625)"/>
      </defs>
      <use xlink:href="#TimesNewRomanPS-BoldMT-54"/>
      <use xlink:href="#TimesNewRomanPS-BoldMT-50" transform="translate(66.699219 0)"/>
      <use xlink:href="#TimesNewRomanPS-BoldMT-52" transform="translate(127.783203 0)"/>
     </g>
    </g>
   </g>
   <g id="line2d_29">
    <path d="M 122.724341 564.800313 
L 124.44831 556.248156 
L 124.44831 530.592625 
L 133.175582 495.316269 
L 134.630128 479.281562 
L 140.44831 469.660738 
L 143.357401 453.62603 
L 147.721037 444.005206 
L 149.175582 437.591323 
L 152.084673 405.521909 
L 159.357401 389.487202 
L 169.539219 367.038612 
L 169.539219 354.210846 
L 176.811946 344.590022 
L 181.175582 338.176139 
L 181.175582 328.555315 
L 182.630128 312.520607 
L 185.539219 299.692842 
L 185.539219 293.278959 
L 186.993764 286.865076 
L 189.902855 270.830369 
L 192.811946 258.002603 
L 198.630128 248.381779 
L 201.539219 235.554013 
L 202.993764 232.347072 
L 202.993764 229.14013 
L 207.357401 225.933189 
L 210.266491 213.105423 
L 210.266491 206.69154 
L 211.721037 206.69154 
L 213.175582 203.484599 
L 218.993764 200.277657 
L 221.902855 197.070716 
L 223.357401 197.070716 
L 227.721037 193.863774 
L 229.175582 187.449892 
L 230.630128 184.24295 
L 230.630128 181.036009 
L 232.084673 177.829067 
L 236.44831 174.622126 
L 242.266491 168.208243 
L 248.084673 168.208243 
L 250.993764 168.208243 
L 261.175582 165.001302 
L 265.539219 165.001302 
L 272.811946 161.79436 
L 277.175582 161.79436 
L 280.084673 155.380477 
L 293.175582 155.380477 
L 303.357401 155.380477 
L 309.175582 148.966594 
L 317.902855 148.966594 
L 325.175582 145.759653 
L 333.902855 142.552711 
L 339.721037 142.552711 
L 349.902855 139.34577 
L 360.084673 139.34577 
L 367.357401 136.138829 
L 378.993764 136.138829 
L 383.357401 132.931887 
L 392.084673 132.931887 
L 406.630128 129.724946 
L 422.630128 126.518004 
L 442.993764 120.104121 
L 456.084673 116.89718 
L 464.811946 110.483297 
L 474.993764 104.069414 
L 496.811946 104.069414 
L 514.266491 97.655531 
L 528.964219 96.455341 
" clip-path="url(#p116125b8eb)" style="fill: none; stroke: #2e86ab; stroke-width: 2; stroke-linecap: square"/>
   </g>
   <g id="line2d_30">
    <path d="M 109.902855 564.800313 
L 109.902855 530.592625 
L 111.357401 530.592625 
L 111.357401 520.9718 
L 114.266491 520.9718 
L 114.266491 517.764859 
L 117.175582 517.764859 
L 117.175582 514.557918 
L 118.630128 514.557918 
L 118.630128 498.52321 
L 120.084673 498.52321 
L 120.084673 479.281562 
L 121.539219 479.281562 
L 121.539219 476.07462 
L 122.993764 476.07462 
L 122.993764 444.005206 
L 124.44831 444.005206 
L 124.44831 440.798265 
L 125.902855 440.798265 
L 125.902855 437.591323 
L 130.266491 437.591323 
L 130.266491 424.763557 
L 131.721037 424.763557 
L 131.721037 418.349675 
L 133.175582 418.349675 
L 133.175582 415.142733 
L 136.084673 415.142733 
L 136.084673 408.72885 
L 137.539219 408.72885 
L 137.539219 402.314967 
L 140.44831 402.314967 
L 140.44831 399.108026 
L 141.902855 399.108026 
L 141.902855 395.901085 
L 143.357401 395.901085 
L 143.357401 386.28026 
L 146.266491 386.28026 
L 146.266491 383.073319 
L 150.630128 383.073319 
L 150.630128 379.866377 
L 152.084673 379.866377 
L 152.084673 370.245553 
L 153.539219 370.245553 
L 153.539219 367.038612 
L 156.44831 367.038612 
L 156.44831 363.83167 
L 162.266491 363.83167 
L 162.266491 344.590022 
L 166.630128 344.590022 
L 166.630128 338.176139 
L 168.084673 338.176139 
L 168.084673 331.762256 
L 170.993764 331.762256 
L 170.993764 315.727549 
L 172.44831 315.727549 
L 172.44831 306.106725 
L 173.902855 306.106725 
L 173.902855 302.899783 
L 176.811946 302.899783 
L 176.811946 299.692842 
L 179.721037 299.692842 
L 179.721037 293.278959 
L 181.175582 293.278959 
L 181.175582 280.451193 
L 182.630128 280.451193 
L 182.630128 264.416486 
L 188.44831 264.416486 
L 188.44831 254.795662 
L 189.902855 254.795662 
L 189.902855 248.381779 
L 191.357401 248.381779 
L 191.357401 241.967896 
L 194.266491 241.967896 
L 194.266491 232.347072 
L 197.175582 232.347072 
L 197.175582 229.14013 
L 200.084673 229.14013 
L 200.084673 225.933189 
L 202.993764 225.933189 
L 202.993764 219.519306 
L 207.357401 219.519306 
L 207.357401 203.484599 
L 210.266491 203.484599 
L 210.266491 200.277657 
L 217.539219 200.277657 
L 217.539219 197.070716 
L 221.902855 197.070716 
L 221.902855 193.863774 
L 230.630128 193.863774 
L 230.630128 190.656833 
L 239.357401 190.656833 
L 239.357401 187.449892 
L 242.266491 187.449892 
L 242.266491 184.24295 
L 245.175582 184.24295 
L 245.175582 181.036009 
L 246.630128 181.036009 
L 246.630128 177.829067 
L 250.993764 177.829067 
L 250.993764 174.622126 
L 261.175582 174.622126 
L 261.175582 171.415184 
L 264.084673 171.415184 
L 264.084673 168.208243 
L 266.993764 168.208243 
L 266.993764 161.79436 
L 272.811946 161.79436 
L 272.811946 158.587419 
L 274.266491 158.587419 
L 274.266491 155.380477 
L 277.175582 155.380477 
L 277.175582 152.173536 
L 293.175582 152.173536 
L 293.175582 148.966594 
L 294.630128 148.966594 
L 294.630128 142.552711 
L 297.539219 142.552711 
L 297.539219 139.34577 
L 300.44831 139.34577 
L 300.44831 132.931887 
L 304.811946 132.931887 
L 304.811946 129.724946 
L 312.084673 129.724946 
L 312.084673 126.518004 
L 323.721037 126.518004 
L 323.721037 123.311063 
L 339.721037 123.311063 
L 339.721037 120.104121 
L 362.993764 120.104121 
L 362.993764 116.89718 
L 368.811946 116.89718 
L 368.811946 113.690239 
L 380.44831 113.690239 
L 380.44831 110.483297 
L 383.357401 110.483297 
L 383.357401 107.276356 
L 390.630128 107.276356 
L 390.630128 104.069414 
L 511.357401 104.069414 
L 511.357401 100.862473 
L 518.630128 100.862473 
L 518.630128 97.655531 
L 528.964219 97.655531 
L 528.964219 97.655531 
" clip-path="url(#p116125b8eb)" style="fill: none; stroke: #f18f01; stroke-width: 2; stroke-linecap: square"/>
   </g>
   <g id="line2d_31">
    <path d="M 121.539219 564.800313 
L 121.539219 553.041215 
L 122.993764 553.041215 
L 122.993764 540.213449 
L 125.902855 540.213449 
L 125.902855 517.764859 
L 127.357401 517.764859 
L 127.357401 504.937093 
L 134.630128 504.937093 
L 134.630128 501.730152 
L 137.539219 501.730152 
L 137.539219 488.902386 
L 138.993764 488.902386 
L 138.993764 476.07462 
L 140.44831 476.07462 
L 140.44831 469.660738 
L 141.902855 469.660738 
L 141.902855 463.246855 
L 143.357401 463.246855 
L 143.357401 447.212148 
L 146.266491 447.212148 
L 146.266491 434.384382 
L 147.721037 434.384382 
L 147.721037 418.349675 
L 149.175582 418.349675 
L 149.175582 411.935792 
L 150.630128 411.935792 
L 150.630128 402.314967 
L 152.084673 402.314967 
L 152.084673 395.901085 
L 153.539219 395.901085 
L 153.539219 389.487202 
L 156.44831 389.487202 
L 156.44831 383.073319 
L 157.902855 383.073319 
L 157.902855 376.659436 
L 159.357401 376.659436 
L 159.357401 373.452495 
L 160.811946 373.452495 
L 160.811946 367.038612 
L 163.721037 367.038612 
L 163.721037 357.417787 
L 165.175582 357.417787 
L 165.175582 354.210846 
L 166.630128 354.210846 
L 166.630128 347.796963 
L 170.993764 347.796963 
L 170.993764 344.590022 
L 175.357401 344.590022 
L 175.357401 338.176139 
L 176.811946 338.176139 
L 176.811946 331.762256 
L 181.175582 331.762256 
L 181.175582 325.348373 
L 182.630128 325.348373 
L 182.630128 318.93449 
L 184.084673 318.93449 
L 184.084673 312.520607 
L 185.539219 312.520607 
L 185.539219 302.899783 
L 186.993764 302.899783 
L 186.993764 290.072017 
L 188.44831 290.072017 
L 188.44831 286.865076 
L 189.902855 286.865076 
L 189.902855 283.658134 
L 191.357401 283.658134 
L 191.357401 274.03731 
L 194.266491 274.03731 
L 194.266491 258.002603 
L 195.721037 258.002603 
L 195.721037 251.58872 
L 198.630128 251.58872 
L 198.630128 245.174837 
L 201.539219 245.174837 
L 201.539219 241.967896 
L 202.993764 241.967896 
L 202.993764 238.760954 
L 205.902855 238.760954 
L 205.902855 235.554013 
L 210.266491 235.554013 
L 210.266491 232.347072 
L 213.175582 232.347072 
L 213.175582 225.933189 
L 214.630128 225.933189 
L 214.630128 222.726247 
L 217.539219 222.726247 
L 217.539219 219.519306 
L 221.902855 219.519306 
L 221.902855 216.312364 
L 224.811946 216.312364 
L 224.811946 213.105423 
L 227.721037 213.105423 
L 227.721037 206.69154 
L 236.44831 206.69154 
L 236.44831 197.070716 
L 237.902855 197.070716 
L 237.902855 193.863774 
L 246.630128 193.863774 
L 246.630128 190.656833 
L 250.993764 190.656833 
L 250.993764 187.449892 
L 262.630128 187.449892 
L 262.630128 184.24295 
L 264.084673 184.24295 
L 264.084673 181.036009 
L 268.44831 181.036009 
L 268.44831 177.829067 
L 287.357401 177.829067 
L 287.357401 174.622126 
L 290.266491 174.622126 
L 290.266491 171.415184 
L 291.721037 171.415184 
L 291.721037 168.208243 
L 293.175582 168.208243 
L 293.175582 161.79436 
L 298.993764 161.79436 
L 298.993764 155.380477 
L 304.811946 155.380477 
L 304.811946 148.966594 
L 307.721037 148.966594 
L 307.721037 145.759653 
L 310.630128 145.759653 
L 310.630128 142.552711 
L 319.357401 142.552711 
L 319.357401 139.34577 
L 338.266491 139.34577 
L 338.266491 136.138829 
L 351.357401 136.138829 
L 351.357401 132.931887 
L 371.721037 132.931887 
L 371.721037 129.724946 
L 373.175582 129.724946 
L 373.175582 126.518004 
L 374.630128 126.518004 
L 374.630128 123.311063 
L 406.630128 123.311063 
L 406.630128 120.104121 
L 450.266491 120.104121 
L 450.266491 116.89718 
L 458.993764 116.89718 
L 458.993764 113.690239 
L 460.44831 113.690239 
L 460.44831 110.483297 
L 472.084673 110.483297 
L 472.084673 107.276356 
L 486.630128 107.276356 
L 486.630128 104.069414 
L 492.44831 104.069414 
L 492.44831 100.862473 
L 528.964219 100.862473 
L 528.964219 100.862473 
" clip-path="url(#p116125b8eb)" style="fill: none; stroke: #c73e1d; stroke-width: 2; stroke-linecap: square"/>
   </g>
   <g id="line2d_32">
    <path d="M 106.993764 564.800313 
L 106.993764 553.041215 
L 108.44831 553.041215 
L 108.44831 537.006508 
L 109.902855 537.006508 
L 109.902855 530.592625 
L 111.357401 530.592625 
L 111.357401 520.9718 
L 112.811946 520.9718 
L 112.811946 517.764859 
L 115.721037 517.764859 
L 115.721037 514.557918 
L 117.175582 514.557918 
L 117.175582 504.937093 
L 120.084673 504.937093 
L 120.084673 482.488503 
L 121.539219 482.488503 
L 121.539219 479.281562 
L 124.44831 479.281562 
L 124.44831 469.660738 
L 125.902855 469.660738 
L 125.902855 466.453796 
L 130.266491 466.453796 
L 130.266491 460.039913 
L 131.721037 460.039913 
L 131.721037 456.832972 
L 134.630128 456.832972 
L 134.630128 431.17744 
L 136.084673 431.17744 
L 136.084673 427.970499 
L 138.993764 427.970499 
L 138.993764 424.763557 
L 141.902855 424.763557 
L 141.902855 421.556616 
L 143.357401 421.556616 
L 143.357401 418.349675 
L 144.811946 418.349675 
L 144.811946 402.314967 
L 149.175582 402.314967 
L 149.175582 383.073319 
L 150.630128 383.073319 
L 150.630128 379.866377 
L 153.539219 379.866377 
L 153.539219 370.245553 
L 154.993764 370.245553 
L 154.993764 360.624729 
L 159.357401 360.624729 
L 159.357401 341.38308 
L 160.811946 341.38308 
L 160.811946 334.969197 
L 162.266491 334.969197 
L 162.266491 331.762256 
L 163.721037 331.762256 
L 163.721037 328.555315 
L 166.630128 328.555315 
L 166.630128 322.141432 
L 168.084673 322.141432 
L 168.084673 318.93449 
L 170.993764 318.93449 
L 170.993764 315.727549 
L 172.44831 315.727549 
L 172.44831 309.313666 
L 182.630128 309.313666 
L 182.630128 299.692842 
L 189.902855 299.692842 
L 189.902855 290.072017 
L 191.357401 290.072017 
L 191.357401 286.865076 
L 200.084673 286.865076 
L 200.084673 283.658134 
L 204.44831 283.658134 
L 204.44831 274.03731 
L 213.175582 274.03731 
L 213.175582 267.623427 
L 214.630128 267.623427 
L 214.630128 264.416486 
L 217.539219 264.416486 
L 217.539219 254.795662 
L 226.266491 254.795662 
L 226.266491 251.58872 
L 227.721037 251.58872 
L 227.721037 245.174837 
L 229.175582 245.174837 
L 229.175582 238.760954 
L 233.539219 238.760954 
L 233.539219 232.347072 
L 234.993764 232.347072 
L 234.993764 229.14013 
L 237.902855 229.14013 
L 237.902855 222.726247 
L 246.630128 222.726247 
L 246.630128 219.519306 
L 249.539219 219.519306 
L 249.539219 213.105423 
L 250.993764 213.105423 
L 250.993764 206.69154 
L 258.266491 206.69154 
L 258.266491 197.070716 
L 261.175582 197.070716 
L 261.175582 193.863774 
L 262.630128 193.863774 
L 262.630128 190.656833 
L 264.084673 190.656833 
L 264.084673 184.24295 
L 268.44831 184.24295 
L 268.44831 181.036009 
L 269.902855 181.036009 
L 269.902855 174.622126 
L 282.993764 174.622126 
L 282.993764 171.415184 
L 287.357401 171.415184 
L 287.357401 168.208243 
L 290.266491 168.208243 
L 290.266491 165.001302 
L 310.630128 165.001302 
L 310.630128 161.79436 
L 313.539219 161.79436 
L 313.539219 158.587419 
L 330.993764 158.587419 
L 330.993764 155.380477 
L 338.266491 155.380477 
L 338.266491 152.173536 
L 339.721037 152.173536 
L 339.721037 148.966594 
L 349.902855 148.966594 
L 349.902855 142.552711 
L 355.721037 142.552711 
L 355.721037 139.34577 
L 362.993764 139.34577 
L 362.993764 129.724946 
L 364.44831 129.724946 
L 364.44831 126.518004 
L 383.357401 126.518004 
L 383.357401 123.311063 
L 421.175582 123.311063 
L 421.175582 120.104121 
L 432.811946 120.104121 
L 432.811946 116.89718 
L 456.084673 116.89718 
L 456.084673 113.690239 
L 476.44831 113.690239 
L 476.44831 110.483297 
L 485.175582 110.483297 
L 485.175582 107.276356 
L 528.964219 107.276356 
L 528.964219 107.276356 
" clip-path="url(#p116125b8eb)" style="fill: none; stroke: #4a90a4; stroke-width: 2; stroke-linecap: square"/>
   </g>
   <g id="line2d_33">
    <path d="M 118.630128 564.800313 
L 118.630128 556.248156 
L 120.084673 556.248156 
L 120.084673 553.041215 
L 121.539219 553.041215 
L 121.539219 549.834273 
L 122.993764 549.834273 
L 122.993764 537.006508 
L 125.902855 537.006508 
L 127.357401 533.799566 
L 127.357401 524.178742 
L 128.811946 524.178742 
L 128.811946 508.144035 
L 130.266491 508.144035 
L 131.721037 504.937093 
L 131.721037 501.730152 
L 133.175582 501.730152 
L 133.175582 498.52321 
L 136.084673 498.52321 
L 136.084673 492.109328 
L 137.539219 492.109328 
L 137.539219 488.902386 
L 141.902855 488.902386 
L 141.902855 482.488503 
L 143.357401 482.488503 
L 143.357401 479.281562 
L 146.266491 479.281562 
L 146.266491 476.07462 
L 149.175582 476.07462 
L 149.175582 472.867679 
L 150.630128 472.867679 
L 150.630128 444.005206 
L 152.084673 444.005206 
L 153.539219 440.798265 
L 153.539219 434.384382 
L 154.993764 434.384382 
L 154.993764 411.935792 
L 157.902855 408.72885 
L 157.902855 399.108026 
L 160.811946 399.108026 
L 160.811946 392.694143 
L 163.721037 392.694143 
L 163.721037 383.073319 
L 165.175582 376.659436 
L 168.084673 376.659436 
L 168.084673 373.452495 
L 170.993764 373.452495 
L 170.993764 360.624729 
L 172.44831 347.796963 
L 172.44831 341.38308 
L 173.902855 341.38308 
L 173.902855 338.176139 
L 175.357401 338.176139 
L 175.357401 328.555315 
L 176.811946 328.555315 
L 176.811946 325.348373 
L 181.175582 325.348373 
L 181.175582 322.141432 
L 182.630128 322.141432 
L 182.630128 306.106725 
L 185.539219 306.106725 
L 185.539219 293.278959 
L 186.993764 293.278959 
L 188.44831 290.072017 
L 189.902855 290.072017 
L 189.902855 286.865076 
L 191.357401 286.865076 
L 191.357401 283.658134 
L 192.811946 283.658134 
L 192.811946 277.244252 
L 194.266491 274.03731 
L 198.630128 274.03731 
L 201.539219 270.830369 
L 210.266491 270.830369 
L 210.266491 267.623427 
L 216.084673 267.623427 
L 217.539219 264.416486 
L 218.993764 264.416486 
L 218.993764 261.209544 
L 223.357401 261.209544 
L 224.811946 258.002603 
L 226.266491 258.002603 
L 226.266491 248.381779 
L 227.721037 248.381779 
L 227.721037 238.760954 
L 230.630128 235.554013 
L 230.630128 232.347072 
L 234.993764 232.347072 
L 234.993764 229.14013 
L 249.539219 229.14013 
L 253.902855 222.726247 
L 256.811946 222.726247 
L 258.266491 216.312364 
L 258.266491 213.105423 
L 264.084673 213.105423 
L 268.44831 206.69154 
L 277.175582 206.69154 
L 280.084673 203.484599 
L 282.993764 203.484599 
L 282.993764 200.277657 
L 287.357401 197.070716 
L 288.811946 197.070716 
L 290.266491 193.863774 
L 293.175582 193.863774 
L 294.630128 190.656833 
L 296.084673 190.656833 
L 296.084673 177.829067 
L 297.539219 177.829067 
L 297.539219 174.622126 
L 298.993764 174.622126 
L 298.993764 171.415184 
L 300.44831 171.415184 
L 300.44831 168.208243 
L 301.902855 168.208243 
L 301.902855 161.79436 
L 307.721037 161.79436 
L 307.721037 158.587419 
L 309.175582 158.587419 
L 309.175582 155.380477 
L 328.084673 155.380477 
L 328.084673 152.173536 
L 329.539219 148.966594 
L 333.902855 148.966594 
L 333.902855 145.759653 
L 352.811946 145.759653 
L 352.811946 139.34577 
L 409.539219 139.34577 
L 409.539219 136.138829 
L 410.993764 132.931887 
L 416.811946 132.931887 
L 416.811946 129.724946 
L 438.630128 129.724946 
L 440.084673 126.518004 
L 454.630128 126.518004 
L 454.630128 123.311063 
L 466.266491 123.311063 
L 467.721037 120.104121 
L 485.175582 120.104121 
L 485.175582 116.89718 
L 498.266491 116.89718 
L 498.266491 113.690239 
L 504.084673 113.690239 
L 514.266491 110.483297 
L 528.964219 110.399366 
L 528.964219 110.399366 
" clip-path="url(#p116125b8eb)" style="fill: none; stroke: #a23b72; stroke-width: 2; stroke-linecap: square"/>
   </g>
   <g id="patch_3">
    <path d="M 57.539219 515.52 
L 57.539219 72 
" style="fill: none; stroke: #000000; stroke-linejoin: miter; stroke-linecap: square"/>
   </g>
   <g id="patch_4">
    <path d="M 503.939219 515.52 
L 503.939219 72 
" style="fill: none; stroke: #000000; stroke-linejoin: miter; stroke-linecap: square"/>
   </g>
   <g id="patch_5">
    <path d="M 57.539219 515.52 
L 503.939219 515.52 
" style="fill: none; stroke: #000000; stroke-linejoin: miter; stroke-linecap: square"/>
   </g>
   <g id="patch_6">
    <path d="M 57.539219 72 
L 503.939219 72 
" style="fill: none; stroke: #000000; stroke-linejoin: miter; stroke-linecap: square"/>
   </g>
   <g id="text_17">
    <!-- Curvas ROC - Zoom Alta Performance -->
    <g transform="translate(130.017344 52) scale(0.18 -0.18)">
     <defs>
      <path id="TimesNewRomanPS-BoldMT-43" d="M 4272 4334 
L 4272 2866 
L 4150 2866 
Q 4013 3441 3638 3747 
Q 3263 4053 2788 4053 
Q 2391 4053 2059 3825 
Q 1728 3597 1575 3228 
Q 1378 2756 1378 2178 
Q 1378 1609 1522 1142 
Q 1666 675 1972 436 
Q 2278 197 2766 197 
Q 3166 197 3498 372 
Q 3831 547 4200 975 
L 4200 609 
Q 3844 238 3458 70 
Q 3072 -97 2556 -97 
Q 1878 -97 1351 175 
Q 825 447 539 956 
Q 253 1466 253 2041 
Q 253 2647 570 3190 
Q 888 3734 1427 4034 
Q 1966 4334 2572 4334 
Q 3019 4334 3516 4141 
Q 3803 4028 3881 4028 
Q 3981 4028 4054 4101 
Q 4128 4175 4150 4334 
L 4272 4334 
z
" transform="scale(0.015625)"/>
      <path id="TimesNewRomanPS-BoldMT-75" d="M 3038 2922 
L 3038 634 
Q 3038 300 3100 217 
Q 3163 134 3353 113 
L 3353 0 
L 2163 0 
L 2163 391 
Q 1953 141 1743 26 
Q 1534 -88 1275 -88 
Q 1028 -88 836 64 
Q 644 216 578 419 
Q 513 622 513 1128 
L 513 2288 
Q 513 2619 452 2700 
Q 391 2781 197 2806 
L 197 2922 
L 1388 2922 
L 1388 925 
Q 1388 613 1417 522 
Q 1447 431 1511 384 
Q 1575 338 1659 338 
Q 1772 338 1863 397 
Q 1988 478 2163 725 
L 2163 2288 
Q 2163 2619 2102 2700 
Q 2041 2781 1847 2806 
L 1847 2922 
L 3038 2922 
z
" transform="scale(0.015625)"/>
      <path id="TimesNewRomanPS-BoldMT-72" d="M 1428 2922 
L 1428 2259 
Q 1719 2713 1937 2861 
Q 2156 3009 2359 3009 
Q 2534 3009 2639 2901 
Q 2744 2794 2744 2597 
Q 2744 2388 2642 2272 
Q 2541 2156 2397 2156 
Q 2231 2156 2109 2262 
Q 1988 2369 1966 2381 
Q 1934 2400 1894 2400 
Q 1803 2400 1722 2331 
Q 1594 2225 1528 2028 
Q 1428 1725 1428 1359 
L 1428 688 
L 1431 513 
Q 1431 334 1453 284 
Q 1491 200 1564 161 
Q 1638 122 1813 113 
L 1813 0 
L 234 0 
L 234 113 
Q 425 128 492 217 
Q 559 306 559 688 
L 559 2303 
Q 559 2553 534 2622 
Q 503 2709 443 2750 
Q 384 2791 234 2806 
L 234 2922 
L 1428 2922 
z
" transform="scale(0.015625)"/>
      <path id="TimesNewRomanPS-BoldMT-76" d="M 1534 -88 
L 550 2178 
Q 372 2588 272 2697 
Q 200 2778 59 2806 
L 59 2922 
L 1613 2922 
L 1613 2806 
Q 1466 2806 1413 2753 
Q 1338 2684 1338 2591 
Q 1338 2475 1475 2156 
L 1956 1059 
L 2341 2006 
Q 2506 2413 2506 2581 
Q 2506 2678 2436 2739 
Q 2366 2800 2188 2806 
L 2188 2922 
L 3144 2922 
L 3144 2806 
Q 3006 2788 2918 2703 
Q 2831 2619 2656 2206 
L 1681 -88 
L 1534 -88 
z
" transform="scale(0.015625)"/>
      <path id="TimesNewRomanPS-BoldMT-61" d="M 1828 431 
Q 1294 -41 869 -41 
Q 619 -41 453 123 
Q 288 288 288 534 
Q 288 869 575 1136 
Q 863 1403 1828 1847 
L 1828 2141 
Q 1828 2472 1792 2558 
Q 1756 2644 1656 2708 
Q 1556 2772 1431 2772 
Q 1228 2772 1097 2681 
Q 1016 2625 1016 2550 
Q 1016 2484 1103 2388 
Q 1222 2253 1222 2128 
Q 1222 1975 1108 1867 
Q 994 1759 809 1759 
Q 613 1759 480 1878 
Q 347 1997 347 2156 
Q 347 2381 525 2586 
Q 703 2791 1022 2900 
Q 1341 3009 1684 3009 
Q 2100 3009 2342 2832 
Q 2584 2656 2656 2450 
Q 2700 2319 2700 1847 
L 2700 713 
Q 2700 513 2715 461 
Q 2731 409 2762 384 
Q 2794 359 2834 359 
Q 2916 359 3000 475 
L 3094 400 
Q 2938 169 2770 64 
Q 2603 -41 2391 -41 
Q 2141 -41 2000 76 
Q 1859 194 1828 431 
z
M 1828 659 
L 1828 1638 
Q 1450 1416 1266 1163 
Q 1144 994 1144 822 
Q 1144 678 1247 569 
Q 1325 484 1466 484 
Q 1622 484 1828 659 
z
" transform="scale(0.015625)"/>
      <path id="TimesNewRomanPS-BoldMT-73" d="M 2063 3003 
L 2109 2006 
L 2003 2006 
Q 1813 2450 1608 2612 
Q 1403 2775 1200 2775 
Q 1072 2775 981 2689 
Q 891 2603 891 2491 
Q 891 2406 953 2328 
Q 1053 2200 1512 1889 
Q 1972 1578 2117 1361 
Q 2263 1144 2263 875 
Q 2263 631 2141 397 
Q 2019 163 1797 37 
Q 1575 -88 1306 -88 
Q 1097 -88 747 44 
Q 653 78 619 78 
Q 516 78 447 -78 
L 344 -78 
L 294 972 
L 400 972 
Q 541 559 786 353 
Q 1031 147 1250 147 
Q 1400 147 1495 239 
Q 1591 331 1591 463 
Q 1591 613 1497 722 
Q 1403 831 1078 1053 
Q 600 1384 459 1559 
Q 253 1816 253 2125 
Q 253 2463 486 2736 
Q 719 3009 1159 3009 
Q 1397 3009 1619 2894 
Q 1703 2847 1756 2847 
Q 1813 2847 1847 2870 
Q 1881 2894 1956 3003 
L 2063 3003 
z
" transform="scale(0.015625)"/>
      <path id="TimesNewRomanPS-BoldMT-20" transform="scale(0.015625)"/>
      <path id="TimesNewRomanPS-BoldMT-4f" d="M 2472 4297 
Q 3484 4334 4117 3706 
Q 4750 3078 4750 2134 
Q 4750 1328 4278 716 
Q 3653 -97 2513 -97 
Q 1369 -97 744 678 
Q 250 1291 250 2131 
Q 250 3075 892 3704 
Q 1534 4334 2472 4297 
z
M 2509 4097 
Q 1928 4097 1625 3503 
Q 1378 3016 1378 2103 
Q 1378 1019 1759 500 
Q 2025 138 2503 138 
Q 2825 138 3041 294 
Q 3316 494 3469 933 
Q 3622 1372 3622 2078 
Q 3622 2919 3465 3336 
Q 3309 3753 3067 3925 
Q 2825 4097 2509 4097 
z
" transform="scale(0.015625)"/>
      <path id="TimesNewRomanPS-BoldMT-2d" d="M 1978 1147 
L 156 1147 
L 156 1794 
L 1978 1794 
L 1978 1147 
z
" transform="scale(0.015625)"/>
      <path id="TimesNewRomanPS-BoldMT-5a" d="M 3906 4238 
L 1416 238 
L 2222 238 
Q 2794 238 3022 309 
Q 3394 422 3662 723 
Q 3931 1025 4034 1531 
L 4156 1531 
L 3984 0 
L 103 0 
L 2597 4006 
L 1969 4006 
Q 1603 4006 1488 3984 
Q 1269 3944 1076 3823 
Q 884 3703 757 3503 
Q 631 3303 559 2997 
L 444 2997 
L 559 4238 
L 3906 4238 
z
" transform="scale(0.015625)"/>
      <path id="TimesNewRomanPS-BoldMT-6f" d="M 1594 3009 
Q 1975 3009 2303 2812 
Q 2631 2616 2801 2253 
Q 2972 1891 2972 1459 
Q 2972 838 2656 419 
Q 2275 -88 1603 -88 
Q 944 -88 587 375 
Q 231 838 231 1447 
Q 231 2075 595 2542 
Q 959 3009 1594 3009 
z
M 1606 2788 
Q 1447 2788 1333 2667 
Q 1219 2547 1183 2192 
Q 1147 1838 1147 1206 
Q 1147 872 1191 581 
Q 1225 359 1337 243 
Q 1450 128 1594 128 
Q 1734 128 1828 206 
Q 1950 313 1991 503 
Q 2053 800 2053 1703 
Q 2053 2234 1993 2432 
Q 1934 2631 1819 2722 
Q 1738 2788 1606 2788 
z
" transform="scale(0.015625)"/>
      <path id="TimesNewRomanPS-BoldMT-6d" d="M 1428 2922 
L 1428 2538 
Q 1669 2800 1873 2904 
Q 2078 3009 2322 3009 
Q 2603 3009 2793 2878 
Q 2984 2747 3088 2478 
Q 3338 2759 3567 2884 
Q 3797 3009 4047 3009 
Q 4350 3009 4529 2870 
Q 4709 2731 4779 2517 
Q 4850 2303 4850 1834 
L 4850 638 
Q 4850 300 4911 219 
Q 4972 138 5166 113 
L 5166 0 
L 3656 0 
L 3656 113 
Q 3834 128 3919 250 
Q 3975 334 3975 638 
L 3975 1894 
Q 3975 2284 3944 2390 
Q 3913 2497 3845 2548 
Q 3778 2600 3688 2600 
Q 3553 2600 3415 2501 
Q 3278 2403 3138 2206 
L 3138 638 
Q 3138 322 3191 241 
Q 3263 125 3466 113 
L 3466 0 
L 1953 0 
L 1953 113 
Q 2075 119 2145 173 
Q 2216 228 2239 304 
Q 2263 381 2263 638 
L 2263 1894 
Q 2263 2291 2231 2391 
Q 2200 2491 2126 2547 
Q 2053 2603 1969 2603 
Q 1844 2603 1741 2538 
Q 1594 2441 1428 2206 
L 1428 638 
Q 1428 328 1489 229 
Q 1550 131 1744 113 
L 1744 0 
L 238 0 
L 238 113 
Q 422 131 500 231 
Q 553 300 553 638 
L 553 2288 
Q 553 2619 492 2700 
Q 431 2781 238 2806 
L 238 2922 
L 1428 2922 
z
" transform="scale(0.015625)"/>
      <path id="TimesNewRomanPS-BoldMT-41" d="M 2663 1206 
L 1166 1206 
L 988 794 
Q 900 588 900 453 
Q 900 275 1044 191 
Q 1128 141 1459 116 
L 1459 0 
L 50 0 
L 50 116 
Q 278 150 425 304 
Q 572 459 788 944 
L 2303 4325 
L 2363 4325 
L 3891 850 
Q 4109 356 4250 228 
Q 4356 131 4550 116 
L 4550 0 
L 2500 0 
L 2500 116 
L 2584 116 
Q 2831 116 2931 184 
Q 3000 234 3000 328 
Q 3000 384 2981 444 
Q 2975 472 2888 678 
L 2663 1206 
z
M 2556 1438 
L 1925 2897 
L 1275 1438 
L 2556 1438 
z
" transform="scale(0.015625)"/>
      <path id="TimesNewRomanPS-BoldMT-6c" d="M 1359 4238 
L 1359 606 
Q 1359 297 1431 211 
Q 1503 125 1713 113 
L 1713 0 
L 134 0 
L 134 113 
Q 328 119 422 225 
Q 484 297 484 606 
L 484 3631 
Q 484 3938 412 4023 
Q 341 4109 134 4122 
L 134 4238 
L 1359 4238 
z
" transform="scale(0.015625)"/>
      <path id="TimesNewRomanPS-BoldMT-74" d="M 1375 3991 
L 1375 2922 
L 2069 2922 
L 2069 2613 
L 1375 2613 
L 1375 809 
Q 1375 556 1398 482 
Q 1422 409 1481 364 
Q 1541 319 1591 319 
Q 1794 319 1975 628 
L 2069 559 
Q 1816 -41 1247 -41 
Q 969 -41 776 114 
Q 584 269 531 459 
Q 500 566 500 1034 
L 500 2613 
L 119 2613 
L 119 2722 
Q 513 3000 789 3306 
Q 1066 3613 1272 3991 
L 1375 3991 
z
" transform="scale(0.015625)"/>
      <path id="TimesNewRomanPS-BoldMT-65" d="M 2691 1566 
L 1088 1566 
Q 1116 984 1397 647 
Q 1613 388 1916 388 
Q 2103 388 2256 492 
Q 2409 597 2584 869 
L 2691 800 
Q 2453 316 2165 114 
Q 1878 -88 1500 -88 
Q 850 -88 516 413 
Q 247 816 247 1413 
Q 247 2144 642 2576 
Q 1038 3009 1569 3009 
Q 2013 3009 2339 2645 
Q 2666 2281 2691 1566 
z
M 1922 1775 
Q 1922 2278 1867 2465 
Q 1813 2653 1697 2750 
Q 1631 2806 1522 2806 
Q 1359 2806 1256 2647 
Q 1072 2369 1072 1884 
L 1072 1775 
L 1922 1775 
z
" transform="scale(0.015625)"/>
      <path id="TimesNewRomanPS-BoldMT-66" d="M 1497 2616 
L 1497 588 
Q 1497 294 1559 219 
Q 1659 103 1928 113 
L 1928 0 
L 206 0 
L 206 113 
Q 403 116 486 158 
Q 569 200 600 275 
Q 631 350 631 588 
L 631 2616 
L 206 2616 
L 206 2922 
L 631 2922 
L 631 3138 
L 628 3284 
Q 628 3734 958 4034 
Q 1288 4334 1850 4334 
Q 2234 4334 2420 4190 
Q 2606 4047 2606 3872 
Q 2606 3731 2490 3628 
Q 2375 3525 2184 3525 
Q 2022 3525 1926 3609 
Q 1831 3694 1831 3797 
Q 1831 3825 1850 3913 
Q 1863 3966 1863 4013 
Q 1863 4078 1825 4109 
Q 1775 4156 1703 4156 
Q 1613 4156 1552 4081 
Q 1491 4006 1491 3841 
L 1497 3294 
L 1497 2922 
L 1928 2922 
L 1928 2616 
L 1497 2616 
z
" transform="scale(0.015625)"/>
      <path id="TimesNewRomanPS-BoldMT-6e" d="M 1409 2922 
L 1409 2544 
Q 1634 2788 1840 2898 
Q 2047 3009 2284 3009 
Q 2569 3009 2756 2851 
Q 2944 2694 3006 2459 
Q 3056 2281 3056 1775 
L 3056 638 
Q 3056 300 3117 217 
Q 3178 134 3372 113 
L 3372 0 
L 1894 0 
L 1894 113 
Q 2059 134 2131 250 
Q 2181 328 2181 638 
L 2181 1938 
Q 2181 2297 2153 2390 
Q 2125 2484 2058 2536 
Q 1991 2588 1909 2588 
Q 1641 2588 1409 2203 
L 1409 638 
Q 1409 309 1470 221 
Q 1531 134 1697 113 
L 1697 0 
L 219 0 
L 219 113 
Q 403 131 481 231 
Q 534 300 534 638 
L 534 2288 
Q 534 2619 473 2700 
Q 413 2781 219 2806 
L 219 2922 
L 1409 2922 
z
" transform="scale(0.015625)"/>
      <path id="TimesNewRomanPS-BoldMT-63" d="M 2600 753 
L 2697 678 
Q 2491 291 2183 101 
Q 1875 -88 1528 -88 
Q 944 -88 594 353 
Q 244 794 244 1413 
Q 244 2009 563 2463 
Q 947 3009 1622 3009 
Q 2075 3009 2342 2781 
Q 2609 2553 2609 2272 
Q 2609 2094 2501 1987 
Q 2394 1881 2219 1881 
Q 2034 1881 1914 2003 
Q 1794 2125 1766 2438 
Q 1747 2634 1675 2713 
Q 1603 2791 1506 2791 
Q 1356 2791 1250 2631 
Q 1088 2391 1088 1894 
Q 1088 1481 1219 1104 
Q 1350 728 1578 544 
Q 1750 409 1984 409 
Q 2138 409 2275 481 
Q 2413 553 2600 753 
z
" transform="scale(0.015625)"/>
     </defs>
     <use xlink:href="#TimesNewRomanPS-BoldMT-43"/>
     <use xlink:href="#TimesNewRomanPS-BoldMT-75" transform="translate(72.216797 0)"/>
     <use xlink:href="#TimesNewRomanPS-BoldMT-72" transform="translate(127.832031 0)"/>
     <use xlink:href="#TimesNewRomanPS-BoldMT-76" transform="translate(172.216797 0)"/>
     <use xlink:href="#TimesNewRomanPS-BoldMT-61" transform="translate(222.216797 0)"/>
     <use xlink:href="#TimesNewRomanPS-BoldMT-73" transform="translate(272.216797 0)"/>
     <use xlink:href="#TimesNewRomanPS-BoldMT-20" transform="translate(311.132812 0)"/>
     <use xlink:href="#TimesNewRomanPS-BoldMT-52" transform="translate(336.132812 0)"/>
     <use xlink:href="#TimesNewRomanPS-BoldMT-4f" transform="translate(408.349609 0)"/>
     <use xlink:href="#TimesNewRomanPS-BoldMT-43" transform="translate(486.132812 0)"/>
     <use xlink:href="#TimesNewRomanPS-BoldMT-20" transform="translate(558.349609 0)"/>
     <use xlink:href="#TimesNewRomanPS-BoldMT-2d" transform="translate(583.349609 0)"/>
     <use xlink:href="#TimesNewRomanPS-BoldMT-20" transform="translate(616.650391 0)"/>
     <use xlink:href="#TimesNewRomanPS-BoldMT-5a" transform="translate(641.650391 0)"/>
     <use xlink:href="#TimesNewRomanPS-BoldMT-6f" transform="translate(708.349609 0)"/>
     <use xlink:href="#TimesNewRomanPS-BoldMT-6f" transform="translate(758.349609 0)"/>
     <use xlink:href="#TimesNewRomanPS-BoldMT-6d" transform="translate(808.349609 0)"/>
     <use xlink:href="#TimesNewRomanPS-BoldMT-20" transform="translate(891.650391 0)"/>
     <use xlink:href="#TimesNewRomanPS-BoldMT-41" transform="translate(911.150391 0)"/>
     <use xlink:href="#TimesNewRomanPS-BoldMT-6c" transform="translate(983.367188 0)"/>
     <use xlink:href="#TimesNewRomanPS-BoldMT-74" transform="translate(1011.150391 0)"/>
     <use xlink:href="#TimesNewRomanPS-BoldMT-61" transform="translate(1044.451172 0)"/>
     <use xlink:href="#TimesNewRomanPS-BoldMT-20" transform="translate(1094.451172 0)"/>
     <use xlink:href="#TimesNewRomanPS-BoldMT-50" transform="translate(1119.451172 0)"/>
     <use xlink:href="#TimesNewRomanPS-BoldMT-65" transform="translate(1180.535156 0)"/>
     <use xlink:href="#TimesNewRomanPS-BoldMT-72" transform="translate(1224.919922 0)"/>
     <use xlink:href="#TimesNewRomanPS-BoldMT-66" transform="translate(1269.304688 0)"/>
     <use xlink:href="#TimesNewRomanPS-BoldMT-6f" transform="translate(1302.605469 0)"/>
     <use xlink:href="#TimesNewRomanPS-BoldMT-72" transform="translate(1352.605469 0)"/>
     <use xlink:href="#TimesNewRomanPS-BoldMT-6d" transform="translate(1396.990234 0)"/>
     <use xlink:href="#TimesNewRomanPS-BoldMT-61" transform="translate(1480.291016 0)"/>
     <use xlink:href="#TimesNewRomanPS-BoldMT-6e" transform="translate(1530.291016 0)"/>
     <use xlink:href="#TimesNewRomanPS-BoldMT-63" transform="translate(1585.90625 0)"/>
     <use xlink:href="#TimesNewRomanPS-BoldMT-65" transform="translate(1630.291016 0)"/>
    </g>
   </g>
   <g id="legend_1">
    <g id="patch_7">
     <path d="M 387.225156 512.52 
L 498.939219 512.52 
Q 500.939219 512.52 500.939219 510.52 
L 500.939219 425.796094 
Q 500.939219 423.796094 498.939219 423.796094 
L 387.225156 423.796094 
Q 385.225156 423.796094 385.225156 425.796094 
L 385.225156 510.52 
Q 385.225156 512.52 387.225156 512.52 
z
" style="fill: #4d4d4d; opacity: 0.5; stroke: #4d4d4d; stroke-linejoin: miter"/>
    </g>
    <g id="patch_8">
     <path d="M 385.225156 510.52 
L 496.939219 510.52 
Q 498.939219 510.52 498.939219 508.52 
L 498.939219 423.796094 
Q 498.939219 421.796094 496.939219 421.796094 
L 385.225156 421.796094 
Q 383.225156 421.796094 383.225156 423.796094 
L 383.225156 508.52 
Q 383.225156 510.52 385.225156 510.52 
z
" style="fill: #ffffff; opacity: 0.9; stroke: #808080; stroke-linejoin: miter"/>
    </g>
    <g id="text_18">
     <!-- Top 5 -->
     <g transform="translate(428.482891 433.434219) scale(0.11 -0.11)">
      <defs>
       <path id="TimesNewRomanPSMT-54" d="M 3703 4238 
L 3750 3244 
L 3631 3244 
Q 3597 3506 3538 3619 
Q 3441 3800 3280 3886 
Q 3119 3972 2856 3972 
L 2259 3972 
L 2259 734 
Q 2259 344 2344 247 
Q 2463 116 2709 116 
L 2856 116 
L 2856 0 
L 1059 0 
L 1059 116 
L 1209 116 
Q 1478 116 1591 278 
Q 1659 378 1659 734 
L 1659 3972 
L 1150 3972 
Q 853 3972 728 3928 
Q 566 3869 450 3700 
Q 334 3531 313 3244 
L 194 3244 
L 244 4238 
L 3703 4238 
z
" transform="scale(0.015625)"/>
       <path id="TimesNewRomanPSMT-6f" d="M 1600 2947 
Q 2250 2947 2644 2453 
Q 2978 2031 2978 1484 
Q 2978 1100 2793 706 
Q 2609 313 2286 112 
Q 1963 -88 1566 -88 
Q 919 -88 538 428 
Q 216 863 216 1403 
Q 216 1797 411 2186 
Q 606 2575 925 2761 
Q 1244 2947 1600 2947 
z
M 1503 2744 
Q 1338 2744 1170 2645 
Q 1003 2547 900 2300 
Q 797 2053 797 1666 
Q 797 1041 1045 587 
Q 1294 134 1700 134 
Q 2003 134 2200 384 
Q 2397 634 2397 1244 
Q 2397 2006 2069 2444 
Q 1847 2744 1503 2744 
z
" transform="scale(0.015625)"/>
       <path id="TimesNewRomanPSMT-70" d="M -6 2578 
L 875 2934 
L 994 2934 
L 994 2266 
Q 1216 2644 1439 2795 
Q 1663 2947 1909 2947 
Q 2341 2947 2628 2609 
Q 2981 2197 2981 1534 
Q 2981 794 2556 309 
Q 2206 -88 1675 -88 
Q 1444 -88 1275 -22 
Q 1150 25 994 166 
L 994 -706 
Q 994 -1000 1030 -1079 
Q 1066 -1159 1155 -1206 
Q 1244 -1253 1478 -1253 
L 1478 -1369 
L -22 -1369 
L -22 -1253 
L 56 -1253 
Q 228 -1256 350 -1188 
Q 409 -1153 442 -1076 
Q 475 -1000 475 -688 
L 475 2019 
Q 475 2297 450 2372 
Q 425 2447 370 2484 
Q 316 2522 222 2522 
Q 147 2522 31 2478 
L -6 2578 
z
M 994 2081 
L 994 1013 
Q 994 666 1022 556 
Q 1066 375 1236 237 
Q 1406 100 1666 100 
Q 1978 100 2172 344 
Q 2425 663 2425 1241 
Q 2425 1897 2138 2250 
Q 1938 2494 1663 2494 
Q 1513 2494 1366 2419 
Q 1253 2363 994 2081 
z
" transform="scale(0.015625)"/>
       <path id="TimesNewRomanPSMT-20" transform="scale(0.015625)"/>
      </defs>
      <use xlink:href="#TimesNewRomanPSMT-54"/>
      <use xlink:href="#TimesNewRomanPSMT-6f" transform="translate(54.083984 0)"/>
      <use xlink:href="#TimesNewRomanPSMT-70" transform="translate(104.083984 0)"/>
      <use xlink:href="#TimesNewRomanPSMT-20" transform="translate(154.083984 0)"/>
      <use xlink:href="#TimesNewRomanPSMT-35" transform="translate(179.083984 0)"/>
     </g>
    </g>
    <g id="line2d_34">
     <path d="M 387.225156 444.287188 
L 397.225156 444.287188 
L 407.225156 444.287188 
" style="fill: none; stroke: #2e86ab; stroke-width: 2; stroke-linecap: square"/>
    </g>
    <g id="text_19">
     <!-- Random Forest -->
     <g transform="translate(415.225156 447.787188) scale(0.1 -0.1)">
      <defs>
       <path id="TimesNewRomanPSMT-52" d="M 4325 0 
L 3194 0 
L 1759 1981 
Q 1600 1975 1500 1975 
Q 1459 1975 1412 1976 
Q 1366 1978 1316 1981 
L 1316 750 
Q 1316 350 1403 253 
Q 1522 116 1759 116 
L 1925 116 
L 1925 0 
L 109 0 
L 109 116 
L 269 116 
Q 538 116 653 291 
Q 719 388 719 750 
L 719 3488 
Q 719 3888 631 3984 
Q 509 4122 269 4122 
L 109 4122 
L 109 4238 
L 1653 4238 
Q 2328 4238 2648 4139 
Q 2969 4041 3192 3777 
Q 3416 3513 3416 3147 
Q 3416 2756 3161 2468 
Q 2906 2181 2372 2063 
L 3247 847 
Q 3547 428 3762 290 
Q 3978 153 4325 116 
L 4325 0 
z
M 1316 2178 
Q 1375 2178 1419 2176 
Q 1463 2175 1491 2175 
Q 2097 2175 2405 2437 
Q 2713 2700 2713 3106 
Q 2713 3503 2464 3751 
Q 2216 4000 1806 4000 
Q 1625 4000 1316 3941 
L 1316 2178 
z
" transform="scale(0.015625)"/>
       <path id="TimesNewRomanPSMT-61" d="M 1822 413 
Q 1381 72 1269 19 
Q 1100 -59 909 -59 
Q 613 -59 420 144 
Q 228 347 228 678 
Q 228 888 322 1041 
Q 450 1253 767 1440 
Q 1084 1628 1822 1897 
L 1822 2009 
Q 1822 2438 1686 2597 
Q 1550 2756 1291 2756 
Q 1094 2756 978 2650 
Q 859 2544 859 2406 
L 866 2225 
Q 866 2081 792 2003 
Q 719 1925 600 1925 
Q 484 1925 411 2006 
Q 338 2088 338 2228 
Q 338 2497 613 2722 
Q 888 2947 1384 2947 
Q 1766 2947 2009 2819 
Q 2194 2722 2281 2516 
Q 2338 2381 2338 1966 
L 2338 994 
Q 2338 584 2353 492 
Q 2369 400 2405 369 
Q 2441 338 2488 338 
Q 2538 338 2575 359 
Q 2641 400 2828 588 
L 2828 413 
Q 2478 -56 2159 -56 
Q 2006 -56 1915 50 
Q 1825 156 1822 413 
z
M 1822 616 
L 1822 1706 
Q 1350 1519 1213 1441 
Q 966 1303 859 1153 
Q 753 1003 753 825 
Q 753 600 887 451 
Q 1022 303 1197 303 
Q 1434 303 1822 616 
z
" transform="scale(0.015625)"/>
       <path id="TimesNewRomanPSMT-6e" d="M 1034 2341 
Q 1538 2947 1994 2947 
Q 2228 2947 2397 2830 
Q 2566 2713 2666 2444 
Q 2734 2256 2734 1869 
L 2734 647 
Q 2734 375 2778 278 
Q 2813 200 2889 156 
Q 2966 113 3172 113 
L 3172 0 
L 1756 0 
L 1756 113 
L 1816 113 
Q 2016 113 2095 173 
Q 2175 234 2206 353 
Q 2219 400 2219 647 
L 2219 1819 
Q 2219 2209 2117 2386 
Q 2016 2563 1775 2563 
Q 1403 2563 1034 2156 
L 1034 647 
Q 1034 356 1069 288 
Q 1113 197 1189 155 
Q 1266 113 1500 113 
L 1500 0 
L 84 0 
L 84 113 
L 147 113 
Q 366 113 442 223 
Q 519 334 519 647 
L 519 1709 
Q 519 2225 495 2337 
Q 472 2450 423 2490 
Q 375 2531 294 2531 
Q 206 2531 84 2484 
L 38 2597 
L 900 2947 
L 1034 2947 
L 1034 2341 
z
" transform="scale(0.015625)"/>
       <path id="TimesNewRomanPSMT-64" d="M 2222 322 
Q 2013 103 1813 7 
Q 1613 -88 1381 -88 
Q 913 -88 563 304 
Q 213 697 213 1313 
Q 213 1928 600 2439 
Q 988 2950 1597 2950 
Q 1975 2950 2222 2709 
L 2222 3238 
Q 2222 3728 2198 3840 
Q 2175 3953 2125 3993 
Q 2075 4034 2000 4034 
Q 1919 4034 1784 3984 
L 1744 4094 
L 2597 4444 
L 2738 4444 
L 2738 1134 
Q 2738 631 2761 520 
Q 2784 409 2836 365 
Q 2888 322 2956 322 
Q 3041 322 3181 375 
L 3216 266 
L 2366 -88 
L 2222 -88 
L 2222 322 
z
M 2222 541 
L 2222 2016 
Q 2203 2228 2109 2403 
Q 2016 2578 1861 2667 
Q 1706 2756 1559 2756 
Q 1284 2756 1069 2509 
Q 784 2184 784 1559 
Q 784 928 1059 592 
Q 1334 256 1672 256 
Q 1956 256 2222 541 
z
" transform="scale(0.015625)"/>
       <path id="TimesNewRomanPSMT-6d" d="M 1050 2338 
Q 1363 2650 1419 2697 
Q 1559 2816 1721 2881 
Q 1884 2947 2044 2947 
Q 2313 2947 2506 2790 
Q 2700 2634 2766 2338 
Q 3088 2713 3309 2830 
Q 3531 2947 3766 2947 
Q 3994 2947 4170 2830 
Q 4347 2713 4450 2447 
Q 4519 2266 4519 1878 
L 4519 647 
Q 4519 378 4559 278 
Q 4591 209 4675 161 
Q 4759 113 4950 113 
L 4950 0 
L 3538 0 
L 3538 113 
L 3597 113 
Q 3781 113 3884 184 
Q 3956 234 3988 344 
Q 4000 397 4000 647 
L 4000 1878 
Q 4000 2228 3916 2372 
Q 3794 2572 3525 2572 
Q 3359 2572 3192 2489 
Q 3025 2406 2788 2181 
L 2781 2147 
L 2788 2013 
L 2788 647 
Q 2788 353 2820 281 
Q 2853 209 2943 161 
Q 3034 113 3253 113 
L 3253 0 
L 1806 0 
L 1806 113 
Q 2044 113 2133 169 
Q 2222 225 2256 338 
Q 2272 391 2272 647 
L 2272 1878 
Q 2272 2228 2169 2381 
Q 2031 2581 1784 2581 
Q 1616 2581 1450 2491 
Q 1191 2353 1050 2181 
L 1050 647 
Q 1050 366 1089 281 
Q 1128 197 1204 155 
Q 1281 113 1516 113 
L 1516 0 
L 100 0 
L 100 113 
Q 297 113 375 155 
Q 453 197 493 289 
Q 534 381 534 647 
L 534 1741 
Q 534 2213 506 2350 
Q 484 2453 437 2492 
Q 391 2531 309 2531 
Q 222 2531 100 2484 
L 53 2597 
L 916 2947 
L 1050 2947 
L 1050 2338 
z
" transform="scale(0.015625)"/>
       <path id="TimesNewRomanPSMT-46" d="M 1309 4006 
L 1309 2341 
L 2081 2341 
Q 2347 2341 2470 2458 
Q 2594 2575 2634 2922 
L 2750 2922 
L 2750 1488 
L 2634 1488 
Q 2631 1734 2570 1850 
Q 2509 1966 2401 2023 
Q 2294 2081 2081 2081 
L 1309 2081 
L 1309 750 
Q 1309 428 1350 325 
Q 1381 247 1481 191 
Q 1619 116 1769 116 
L 1922 116 
L 1922 0 
L 103 0 
L 103 116 
L 253 116 
Q 516 116 634 269 
Q 709 369 709 750 
L 709 3488 
Q 709 3809 669 3913 
Q 638 3991 541 4047 
Q 406 4122 253 4122 
L 103 4122 
L 103 4238 
L 3256 4238 
L 3297 3306 
L 3188 3306 
Q 3106 3603 2998 3742 
Q 2891 3881 2733 3943 
Q 2575 4006 2244 4006 
L 1309 4006 
z
" transform="scale(0.015625)"/>
       <path id="TimesNewRomanPSMT-72" d="M 1038 2947 
L 1038 2303 
Q 1397 2947 1775 2947 
Q 1947 2947 2059 2842 
Q 2172 2738 2172 2600 
Q 2172 2478 2090 2393 
Q 2009 2309 1897 2309 
Q 1788 2309 1652 2417 
Q 1516 2525 1450 2525 
Q 1394 2525 1328 2463 
Q 1188 2334 1038 2041 
L 1038 669 
Q 1038 431 1097 309 
Q 1138 225 1241 169 
Q 1344 113 1538 113 
L 1538 0 
L 72 0 
L 72 113 
Q 291 113 397 181 
Q 475 231 506 341 
Q 522 394 522 644 
L 522 1753 
Q 522 2253 501 2348 
Q 481 2444 426 2487 
Q 372 2531 291 2531 
Q 194 2531 72 2484 
L 41 2597 
L 906 2947 
L 1038 2947 
z
" transform="scale(0.015625)"/>
       <path id="TimesNewRomanPSMT-65" d="M 681 1784 
Q 678 1147 991 784 
Q 1303 422 1725 422 
Q 2006 422 2214 576 
Q 2422 731 2563 1106 
L 2659 1044 
Q 2594 616 2278 264 
Q 1963 -88 1488 -88 
Q 972 -88 605 314 
Q 238 716 238 1394 
Q 238 2128 614 2539 
Q 991 2950 1559 2950 
Q 2041 2950 2350 2633 
Q 2659 2316 2659 1784 
L 681 1784 
z
M 681 1966 
L 2006 1966 
Q 1991 2241 1941 2353 
Q 1863 2528 1708 2628 
Q 1553 2728 1384 2728 
Q 1125 2728 920 2526 
Q 716 2325 681 1966 
z
" transform="scale(0.015625)"/>
       <path id="TimesNewRomanPSMT-73" d="M 2050 2947 
L 2050 1972 
L 1947 1972 
Q 1828 2431 1642 2597 
Q 1456 2763 1169 2763 
Q 950 2763 815 2647 
Q 681 2531 681 2391 
Q 681 2216 781 2091 
Q 878 1963 1175 1819 
L 1631 1597 
Q 2266 1288 2266 781 
Q 2266 391 1970 151 
Q 1675 -88 1309 -88 
Q 1047 -88 709 6 
Q 606 38 541 38 
Q 469 38 428 -44 
L 325 -44 
L 325 978 
L 428 978 
Q 516 541 762 319 
Q 1009 97 1316 97 
Q 1531 97 1667 223 
Q 1803 350 1803 528 
Q 1803 744 1651 891 
Q 1500 1038 1047 1263 
Q 594 1488 453 1669 
Q 313 1847 313 2119 
Q 313 2472 555 2709 
Q 797 2947 1181 2947 
Q 1350 2947 1591 2875 
Q 1750 2828 1803 2828 
Q 1853 2828 1881 2850 
Q 1909 2872 1947 2947 
L 2050 2947 
z
" transform="scale(0.015625)"/>
       <path id="TimesNewRomanPSMT-74" d="M 1031 3803 
L 1031 2863 
L 1700 2863 
L 1700 2644 
L 1031 2644 
L 1031 788 
Q 1031 509 1111 412 
Q 1191 316 1316 316 
Q 1419 316 1516 380 
Q 1613 444 1666 569 
L 1788 569 
Q 1678 263 1478 108 
Q 1278 -47 1066 -47 
Q 922 -47 784 33 
Q 647 113 581 261 
Q 516 409 516 719 
L 516 2644 
L 63 2644 
L 63 2747 
Q 234 2816 414 2980 
Q 594 3144 734 3369 
Q 806 3488 934 3803 
L 1031 3803 
z
" transform="scale(0.015625)"/>
      </defs>
      <use xlink:href="#TimesNewRomanPSMT-52"/>
      <use xlink:href="#TimesNewRomanPSMT-61" transform="translate(66.699219 0)"/>
      <use xlink:href="#TimesNewRomanPSMT-6e" transform="translate(111.083984 0)"/>
      <use xlink:href="#TimesNewRomanPSMT-64" transform="translate(161.083984 0)"/>
      <use xlink:href="#TimesNewRomanPSMT-6f" transform="translate(211.083984 0)"/>
      <use xlink:href="#TimesNewRomanPSMT-6d" transform="translate(261.083984 0)"/>
      <use xlink:href="#TimesNewRomanPSMT-20" transform="translate(338.867188 0)"/>
      <use xlink:href="#TimesNewRomanPSMT-46" transform="translate(363.867188 0)"/>
      <use xlink:href="#TimesNewRomanPSMT-6f" transform="translate(419.482422 0)"/>
      <use xlink:href="#TimesNewRomanPSMT-72" transform="translate(469.482422 0)"/>
      <use xlink:href="#TimesNewRomanPSMT-65" transform="translate(502.783203 0)"/>
      <use xlink:href="#TimesNewRomanPSMT-73" transform="translate(547.167969 0)"/>
      <use xlink:href="#TimesNewRomanPSMT-74" transform="translate(586.083984 0)"/>
     </g>
    </g>
    <g id="line2d_35">
     <path d="M 387.225156 458.42625 
L 397.225156 458.42625 
L 407.225156 458.42625 
" style="fill: none; stroke: #f18f01; stroke-width: 2; stroke-linecap: square"/>
    </g>
    <g id="text_20">
     <!-- Gradient Boosting -->
     <g transform="translate(415.225156 461.92625) scale(0.1 -0.1)">
      <defs>
       <path id="TimesNewRomanPSMT-47" d="M 3928 4334 
L 4038 2997 
L 3928 2997 
Q 3763 3497 3500 3750 
Q 3122 4116 2528 4116 
Q 1719 4116 1297 3475 
Q 944 2934 944 2188 
Q 944 1581 1178 1081 
Q 1413 581 1792 348 
Q 2172 116 2572 116 
Q 2806 116 3025 175 
Q 3244 234 3447 350 
L 3447 1575 
Q 3447 1894 3398 1992 
Q 3350 2091 3248 2142 
Q 3147 2194 2891 2194 
L 2891 2313 
L 4531 2313 
L 4531 2194 
L 4453 2194 
Q 4209 2194 4119 2031 
Q 4056 1916 4056 1575 
L 4056 278 
Q 3697 84 3347 -6 
Q 2997 -97 2569 -97 
Q 1341 -97 703 691 
Q 225 1281 225 2053 
Q 225 2613 494 3125 
Q 813 3734 1369 4063 
Q 1834 4334 2469 4334 
Q 2700 4334 2889 4296 
Q 3078 4259 3425 4131 
Q 3600 4066 3659 4066 
Q 3719 4066 3761 4120 
Q 3803 4175 3813 4334 
L 3928 4334 
z
" transform="scale(0.015625)"/>
       <path id="TimesNewRomanPSMT-69" d="M 928 4444 
Q 1059 4444 1151 4351 
Q 1244 4259 1244 4128 
Q 1244 3997 1151 3903 
Q 1059 3809 928 3809 
Q 797 3809 703 3903 
Q 609 3997 609 4128 
Q 609 4259 701 4351 
Q 794 4444 928 4444 
z
M 1188 2947 
L 1188 647 
Q 1188 378 1227 289 
Q 1266 200 1342 156 
Q 1419 113 1622 113 
L 1622 0 
L 231 0 
L 231 113 
Q 441 113 512 153 
Q 584 194 626 287 
Q 669 381 669 647 
L 669 1750 
Q 669 2216 641 2353 
Q 619 2453 572 2492 
Q 525 2531 444 2531 
Q 356 2531 231 2484 
L 188 2597 
L 1050 2947 
L 1188 2947 
z
" transform="scale(0.015625)"/>
       <path id="TimesNewRomanPSMT-42" d="M 2956 2163 
Q 3397 2069 3616 1863 
Q 3919 1575 3919 1159 
Q 3919 844 3719 555 
Q 3519 266 3170 133 
Q 2822 0 2106 0 
L 106 0 
L 106 116 
L 266 116 
Q 531 116 647 284 
Q 719 394 719 750 
L 719 3488 
Q 719 3881 628 3984 
Q 506 4122 266 4122 
L 106 4122 
L 106 4238 
L 1938 4238 
Q 2450 4238 2759 4163 
Q 3228 4050 3475 3764 
Q 3722 3478 3722 3106 
Q 3722 2788 3528 2536 
Q 3334 2284 2956 2163 
z
M 1319 2331 
Q 1434 2309 1582 2298 
Q 1731 2288 1909 2288 
Q 2366 2288 2595 2386 
Q 2825 2484 2947 2687 
Q 3069 2891 3069 3131 
Q 3069 3503 2766 3765 
Q 2463 4028 1881 4028 
Q 1569 4028 1319 3959 
L 1319 2331 
z
M 1319 306 
Q 1681 222 2034 222 
Q 2600 222 2897 476 
Q 3194 731 3194 1106 
Q 3194 1353 3059 1581 
Q 2925 1809 2622 1940 
Q 2319 2072 1872 2072 
Q 1678 2072 1540 2065 
Q 1403 2059 1319 2044 
L 1319 306 
z
" transform="scale(0.015625)"/>
       <path id="TimesNewRomanPSMT-67" d="M 966 1044 
Q 703 1172 562 1401 
Q 422 1631 422 1909 
Q 422 2334 742 2640 
Q 1063 2947 1563 2947 
Q 1972 2947 2272 2747 
L 2878 2747 
Q 3013 2747 3034 2739 
Q 3056 2731 3066 2713 
Q 3084 2684 3084 2613 
Q 3084 2531 3069 2500 
Q 3059 2484 3036 2475 
Q 3013 2466 2878 2466 
L 2506 2466 
Q 2681 2241 2681 1891 
Q 2681 1491 2375 1206 
Q 2069 922 1553 922 
Q 1341 922 1119 984 
Q 981 866 932 777 
Q 884 688 884 625 
Q 884 572 936 522 
Q 988 472 1138 450 
Q 1225 438 1575 428 
Q 2219 413 2409 384 
Q 2700 344 2873 169 
Q 3047 -6 3047 -263 
Q 3047 -616 2716 -925 
Q 2228 -1381 1444 -1381 
Q 841 -1381 425 -1109 
Q 191 -953 191 -784 
Q 191 -709 225 -634 
Q 278 -519 444 -313 
Q 466 -284 763 25 
Q 600 122 533 198 
Q 466 275 466 372 
Q 466 481 555 628 
Q 644 775 966 1044 
z
M 1509 2797 
Q 1278 2797 1122 2612 
Q 966 2428 966 2047 
Q 966 1553 1178 1281 
Q 1341 1075 1591 1075 
Q 1828 1075 1981 1253 
Q 2134 1431 2134 1813 
Q 2134 2309 1919 2591 
Q 1759 2797 1509 2797 
z
M 934 0 
Q 788 -159 713 -296 
Q 638 -434 638 -550 
Q 638 -700 819 -813 
Q 1131 -1006 1722 -1006 
Q 2284 -1006 2551 -807 
Q 2819 -609 2819 -384 
Q 2819 -222 2659 -153 
Q 2497 -84 2016 -72 
Q 1313 -53 934 0 
z
" transform="scale(0.015625)"/>
      </defs>
      <use xlink:href="#TimesNewRomanPSMT-47"/>
      <use xlink:href="#TimesNewRomanPSMT-72" transform="translate(72.216797 0)"/>
      <use xlink:href="#TimesNewRomanPSMT-61" transform="translate(105.517578 0)"/>
      <use xlink:href="#TimesNewRomanPSMT-64" transform="translate(149.902344 0)"/>
      <use xlink:href="#TimesNewRomanPSMT-69" transform="translate(199.902344 0)"/>
      <use xlink:href="#TimesNewRomanPSMT-65" transform="translate(227.685547 0)"/>
      <use xlink:href="#TimesNewRomanPSMT-6e" transform="translate(272.070312 0)"/>
      <use xlink:href="#TimesNewRomanPSMT-74" transform="translate(322.070312 0)"/>
      <use xlink:href="#TimesNewRomanPSMT-20" transform="translate(349.853516 0)"/>
      <use xlink:href="#TimesNewRomanPSMT-42" transform="translate(374.853516 0)"/>
      <use xlink:href="#TimesNewRomanPSMT-6f" transform="translate(441.552734 0)"/>
      <use xlink:href="#TimesNewRomanPSMT-6f" transform="translate(491.552734 0)"/>
      <use xlink:href="#TimesNewRomanPSMT-73" transform="translate(541.552734 0)"/>
      <use xlink:href="#TimesNewRomanPSMT-74" transform="translate(580.46875 0)"/>
      <use xlink:href="#TimesNewRomanPSMT-69" transform="translate(608.251953 0)"/>
      <use xlink:href="#TimesNewRomanPSMT-6e" transform="translate(636.035156 0)"/>
      <use xlink:href="#TimesNewRomanPSMT-67" transform="translate(686.035156 0)"/>
     </g>
    </g>
    <g id="line2d_36">
     <path d="M 387.225156 472.584063 
L 397.225156 472.584063 
L 407.225156 472.584063 
" style="fill: none; stroke: #c73e1d; stroke-width: 2; stroke-linecap: square"/>
    </g>
    <g id="text_21">
     <!-- XGBoost -->
     <g transform="translate(415.225156 476.084063) scale(0.1 -0.1)">
      <defs>
       <path id="TimesNewRomanPSMT-58" d="M 2613 2347 
L 3522 991 
Q 3900 428 4083 279 
Q 4266 131 4547 116 
L 4547 0 
L 2728 0 
L 2728 116 
Q 2909 119 2997 153 
Q 3063 181 3105 239 
Q 3147 297 3147 356 
Q 3147 428 3119 500 
Q 3097 553 2947 775 
L 2228 1863 
L 1341 725 
Q 1200 544 1172 483 
Q 1144 422 1144 356 
Q 1144 256 1228 190 
Q 1313 125 1550 116 
L 1550 0 
L 47 0 
L 47 116 
Q 206 131 322 181 
Q 516 263 691 400 
Q 866 538 1091 822 
L 2091 2084 
L 1256 3306 
Q 916 3803 678 3958 
Q 441 4113 131 4122 
L 131 4238 
L 2091 4238 
L 2091 4122 
Q 1841 4113 1748 4041 
Q 1656 3969 1656 3881 
Q 1656 3766 1806 3544 
L 2456 2572 
L 3209 3525 
Q 3341 3694 3370 3756 
Q 3400 3819 3400 3884 
Q 3400 3950 3363 4000 
Q 3316 4066 3244 4092 
Q 3172 4119 2947 4122 
L 2947 4238 
L 4450 4238 
L 4450 4122 
Q 4272 4113 4159 4066 
Q 3991 3994 3850 3872 
Q 3709 3750 3453 3422 
L 2613 2347 
z
" transform="scale(0.015625)"/>
      </defs>
      <use xlink:href="#TimesNewRomanPSMT-58"/>
      <use xlink:href="#TimesNewRomanPSMT-47" transform="translate(72.216797 0)"/>
      <use xlink:href="#TimesNewRomanPSMT-42" transform="translate(144.433594 0)"/>
      <use xlink:href="#TimesNewRomanPSMT-6f" transform="translate(211.132812 0)"/>
      <use xlink:href="#TimesNewRomanPSMT-6f" transform="translate(261.132812 0)"/>
      <use xlink:href="#TimesNewRomanPSMT-73" transform="translate(311.132812 0)"/>
      <use xlink:href="#TimesNewRomanPSMT-74" transform="translate(350.048828 0)"/>
     </g>
    </g>
    <g id="line2d_37">
     <path d="M 387.225156 486.723125 
L 397.225156 486.723125 
L 407.225156 486.723125 
" style="fill: none; stroke: #4a90a4; stroke-width: 2; stroke-linecap: square"/>
    </g>
    <g id="text_22">
     <!-- Logistic Regression -->
     <g transform="translate(415.225156 490.223125) scale(0.1 -0.1)">
      <defs>
       <path id="TimesNewRomanPSMT-4c" d="M 3669 1172 
L 3772 1150 
L 3409 0 
L 128 0 
L 128 116 
L 288 116 
Q 556 116 672 291 
Q 738 391 738 753 
L 738 3488 
Q 738 3884 650 3984 
Q 528 4122 288 4122 
L 128 4122 
L 128 4238 
L 2047 4238 
L 2047 4122 
Q 1709 4125 1573 4059 
Q 1438 3994 1388 3894 
Q 1338 3794 1338 3416 
L 1338 753 
Q 1338 494 1388 397 
Q 1425 331 1503 300 
Q 1581 269 1991 269 
L 2300 269 
Q 2788 269 2984 341 
Q 3181 413 3343 595 
Q 3506 778 3669 1172 
z
" transform="scale(0.015625)"/>
       <path id="TimesNewRomanPSMT-63" d="M 2631 1088 
Q 2516 522 2178 217 
Q 1841 -88 1431 -88 
Q 944 -88 581 321 
Q 219 731 219 1428 
Q 219 2103 620 2525 
Q 1022 2947 1584 2947 
Q 2006 2947 2278 2723 
Q 2550 2500 2550 2259 
Q 2550 2141 2473 2067 
Q 2397 1994 2259 1994 
Q 2075 1994 1981 2113 
Q 1928 2178 1911 2362 
Q 1894 2547 1784 2644 
Q 1675 2738 1481 2738 
Q 1169 2738 978 2506 
Q 725 2200 725 1697 
Q 725 1184 976 792 
Q 1228 400 1656 400 
Q 1963 400 2206 609 
Q 2378 753 2541 1131 
L 2631 1088 
z
" transform="scale(0.015625)"/>
      </defs>
      <use xlink:href="#TimesNewRomanPSMT-4c"/>
      <use xlink:href="#TimesNewRomanPSMT-6f" transform="translate(61.083984 0)"/>
      <use xlink:href="#TimesNewRomanPSMT-67" transform="translate(111.083984 0)"/>
      <use xlink:href="#TimesNewRomanPSMT-69" transform="translate(161.083984 0)"/>
      <use xlink:href="#TimesNewRomanPSMT-73" transform="translate(188.867188 0)"/>
      <use xlink:href="#TimesNewRomanPSMT-74" transform="translate(227.783203 0)"/>
      <use xlink:href="#TimesNewRomanPSMT-69" transform="translate(255.566406 0)"/>
      <use xlink:href="#TimesNewRomanPSMT-63" transform="translate(283.349609 0)"/>
      <use xlink:href="#TimesNewRomanPSMT-20" transform="translate(327.734375 0)"/>
      <use xlink:href="#TimesNewRomanPSMT-52" transform="translate(352.734375 0)"/>
      <use xlink:href="#TimesNewRomanPSMT-65" transform="translate(419.433594 0)"/>
      <use xlink:href="#TimesNewRomanPSMT-67" transform="translate(463.818359 0)"/>
      <use xlink:href="#TimesNewRomanPSMT-72" transform="translate(513.818359 0)"/>
      <use xlink:href="#TimesNewRomanPSMT-65" transform="translate(547.119141 0)"/>
      <use xlink:href="#TimesNewRomanPSMT-73" transform="translate(591.503906 0)"/>
      <use xlink:href="#TimesNewRomanPSMT-73" transform="translate(630.419922 0)"/>
      <use xlink:href="#TimesNewRomanPSMT-69" transform="translate(669.335938 0)"/>
      <use xlink:href="#TimesNewRomanPSMT-6f" transform="translate(697.119141 0)"/>
      <use xlink:href="#TimesNewRomanPSMT-6e" transform="translate(747.119141 0)"/>
     </g>
    </g>
    <g id="line2d_38">
     <path d="M 387.225156 500.880938 
L 397.225156 500.880938 
L 407.225156 500.880938 
" style="fill: none; stroke: #a23b72; stroke-width: 2; stroke-linecap: square"/>
    </g>
    <g id="text_23">
     <!-- AdaBoost -->
     <g transform="translate(415.225156 504.380938) scale(0.1 -0.1)">
      <defs>
       <path id="TimesNewRomanPSMT-41" d="M 2928 1419 
L 1288 1419 
L 1000 750 
Q 894 503 894 381 
Q 894 284 986 211 
Q 1078 138 1384 116 
L 1384 0 
L 50 0 
L 50 116 
Q 316 163 394 238 
Q 553 388 747 847 
L 2238 4334 
L 2347 4334 
L 3822 809 
Q 4000 384 4145 257 
Q 4291 131 4550 116 
L 4550 0 
L 2878 0 
L 2878 116 
Q 3131 128 3220 200 
Q 3309 272 3309 375 
Q 3309 513 3184 809 
L 2928 1419 
z
M 2841 1650 
L 2122 3363 
L 1384 1650 
L 2841 1650 
z
" transform="scale(0.015625)"/>
      </defs>
      <use xlink:href="#TimesNewRomanPSMT-41"/>
      <use xlink:href="#TimesNewRomanPSMT-64" transform="translate(72.216797 0)"/>
      <use xlink:href="#TimesNewRomanPSMT-61" transform="translate(122.216797 0)"/>
      <use xlink:href="#TimesNewRomanPSMT-42" transform="translate(166.601562 0)"/>
      <use xlink:href="#TimesNewRomanPSMT-6f" transform="translate(233.300781 0)"/>
      <use xlink:href="#TimesNewRomanPSMT-6f" transform="translate(283.300781 0)"/>
      <use xlink:href="#TimesNewRomanPSMT-73" transform="translate(333.300781 0)"/>
      <use xlink:href="#TimesNewRomanPSMT-74" transform="translate(372.216797 0)"/>
     </g>
    </g>
   </g>
  </g>
  <g id="text_24">
   <!-- ROC Zoom -->
   <g transform="translate(228.789531 26.319375) scale(0.18 -0.18)">
    <use xlink:href="#TimesNewRomanPS-BoldMT-52"/>
    <use xlink:href="#TimesNewRomanPS-BoldMT-4f" transform="translate(72.216797 0)"/>
    <use xlink:href="#TimesNewRomanPS-BoldMT-43" transform="translate(150 0)"/>
    <use xlink:href="#TimesNewRomanPS-BoldMT-20" transform="translate(222.216797 0)"/>
    <use xlink:href="#TimesNewRomanPS-BoldMT-5a" transform="translate(247.216797 0)"/>
    <use xlink:href="#TimesNewRomanPS-BoldMT-6f" transform="translate(313.916016 0)"/>
    <use xlink:href="#TimesNewRomanPS-BoldMT-6f" transform="translate(363.916016 0)"/>
    <use xlink:href="#TimesNewRomanPS-BoldMT-6d" transform="translate(413.916016 0)"/>
   </g>
  </g>
 </g>
 <defs>
  <clipPath id="p116125b8eb">
   <rect x="57.539219" y="72" width="446.4" height="443.52"/>
  </clipPath>
 </defs>
</svg>
