<?xml version="1.0" encoding="utf-8" standalone="no"?>
<!DOCTYPE svg PUBLIC "-//W3C//DTD SVG 1.1//EN"
  "http://www.w3.org/Graphics/SVG/1.1/DTD/svg11.dtd">
<svg xmlns:xlink="http://www.w3.org/1999/xlink" width="864pt" height="576pt" viewBox="0 0 864 576" xmlns="http://www.w3.org/2000/svg" version="1.1">
 <metadata>
  <rdf:RDF xmlns:dc="http://purl.org/dc/elements/1.1/" xmlns:cc="http://creativecommons.org/ns#" xmlns:rdf="http://www.w3.org/1999/02/22-rdf-syntax-ns#">
   <cc:Work>
    <dc:type rdf:resource="http://purl.org/dc/dcmitype/StillImage"/>
    <dc:date>2026-01-15T23:59:24.986925</dc:date>
    <dc:format>image/svg+xml</dc:format>
    <dc:creator>
     <cc:Agent>
      <dc:title>Matplotlib v3.10.1, https://matplotlib.org/</dc:title>
     </cc:Agent>
    </dc:creator>
   </cc:Work>
  </rdf:RDF>
 </metadata>
 <defs>
  <style type="text/css">*{stroke-linejoin: round; stroke-linecap: butt}</style>
 </defs>
 <g id="figure_1">
  <g id="patch_1">
   <path d="M -0 576 
L 864 576 
L 864 0 
L -0 0 
z
" style="fill: #ffffff"/>
  </g>
  <g id="axes_1">
   <g id="patch_2">
    <path d="M 45.007656 535.092969 
L 849.3 535.092969 
L 849.3 11.36625 
L 45.007656 11.36625 
z
" style="fill: #ffffff"/>
   </g>
   <g id="PathCollection_1">
    <path d="M -758.323733 1581.6449 
C -545.02291 1581.6449 -340.429621 1526.461749 -189.603163 1428.248896 
C -38.776704 1330.036042 45.968611 1196.812131 45.968611 1057.918182 
C 45.968611 919.024232 -38.776704 785.800321 -189.603163 687.587467 
C -340.429621 589.374614 -545.02291 534.191463 -758.323733 534.191463 
C -971.624556 534.191463 -1176.217845 589.374614 -1327.044303 687.587467 
C -1477.870762 785.800321 -1562.616077 919.024232 -1562.616077 1057.918182 
C -1562.616077 1196.812131 -1477.870762 1330.036042 -1327.044303 1428.248896 
C -1176.217845 1526.461749 -971.624556 1581.6449 -758.323733 1581.6449 
z
" clip-path="url(#pd24272ad4d)" style="fill: #1f77b4; stroke: #000000"/>
   </g>
   <g id="PathCollection_2">
    <path d="M -758.321564 1581.658051 
C -545.020741 1581.658051 -340.427452 1526.4749 -189.600994 1428.262046 
C -38.774535 1330.049193 45.97078 1196.825282 45.97078 1057.931332 
C 45.97078 919.037383 -38.774535 785.813471 -189.600994 687.600618 
C -340.427452 589.387764 -545.020741 534.204613 -758.321564 534.204613 
C -971.622387 534.204613 -1176.215676 589.387764 -1327.042134 687.600618 
C -1477.868592 785.813471 -1562.613908 919.037383 -1562.613908 1057.931332 
C -1562.613908 1196.825282 -1477.868592 1330.049193 -1327.042134 1428.262046 
C -1176.215676 1526.4749 -971.622387 1581.658051 -758.321564 1581.658051 
z
" clip-path="url(#pd24272ad4d)" style="fill: #ff7f0e; stroke: #000000"/>
   </g>
   <g id="PathCollection_3">
    <path d="M -758.33241 1581.650488 
C -545.031587 1581.650488 -340.438298 1526.467337 -189.61184 1428.254483 
C -38.785381 1330.04163 45.959934 1196.817718 45.959934 1057.923769 
C 45.959934 919.02982 -38.785381 785.805908 -189.61184 687.593055 
C -340.438298 589.380201 -545.031587 534.19705 -758.33241 534.19705 
C -971.633233 534.19705 -1176.226522 589.380201 -1327.05298 687.593055 
C -1477.879438 785.805908 -1562.624754 919.02982 -1562.624754 1057.923769 
C -1562.624754 1196.817718 -1477.879438 1330.04163 -1327.05298 1428.254483 
C -1176.226522 1526.467337 -971.633233 1581.650488 -758.33241 1581.650488 
z
" clip-path="url(#pd24272ad4d)" style="fill: #2ca02c; stroke: #000000"/>
   </g>
   <g id="matplotlib.axis_1">
    <g id="xtick_1">
     <g id="line2d_1">
      <defs>
       <path id="m5197fdd12c" d="M 0 0 
L 0 3.5 
" style="stroke: #000000; stroke-width: 0.8"/>
      </defs>
      <g>
       <use xlink:href="#m5197fdd12c" x="45.007656" y="535.092969" style="stroke: #000000; stroke-width: 0.8"/>
      </g>
     </g>
     <g id="text_1">
      <!-- 0.5 -->
      <g transform="translate(37.507656 550.425469) scale(0.12 -0.12)">
       <defs>
        <path id="TimesNewRomanPSMT-30" d="M 231 2094 
Q 231 2819 450 3342 
Q 669 3866 1031 4122 
Q 1313 4325 1613 4325 
Q 2100 4325 2488 3828 
Q 2972 3213 2972 2159 
Q 2972 1422 2759 906 
Q 2547 391 2217 158 
Q 1888 -75 1581 -75 
Q 975 -75 572 641 
Q 231 1244 231 2094 
z
M 844 2016 
Q 844 1141 1059 588 
Q 1238 122 1591 122 
Q 1759 122 1940 273 
Q 2122 425 2216 781 
Q 2359 1319 2359 2297 
Q 2359 3022 2209 3506 
Q 2097 3866 1919 4016 
Q 1791 4119 1609 4119 
Q 1397 4119 1231 3928 
Q 1006 3669 925 3112 
Q 844 2556 844 2016 
z
" transform="scale(0.015625)"/>
        <path id="TimesNewRomanPSMT-2e" d="M 800 606 
Q 947 606 1047 504 
Q 1147 403 1147 259 
Q 1147 116 1045 14 
Q 944 -88 800 -88 
Q 656 -88 554 14 
Q 453 116 453 259 
Q 453 406 554 506 
Q 656 606 800 606 
z
" transform="scale(0.015625)"/>
        <path id="TimesNewRomanPSMT-35" d="M 2778 4238 
L 2534 3706 
L 1259 3706 
L 981 3138 
Q 1809 3016 2294 2522 
Q 2709 2097 2709 1522 
Q 2709 1188 2573 903 
Q 2438 619 2231 419 
Q 2025 219 1772 97 
Q 1413 -75 1034 -75 
Q 653 -75 479 54 
Q 306 184 306 341 
Q 306 428 378 495 
Q 450 563 559 563 
Q 641 563 702 538 
Q 763 513 909 409 
Q 1144 247 1384 247 
Q 1750 247 2026 523 
Q 2303 800 2303 1197 
Q 2303 1581 2056 1914 
Q 1809 2247 1375 2428 
Q 1034 2569 447 2591 
L 1259 4238 
L 2778 4238 
z
" transform="scale(0.015625)"/>
       </defs>
       <use xlink:href="#TimesNewRomanPSMT-30"/>
       <use xlink:href="#TimesNewRomanPSMT-2e" transform="translate(50 0)"/>
       <use xlink:href="#TimesNewRomanPSMT-35" transform="translate(75 0)"/>
      </g>
     </g>
    </g>
    <g id="xtick_2">
     <g id="line2d_2">
      <g>
       <use xlink:href="#m5197fdd12c" x="205.866125" y="535.092969" style="stroke: #000000; stroke-width: 0.8"/>
      </g>
     </g>
     <g id="text_2">
      <!-- 0.6 -->
      <g transform="translate(198.366125 550.425469) scale(0.12 -0.12)">
       <defs>
        <path id="TimesNewRomanPSMT-36" d="M 2869 4325 
L 2869 4209 
Q 2456 4169 2195 4045 
Q 1934 3922 1679 3669 
Q 1425 3416 1258 3105 
Q 1091 2794 978 2366 
Q 1428 2675 1881 2675 
Q 2316 2675 2634 2325 
Q 2953 1975 2953 1425 
Q 2953 894 2631 456 
Q 2244 -75 1606 -75 
Q 1172 -75 869 213 
Q 275 772 275 1663 
Q 275 2231 503 2743 
Q 731 3256 1154 3653 
Q 1578 4050 1965 4187 
Q 2353 4325 2688 4325 
L 2869 4325 
z
M 925 2138 
Q 869 1716 869 1456 
Q 869 1156 980 804 
Q 1091 453 1309 247 
Q 1469 100 1697 100 
Q 1969 100 2183 356 
Q 2397 613 2397 1088 
Q 2397 1622 2184 2012 
Q 1972 2403 1581 2403 
Q 1463 2403 1327 2353 
Q 1191 2303 925 2138 
z
" transform="scale(0.015625)"/>
       </defs>
       <use xlink:href="#TimesNewRomanPSMT-30"/>
       <use xlink:href="#TimesNewRomanPSMT-2e" transform="translate(50 0)"/>
       <use xlink:href="#TimesNewRomanPSMT-36" transform="translate(75 0)"/>
      </g>
     </g>
    </g>
    <g id="xtick_3">
     <g id="line2d_3">
      <g>
       <use xlink:href="#m5197fdd12c" x="366.724594" y="535.092969" style="stroke: #000000; stroke-width: 0.8"/>
      </g>
     </g>
     <g id="text_3">
      <!-- 0.7 -->
      <g transform="translate(359.224594 550.425469) scale(0.12 -0.12)">
       <defs>
        <path id="TimesNewRomanPSMT-37" d="M 644 4238 
L 2916 4238 
L 2916 4119 
L 1503 -88 
L 1153 -88 
L 2419 3728 
L 1253 3728 
Q 900 3728 750 3644 
Q 488 3500 328 3200 
L 238 3234 
L 644 4238 
z
" transform="scale(0.015625)"/>
       </defs>
       <use xlink:href="#TimesNewRomanPSMT-30"/>
       <use xlink:href="#TimesNewRomanPSMT-2e" transform="translate(50 0)"/>
       <use xlink:href="#TimesNewRomanPSMT-37" transform="translate(75 0)"/>
      </g>
     </g>
    </g>
    <g id="xtick_4">
     <g id="line2d_4">
      <g>
       <use xlink:href="#m5197fdd12c" x="527.583063" y="535.092969" style="stroke: #000000; stroke-width: 0.8"/>
      </g>
     </g>
     <g id="text_4">
      <!-- 0.8 -->
      <g transform="translate(520.083063 550.425469) scale(0.12 -0.12)">
       <defs>
        <path id="TimesNewRomanPSMT-38" d="M 1228 2134 
Q 725 2547 579 2797 
Q 434 3047 434 3316 
Q 434 3728 753 4026 
Q 1072 4325 1600 4325 
Q 2113 4325 2425 4047 
Q 2738 3769 2738 3413 
Q 2738 3175 2569 2928 
Q 2400 2681 1866 2347 
Q 2416 1922 2594 1678 
Q 2831 1359 2831 1006 
Q 2831 559 2490 242 
Q 2150 -75 1597 -75 
Q 994 -75 656 303 
Q 388 606 388 966 
Q 388 1247 577 1523 
Q 766 1800 1228 2134 
z
M 1719 2469 
Q 2094 2806 2194 3001 
Q 2294 3197 2294 3444 
Q 2294 3772 2109 3958 
Q 1925 4144 1606 4144 
Q 1288 4144 1088 3959 
Q 888 3775 888 3528 
Q 888 3366 970 3203 
Q 1053 3041 1206 2894 
L 1719 2469 
z
M 1375 2016 
Q 1116 1797 991 1539 
Q 866 1281 866 981 
Q 866 578 1086 336 
Q 1306 94 1647 94 
Q 1984 94 2187 284 
Q 2391 475 2391 747 
Q 2391 972 2272 1150 
Q 2050 1481 1375 2016 
z
" transform="scale(0.015625)"/>
       </defs>
       <use xlink:href="#TimesNewRomanPSMT-30"/>
       <use xlink:href="#TimesNewRomanPSMT-2e" transform="translate(50 0)"/>
       <use xlink:href="#TimesNewRomanPSMT-38" transform="translate(75 0)"/>
      </g>
     </g>
    </g>
    <g id="xtick_5">
     <g id="line2d_5">
      <g>
       <use xlink:href="#m5197fdd12c" x="688.441531" y="535.092969" style="stroke: #000000; stroke-width: 0.8"/>
      </g>
     </g>
     <g id="text_5">
      <!-- 0.9 -->
      <g transform="translate(680.941531 550.425469) scale(0.12 -0.12)">
       <defs>
        <path id="TimesNewRomanPSMT-39" d="M 338 -88 
L 338 28 
Q 744 34 1094 217 
Q 1444 400 1770 856 
Q 2097 1313 2225 1859 
Q 1734 1544 1338 1544 
Q 891 1544 572 1889 
Q 253 2234 253 2806 
Q 253 3363 572 3797 
Q 956 4325 1575 4325 
Q 2097 4325 2469 3894 
Q 2925 3359 2925 2575 
Q 2925 1869 2578 1258 
Q 2231 647 1613 244 
Q 1109 -88 516 -88 
L 338 -88 
z
M 2275 2091 
Q 2331 2497 2331 2741 
Q 2331 3044 2228 3395 
Q 2125 3747 1936 3934 
Q 1747 4122 1506 4122 
Q 1228 4122 1018 3872 
Q 809 3622 809 3128 
Q 809 2469 1088 2097 
Q 1291 1828 1588 1828 
Q 1731 1828 1928 1897 
Q 2125 1966 2275 2091 
z
" transform="scale(0.015625)"/>
       </defs>
       <use xlink:href="#TimesNewRomanPSMT-30"/>
       <use xlink:href="#TimesNewRomanPSMT-2e" transform="translate(50 0)"/>
       <use xlink:href="#TimesNewRomanPSMT-39" transform="translate(75 0)"/>
      </g>
     </g>
    </g>
    <g id="xtick_6">
     <g id="line2d_6">
      <g>
       <use xlink:href="#m5197fdd12c" x="849.3" y="535.092969" style="stroke: #000000; stroke-width: 0.8"/>
      </g>
     </g>
     <g id="text_6">
      <!-- 1.0 -->
      <g transform="translate(841.8 550.425469) scale(0.12 -0.12)">
       <defs>
        <path id="TimesNewRomanPSMT-31" d="M 750 3822 
L 1781 4325 
L 1884 4325 
L 1884 747 
Q 1884 391 1914 303 
Q 1944 216 2037 169 
Q 2131 122 2419 116 
L 2419 0 
L 825 0 
L 825 116 
Q 1125 122 1212 167 
Q 1300 213 1334 289 
Q 1369 366 1369 747 
L 1369 3034 
Q 1369 3497 1338 3628 
Q 1316 3728 1258 3775 
Q 1200 3822 1119 3822 
Q 1003 3822 797 3725 
L 750 3822 
z
" transform="scale(0.015625)"/>
       </defs>
       <use xlink:href="#TimesNewRomanPSMT-31"/>
       <use xlink:href="#TimesNewRomanPSMT-2e" transform="translate(50 0)"/>
       <use xlink:href="#TimesNewRomanPSMT-30" transform="translate(75 0)"/>
      </g>
     </g>
    </g>
    <g id="text_7">
     <!-- Recall -->
     <g transform="translate(430.550391 566.019219) scale(0.13 -0.13)">
      <defs>
       <path id="TimesNewRomanPSMT-52" d="M 4325 0 
L 3194 0 
L 1759 1981 
Q 1600 1975 1500 1975 
Q 1459 1975 1412 1976 
Q 1366 1978 1316 1981 
L 1316 750 
Q 1316 350 1403 253 
Q 1522 116 1759 116 
L 1925 116 
L 1925 0 
L 109 0 
L 109 116 
L 269 116 
Q 538 116 653 291 
Q 719 388 719 750 
L 719 3488 
Q 719 3888 631 3984 
Q 509 4122 269 4122 
L 109 4122 
L 109 4238 
L 1653 4238 
Q 2328 4238 2648 4139 
Q 2969 4041 3192 3777 
Q 3416 3513 3416 3147 
Q 3416 2756 3161 2468 
Q 2906 2181 2372 2063 
L 3247 847 
Q 3547 428 3762 290 
Q 3978 153 4325 116 
L 4325 0 
z
M 1316 2178 
Q 1375 2178 1419 2176 
Q 1463 2175 1491 2175 
Q 2097 2175 2405 2437 
Q 2713 2700 2713 3106 
Q 2713 3503 2464 3751 
Q 2216 4000 1806 4000 
Q 1625 4000 1316 3941 
L 1316 2178 
z
" transform="scale(0.015625)"/>
       <path id="TimesNewRomanPSMT-65" d="M 681 1784 
Q 678 1147 991 784 
Q 1303 422 1725 422 
Q 2006 422 2214 576 
Q 2422 731 2563 1106 
L 2659 1044 
Q 2594 616 2278 264 
Q 1963 -88 1488 -88 
Q 972 -88 605 314 
Q 238 716 238 1394 
Q 238 2128 614 2539 
Q 991 2950 1559 2950 
Q 2041 2950 2350 2633 
Q 2659 2316 2659 1784 
L 681 1784 
z
M 681 1966 
L 2006 1966 
Q 1991 2241 1941 2353 
Q 1863 2528 1708 2628 
Q 1553 2728 1384 2728 
Q 1125 2728 920 2526 
Q 716 2325 681 1966 
z
" transform="scale(0.015625)"/>
       <path id="TimesNewRomanPSMT-63" d="M 2631 1088 
Q 2516 522 2178 217 
Q 1841 -88 1431 -88 
Q 944 -88 581 321 
Q 219 731 219 1428 
Q 219 2103 620 2525 
Q 1022 2947 1584 2947 
Q 2006 2947 2278 2723 
Q 2550 2500 2550 2259 
Q 2550 2141 2473 2067 
Q 2397 1994 2259 1994 
Q 2075 1994 1981 2113 
Q 1928 2178 1911 2362 
Q 1894 2547 1784 2644 
Q 1675 2738 1481 2738 
Q 1169 2738 978 2506 
Q 725 2200 725 1697 
Q 725 1184 976 792 
Q 1228 400 1656 400 
Q 1963 400 2206 609 
Q 2378 753 2541 1131 
L 2631 1088 
z
" transform="scale(0.015625)"/>
       <path id="TimesNewRomanPSMT-61" d="M 1822 413 
Q 1381 72 1269 19 
Q 1100 -59 909 -59 
Q 613 -59 420 144 
Q 228 347 228 678 
Q 228 888 322 1041 
Q 450 1253 767 1440 
Q 1084 1628 1822 1897 
L 1822 2009 
Q 1822 2438 1686 2597 
Q 1550 2756 1291 2756 
Q 1094 2756 978 2650 
Q 859 2544 859 2406 
L 866 2225 
Q 866 2081 792 2003 
Q 719 1925 600 1925 
Q 484 1925 411 2006 
Q 338 2088 338 2228 
Q 338 2497 613 2722 
Q 888 2947 1384 2947 
Q 1766 2947 2009 2819 
Q 2194 2722 2281 2516 
Q 2338 2381 2338 1966 
L 2338 994 
Q 2338 584 2353 492 
Q 2369 400 2405 369 
Q 2441 338 2488 338 
Q 2538 338 2575 359 
Q 2641 400 2828 588 
L 2828 413 
Q 2478 -56 2159 -56 
Q 2006 -56 1915 50 
Q 1825 156 1822 413 
z
M 1822 616 
L 1822 1706 
Q 1350 1519 1213 1441 
Q 966 1303 859 1153 
Q 753 1003 753 825 
Q 753 600 887 451 
Q 1022 303 1197 303 
Q 1434 303 1822 616 
z
" transform="scale(0.015625)"/>
       <path id="TimesNewRomanPSMT-6c" d="M 1184 4444 
L 1184 647 
Q 1184 378 1223 290 
Q 1263 203 1344 158 
Q 1425 113 1647 113 
L 1647 0 
L 244 0 
L 244 113 
Q 441 113 512 153 
Q 584 194 625 287 
Q 666 381 666 647 
L 666 3247 
Q 666 3731 644 3842 
Q 622 3953 573 3993 
Q 525 4034 450 4034 
Q 369 4034 244 3984 
L 191 4094 
L 1044 4444 
L 1184 4444 
z
" transform="scale(0.015625)"/>
      </defs>
      <use xlink:href="#TimesNewRomanPSMT-52"/>
      <use xlink:href="#TimesNewRomanPSMT-65" transform="translate(66.699219 0)"/>
      <use xlink:href="#TimesNewRomanPSMT-63" transform="translate(111.083984 0)"/>
      <use xlink:href="#TimesNewRomanPSMT-61" transform="translate(155.46875 0)"/>
      <use xlink:href="#TimesNewRomanPSMT-6c" transform="translate(199.853516 0)"/>
      <use xlink:href="#TimesNewRomanPSMT-6c" transform="translate(227.636719 0)"/>
     </g>
    </g>
   </g>
   <g id="matplotlib.axis_2">
    <g id="ytick_1">
     <g id="line2d_7">
      <defs>
       <path id="ma893557d86" d="M 0 0 
L -3.5 0 
" style="stroke: #000000; stroke-width: 0.8"/>
      </defs>
      <g>
       <use xlink:href="#ma893557d86" x="45.007656" y="535.092969" style="stroke: #000000; stroke-width: 0.8"/>
      </g>
     </g>
     <g id="text_8">
      <!-- 0.5 -->
      <g transform="translate(23.007656 539.259219) scale(0.12 -0.12)">
       <use xlink:href="#TimesNewRomanPSMT-30"/>
       <use xlink:href="#TimesNewRomanPSMT-2e" transform="translate(50 0)"/>
       <use xlink:href="#TimesNewRomanPSMT-35" transform="translate(75 0)"/>
      </g>
     </g>
    </g>
    <g id="ytick_2">
     <g id="line2d_8">
      <g>
       <use xlink:href="#ma893557d86" x="45.007656" y="430.347625" style="stroke: #000000; stroke-width: 0.8"/>
      </g>
     </g>
     <g id="text_9">
      <!-- 0.6 -->
      <g transform="translate(23.007656 434.513875) scale(0.12 -0.12)">
       <use xlink:href="#TimesNewRomanPSMT-30"/>
       <use xlink:href="#TimesNewRomanPSMT-2e" transform="translate(50 0)"/>
       <use xlink:href="#TimesNewRomanPSMT-36" transform="translate(75 0)"/>
      </g>
     </g>
    </g>
    <g id="ytick_3">
     <g id="line2d_9">
      <g>
       <use xlink:href="#ma893557d86" x="45.007656" y="325.602281" style="stroke: #000000; stroke-width: 0.8"/>
      </g>
     </g>
     <g id="text_10">
      <!-- 0.7 -->
      <g transform="translate(23.007656 329.768531) scale(0.12 -0.12)">
       <use xlink:href="#TimesNewRomanPSMT-30"/>
       <use xlink:href="#TimesNewRomanPSMT-2e" transform="translate(50 0)"/>
       <use xlink:href="#TimesNewRomanPSMT-37" transform="translate(75 0)"/>
      </g>
     </g>
    </g>
    <g id="ytick_4">
     <g id="line2d_10">
      <g>
       <use xlink:href="#ma893557d86" x="45.007656" y="220.856938" style="stroke: #000000; stroke-width: 0.8"/>
      </g>
     </g>
     <g id="text_11">
      <!-- 0.8 -->
      <g transform="translate(23.007656 225.023188) scale(0.12 -0.12)">
       <use xlink:href="#TimesNewRomanPSMT-30"/>
       <use xlink:href="#TimesNewRomanPSMT-2e" transform="translate(50 0)"/>
       <use xlink:href="#TimesNewRomanPSMT-38" transform="translate(75 0)"/>
      </g>
     </g>
    </g>
    <g id="ytick_5">
     <g id="line2d_11">
      <g>
       <use xlink:href="#ma893557d86" x="45.007656" y="116.111594" style="stroke: #000000; stroke-width: 0.8"/>
      </g>
     </g>
     <g id="text_12">
      <!-- 0.9 -->
      <g transform="translate(23.007656 120.277844) scale(0.12 -0.12)">
       <use xlink:href="#TimesNewRomanPSMT-30"/>
       <use xlink:href="#TimesNewRomanPSMT-2e" transform="translate(50 0)"/>
       <use xlink:href="#TimesNewRomanPSMT-39" transform="translate(75 0)"/>
      </g>
     </g>
    </g>
    <g id="ytick_6">
     <g id="line2d_12">
      <g>
       <use xlink:href="#ma893557d86" x="45.007656" y="11.36625" style="stroke: #000000; stroke-width: 0.8"/>
      </g>
     </g>
     <g id="text_13">
      <!-- 1.0 -->
      <g transform="translate(23.007656 15.5325) scale(0.12 -0.12)">
       <use xlink:href="#TimesNewRomanPSMT-31"/>
       <use xlink:href="#TimesNewRomanPSMT-2e" transform="translate(50 0)"/>
       <use xlink:href="#TimesNewRomanPSMT-30" transform="translate(75 0)"/>
      </g>
     </g>
    </g>
    <g id="text_14">
     <!-- F2-Score -->
     <g transform="translate(16.226875 297.058203) rotate(-90) scale(0.13 -0.13)">
      <defs>
       <path id="TimesNewRomanPSMT-46" d="M 1309 4006 
L 1309 2341 
L 2081 2341 
Q 2347 2341 2470 2458 
Q 2594 2575 2634 2922 
L 2750 2922 
L 2750 1488 
L 2634 1488 
Q 2631 1734 2570 1850 
Q 2509 1966 2401 2023 
Q 2294 2081 2081 2081 
L 1309 2081 
L 1309 750 
Q 1309 428 1350 325 
Q 1381 247 1481 191 
Q 1619 116 1769 116 
L 1922 116 
L 1922 0 
L 103 0 
L 103 116 
L 253 116 
Q 516 116 634 269 
Q 709 369 709 750 
L 709 3488 
Q 709 3809 669 3913 
Q 638 3991 541 4047 
Q 406 4122 253 4122 
L 103 4122 
L 103 4238 
L 3256 4238 
L 3297 3306 
L 3188 3306 
Q 3106 3603 2998 3742 
Q 2891 3881 2733 3943 
Q 2575 4006 2244 4006 
L 1309 4006 
z
" transform="scale(0.015625)"/>
       <path id="TimesNewRomanPSMT-32" d="M 2934 816 
L 2638 0 
L 138 0 
L 138 116 
Q 1241 1122 1691 1759 
Q 2141 2397 2141 2925 
Q 2141 3328 1894 3587 
Q 1647 3847 1303 3847 
Q 991 3847 742 3664 
Q 494 3481 375 3128 
L 259 3128 
Q 338 3706 661 4015 
Q 984 4325 1469 4325 
Q 1984 4325 2329 3994 
Q 2675 3663 2675 3213 
Q 2675 2891 2525 2569 
Q 2294 2063 1775 1497 
Q 997 647 803 472 
L 1909 472 
Q 2247 472 2383 497 
Q 2519 522 2628 598 
Q 2738 675 2819 816 
L 2934 816 
z
" transform="scale(0.015625)"/>
       <path id="TimesNewRomanPSMT-2d" d="M 259 1672 
L 1875 1672 
L 1875 1200 
L 259 1200 
L 259 1672 
z
" transform="scale(0.015625)"/>
       <path id="TimesNewRomanPSMT-53" d="M 2934 4334 
L 2934 2869 
L 2819 2869 
Q 2763 3291 2617 3541 
Q 2472 3791 2203 3937 
Q 1934 4084 1647 4084 
Q 1322 4084 1109 3886 
Q 897 3688 897 3434 
Q 897 3241 1031 3081 
Q 1225 2847 1953 2456 
Q 2547 2138 2764 1967 
Q 2981 1797 3098 1565 
Q 3216 1334 3216 1081 
Q 3216 600 2842 251 
Q 2469 -97 1881 -97 
Q 1697 -97 1534 -69 
Q 1438 -53 1133 45 
Q 828 144 747 144 
Q 669 144 623 97 
Q 578 50 556 -97 
L 441 -97 
L 441 1356 
L 556 1356 
Q 638 900 775 673 
Q 913 447 1195 297 
Q 1478 147 1816 147 
Q 2206 147 2432 353 
Q 2659 559 2659 841 
Q 2659 997 2573 1156 
Q 2488 1316 2306 1453 
Q 2184 1547 1640 1851 
Q 1097 2156 867 2337 
Q 638 2519 519 2737 
Q 400 2956 400 3219 
Q 400 3675 750 4004 
Q 1100 4334 1641 4334 
Q 1978 4334 2356 4169 
Q 2531 4091 2603 4091 
Q 2684 4091 2736 4139 
Q 2788 4188 2819 4334 
L 2934 4334 
z
" transform="scale(0.015625)"/>
       <path id="TimesNewRomanPSMT-6f" d="M 1600 2947 
Q 2250 2947 2644 2453 
Q 2978 2031 2978 1484 
Q 2978 1100 2793 706 
Q 2609 313 2286 112 
Q 1963 -88 1566 -88 
Q 919 -88 538 428 
Q 216 863 216 1403 
Q 216 1797 411 2186 
Q 606 2575 925 2761 
Q 1244 2947 1600 2947 
z
M 1503 2744 
Q 1338 2744 1170 2645 
Q 1003 2547 900 2300 
Q 797 2053 797 1666 
Q 797 1041 1045 587 
Q 1294 134 1700 134 
Q 2003 134 2200 384 
Q 2397 634 2397 1244 
Q 2397 2006 2069 2444 
Q 1847 2744 1503 2744 
z
" transform="scale(0.015625)"/>
       <path id="TimesNewRomanPSMT-72" d="M 1038 2947 
L 1038 2303 
Q 1397 2947 1775 2947 
Q 1947 2947 2059 2842 
Q 2172 2738 2172 2600 
Q 2172 2478 2090 2393 
Q 2009 2309 1897 2309 
Q 1788 2309 1652 2417 
Q 1516 2525 1450 2525 
Q 1394 2525 1328 2463 
Q 1188 2334 1038 2041 
L 1038 669 
Q 1038 431 1097 309 
Q 1138 225 1241 169 
Q 1344 113 1538 113 
L 1538 0 
L 72 0 
L 72 113 
Q 291 113 397 181 
Q 475 231 506 341 
Q 522 394 522 644 
L 522 1753 
Q 522 2253 501 2348 
Q 481 2444 426 2487 
Q 372 2531 291 2531 
Q 194 2531 72 2484 
L 41 2597 
L 906 2947 
L 1038 2947 
z
" transform="scale(0.015625)"/>
      </defs>
      <use xlink:href="#TimesNewRomanPSMT-46"/>
      <use xlink:href="#TimesNewRomanPSMT-32" transform="translate(55.615234 0)"/>
      <use xlink:href="#TimesNewRomanPSMT-2d" transform="translate(105.615234 0)"/>
      <use xlink:href="#TimesNewRomanPSMT-53" transform="translate(138.916016 0)"/>
      <use xlink:href="#TimesNewRomanPSMT-63" transform="translate(194.53125 0)"/>
      <use xlink:href="#TimesNewRomanPSMT-6f" transform="translate(238.916016 0)"/>
      <use xlink:href="#TimesNewRomanPSMT-72" transform="translate(288.916016 0)"/>
      <use xlink:href="#TimesNewRomanPSMT-65" transform="translate(322.216797 0)"/>
     </g>
    </g>
   </g>
   <g id="line2d_13">
    <path d="M 849.3 333.344876 
L 849.3 270.579344 
L 845.810662 272.032324 
L 845.810662 255.23633 
L 842.321325 256.447979 
L 842.321325 190.042803 
L 838.831987 191.622156 
L 838.831987 177.280411 
L 835.342649 178.881781 
L 835.342649 177.585849 
L 831.853311 179.190281 
L 831.853311 172.0043 
L 828.363974 173.620367 
L 828.363974 163.98057 
L 824.874636 165.611835 
L 824.874636 161.905578 
L 821.385298 163.543448 
L 821.385298 151.213706 
L 817.895961 152.870675 
L 817.895961 151.13381 
L 814.406623 152.794562 
L 814.406623 123.000551 
L 810.917285 124.705445 
L 810.917285 122.850571 
L 807.427947 124.55947 
L 807.427947 123.81652 
L 803.93861 125.527842 
L 803.93861 122.548458 
L 800.449272 124.265423 
L 800.449272 122.770734 
L 796.959934 124.491221 
L 796.959934 118.473002 
L 793.470597 120.203538 
L 793.470597 116.026848 
L 789.981259 117.764798 
L 789.981259 114.708185 
L 786.491921 116.451952 
L 786.491921 114.534232 
L 783.002583 116.282189 
L 783.002583 115.129473 
L 776.023908 118.633004 
L 776.023908 117.865191 
L 772.53457 119.62022 
L 772.53457 118.852273 
L 765.555895 122.368885 
L 765.555895 121.985565 
L 762.066557 123.746594 
L 762.066557 119.515494 
L 758.577219 121.284203 
L 758.577219 120.511934 
L 755.087882 122.283239 
L 755.087882 121.897198 
L 751.598544 123.670536 
L 751.598544 122.125473 
L 744.619868 125.681135 
L 744.619868 124.908989 
L 741.130531 126.69018 
L 741.130531 125.91791 
L 737.641193 127.701733 
L 737.641193 124.992745 
L 734.151855 126.782117 
L 734.151855 125.61804 
L 730.662518 127.410654 
L 730.662518 127.022567 
L 727.17318 128.817261 
L 727.17318 128.041289 
L 723.683842 129.838655 
L 723.683842 129.062564 
L 720.194504 130.86261 
L 720.194504 128.530082 
L 716.705167 130.335186 
L 716.705167 127.994469 
L 713.215829 129.804659 
L 713.215829 128.63166 
L 709.726491 130.445167 
L 709.726491 128.486571 
L 706.237154 130.30461 
L 706.237154 129.52006 
L 688.790465 138.639382 
L 688.790465 137.469165 
L 681.81179 141.131377 
L 681.81179 140.352024 
L 678.322452 142.186688 
L 678.322452 141.407238 
L 674.833114 143.244692 
L 674.833114 142.465148 
L 664.365101 147.990611 
L 664.365101 147.213454 
L 657.386426 150.907442 
L 657.386426 150.519611 
L 650.40775 154.221165 
L 650.40775 153.834254 
L 639.939737 159.400355 
L 639.939737 157.85695 
L 622.493048 167.178326 
L 622.493048 166.794825 
L 608.535698 174.283394 
L 608.535698 173.902128 
L 601.557022 177.657391 
L 601.557022 176.896456 
L 598.067684 178.777815 
L 598.067684 178.016862 
L 594.578347 179.901146 
L 594.578347 179.520826 
L 584.110334 185.18543 
L 584.110334 184.806741 
L 566.663645 194.283836 
L 566.663645 193.532065 
L 559.684969 197.337095 
L 559.684969 196.962048 
L 552.706294 200.775042 
L 552.706294 199.651946 
L 531.770268 211.143021 
L 531.770268 209.657172 
L 528.28093 211.580936 
L 528.28093 210.837418 
L 524.791592 212.764233 
L 524.791592 212.392667 
L 514.323579 218.185332 
L 514.323579 217.815498 
L 510.834241 219.750473 
L 510.834241 218.641082 
L 507.344904 220.579833 
L 507.344904 219.839992 
L 496.876891 225.670687 
L 496.876891 225.302363 
L 493.387553 227.250063 
L 493.387553 226.882112 
L 489.898215 228.832236 
L 489.898215 228.096757 
L 482.91954 232.005001 
L 482.91954 231.63818 
L 475.940864 235.554774 
L 475.940864 234.822983 
L 472.451527 236.785309 
L 472.451527 236.419635 
L 465.472851 240.350951 
L 465.472851 239.986377 
L 451.5155 247.872916 
L 451.5155 246.785856 
L 448.026163 248.764056 
L 448.026163 248.401777 
L 444.536825 250.382471 
L 444.536825 250.020592 
L 409.643448 269.932769 
L 409.643448 269.577894 
L 406.15411 271.579705 
L 406.15411 271.225252 
L 385.218084 283.278542 
L 385.218084 282.928252 
L 367.771395 293.026432 
L 367.771395 292.679605 
L 364.282057 294.70549 
L 364.282057 294.012416 
L 360.79272 296.041662 
L 360.79272 295.348858 
L 350.324706 301.452263 
L 350.324706 301.107692 
L 308.452654 325.698114 
L 297.984641 331.887962 
L 297.984641 331.554812 
L 287.516628 337.764086 
L 287.516628 337.101655 
L 273.559277 345.413757 
L 273.559277 344.427481 
L 270.069939 346.512716 
L 270.069939 346.184162 
L 263.091264 350.36203 
L 263.091264 349.379426 
L 245.644575 359.87022 
L 245.644575 359.546183 
L 238.6659 363.757778 
L 238.6659 363.112109 
L 217.729873 375.803939 
L 217.729873 375.167094 
L 200.283185 385.806381 
L 200.283185 385.491741 
L 186.325834 394.042447 
L 186.325834 393.73093 
L 175.857821 400.167596 
L 175.857821 399.85837 
L 137.475106 423.624941 
L 123.517755 432.328624 
L 123.517755 432.032271 
L 113.049742 438.58435 
L 113.049742 437.996171 
L 74.667027 462.200594 
L 50.241663 477.736001 
L 50.241663 477.179674 
L 36.284312 486.111333 
L 36.284312 485.836521 
L 22.326961 494.806298 
L 22.326961 494.535007 
L 15.348286 499.03475 
L 15.348286 498.765104 
L 8.36961 503.275434 
L 8.36961 503.007444 
L 1.390935 507.528405 
L 1.390935 507.26208 
L -1 508.813894 
L -1 508.813894 
" clip-path="url(#pd24272ad4d)" style="fill: none; stroke: #1f77b4; stroke-width: 2; stroke-linecap: square"/>
   </g>
   <g id="line2d_14">
    <path d="M 849.3 333.344876 
L 849.3 274.930021 
L 845.810662 276.376392 
L 845.810662 254.699892 
L 842.321325 256.180075 
L 842.321325 239.77177 
L 838.831987 241.277638 
L 838.831987 239.322464 
L 835.342649 240.832297 
L 835.342649 218.72453 
L 831.853311 220.268481 
L 831.853311 183.702854 
L 828.363974 185.301883 
L 828.363974 166.660732 
L 824.874636 168.288113 
L 824.874636 160.550211 
L 821.385298 162.190044 
L 821.385298 161.172304 
L 817.895961 162.814855 
L 817.895961 162.475587 
L 814.406623 164.119876 
L 814.406623 159.349961 
L 810.917285 161.002455 
L 810.917285 148.166583 
L 807.427947 149.839028 
L 807.427947 147.725938 
L 803.93861 149.40275 
L 803.93861 144.441005 
L 800.449272 146.126341 
L 800.449272 140.397391 
L 796.959934 142.092385 
L 796.959934 139.205055 
L 793.470597 140.905588 
L 793.470597 131.408665 
L 789.981259 133.124373 
L 789.981259 128.308831 
L 786.491921 130.032912 
L 786.491921 129.660951 
L 776.023908 134.843119 
L 776.023908 132.986999 
L 772.53457 134.71989 
L 772.53457 133.231807 
L 765.555895 136.706166 
L 765.555895 134.098168 
L 762.066557 135.841315 
L 762.066557 135.468093 
L 758.577219 137.213204 
L 758.577219 135.345335 
L 755.087882 137.094643 
L 755.087882 132.58743 
L 751.598544 134.344884 
L 751.598544 133.590519 
L 748.109206 135.350534 
L 748.109206 130.04324 
L 744.619868 131.812641 
L 744.619868 131.050613 
L 741.130531 132.822611 
L 741.130531 131.678934 
L 737.641193 133.45411 
L 737.641193 130.011245 
L 730.662518 133.576374 
L 730.662518 133.193409 
L 727.17318 134.978767 
L 727.17318 133.829712 
L 720.194504 137.408365 
L 720.194504 137.025878 
L 716.705167 138.818018 
L 716.705167 138.435799 
L 713.215829 140.230015 
L 713.215829 139.465797 
L 702.747816 144.860941 
L 702.747816 142.953681 
L 695.76914 146.563874 
L 695.76914 146.182656 
L 688.790465 149.800079 
L 688.790465 149.039075 
L 685.301127 150.851256 
L 685.301127 148.564181 
L 678.322452 152.200326 
L 678.322452 151.43782 
L 674.833114 153.259396 
L 674.833114 152.878267 
L 667.854439 156.527236 
L 667.854439 155.385575 
L 660.875763 159.044362 
L 660.875763 158.66439 
L 653.897088 162.330587 
L 653.897088 161.951522 
L 650.40775 163.787562 
L 650.40775 161.510127 
L 639.939737 167.038735 
L 639.939737 166.280741 
L 636.450399 168.127989 
L 636.450399 167.749132 
L 629.471724 171.449598 
L 629.471724 169.177203 
L 619.003711 174.751081 
L 619.003711 173.616205 
L 615.514373 175.479246 
L 615.514373 173.204549 
L 612.025035 175.073013 
L 612.025035 174.693397 
L 601.557022 180.310353 
L 601.557022 178.417014 
L 591.089009 184.058185 
L 591.089009 181.407392 
L 584.110334 185.18543 
L 584.110334 184.806741 
L 580.620996 186.698872 
L 580.620996 185.941823 
L 577.131658 187.836912 
L 577.131658 187.458553 
L 570.152983 191.254993 
L 570.152983 190.499932 
L 566.663645 192.401955 
L 566.663645 192.024596 
L 563.174307 193.928941 
L 563.174307 193.551918 
L 556.195632 197.366926 
L 556.195632 196.99091 
L 535.259605 208.480026 
L 535.259605 207.362139 
L 524.791592 213.135473 
L 524.791592 212.764233 
L 514.323579 218.554842 
L 514.323579 217.815498 
L 510.834241 219.750473 
L 510.834241 219.381001 
L 489.898215 231.030878 
L 489.898215 229.933015 
L 472.451527 239.699033 
L 472.451527 239.335948 
L 468.962189 241.295053 
L 468.962189 240.932354 
L 465.472851 242.893907 
L 465.472851 242.168962 
L 461.983513 244.133681 
L 461.983513 243.408871 
L 458.494176 245.376764 
L 458.494176 245.01459 
L 430.579474 260.826787 
L 430.579474 260.113019 
L 427.090136 262.098952 
L 427.090136 261.742318 
L 420.111461 265.720983 
L 420.111461 264.653555 
L 416.622123 266.647766 
L 416.622123 266.292053 
L 406.15411 272.287655 
L 406.15411 271.579705 
L 402.664772 273.583319 
L 402.664772 273.229609 
L 378.239408 287.310829 
L 378.239408 286.612947 
L 367.771395 292.679605 
L 367.771395 292.332464 
L 364.282057 294.35911 
L 364.282057 293.665407 
L 360.79272 295.695417 
L 360.79272 295.348858 
L 350.324706 301.452263 
L 350.324706 301.107692 
L 343.346031 305.187433 
L 343.346031 304.844092 
L 325.899342 315.079918 
L 325.899342 314.740156 
L 308.452654 325.026757 
L 308.452654 324.690618 
L 301.473978 328.820043 
L 301.473978 327.814534 
L 291.005965 334.030068 
L 291.005965 333.696678 
L 284.02729 337.851507 
L 284.02729 337.519416 
L 280.537952 339.600507 
L 280.537952 338.604818 
L 270.069939 344.866905 
L 270.069939 344.53683 
L 263.091264 348.722841 
L 263.091264 348.394092 
L 245.644575 358.897205 
L 245.644575 358.572264 
L 235.176562 364.900046 
L 235.176562 364.254239 
L 221.219211 372.725478 
L 221.219211 372.405471 
L 207.26186 380.911738 
L 207.26186 380.594811 
L 200.283185 384.86158 
L 200.283185 384.546056 
L 186.325834 393.10702 
L 186.325834 392.794625 
L 158.411132 410.02022 
L 158.411132 409.714471 
L 120.028417 433.622468 
L 99.092391 446.76851 
L 99.092391 446.477611 
L 71.177689 464.129997 
L 71.177689 463.846136 
L 32.794974 488.349605 
L 29.305637 490.590026 
L 29.305637 490.317101 
L 11.858948 501.556304 
L 11.858948 501.287872 
L -1 509.610113 
L -1 509.610113 
" clip-path="url(#pd24272ad4d)" style="fill: none; stroke: #ff7f0e; stroke-width: 2; stroke-linecap: square"/>
   </g>
   <g id="line2d_15">
    <path d="M 849.3 333.344876 
L 849.3 283.73777 
L 845.810662 285.170713 
L 845.810662 283.926504 
L 842.321325 285.362275 
L 842.321325 220.637805 
L 838.831987 222.172191 
L 838.831987 214.515438 
L 835.342649 216.062256 
L 835.342649 207.670646 
L 831.853311 209.230987 
L 831.853311 204.978487 
L 828.363974 206.546236 
L 828.363974 187.856029 
L 824.874636 189.452483 
L 824.874636 180.784494 
L 821.385298 182.39485 
L 821.385298 180.122637 
L 817.895961 181.737521 
L 817.895961 179.130067 
L 814.406623 180.749984 
L 814.406623 171.180641 
L 810.917285 172.81584 
L 810.917285 164.070168 
L 807.427947 165.719434 
L 807.427947 162.314553 
L 803.93861 163.970069 
L 803.93861 146.21926 
L 800.449272 147.902009 
L 800.449272 136.780131 
L 796.959934 138.480379 
L 796.959934 137.027594 
L 793.470597 138.731295 
L 793.470597 137.640281 
L 789.981259 139.346919 
L 789.981259 135.33016 
L 786.491921 137.044016 
L 786.491921 124.422038 
L 783.002583 126.155668 
L 783.002583 124.650157 
L 779.513246 126.387378 
L 779.513246 123.744858 
L 776.023908 125.487341 
L 776.023908 123.213694 
L 772.53457 124.960916 
L 772.53457 120.386914 
L 765.555895 123.899034 
L 765.555895 122.368885 
L 762.066557 124.12935 
L 762.066557 123.363525 
L 758.577219 125.126562 
L 758.577219 124.743744 
L 755.087882 126.508794 
L 755.087882 124.592824 
L 751.598544 126.362166 
L 751.598544 125.978597 
L 748.109206 127.749965 
L 748.109206 126.983022 
L 741.130531 130.532428 
L 741.130531 125.91791 
L 737.641193 127.701733 
L 737.641193 127.315698 
L 734.151855 129.10158 
L 734.151855 128.32971 
L 727.17318 131.908253 
L 727.17318 131.137433 
L 723.683842 132.930106 
L 723.683842 131.000365 
L 720.194504 132.797466 
L 720.194504 132.024492 
L 716.705167 133.824272 
L 716.705167 132.27681 
L 713.215829 134.08046 
L 713.215829 132.918241 
L 709.726491 134.725184 
L 709.726491 131.616371 
L 695.76914 138.878484 
L 695.76914 138.490814 
L 681.81179 145.779861 
L 681.81179 145.394287 
L 678.322452 147.221005 
L 678.322452 146.835714 
L 674.833114 148.664586 
L 674.833114 147.894248 
L 667.854439 151.559086 
L 667.854439 151.174654 
L 660.875763 154.846937 
L 660.875763 154.46341 
L 657.386426 156.302507 
L 657.386426 155.535712 
L 643.429075 162.912705 
L 643.429075 162.149581 
L 639.939737 163.999005 
L 639.939737 163.617581 
L 625.982386 171.033576 
L 625.982386 170.274784 
L 622.493048 172.134007 
L 622.493048 171.754758 
L 615.514373 175.479246 
L 615.514373 175.100942 
L 608.535698 178.833088 
L 608.535698 177.321732 
L 594.578347 184.815529 
L 594.578347 184.439451 
L 584.110334 190.078685 
L 584.110334 188.954344 
L 580.620996 190.839282 
L 580.620996 188.962162 
L 577.131658 190.851997 
L 577.131658 189.723789 
L 573.64232 191.617232 
L 573.64232 190.488062 
L 566.663645 194.283836 
L 566.663645 193.908114 
L 559.684969 197.711816 
L 559.684969 196.962048 
L 556.195632 198.867715 
L 556.195632 198.493008 
L 552.706294 200.401003 
L 552.706294 200.026638 
L 542.238281 205.76263 
L 542.238281 205.389954 
L 510.834241 222.694575 
L 510.834241 222.327693 
L 503.855566 226.193108 
L 503.855566 225.827279 
L 500.366228 227.763224 
L 500.366228 227.397764 
L 489.898215 233.217903 
L 489.898215 232.854202 
L 472.451527 242.592174 
L 472.451527 242.23165 
L 468.962189 244.18511 
L 468.962189 243.82497 
L 451.5155 253.621764 
L 451.5155 252.907619 
L 448.026163 254.873615 
L 448.026163 253.802163 
L 444.536825 255.772052 
L 444.536825 255.414983 
L 437.558149 259.361456 
L 437.558149 258.649244 
L 427.090136 264.586483 
L 427.090136 264.232073 
L 423.600799 266.215412 
L 423.600799 265.507097 
L 409.643448 273.464044 
L 409.643448 272.76032 
L 406.15411 274.755483 
L 406.15411 274.403885 
L 395.686097 280.402337 
L 395.686097 279.702636 
L 388.707421 283.713568 
L 388.707421 283.364735 
L 381.728746 287.384386 
L 381.728746 287.036736 
L 378.239408 289.050029 
L 378.239408 288.355291 
L 374.75007 290.371906 
L 374.75007 289.329707 
L 371.260733 291.350412 
L 371.260733 291.003141 
L 360.79272 297.078515 
L 360.79272 296.733211 
L 322.410005 319.160085 
L 322.410005 318.822956 
L 315.431329 322.926305 
L 315.431329 322.590434 
L 311.941992 324.645703 
L 311.941992 324.31031 
L 304.963316 328.428059 
L 304.963316 328.093936 
L 297.984641 332.220806 
L 297.984641 331.887962 
L 284.02729 340.167604 
L 284.02729 339.837645 
L 270.069939 348.150957 
L 270.069939 347.823912 
L 259.601926 354.08143 
L 259.601926 353.756516 
L 256.112588 355.847016 
L 256.112588 355.197919 
L 249.133913 359.387979 
L 249.133913 359.064617 
L 245.644575 361.163374 
L 245.644575 360.840534 
L 224.708549 373.478923 
L 224.708549 373.160752 
L 207.26186 383.750813 
L 207.26186 383.436535 
L 200.283185 387.688058 
L 200.283185 387.375176 
L 161.90047 410.910345 
L 158.411132 413.061942 
L 158.411132 412.759054 
L 147.943119 419.22858 
L 147.943119 418.627178 
L 137.475106 425.120221 
L 137.475106 424.821728 
L 99.092391 448.797089 
L 88.624378 455.379229 
L 88.624378 455.092967 
L 85.13504 457.292085 
L 85.13504 457.006459 
L 57.220338 474.682165 
L 57.220338 474.124782 
L 43.262987 483.020714 
L 43.262987 482.745344 
L 39.77365 484.975579 
L 39.77365 484.700881 
L 32.794974 489.169639 
L 32.794974 488.896556 
L 25.816299 493.375773 
L 25.816299 493.104317 
L 22.326961 495.348098 
L 22.326961 495.077328 
L 18.837623 497.324215 
L 18.837623 497.054135 
L -1 509.875008 
L -1 509.875008 
" clip-path="url(#pd24272ad4d)" style="fill: none; stroke: #2ca02c; stroke-width: 2; stroke-linecap: square"/>
   </g>
   <g id="line2d_16">
    <path d="M -1 377.974953 
L 849.3 377.974953 
" clip-path="url(#pd24272ad4d)" style="fill: none; stroke-dasharray: 7.4,3.2; stroke-dashoffset: 0; stroke: #c73e1d; stroke-opacity: 0.8; stroke-width: 2"/>
   </g>
   <g id="patch_3">
    <path d="M 45.007656 535.092969 
L 45.007656 11.36625 
" style="fill: none; stroke: #000000; stroke-linejoin: miter; stroke-linecap: square"/>
   </g>
   <g id="patch_4">
    <path d="M 849.3 535.092969 
L 849.3 11.36625 
" style="fill: none; stroke: #000000; stroke-linejoin: miter; stroke-linecap: square"/>
   </g>
   <g id="patch_5">
    <path d="M 45.007656 535.092969 
L 849.3 535.092969 
" style="fill: none; stroke: #000000; stroke-linejoin: miter; stroke-linecap: square"/>
   </g>
   <g id="patch_6">
    <path d="M 45.007656 11.36625 
L 849.3 11.36625 
" style="fill: none; stroke: #000000; stroke-linejoin: miter; stroke-linecap: square"/>
   </g>
  </g>
  <g id="text_15">
   <!-- Thresholds -->
   <g transform="translate(393.905 22.115) scale(0.16 -0.16)">
    <defs>
     <path id="TimesNewRomanPS-BoldMT-54" d="M 4038 4238 
L 4038 3091 
L 3925 3091 
Q 3825 3488 3703 3661 
Q 3581 3834 3369 3938 
Q 3250 3994 2953 3994 
L 2638 3994 
L 2638 725 
Q 2638 400 2673 319 
Q 2709 238 2814 177 
Q 2919 116 3100 116 
L 3241 116 
L 3241 0 
L 1022 0 
L 1022 116 
L 1163 116 
Q 1347 116 1459 181 
Q 1541 225 1588 331 
Q 1622 406 1622 725 
L 1622 3994 
L 1316 3994 
Q 888 3994 694 3813 
Q 422 3559 350 3091 
L 231 3091 
L 231 4238 
L 4038 4238 
z
" transform="scale(0.015625)"/>
     <path id="TimesNewRomanPS-BoldMT-68" d="M 1409 4238 
L 1409 2547 
Q 1650 2800 1850 2904 
Q 2050 3009 2266 3009 
Q 2541 3009 2736 2853 
Q 2931 2697 2995 2486 
Q 3059 2275 3059 1775 
L 3059 634 
Q 3059 300 3121 217 
Q 3184 134 3375 113 
L 3375 0 
L 1894 0 
L 1894 113 
Q 2050 134 2128 238 
Q 2184 319 2184 634 
L 2184 1938 
Q 2184 2300 2156 2392 
Q 2128 2484 2061 2536 
Q 1994 2588 1909 2588 
Q 1784 2588 1665 2502 
Q 1547 2416 1409 2200 
L 1409 634 
Q 1409 322 1456 244 
Q 1516 138 1700 113 
L 1700 0 
L 219 0 
L 219 113 
Q 403 131 481 231 
Q 534 300 534 634 
L 534 3603 
Q 534 3934 473 4015 
Q 413 4097 219 4122 
L 219 4238 
L 1409 4238 
z
" transform="scale(0.015625)"/>
     <path id="TimesNewRomanPS-BoldMT-72" d="M 1428 2922 
L 1428 2259 
Q 1719 2713 1937 2861 
Q 2156 3009 2359 3009 
Q 2534 3009 2639 2901 
Q 2744 2794 2744 2597 
Q 2744 2388 2642 2272 
Q 2541 2156 2397 2156 
Q 2231 2156 2109 2262 
Q 1988 2369 1966 2381 
Q 1934 2400 1894 2400 
Q 1803 2400 1722 2331 
Q 1594 2225 1528 2028 
Q 1428 1725 1428 1359 
L 1428 688 
L 1431 513 
Q 1431 334 1453 284 
Q 1491 200 1564 161 
Q 1638 122 1813 113 
L 1813 0 
L 234 0 
L 234 113 
Q 425 128 492 217 
Q 559 306 559 688 
L 559 2303 
Q 559 2553 534 2622 
Q 503 2709 443 2750 
Q 384 2791 234 2806 
L 234 2922 
L 1428 2922 
z
" transform="scale(0.015625)"/>
     <path id="TimesNewRomanPS-BoldMT-65" d="M 2691 1566 
L 1088 1566 
Q 1116 984 1397 647 
Q 1613 388 1916 388 
Q 2103 388 2256 492 
Q 2409 597 2584 869 
L 2691 800 
Q 2453 316 2165 114 
Q 1878 -88 1500 -88 
Q 850 -88 516 413 
Q 247 816 247 1413 
Q 247 2144 642 2576 
Q 1038 3009 1569 3009 
Q 2013 3009 2339 2645 
Q 2666 2281 2691 1566 
z
M 1922 1775 
Q 1922 2278 1867 2465 
Q 1813 2653 1697 2750 
Q 1631 2806 1522 2806 
Q 1359 2806 1256 2647 
Q 1072 2369 1072 1884 
L 1072 1775 
L 1922 1775 
z
" transform="scale(0.015625)"/>
     <path id="TimesNewRomanPS-BoldMT-73" d="M 2063 3003 
L 2109 2006 
L 2003 2006 
Q 1813 2450 1608 2612 
Q 1403 2775 1200 2775 
Q 1072 2775 981 2689 
Q 891 2603 891 2491 
Q 891 2406 953 2328 
Q 1053 2200 1512 1889 
Q 1972 1578 2117 1361 
Q 2263 1144 2263 875 
Q 2263 631 2141 397 
Q 2019 163 1797 37 
Q 1575 -88 1306 -88 
Q 1097 -88 747 44 
Q 653 78 619 78 
Q 516 78 447 -78 
L 344 -78 
L 294 972 
L 400 972 
Q 541 559 786 353 
Q 1031 147 1250 147 
Q 1400 147 1495 239 
Q 1591 331 1591 463 
Q 1591 613 1497 722 
Q 1403 831 1078 1053 
Q 600 1384 459 1559 
Q 253 1816 253 2125 
Q 253 2463 486 2736 
Q 719 3009 1159 3009 
Q 1397 3009 1619 2894 
Q 1703 2847 1756 2847 
Q 1813 2847 1847 2870 
Q 1881 2894 1956 3003 
L 2063 3003 
z
" transform="scale(0.015625)"/>
     <path id="TimesNewRomanPS-BoldMT-6f" d="M 1594 3009 
Q 1975 3009 2303 2812 
Q 2631 2616 2801 2253 
Q 2972 1891 2972 1459 
Q 2972 838 2656 419 
Q 2275 -88 1603 -88 
Q 944 -88 587 375 
Q 231 838 231 1447 
Q 231 2075 595 2542 
Q 959 3009 1594 3009 
z
M 1606 2788 
Q 1447 2788 1333 2667 
Q 1219 2547 1183 2192 
Q 1147 1838 1147 1206 
Q 1147 872 1191 581 
Q 1225 359 1337 243 
Q 1450 128 1594 128 
Q 1734 128 1828 206 
Q 1950 313 1991 503 
Q 2053 800 2053 1703 
Q 2053 2234 1993 2432 
Q 1934 2631 1819 2722 
Q 1738 2788 1606 2788 
z
" transform="scale(0.015625)"/>
     <path id="TimesNewRomanPS-BoldMT-6c" d="M 1359 4238 
L 1359 606 
Q 1359 297 1431 211 
Q 1503 125 1713 113 
L 1713 0 
L 134 0 
L 134 113 
Q 328 119 422 225 
Q 484 297 484 606 
L 484 3631 
Q 484 3938 412 4023 
Q 341 4109 134 4122 
L 134 4238 
L 1359 4238 
z
" transform="scale(0.015625)"/>
     <path id="TimesNewRomanPS-BoldMT-64" d="M 3056 4238 
L 3056 875 
Q 3056 534 3075 472 
Q 3100 369 3170 319 
Q 3241 269 3416 256 
L 3416 153 
L 2181 -88 
L 2181 375 
Q 1959 106 1786 9 
Q 1613 -88 1394 -88 
Q 834 -88 509 413 
Q 247 819 247 1409 
Q 247 1881 409 2254 
Q 572 2628 855 2818 
Q 1138 3009 1463 3009 
Q 1672 3009 1834 2928 
Q 1997 2847 2181 2644 
L 2181 3525 
Q 2181 3859 2153 3928 
Q 2116 4019 2041 4062 
Q 1966 4106 1759 4106 
L 1759 4238 
L 3056 4238 
z
M 2181 2256 
Q 1950 2700 1616 2700 
Q 1500 2700 1425 2638 
Q 1309 2541 1236 2297 
Q 1163 2053 1163 1550 
Q 1163 997 1244 731 
Q 1325 466 1466 347 
Q 1538 288 1663 288 
Q 1938 288 2181 719 
L 2181 2256 
z
" transform="scale(0.015625)"/>
    </defs>
    <use xlink:href="#TimesNewRomanPS-BoldMT-54"/>
    <use xlink:href="#TimesNewRomanPS-BoldMT-68" transform="translate(66.699219 0)"/>
    <use xlink:href="#TimesNewRomanPS-BoldMT-72" transform="translate(122.314453 0)"/>
    <use xlink:href="#TimesNewRomanPS-BoldMT-65" transform="translate(164.949219 0)"/>
    <use xlink:href="#TimesNewRomanPS-BoldMT-73" transform="translate(209.333984 0)"/>
    <use xlink:href="#TimesNewRomanPS-BoldMT-68" transform="translate(248.25 0)"/>
    <use xlink:href="#TimesNewRomanPS-BoldMT-6f" transform="translate(303.865234 0)"/>
    <use xlink:href="#TimesNewRomanPS-BoldMT-6c" transform="translate(353.865234 0)"/>
    <use xlink:href="#TimesNewRomanPS-BoldMT-64" transform="translate(381.648438 0)"/>
    <use xlink:href="#TimesNewRomanPS-BoldMT-73" transform="translate(437.263672 0)"/>
   </g>
  </g>
 </g>
 <defs>
  <clipPath id="pd24272ad4d">
   <rect x="45.007656" y="11.36625" width="804.292344" height="523.726719"/>
  </clipPath>
 </defs>
</svg>
