<?xml version="1.0" encoding="utf-8" standalone="no"?>
<!DOCTYPE svg PUBLIC "-//W3C//DTD SVG 1.1//EN"
  "http://www.w3.org/Graphics/SVG/1.1/DTD/svg11.dtd">
<svg xmlns:xlink="http://www.w3.org/1999/xlink" width="620.958816pt" height="501.373875pt" viewBox="0 0 620.958816 501.373875" xmlns="http://www.w3.org/2000/svg" version="1.1">
 <metadata>
  <rdf:RDF xmlns:dc="http://purl.org/dc/elements/1.1/" xmlns:cc="http://creativecommons.org/ns#" xmlns:rdf="http://www.w3.org/1999/02/22-rdf-syntax-ns#">
   <cc:Work>
    <dc:type rdf:resource="http://purl.org/dc/dcmitype/StillImage"/>
    <dc:date>2026-01-16T09:10:49.128531</dc:date>
    <dc:format>image/svg+xml</dc:format>
    <dc:creator>
     <cc:Agent>
      <dc:title>Matplotlib v3.10.1, https://matplotlib.org/</dc:title>
     </cc:Agent>
    </dc:creator>
   </cc:Work>
  </rdf:RDF>
 </metadata>
 <defs>
  <style type="text/css">*{stroke-linejoin: round; stroke-linecap: butt}</style>
 </defs>
 <g id="figure_1">
  <g id="patch_1">
   <path d="M 0 501.373875 
L 620.958816 501.373875 
L 620.958816 -0 
L 0 -0 
z
" style="fill: #ffffff"/>
  </g>
  <g id="axes_1">
   <g id="patch_2">
    <path d="M 103.663594 452.890438 
L 605.863594 452.890438 
L 605.863594 64.810438 
L 103.663594 64.810438 
z
" style="fill: #ffffff"/>
   </g>
   <g id="patch_3">
    <path d="M 103.663594 435.250437 
L 128.093087 435.250437 
L 128.093087 411.331793 
L 103.663594 411.331793 
z
" clip-path="url(#pff49fb35d4)" style="fill: #2e86ab; opacity: 0.7; stroke: #000000; stroke-linejoin: miter"/>
   </g>
   <g id="patch_4">
    <path d="M 103.663594 405.352132 
L 131.777581 405.352132 
L 131.777581 381.433488 
L 103.663594 381.433488 
z
" clip-path="url(#pff49fb35d4)" style="fill: #2e86ab; opacity: 0.7; stroke: #000000; stroke-linejoin: miter"/>
   </g>
   <g id="patch_5">
    <path d="M 103.663594 375.453827 
L 133.797256 375.453827 
L 133.797256 351.535183 
L 103.663594 351.535183 
z
" clip-path="url(#pff49fb35d4)" style="fill: #2e86ab; opacity: 0.7; stroke: #000000; stroke-linejoin: miter"/>
   </g>
   <g id="patch_6">
    <path d="M 103.663594 345.555522 
L 134.406608 345.555522 
L 134.406608 321.636878 
L 103.663594 321.636878 
z
" clip-path="url(#pff49fb35d4)" style="fill: #2e86ab; opacity: 0.7; stroke: #000000; stroke-linejoin: miter"/>
   </g>
   <g id="patch_7">
    <path d="M 103.663594 315.657217 
L 135.77898 315.657217 
L 135.77898 291.738573 
L 103.663594 291.738573 
z
" clip-path="url(#pff49fb35d4)" style="fill: #2e86ab; opacity: 0.7; stroke: #000000; stroke-linejoin: miter"/>
   </g>
   <g id="patch_8">
    <path d="M 103.663594 285.758912 
L 136.043803 285.758912 
L 136.043803 261.840268 
L 103.663594 261.840268 
z
" clip-path="url(#pff49fb35d4)" style="fill: #2e86ab; opacity: 0.7; stroke: #000000; stroke-linejoin: miter"/>
   </g>
   <g id="patch_9">
    <path d="M 103.663594 255.860607 
L 139.702511 255.860607 
L 139.702511 231.941963 
L 103.663594 231.941963 
z
" clip-path="url(#pff49fb35d4)" style="fill: #2e86ab; opacity: 0.7; stroke: #000000; stroke-linejoin: miter"/>
   </g>
   <g id="patch_10">
    <path d="M 103.663594 225.962302 
L 148.454208 225.962302 
L 148.454208 202.043658 
L 103.663594 202.043658 
z
" clip-path="url(#pff49fb35d4)" style="fill: #2e86ab; opacity: 0.7; stroke: #000000; stroke-linejoin: miter"/>
   </g>
   <g id="patch_11">
    <path d="M 103.663594 196.063997 
L 185.354129 196.063997 
L 185.354129 172.145353 
L 103.663594 172.145353 
z
" clip-path="url(#pff49fb35d4)" style="fill: #2e86ab; opacity: 0.7; stroke: #000000; stroke-linejoin: miter"/>
   </g>
   <g id="patch_12">
    <path d="M 103.663594 166.165692 
L 201.157455 166.165692 
L 201.157455 142.247048 
L 103.663594 142.247048 
z
" clip-path="url(#pff49fb35d4)" style="fill: #2e86ab; opacity: 0.7; stroke: #000000; stroke-linejoin: miter"/>
   </g>
   <g id="patch_13">
    <path d="M 103.663594 136.267387 
L 242.201925 136.267387 
L 242.201925 112.348743 
L 103.663594 112.348743 
z
" clip-path="url(#pff49fb35d4)" style="fill: #2e86ab; opacity: 0.7; stroke: #000000; stroke-linejoin: miter"/>
   </g>
   <g id="patch_14">
    <path d="M 103.663594 106.369082 
L 581.949308 106.369082 
L 581.949308 82.450437 
L 103.663594 82.450437 
z
" clip-path="url(#pff49fb35d4)" style="fill: #2e86ab; opacity: 0.7; stroke: #000000; stroke-linejoin: miter"/>
   </g>
   <g id="matplotlib.axis_1">
    <g id="xtick_1">
     <g id="line2d_1">
      <path d="M 103.663594 452.890438 
L 103.663594 64.810438 
" clip-path="url(#pff49fb35d4)" style="fill: none; stroke: #b0b0b0; stroke-opacity: 0.25; stroke-width: 0.8; stroke-linecap: square"/>
     </g>
     <g id="line2d_2">
      <defs>
       <path id="m1c529b670e" d="M 0 0 
L 0 5 
" style="stroke: #000000"/>
      </defs>
      <g>
       <use xlink:href="#m1c529b670e" x="103.663594" y="452.890438" style="stroke: #000000"/>
      </g>
     </g>
     <g id="text_1">
      <!-- 0.0 -->
      <g transform="translate(96.788594 469.028563) scale(0.11 -0.11)">
       <defs>
        <path id="TimesNewRomanPSMT-30" d="M 231 2094 
Q 231 2819 450 3342 
Q 669 3866 1031 4122 
Q 1313 4325 1613 4325 
Q 2100 4325 2488 3828 
Q 2972 3213 2972 2159 
Q 2972 1422 2759 906 
Q 2547 391 2217 158 
Q 1888 -75 1581 -75 
Q 975 -75 572 641 
Q 231 1244 231 2094 
z
M 844 2016 
Q 844 1141 1059 588 
Q 1238 122 1591 122 
Q 1759 122 1940 273 
Q 2122 425 2216 781 
Q 2359 1319 2359 2297 
Q 2359 3022 2209 3506 
Q 2097 3866 1919 4016 
Q 1791 4119 1609 4119 
Q 1397 4119 1231 3928 
Q 1006 3669 925 3112 
Q 844 2556 844 2016 
z
" transform="scale(0.015625)"/>
        <path id="TimesNewRomanPSMT-2e" d="M 800 606 
Q 947 606 1047 504 
Q 1147 403 1147 259 
Q 1147 116 1045 14 
Q 944 -88 800 -88 
Q 656 -88 554 14 
Q 453 116 453 259 
Q 453 406 554 506 
Q 656 606 800 606 
z
" transform="scale(0.015625)"/>
       </defs>
       <use xlink:href="#TimesNewRomanPSMT-30"/>
       <use xlink:href="#TimesNewRomanPSMT-2e" transform="translate(50 0)"/>
       <use xlink:href="#TimesNewRomanPSMT-30" transform="translate(75 0)"/>
      </g>
     </g>
    </g>
    <g id="xtick_2">
     <g id="line2d_3">
      <path d="M 209.138967 452.890438 
L 209.138967 64.810438 
" clip-path="url(#pff49fb35d4)" style="fill: none; stroke: #b0b0b0; stroke-opacity: 0.25; stroke-width: 0.8; stroke-linecap: square"/>
     </g>
     <g id="line2d_4">
      <g>
       <use xlink:href="#m1c529b670e" x="209.138967" y="452.890438" style="stroke: #000000"/>
      </g>
     </g>
     <g id="text_2">
      <!-- 0.1 -->
      <g transform="translate(202.263967 469.028563) scale(0.11 -0.11)">
       <defs>
        <path id="TimesNewRomanPSMT-31" d="M 750 3822 
L 1781 4325 
L 1884 4325 
L 1884 747 
Q 1884 391 1914 303 
Q 1944 216 2037 169 
Q 2131 122 2419 116 
L 2419 0 
L 825 0 
L 825 116 
Q 1125 122 1212 167 
Q 1300 213 1334 289 
Q 1369 366 1369 747 
L 1369 3034 
Q 1369 3497 1338 3628 
Q 1316 3728 1258 3775 
Q 1200 3822 1119 3822 
Q 1003 3822 797 3725 
L 750 3822 
z
" transform="scale(0.015625)"/>
       </defs>
       <use xlink:href="#TimesNewRomanPSMT-30"/>
       <use xlink:href="#TimesNewRomanPSMT-2e" transform="translate(50 0)"/>
       <use xlink:href="#TimesNewRomanPSMT-31" transform="translate(75 0)"/>
      </g>
     </g>
    </g>
    <g id="xtick_3">
     <g id="line2d_5">
      <path d="M 314.614341 452.890438 
L 314.614341 64.810438 
" clip-path="url(#pff49fb35d4)" style="fill: none; stroke: #b0b0b0; stroke-opacity: 0.25; stroke-width: 0.8; stroke-linecap: square"/>
     </g>
     <g id="line2d_6">
      <g>
       <use xlink:href="#m1c529b670e" x="314.614341" y="452.890438" style="stroke: #000000"/>
      </g>
     </g>
     <g id="text_3">
      <!-- 0.2 -->
      <g transform="translate(307.739341 469.028563) scale(0.11 -0.11)">
       <defs>
        <path id="TimesNewRomanPSMT-32" d="M 2934 816 
L 2638 0 
L 138 0 
L 138 116 
Q 1241 1122 1691 1759 
Q 2141 2397 2141 2925 
Q 2141 3328 1894 3587 
Q 1647 3847 1303 3847 
Q 991 3847 742 3664 
Q 494 3481 375 3128 
L 259 3128 
Q 338 3706 661 4015 
Q 984 4325 1469 4325 
Q 1984 4325 2329 3994 
Q 2675 3663 2675 3213 
Q 2675 2891 2525 2569 
Q 2294 2063 1775 1497 
Q 997 647 803 472 
L 1909 472 
Q 2247 472 2383 497 
Q 2519 522 2628 598 
Q 2738 675 2819 816 
L 2934 816 
z
" transform="scale(0.015625)"/>
       </defs>
       <use xlink:href="#TimesNewRomanPSMT-30"/>
       <use xlink:href="#TimesNewRomanPSMT-2e" transform="translate(50 0)"/>
       <use xlink:href="#TimesNewRomanPSMT-32" transform="translate(75 0)"/>
      </g>
     </g>
    </g>
    <g id="xtick_4">
     <g id="line2d_7">
      <path d="M 420.089715 452.890438 
L 420.089715 64.810438 
" clip-path="url(#pff49fb35d4)" style="fill: none; stroke: #b0b0b0; stroke-opacity: 0.25; stroke-width: 0.8; stroke-linecap: square"/>
     </g>
     <g id="line2d_8">
      <g>
       <use xlink:href="#m1c529b670e" x="420.089715" y="452.890438" style="stroke: #000000"/>
      </g>
     </g>
     <g id="text_4">
      <!-- 0.3 -->
      <g transform="translate(413.214715 469.028563) scale(0.11 -0.11)">
       <defs>
        <path id="TimesNewRomanPSMT-33" d="M 325 3431 
Q 506 3859 782 4092 
Q 1059 4325 1472 4325 
Q 1981 4325 2253 3994 
Q 2459 3747 2459 3466 
Q 2459 3003 1878 2509 
Q 2269 2356 2469 2072 
Q 2669 1788 2669 1403 
Q 2669 853 2319 450 
Q 1863 -75 997 -75 
Q 569 -75 414 31 
Q 259 138 259 259 
Q 259 350 332 419 
Q 406 488 509 488 
Q 588 488 669 463 
Q 722 447 909 348 
Q 1097 250 1169 231 
Q 1284 197 1416 197 
Q 1734 197 1970 444 
Q 2206 691 2206 1028 
Q 2206 1275 2097 1509 
Q 2016 1684 1919 1775 
Q 1784 1900 1550 2001 
Q 1316 2103 1072 2103 
L 972 2103 
L 972 2197 
Q 1219 2228 1467 2375 
Q 1716 2522 1828 2728 
Q 1941 2934 1941 3181 
Q 1941 3503 1739 3701 
Q 1538 3900 1238 3900 
Q 753 3900 428 3381 
L 325 3431 
z
" transform="scale(0.015625)"/>
       </defs>
       <use xlink:href="#TimesNewRomanPSMT-30"/>
       <use xlink:href="#TimesNewRomanPSMT-2e" transform="translate(50 0)"/>
       <use xlink:href="#TimesNewRomanPSMT-33" transform="translate(75 0)"/>
      </g>
     </g>
    </g>
    <g id="xtick_5">
     <g id="line2d_9">
      <path d="M 525.565088 452.890438 
L 525.565088 64.810438 
" clip-path="url(#pff49fb35d4)" style="fill: none; stroke: #b0b0b0; stroke-opacity: 0.25; stroke-width: 0.8; stroke-linecap: square"/>
     </g>
     <g id="line2d_10">
      <g>
       <use xlink:href="#m1c529b670e" x="525.565088" y="452.890438" style="stroke: #000000"/>
      </g>
     </g>
     <g id="text_5">
      <!-- 0.4 -->
      <g transform="translate(518.690088 469.028563) scale(0.11 -0.11)">
       <defs>
        <path id="TimesNewRomanPSMT-34" d="M 2978 1563 
L 2978 1119 
L 2409 1119 
L 2409 0 
L 1894 0 
L 1894 1119 
L 100 1119 
L 100 1519 
L 2066 4325 
L 2409 4325 
L 2409 1563 
L 2978 1563 
z
M 1894 1563 
L 1894 3666 
L 406 1563 
L 1894 1563 
z
" transform="scale(0.015625)"/>
       </defs>
       <use xlink:href="#TimesNewRomanPSMT-30"/>
       <use xlink:href="#TimesNewRomanPSMT-2e" transform="translate(50 0)"/>
       <use xlink:href="#TimesNewRomanPSMT-34" transform="translate(75 0)"/>
      </g>
     </g>
    </g>
    <g id="text_6">
     <!-- Importancia (normalizada) -->
     <g transform="translate(279.119844 484.193094) scale(0.13 -0.13)">
      <defs>
       <path id="TimesNewRomanPS-BoldMT-49" d="M 2344 116 
L 2344 0 
L 128 0 
L 128 116 
L 269 116 
Q 453 116 566 181 
Q 647 225 691 331 
Q 725 406 725 725 
L 725 3513 
Q 725 3838 690 3919 
Q 656 4000 551 4061 
Q 447 4122 269 4122 
L 128 4122 
L 128 4238 
L 2344 4238 
L 2344 4122 
L 2203 4122 
Q 2019 4122 1906 4056 
Q 1825 4013 1778 3906 
Q 1744 3831 1744 3513 
L 1744 725 
Q 1744 400 1780 319 
Q 1816 238 1920 177 
Q 2025 116 2203 116 
L 2344 116 
z
" transform="scale(0.015625)"/>
       <path id="TimesNewRomanPS-BoldMT-6d" d="M 1428 2922 
L 1428 2538 
Q 1669 2800 1873 2904 
Q 2078 3009 2322 3009 
Q 2603 3009 2793 2878 
Q 2984 2747 3088 2478 
Q 3338 2759 3567 2884 
Q 3797 3009 4047 3009 
Q 4350 3009 4529 2870 
Q 4709 2731 4779 2517 
Q 4850 2303 4850 1834 
L 4850 638 
Q 4850 300 4911 219 
Q 4972 138 5166 113 
L 5166 0 
L 3656 0 
L 3656 113 
Q 3834 128 3919 250 
Q 3975 334 3975 638 
L 3975 1894 
Q 3975 2284 3944 2390 
Q 3913 2497 3845 2548 
Q 3778 2600 3688 2600 
Q 3553 2600 3415 2501 
Q 3278 2403 3138 2206 
L 3138 638 
Q 3138 322 3191 241 
Q 3263 125 3466 113 
L 3466 0 
L 1953 0 
L 1953 113 
Q 2075 119 2145 173 
Q 2216 228 2239 304 
Q 2263 381 2263 638 
L 2263 1894 
Q 2263 2291 2231 2391 
Q 2200 2491 2126 2547 
Q 2053 2603 1969 2603 
Q 1844 2603 1741 2538 
Q 1594 2441 1428 2206 
L 1428 638 
Q 1428 328 1489 229 
Q 1550 131 1744 113 
L 1744 0 
L 238 0 
L 238 113 
Q 422 131 500 231 
Q 553 300 553 638 
L 553 2288 
Q 553 2619 492 2700 
Q 431 2781 238 2806 
L 238 2922 
L 1428 2922 
z
" transform="scale(0.015625)"/>
       <path id="TimesNewRomanPS-BoldMT-70" d="M 1347 297 
L 1347 -791 
Q 1347 -1016 1383 -1097 
Q 1419 -1178 1494 -1215 
Q 1569 -1253 1788 -1253 
L 1788 -1369 
L 122 -1369 
L 122 -1253 
Q 316 -1247 409 -1144 
Q 472 -1072 472 -772 
L 472 2313 
Q 472 2622 400 2708 
Q 328 2794 122 2806 
L 122 2922 
L 1347 2922 
L 1347 2538 
Q 1500 2763 1659 2863 
Q 1888 3009 2156 3009 
Q 2478 3009 2742 2806 
Q 3006 2603 3143 2245 
Q 3281 1888 3281 1475 
Q 3281 1031 3139 664 
Q 2997 297 2726 104 
Q 2456 -88 2125 -88 
Q 1884 -88 1675 19 
Q 1519 100 1347 297 
z
M 1347 613 
Q 1616 231 1922 231 
Q 2091 231 2200 409 
Q 2363 672 2363 1409 
Q 2363 2166 2184 2444 
Q 2066 2628 1866 2628 
Q 1550 2628 1347 2172 
L 1347 613 
z
" transform="scale(0.015625)"/>
       <path id="TimesNewRomanPS-BoldMT-6f" d="M 1594 3009 
Q 1975 3009 2303 2812 
Q 2631 2616 2801 2253 
Q 2972 1891 2972 1459 
Q 2972 838 2656 419 
Q 2275 -88 1603 -88 
Q 944 -88 587 375 
Q 231 838 231 1447 
Q 231 2075 595 2542 
Q 959 3009 1594 3009 
z
M 1606 2788 
Q 1447 2788 1333 2667 
Q 1219 2547 1183 2192 
Q 1147 1838 1147 1206 
Q 1147 872 1191 581 
Q 1225 359 1337 243 
Q 1450 128 1594 128 
Q 1734 128 1828 206 
Q 1950 313 1991 503 
Q 2053 800 2053 1703 
Q 2053 2234 1993 2432 
Q 1934 2631 1819 2722 
Q 1738 2788 1606 2788 
z
" transform="scale(0.015625)"/>
       <path id="TimesNewRomanPS-BoldMT-72" d="M 1428 2922 
L 1428 2259 
Q 1719 2713 1937 2861 
Q 2156 3009 2359 3009 
Q 2534 3009 2639 2901 
Q 2744 2794 2744 2597 
Q 2744 2388 2642 2272 
Q 2541 2156 2397 2156 
Q 2231 2156 2109 2262 
Q 1988 2369 1966 2381 
Q 1934 2400 1894 2400 
Q 1803 2400 1722 2331 
Q 1594 2225 1528 2028 
Q 1428 1725 1428 1359 
L 1428 688 
L 1431 513 
Q 1431 334 1453 284 
Q 1491 200 1564 161 
Q 1638 122 1813 113 
L 1813 0 
L 234 0 
L 234 113 
Q 425 128 492 217 
Q 559 306 559 688 
L 559 2303 
Q 559 2553 534 2622 
Q 503 2709 443 2750 
Q 384 2791 234 2806 
L 234 2922 
L 1428 2922 
z
" transform="scale(0.015625)"/>
       <path id="TimesNewRomanPS-BoldMT-74" d="M 1375 3991 
L 1375 2922 
L 2069 2922 
L 2069 2613 
L 1375 2613 
L 1375 809 
Q 1375 556 1398 482 
Q 1422 409 1481 364 
Q 1541 319 1591 319 
Q 1794 319 1975 628 
L 2069 559 
Q 1816 -41 1247 -41 
Q 969 -41 776 114 
Q 584 269 531 459 
Q 500 566 500 1034 
L 500 2613 
L 119 2613 
L 119 2722 
Q 513 3000 789 3306 
Q 1066 3613 1272 3991 
L 1375 3991 
z
" transform="scale(0.015625)"/>
       <path id="TimesNewRomanPS-BoldMT-61" d="M 1828 431 
Q 1294 -41 869 -41 
Q 619 -41 453 123 
Q 288 288 288 534 
Q 288 869 575 1136 
Q 863 1403 1828 1847 
L 1828 2141 
Q 1828 2472 1792 2558 
Q 1756 2644 1656 2708 
Q 1556 2772 1431 2772 
Q 1228 2772 1097 2681 
Q 1016 2625 1016 2550 
Q 1016 2484 1103 2388 
Q 1222 2253 1222 2128 
Q 1222 1975 1108 1867 
Q 994 1759 809 1759 
Q 613 1759 480 1878 
Q 347 1997 347 2156 
Q 347 2381 525 2586 
Q 703 2791 1022 2900 
Q 1341 3009 1684 3009 
Q 2100 3009 2342 2832 
Q 2584 2656 2656 2450 
Q 2700 2319 2700 1847 
L 2700 713 
Q 2700 513 2715 461 
Q 2731 409 2762 384 
Q 2794 359 2834 359 
Q 2916 359 3000 475 
L 3094 400 
Q 2938 169 2770 64 
Q 2603 -41 2391 -41 
Q 2141 -41 2000 76 
Q 1859 194 1828 431 
z
M 1828 659 
L 1828 1638 
Q 1450 1416 1266 1163 
Q 1144 994 1144 822 
Q 1144 678 1247 569 
Q 1325 484 1466 484 
Q 1622 484 1828 659 
z
" transform="scale(0.015625)"/>
       <path id="TimesNewRomanPS-BoldMT-6e" d="M 1409 2922 
L 1409 2544 
Q 1634 2788 1840 2898 
Q 2047 3009 2284 3009 
Q 2569 3009 2756 2851 
Q 2944 2694 3006 2459 
Q 3056 2281 3056 1775 
L 3056 638 
Q 3056 300 3117 217 
Q 3178 134 3372 113 
L 3372 0 
L 1894 0 
L 1894 113 
Q 2059 134 2131 250 
Q 2181 328 2181 638 
L 2181 1938 
Q 2181 2297 2153 2390 
Q 2125 2484 2058 2536 
Q 1991 2588 1909 2588 
Q 1641 2588 1409 2203 
L 1409 638 
Q 1409 309 1470 221 
Q 1531 134 1697 113 
L 1697 0 
L 219 0 
L 219 113 
Q 403 131 481 231 
Q 534 300 534 638 
L 534 2288 
Q 534 2619 473 2700 
Q 413 2781 219 2806 
L 219 2922 
L 1409 2922 
z
" transform="scale(0.015625)"/>
       <path id="TimesNewRomanPS-BoldMT-63" d="M 2600 753 
L 2697 678 
Q 2491 291 2183 101 
Q 1875 -88 1528 -88 
Q 944 -88 594 353 
Q 244 794 244 1413 
Q 244 2009 563 2463 
Q 947 3009 1622 3009 
Q 2075 3009 2342 2781 
Q 2609 2553 2609 2272 
Q 2609 2094 2501 1987 
Q 2394 1881 2219 1881 
Q 2034 1881 1914 2003 
Q 1794 2125 1766 2438 
Q 1747 2634 1675 2713 
Q 1603 2791 1506 2791 
Q 1356 2791 1250 2631 
Q 1088 2391 1088 1894 
Q 1088 1481 1219 1104 
Q 1350 728 1578 544 
Q 1750 409 1984 409 
Q 2138 409 2275 481 
Q 2413 553 2600 753 
z
" transform="scale(0.015625)"/>
       <path id="TimesNewRomanPS-BoldMT-69" d="M 919 4338 
Q 1122 4338 1262 4195 
Q 1403 4053 1403 3853 
Q 1403 3653 1261 3512 
Q 1119 3372 919 3372 
Q 719 3372 578 3512 
Q 438 3653 438 3853 
Q 438 4053 578 4195 
Q 719 4338 919 4338 
z
M 1356 2922 
L 1356 606 
Q 1356 297 1428 211 
Q 1500 125 1709 113 
L 1709 0 
L 131 0 
L 131 113 
Q 325 119 419 225 
Q 481 297 481 606 
L 481 2313 
Q 481 2622 409 2708 
Q 338 2794 131 2806 
L 131 2922 
L 1356 2922 
z
" transform="scale(0.015625)"/>
       <path id="TimesNewRomanPS-BoldMT-20" transform="scale(0.015625)"/>
       <path id="TimesNewRomanPS-BoldMT-28" d="M 2056 4334 
L 2056 4191 
Q 1731 3978 1578 3775 
Q 1366 3494 1247 3053 
Q 1097 2506 1097 1525 
Q 1097 600 1233 87 
Q 1369 -425 1603 -741 
Q 1766 -959 2056 -1125 
L 2056 -1281 
Q 1303 -1028 779 -248 
Q 256 531 256 1544 
Q 256 2544 778 3314 
Q 1300 4084 2056 4334 
z
" transform="scale(0.015625)"/>
       <path id="TimesNewRomanPS-BoldMT-6c" d="M 1359 4238 
L 1359 606 
Q 1359 297 1431 211 
Q 1503 125 1713 113 
L 1713 0 
L 134 0 
L 134 113 
Q 328 119 422 225 
Q 484 297 484 606 
L 484 3631 
Q 484 3938 412 4023 
Q 341 4109 134 4122 
L 134 4238 
L 1359 4238 
z
" transform="scale(0.015625)"/>
       <path id="TimesNewRomanPS-BoldMT-7a" d="M 2609 0 
L 66 0 
L 66 69 
L 1672 2731 
L 1203 2731 
Q 900 2731 769 2676 
Q 638 2622 556 2501 
Q 475 2381 388 2072 
L 278 2072 
L 278 2922 
L 2738 2922 
L 2738 2838 
L 1144 200 
L 1344 200 
Q 1944 200 2209 372 
Q 2475 544 2609 1000 
L 2697 1000 
L 2609 0 
z
" transform="scale(0.015625)"/>
       <path id="TimesNewRomanPS-BoldMT-64" d="M 3056 4238 
L 3056 875 
Q 3056 534 3075 472 
Q 3100 369 3170 319 
Q 3241 269 3416 256 
L 3416 153 
L 2181 -88 
L 2181 375 
Q 1959 106 1786 9 
Q 1613 -88 1394 -88 
Q 834 -88 509 413 
Q 247 819 247 1409 
Q 247 1881 409 2254 
Q 572 2628 855 2818 
Q 1138 3009 1463 3009 
Q 1672 3009 1834 2928 
Q 1997 2847 2181 2644 
L 2181 3525 
Q 2181 3859 2153 3928 
Q 2116 4019 2041 4062 
Q 1966 4106 1759 4106 
L 1759 4238 
L 3056 4238 
z
M 2181 2256 
Q 1950 2700 1616 2700 
Q 1500 2700 1425 2638 
Q 1309 2541 1236 2297 
Q 1163 2053 1163 1550 
Q 1163 997 1244 731 
Q 1325 466 1466 347 
Q 1538 288 1663 288 
Q 1938 288 2181 719 
L 2181 2256 
z
" transform="scale(0.015625)"/>
       <path id="TimesNewRomanPS-BoldMT-29" d="M 78 -1281 
L 78 -1138 
Q 403 -922 556 -719 
Q 766 -438 888 0 
Q 1038 550 1038 1531 
Q 1038 2456 902 2967 
Q 766 3478 531 3794 
Q 369 4013 78 4178 
L 78 4334 
Q 831 4081 1354 3301 
Q 1878 2522 1878 1509 
Q 1878 513 1354 -257 
Q 831 -1028 78 -1281 
z
" transform="scale(0.015625)"/>
      </defs>
      <use xlink:href="#TimesNewRomanPS-BoldMT-49"/>
      <use xlink:href="#TimesNewRomanPS-BoldMT-6d" transform="translate(38.916016 0)"/>
      <use xlink:href="#TimesNewRomanPS-BoldMT-70" transform="translate(122.216797 0)"/>
      <use xlink:href="#TimesNewRomanPS-BoldMT-6f" transform="translate(177.832031 0)"/>
      <use xlink:href="#TimesNewRomanPS-BoldMT-72" transform="translate(227.832031 0)"/>
      <use xlink:href="#TimesNewRomanPS-BoldMT-74" transform="translate(272.216797 0)"/>
      <use xlink:href="#TimesNewRomanPS-BoldMT-61" transform="translate(305.517578 0)"/>
      <use xlink:href="#TimesNewRomanPS-BoldMT-6e" transform="translate(355.517578 0)"/>
      <use xlink:href="#TimesNewRomanPS-BoldMT-63" transform="translate(411.132812 0)"/>
      <use xlink:href="#TimesNewRomanPS-BoldMT-69" transform="translate(455.517578 0)"/>
      <use xlink:href="#TimesNewRomanPS-BoldMT-61" transform="translate(483.300781 0)"/>
      <use xlink:href="#TimesNewRomanPS-BoldMT-20" transform="translate(533.300781 0)"/>
      <use xlink:href="#TimesNewRomanPS-BoldMT-28" transform="translate(558.300781 0)"/>
      <use xlink:href="#TimesNewRomanPS-BoldMT-6e" transform="translate(591.601562 0)"/>
      <use xlink:href="#TimesNewRomanPS-BoldMT-6f" transform="translate(647.216797 0)"/>
      <use xlink:href="#TimesNewRomanPS-BoldMT-72" transform="translate(697.216797 0)"/>
      <use xlink:href="#TimesNewRomanPS-BoldMT-6d" transform="translate(741.601562 0)"/>
      <use xlink:href="#TimesNewRomanPS-BoldMT-61" transform="translate(824.902344 0)"/>
      <use xlink:href="#TimesNewRomanPS-BoldMT-6c" transform="translate(874.902344 0)"/>
      <use xlink:href="#TimesNewRomanPS-BoldMT-69" transform="translate(902.685547 0)"/>
      <use xlink:href="#TimesNewRomanPS-BoldMT-7a" transform="translate(930.46875 0)"/>
      <use xlink:href="#TimesNewRomanPS-BoldMT-61" transform="translate(974.853516 0)"/>
      <use xlink:href="#TimesNewRomanPS-BoldMT-64" transform="translate(1024.853516 0)"/>
      <use xlink:href="#TimesNewRomanPS-BoldMT-61" transform="translate(1080.46875 0)"/>
      <use xlink:href="#TimesNewRomanPS-BoldMT-29" transform="translate(1130.46875 0)"/>
     </g>
    </g>
   </g>
   <g id="matplotlib.axis_2">
    <g id="ytick_1">
     <g id="line2d_11">
      <path d="M 103.663594 423.291115 
L 605.863594 423.291115 
" clip-path="url(#pff49fb35d4)" style="fill: none; stroke: #b0b0b0; stroke-opacity: 0.25; stroke-width: 0.8; stroke-linecap: square"/>
     </g>
     <g id="line2d_12">
      <defs>
       <path id="mfab1578788" d="M 0 0 
L -5 0 
" style="stroke: #000000"/>
      </defs>
      <g>
       <use xlink:href="#mfab1578788" x="103.663594" y="423.291115" style="stroke: #000000"/>
      </g>
     </g>
     <g id="text_7">
      <!-- smoke -->
      <g transform="translate(66.443281 427.110178) scale(0.11 -0.11)">
       <defs>
        <path id="TimesNewRomanPSMT-73" d="M 2050 2947 
L 2050 1972 
L 1947 1972 
Q 1828 2431 1642 2597 
Q 1456 2763 1169 2763 
Q 950 2763 815 2647 
Q 681 2531 681 2391 
Q 681 2216 781 2091 
Q 878 1963 1175 1819 
L 1631 1597 
Q 2266 1288 2266 781 
Q 2266 391 1970 151 
Q 1675 -88 1309 -88 
Q 1047 -88 709 6 
Q 606 38 541 38 
Q 469 38 428 -44 
L 325 -44 
L 325 978 
L 428 978 
Q 516 541 762 319 
Q 1009 97 1316 97 
Q 1531 97 1667 223 
Q 1803 350 1803 528 
Q 1803 744 1651 891 
Q 1500 1038 1047 1263 
Q 594 1488 453 1669 
Q 313 1847 313 2119 
Q 313 2472 555 2709 
Q 797 2947 1181 2947 
Q 1350 2947 1591 2875 
Q 1750 2828 1803 2828 
Q 1853 2828 1881 2850 
Q 1909 2872 1947 2947 
L 2050 2947 
z
" transform="scale(0.015625)"/>
        <path id="TimesNewRomanPSMT-6d" d="M 1050 2338 
Q 1363 2650 1419 2697 
Q 1559 2816 1721 2881 
Q 1884 2947 2044 2947 
Q 2313 2947 2506 2790 
Q 2700 2634 2766 2338 
Q 3088 2713 3309 2830 
Q 3531 2947 3766 2947 
Q 3994 2947 4170 2830 
Q 4347 2713 4450 2447 
Q 4519 2266 4519 1878 
L 4519 647 
Q 4519 378 4559 278 
Q 4591 209 4675 161 
Q 4759 113 4950 113 
L 4950 0 
L 3538 0 
L 3538 113 
L 3597 113 
Q 3781 113 3884 184 
Q 3956 234 3988 344 
Q 4000 397 4000 647 
L 4000 1878 
Q 4000 2228 3916 2372 
Q 3794 2572 3525 2572 
Q 3359 2572 3192 2489 
Q 3025 2406 2788 2181 
L 2781 2147 
L 2788 2013 
L 2788 647 
Q 2788 353 2820 281 
Q 2853 209 2943 161 
Q 3034 113 3253 113 
L 3253 0 
L 1806 0 
L 1806 113 
Q 2044 113 2133 169 
Q 2222 225 2256 338 
Q 2272 391 2272 647 
L 2272 1878 
Q 2272 2228 2169 2381 
Q 2031 2581 1784 2581 
Q 1616 2581 1450 2491 
Q 1191 2353 1050 2181 
L 1050 647 
Q 1050 366 1089 281 
Q 1128 197 1204 155 
Q 1281 113 1516 113 
L 1516 0 
L 100 0 
L 100 113 
Q 297 113 375 155 
Q 453 197 493 289 
Q 534 381 534 647 
L 534 1741 
Q 534 2213 506 2350 
Q 484 2453 437 2492 
Q 391 2531 309 2531 
Q 222 2531 100 2484 
L 53 2597 
L 916 2947 
L 1050 2947 
L 1050 2338 
z
" transform="scale(0.015625)"/>
        <path id="TimesNewRomanPSMT-6f" d="M 1600 2947 
Q 2250 2947 2644 2453 
Q 2978 2031 2978 1484 
Q 2978 1100 2793 706 
Q 2609 313 2286 112 
Q 1963 -88 1566 -88 
Q 919 -88 538 428 
Q 216 863 216 1403 
Q 216 1797 411 2186 
Q 606 2575 925 2761 
Q 1244 2947 1600 2947 
z
M 1503 2744 
Q 1338 2744 1170 2645 
Q 1003 2547 900 2300 
Q 797 2053 797 1666 
Q 797 1041 1045 587 
Q 1294 134 1700 134 
Q 2003 134 2200 384 
Q 2397 634 2397 1244 
Q 2397 2006 2069 2444 
Q 1847 2744 1503 2744 
z
" transform="scale(0.015625)"/>
        <path id="TimesNewRomanPSMT-6b" d="M 1047 4444 
L 1047 1597 
L 1775 2259 
Q 2006 2472 2044 2528 
Q 2069 2566 2069 2603 
Q 2069 2666 2017 2711 
Q 1966 2756 1847 2763 
L 1847 2863 
L 3091 2863 
L 3091 2763 
Q 2834 2756 2664 2684 
Q 2494 2613 2291 2428 
L 1556 1750 
L 2291 822 
Q 2597 438 2703 334 
Q 2853 188 2966 144 
Q 3044 113 3238 113 
L 3238 0 
L 1847 0 
L 1847 113 
Q 1966 116 2008 148 
Q 2050 181 2050 241 
Q 2050 313 1925 472 
L 1047 1594 
L 1047 644 
Q 1047 366 1086 278 
Q 1125 191 1197 153 
Q 1269 116 1509 113 
L 1509 0 
L 53 0 
L 53 113 
Q 272 113 381 166 
Q 447 200 481 272 
Q 528 375 528 628 
L 528 3234 
Q 528 3731 506 3842 
Q 484 3953 434 3995 
Q 384 4038 303 4038 
Q 238 4038 106 3984 
L 53 4094 
L 903 4444 
L 1047 4444 
z
" transform="scale(0.015625)"/>
        <path id="TimesNewRomanPSMT-65" d="M 681 1784 
Q 678 1147 991 784 
Q 1303 422 1725 422 
Q 2006 422 2214 576 
Q 2422 731 2563 1106 
L 2659 1044 
Q 2594 616 2278 264 
Q 1963 -88 1488 -88 
Q 972 -88 605 314 
Q 238 716 238 1394 
Q 238 2128 614 2539 
Q 991 2950 1559 2950 
Q 2041 2950 2350 2633 
Q 2659 2316 2659 1784 
L 681 1784 
z
M 681 1966 
L 2006 1966 
Q 1991 2241 1941 2353 
Q 1863 2528 1708 2628 
Q 1553 2728 1384 2728 
Q 1125 2728 920 2526 
Q 716 2325 681 1966 
z
" transform="scale(0.015625)"/>
       </defs>
       <use xlink:href="#TimesNewRomanPSMT-73"/>
       <use xlink:href="#TimesNewRomanPSMT-6d" transform="translate(38.916016 0)"/>
       <use xlink:href="#TimesNewRomanPSMT-6f" transform="translate(116.699219 0)"/>
       <use xlink:href="#TimesNewRomanPSMT-6b" transform="translate(166.699219 0)"/>
       <use xlink:href="#TimesNewRomanPSMT-65" transform="translate(216.699219 0)"/>
      </g>
     </g>
    </g>
    <g id="ytick_2">
     <g id="line2d_13">
      <path d="M 103.663594 393.39281 
L 605.863594 393.39281 
" clip-path="url(#pff49fb35d4)" style="fill: none; stroke: #b0b0b0; stroke-opacity: 0.25; stroke-width: 0.8; stroke-linecap: square"/>
     </g>
     <g id="line2d_14">
      <g>
       <use xlink:href="#mfab1578788" x="103.663594" y="393.39281" style="stroke: #000000"/>
      </g>
     </g>
     <g id="text_8">
      <!-- alco -->
      <g transform="translate(76.841719 397.211873) scale(0.11 -0.11)">
       <defs>
        <path id="TimesNewRomanPSMT-61" d="M 1822 413 
Q 1381 72 1269 19 
Q 1100 -59 909 -59 
Q 613 -59 420 144 
Q 228 347 228 678 
Q 228 888 322 1041 
Q 450 1253 767 1440 
Q 1084 1628 1822 1897 
L 1822 2009 
Q 1822 2438 1686 2597 
Q 1550 2756 1291 2756 
Q 1094 2756 978 2650 
Q 859 2544 859 2406 
L 866 2225 
Q 866 2081 792 2003 
Q 719 1925 600 1925 
Q 484 1925 411 2006 
Q 338 2088 338 2228 
Q 338 2497 613 2722 
Q 888 2947 1384 2947 
Q 1766 2947 2009 2819 
Q 2194 2722 2281 2516 
Q 2338 2381 2338 1966 
L 2338 994 
Q 2338 584 2353 492 
Q 2369 400 2405 369 
Q 2441 338 2488 338 
Q 2538 338 2575 359 
Q 2641 400 2828 588 
L 2828 413 
Q 2478 -56 2159 -56 
Q 2006 -56 1915 50 
Q 1825 156 1822 413 
z
M 1822 616 
L 1822 1706 
Q 1350 1519 1213 1441 
Q 966 1303 859 1153 
Q 753 1003 753 825 
Q 753 600 887 451 
Q 1022 303 1197 303 
Q 1434 303 1822 616 
z
" transform="scale(0.015625)"/>
        <path id="TimesNewRomanPSMT-6c" d="M 1184 4444 
L 1184 647 
Q 1184 378 1223 290 
Q 1263 203 1344 158 
Q 1425 113 1647 113 
L 1647 0 
L 244 0 
L 244 113 
Q 441 113 512 153 
Q 584 194 625 287 
Q 666 381 666 647 
L 666 3247 
Q 666 3731 644 3842 
Q 622 3953 573 3993 
Q 525 4034 450 4034 
Q 369 4034 244 3984 
L 191 4094 
L 1044 4444 
L 1184 4444 
z
" transform="scale(0.015625)"/>
        <path id="TimesNewRomanPSMT-63" d="M 2631 1088 
Q 2516 522 2178 217 
Q 1841 -88 1431 -88 
Q 944 -88 581 321 
Q 219 731 219 1428 
Q 219 2103 620 2525 
Q 1022 2947 1584 2947 
Q 2006 2947 2278 2723 
Q 2550 2500 2550 2259 
Q 2550 2141 2473 2067 
Q 2397 1994 2259 1994 
Q 2075 1994 1981 2113 
Q 1928 2178 1911 2362 
Q 1894 2547 1784 2644 
Q 1675 2738 1481 2738 
Q 1169 2738 978 2506 
Q 725 2200 725 1697 
Q 725 1184 976 792 
Q 1228 400 1656 400 
Q 1963 400 2206 609 
Q 2378 753 2541 1131 
L 2631 1088 
z
" transform="scale(0.015625)"/>
       </defs>
       <use xlink:href="#TimesNewRomanPSMT-61"/>
       <use xlink:href="#TimesNewRomanPSMT-6c" transform="translate(44.384766 0)"/>
       <use xlink:href="#TimesNewRomanPSMT-63" transform="translate(72.167969 0)"/>
       <use xlink:href="#TimesNewRomanPSMT-6f" transform="translate(116.552734 0)"/>
      </g>
     </g>
    </g>
    <g id="ytick_3">
     <g id="line2d_15">
      <path d="M 103.663594 363.494505 
L 605.863594 363.494505 
" clip-path="url(#pff49fb35d4)" style="fill: none; stroke: #b0b0b0; stroke-opacity: 0.25; stroke-width: 0.8; stroke-linecap: square"/>
     </g>
     <g id="line2d_16">
      <g>
       <use xlink:href="#mfab1578788" x="103.663594" y="363.494505" style="stroke: #000000"/>
      </g>
     </g>
     <g id="text_9">
      <!-- ap_hi -->
      <g transform="translate(70.724688 367.313568) scale(0.11 -0.11)">
       <defs>
        <path id="TimesNewRomanPSMT-70" d="M -6 2578 
L 875 2934 
L 994 2934 
L 994 2266 
Q 1216 2644 1439 2795 
Q 1663 2947 1909 2947 
Q 2341 2947 2628 2609 
Q 2981 2197 2981 1534 
Q 2981 794 2556 309 
Q 2206 -88 1675 -88 
Q 1444 -88 1275 -22 
Q 1150 25 994 166 
L 994 -706 
Q 994 -1000 1030 -1079 
Q 1066 -1159 1155 -1206 
Q 1244 -1253 1478 -1253 
L 1478 -1369 
L -22 -1369 
L -22 -1253 
L 56 -1253 
Q 228 -1256 350 -1188 
Q 409 -1153 442 -1076 
Q 475 -1000 475 -688 
L 475 2019 
Q 475 2297 450 2372 
Q 425 2447 370 2484 
Q 316 2522 222 2522 
Q 147 2522 31 2478 
L -6 2578 
z
M 994 2081 
L 994 1013 
Q 994 666 1022 556 
Q 1066 375 1236 237 
Q 1406 100 1666 100 
Q 1978 100 2172 344 
Q 2425 663 2425 1241 
Q 2425 1897 2138 2250 
Q 1938 2494 1663 2494 
Q 1513 2494 1366 2419 
Q 1253 2363 994 2081 
z
" transform="scale(0.015625)"/>
        <path id="TimesNewRomanPSMT-5f" d="M 3256 -1381 
L -53 -1381 
L -53 -1119 
L 3256 -1119 
L 3256 -1381 
z
" transform="scale(0.015625)"/>
        <path id="TimesNewRomanPSMT-68" d="M 1041 4444 
L 1041 2350 
Q 1388 2731 1591 2839 
Q 1794 2947 1997 2947 
Q 2241 2947 2416 2812 
Q 2591 2678 2675 2391 
Q 2734 2191 2734 1659 
L 2734 647 
Q 2734 375 2778 275 
Q 2809 200 2884 156 
Q 2959 113 3159 113 
L 3159 0 
L 1753 0 
L 1753 113 
L 1819 113 
Q 2019 113 2097 173 
Q 2175 234 2206 353 
Q 2216 403 2216 647 
L 2216 1659 
Q 2216 2128 2167 2275 
Q 2119 2422 2012 2495 
Q 1906 2569 1756 2569 
Q 1603 2569 1437 2487 
Q 1272 2406 1041 2159 
L 1041 647 
Q 1041 353 1073 281 
Q 1106 209 1195 161 
Q 1284 113 1503 113 
L 1503 0 
L 84 0 
L 84 113 
Q 275 113 384 172 
Q 447 203 484 290 
Q 522 378 522 647 
L 522 3238 
Q 522 3728 498 3840 
Q 475 3953 426 3993 
Q 378 4034 297 4034 
Q 231 4034 84 3984 
L 41 4094 
L 897 4444 
L 1041 4444 
z
" transform="scale(0.015625)"/>
        <path id="TimesNewRomanPSMT-69" d="M 928 4444 
Q 1059 4444 1151 4351 
Q 1244 4259 1244 4128 
Q 1244 3997 1151 3903 
Q 1059 3809 928 3809 
Q 797 3809 703 3903 
Q 609 3997 609 4128 
Q 609 4259 701 4351 
Q 794 4444 928 4444 
z
M 1188 2947 
L 1188 647 
Q 1188 378 1227 289 
Q 1266 200 1342 156 
Q 1419 113 1622 113 
L 1622 0 
L 231 0 
L 231 113 
Q 441 113 512 153 
Q 584 194 626 287 
Q 669 381 669 647 
L 669 1750 
Q 669 2216 641 2353 
Q 619 2453 572 2492 
Q 525 2531 444 2531 
Q 356 2531 231 2484 
L 188 2597 
L 1050 2947 
L 1188 2947 
z
" transform="scale(0.015625)"/>
       </defs>
       <use xlink:href="#TimesNewRomanPSMT-61"/>
       <use xlink:href="#TimesNewRomanPSMT-70" transform="translate(44.384766 0)"/>
       <use xlink:href="#TimesNewRomanPSMT-5f" transform="translate(94.384766 0)"/>
       <use xlink:href="#TimesNewRomanPSMT-68" transform="translate(144.384766 0)"/>
       <use xlink:href="#TimesNewRomanPSMT-69" transform="translate(194.384766 0)"/>
      </g>
     </g>
    </g>
    <g id="ytick_4">
     <g id="line2d_17">
      <path d="M 103.663594 333.5962 
L 605.863594 333.5962 
" clip-path="url(#pff49fb35d4)" style="fill: none; stroke: #b0b0b0; stroke-opacity: 0.25; stroke-width: 0.8; stroke-linecap: square"/>
     </g>
     <g id="line2d_18">
      <g>
       <use xlink:href="#mfab1578788" x="103.663594" y="333.5962" style="stroke: #000000"/>
      </g>
     </g>
     <g id="text_10">
      <!-- bmi_category -->
      <g transform="translate(34.684219 337.415263) scale(0.11 -0.11)">
       <defs>
        <path id="TimesNewRomanPSMT-62" d="M 984 2369 
Q 1400 2947 1881 2947 
Q 2322 2947 2650 2570 
Q 2978 2194 2978 1541 
Q 2978 778 2472 313 
Q 2038 -88 1503 -88 
Q 1253 -88 995 3 
Q 738 94 469 275 
L 469 3241 
Q 469 3728 445 3840 
Q 422 3953 372 3993 
Q 322 4034 247 4034 
Q 159 4034 28 3984 
L -16 4094 
L 844 4444 
L 984 4444 
L 984 2369 
z
M 984 2169 
L 984 456 
Q 1144 300 1314 220 
Q 1484 141 1663 141 
Q 1947 141 2192 453 
Q 2438 766 2438 1363 
Q 2438 1913 2192 2208 
Q 1947 2503 1634 2503 
Q 1469 2503 1303 2419 
Q 1178 2356 984 2169 
z
" transform="scale(0.015625)"/>
        <path id="TimesNewRomanPSMT-74" d="M 1031 3803 
L 1031 2863 
L 1700 2863 
L 1700 2644 
L 1031 2644 
L 1031 788 
Q 1031 509 1111 412 
Q 1191 316 1316 316 
Q 1419 316 1516 380 
Q 1613 444 1666 569 
L 1788 569 
Q 1678 263 1478 108 
Q 1278 -47 1066 -47 
Q 922 -47 784 33 
Q 647 113 581 261 
Q 516 409 516 719 
L 516 2644 
L 63 2644 
L 63 2747 
Q 234 2816 414 2980 
Q 594 3144 734 3369 
Q 806 3488 934 3803 
L 1031 3803 
z
" transform="scale(0.015625)"/>
        <path id="TimesNewRomanPSMT-67" d="M 966 1044 
Q 703 1172 562 1401 
Q 422 1631 422 1909 
Q 422 2334 742 2640 
Q 1063 2947 1563 2947 
Q 1972 2947 2272 2747 
L 2878 2747 
Q 3013 2747 3034 2739 
Q 3056 2731 3066 2713 
Q 3084 2684 3084 2613 
Q 3084 2531 3069 2500 
Q 3059 2484 3036 2475 
Q 3013 2466 2878 2466 
L 2506 2466 
Q 2681 2241 2681 1891 
Q 2681 1491 2375 1206 
Q 2069 922 1553 922 
Q 1341 922 1119 984 
Q 981 866 932 777 
Q 884 688 884 625 
Q 884 572 936 522 
Q 988 472 1138 450 
Q 1225 438 1575 428 
Q 2219 413 2409 384 
Q 2700 344 2873 169 
Q 3047 -6 3047 -263 
Q 3047 -616 2716 -925 
Q 2228 -1381 1444 -1381 
Q 841 -1381 425 -1109 
Q 191 -953 191 -784 
Q 191 -709 225 -634 
Q 278 -519 444 -313 
Q 466 -284 763 25 
Q 600 122 533 198 
Q 466 275 466 372 
Q 466 481 555 628 
Q 644 775 966 1044 
z
M 1509 2797 
Q 1278 2797 1122 2612 
Q 966 2428 966 2047 
Q 966 1553 1178 1281 
Q 1341 1075 1591 1075 
Q 1828 1075 1981 1253 
Q 2134 1431 2134 1813 
Q 2134 2309 1919 2591 
Q 1759 2797 1509 2797 
z
M 934 0 
Q 788 -159 713 -296 
Q 638 -434 638 -550 
Q 638 -700 819 -813 
Q 1131 -1006 1722 -1006 
Q 2284 -1006 2551 -807 
Q 2819 -609 2819 -384 
Q 2819 -222 2659 -153 
Q 2497 -84 2016 -72 
Q 1313 -53 934 0 
z
" transform="scale(0.015625)"/>
        <path id="TimesNewRomanPSMT-72" d="M 1038 2947 
L 1038 2303 
Q 1397 2947 1775 2947 
Q 1947 2947 2059 2842 
Q 2172 2738 2172 2600 
Q 2172 2478 2090 2393 
Q 2009 2309 1897 2309 
Q 1788 2309 1652 2417 
Q 1516 2525 1450 2525 
Q 1394 2525 1328 2463 
Q 1188 2334 1038 2041 
L 1038 669 
Q 1038 431 1097 309 
Q 1138 225 1241 169 
Q 1344 113 1538 113 
L 1538 0 
L 72 0 
L 72 113 
Q 291 113 397 181 
Q 475 231 506 341 
Q 522 394 522 644 
L 522 1753 
Q 522 2253 501 2348 
Q 481 2444 426 2487 
Q 372 2531 291 2531 
Q 194 2531 72 2484 
L 41 2597 
L 906 2947 
L 1038 2947 
z
" transform="scale(0.015625)"/>
        <path id="TimesNewRomanPSMT-79" d="M 38 2863 
L 1372 2863 
L 1372 2747 
L 1306 2747 
Q 1166 2747 1095 2686 
Q 1025 2625 1025 2534 
Q 1025 2413 1128 2197 
L 1825 753 
L 2466 2334 
Q 2519 2463 2519 2588 
Q 2519 2644 2497 2672 
Q 2472 2706 2419 2726 
Q 2366 2747 2231 2747 
L 2231 2863 
L 3163 2863 
L 3163 2747 
Q 3047 2734 2984 2696 
Q 2922 2659 2847 2556 
Q 2819 2513 2741 2316 
L 1575 -541 
Q 1406 -956 1132 -1168 
Q 859 -1381 606 -1381 
Q 422 -1381 303 -1275 
Q 184 -1169 184 -1031 
Q 184 -900 270 -820 
Q 356 -741 506 -741 
Q 609 -741 788 -809 
Q 913 -856 944 -856 
Q 1038 -856 1148 -759 
Q 1259 -663 1372 -384 
L 1575 113 
L 547 2272 
Q 500 2369 397 2513 
Q 319 2622 269 2659 
Q 197 2709 38 2747 
L 38 2863 
z
" transform="scale(0.015625)"/>
       </defs>
       <use xlink:href="#TimesNewRomanPSMT-62"/>
       <use xlink:href="#TimesNewRomanPSMT-6d" transform="translate(50 0)"/>
       <use xlink:href="#TimesNewRomanPSMT-69" transform="translate(127.783203 0)"/>
       <use xlink:href="#TimesNewRomanPSMT-5f" transform="translate(155.566406 0)"/>
       <use xlink:href="#TimesNewRomanPSMT-63" transform="translate(205.566406 0)"/>
       <use xlink:href="#TimesNewRomanPSMT-61" transform="translate(249.951172 0)"/>
       <use xlink:href="#TimesNewRomanPSMT-74" transform="translate(294.335938 0)"/>
       <use xlink:href="#TimesNewRomanPSMT-65" transform="translate(322.119141 0)"/>
       <use xlink:href="#TimesNewRomanPSMT-67" transform="translate(366.503906 0)"/>
       <use xlink:href="#TimesNewRomanPSMT-6f" transform="translate(416.503906 0)"/>
       <use xlink:href="#TimesNewRomanPSMT-72" transform="translate(466.503906 0)"/>
       <use xlink:href="#TimesNewRomanPSMT-79" transform="translate(499.804688 0)"/>
      </g>
     </g>
    </g>
    <g id="ytick_5">
     <g id="line2d_19">
      <path d="M 103.663594 303.697895 
L 605.863594 303.697895 
" clip-path="url(#pff49fb35d4)" style="fill: none; stroke: #b0b0b0; stroke-opacity: 0.25; stroke-width: 0.8; stroke-linecap: square"/>
     </g>
     <g id="line2d_20">
      <g>
       <use xlink:href="#mfab1578788" x="103.663594" y="303.697895" style="stroke: #000000"/>
      </g>
     </g>
     <g id="text_11">
      <!-- map_pressure -->
      <g transform="translate(34.070625 307.506645) scale(0.11 -0.11)">
       <defs>
        <path id="TimesNewRomanPSMT-75" d="M 2709 2863 
L 2709 1128 
Q 2709 631 2732 520 
Q 2756 409 2807 365 
Q 2859 322 2928 322 
Q 3025 322 3147 375 
L 3191 266 
L 2334 -88 
L 2194 -88 
L 2194 519 
Q 1825 119 1631 15 
Q 1438 -88 1222 -88 
Q 981 -88 804 51 
Q 628 191 559 409 
Q 491 628 491 1028 
L 491 2306 
Q 491 2509 447 2587 
Q 403 2666 317 2708 
Q 231 2750 6 2747 
L 6 2863 
L 1009 2863 
L 1009 947 
Q 1009 547 1148 422 
Q 1288 297 1484 297 
Q 1619 297 1789 381 
Q 1959 466 2194 703 
L 2194 2325 
Q 2194 2569 2105 2655 
Q 2016 2741 1734 2747 
L 1734 2863 
L 2709 2863 
z
" transform="scale(0.015625)"/>
       </defs>
       <use xlink:href="#TimesNewRomanPSMT-6d"/>
       <use xlink:href="#TimesNewRomanPSMT-61" transform="translate(77.783203 0)"/>
       <use xlink:href="#TimesNewRomanPSMT-70" transform="translate(122.167969 0)"/>
       <use xlink:href="#TimesNewRomanPSMT-5f" transform="translate(172.167969 0)"/>
       <use xlink:href="#TimesNewRomanPSMT-70" transform="translate(222.167969 0)"/>
       <use xlink:href="#TimesNewRomanPSMT-72" transform="translate(272.167969 0)"/>
       <use xlink:href="#TimesNewRomanPSMT-65" transform="translate(305.46875 0)"/>
       <use xlink:href="#TimesNewRomanPSMT-73" transform="translate(349.853516 0)"/>
       <use xlink:href="#TimesNewRomanPSMT-73" transform="translate(388.769531 0)"/>
       <use xlink:href="#TimesNewRomanPSMT-75" transform="translate(427.685547 0)"/>
       <use xlink:href="#TimesNewRomanPSMT-72" transform="translate(477.685547 0)"/>
       <use xlink:href="#TimesNewRomanPSMT-65" transform="translate(510.986328 0)"/>
      </g>
     </g>
    </g>
    <g id="ytick_6">
     <g id="line2d_21">
      <path d="M 103.663594 273.79959 
L 605.863594 273.79959 
" clip-path="url(#pff49fb35d4)" style="fill: none; stroke: #b0b0b0; stroke-opacity: 0.25; stroke-width: 0.8; stroke-linecap: square"/>
     </g>
     <g id="line2d_22">
      <g>
       <use xlink:href="#mfab1578788" x="103.663594" y="273.79959" style="stroke: #000000"/>
      </g>
     </g>
     <g id="text_12">
      <!-- cholesterol -->
      <g transform="translate(46.902813 277.618653) scale(0.11 -0.11)">
       <use xlink:href="#TimesNewRomanPSMT-63"/>
       <use xlink:href="#TimesNewRomanPSMT-68" transform="translate(44.384766 0)"/>
       <use xlink:href="#TimesNewRomanPSMT-6f" transform="translate(94.384766 0)"/>
       <use xlink:href="#TimesNewRomanPSMT-6c" transform="translate(144.384766 0)"/>
       <use xlink:href="#TimesNewRomanPSMT-65" transform="translate(172.167969 0)"/>
       <use xlink:href="#TimesNewRomanPSMT-73" transform="translate(216.552734 0)"/>
       <use xlink:href="#TimesNewRomanPSMT-74" transform="translate(255.46875 0)"/>
       <use xlink:href="#TimesNewRomanPSMT-65" transform="translate(283.251953 0)"/>
       <use xlink:href="#TimesNewRomanPSMT-72" transform="translate(327.636719 0)"/>
       <use xlink:href="#TimesNewRomanPSMT-6f" transform="translate(360.9375 0)"/>
       <use xlink:href="#TimesNewRomanPSMT-6c" transform="translate(410.9375 0)"/>
      </g>
     </g>
    </g>
    <g id="ytick_7">
     <g id="line2d_23">
      <path d="M 103.663594 243.901285 
L 605.863594 243.901285 
" clip-path="url(#pff49fb35d4)" style="fill: none; stroke: #b0b0b0; stroke-opacity: 0.25; stroke-width: 0.8; stroke-linecap: square"/>
     </g>
     <g id="line2d_24">
      <g>
       <use xlink:href="#mfab1578788" x="103.663594" y="243.901285" style="stroke: #000000"/>
      </g>
     </g>
     <g id="text_13">
      <!-- pulse_pressure -->
      <g transform="translate(29.789219 247.720347) scale(0.11 -0.11)">
       <use xlink:href="#TimesNewRomanPSMT-70"/>
       <use xlink:href="#TimesNewRomanPSMT-75" transform="translate(50 0)"/>
       <use xlink:href="#TimesNewRomanPSMT-6c" transform="translate(100 0)"/>
       <use xlink:href="#TimesNewRomanPSMT-73" transform="translate(127.783203 0)"/>
       <use xlink:href="#TimesNewRomanPSMT-65" transform="translate(166.699219 0)"/>
       <use xlink:href="#TimesNewRomanPSMT-5f" transform="translate(211.083984 0)"/>
       <use xlink:href="#TimesNewRomanPSMT-70" transform="translate(261.083984 0)"/>
       <use xlink:href="#TimesNewRomanPSMT-72" transform="translate(311.083984 0)"/>
       <use xlink:href="#TimesNewRomanPSMT-65" transform="translate(344.384766 0)"/>
       <use xlink:href="#TimesNewRomanPSMT-73" transform="translate(388.769531 0)"/>
       <use xlink:href="#TimesNewRomanPSMT-73" transform="translate(427.685547 0)"/>
       <use xlink:href="#TimesNewRomanPSMT-75" transform="translate(466.601562 0)"/>
       <use xlink:href="#TimesNewRomanPSMT-72" transform="translate(516.601562 0)"/>
       <use xlink:href="#TimesNewRomanPSMT-65" transform="translate(549.902344 0)"/>
      </g>
     </g>
    </g>
    <g id="ytick_8">
     <g id="line2d_25">
      <path d="M 103.663594 214.00298 
L 605.863594 214.00298 
" clip-path="url(#pff49fb35d4)" style="fill: none; stroke: #b0b0b0; stroke-opacity: 0.25; stroke-width: 0.8; stroke-linecap: square"/>
     </g>
     <g id="line2d_26">
      <g>
       <use xlink:href="#mfab1578788" x="103.663594" y="214.00298" style="stroke: #000000"/>
      </g>
     </g>
     <g id="text_14">
      <!-- ap_lo -->
      <g transform="translate(70.724688 217.822042) scale(0.11 -0.11)">
       <use xlink:href="#TimesNewRomanPSMT-61"/>
       <use xlink:href="#TimesNewRomanPSMT-70" transform="translate(44.384766 0)"/>
       <use xlink:href="#TimesNewRomanPSMT-5f" transform="translate(94.384766 0)"/>
       <use xlink:href="#TimesNewRomanPSMT-6c" transform="translate(144.384766 0)"/>
       <use xlink:href="#TimesNewRomanPSMT-6f" transform="translate(172.167969 0)"/>
      </g>
     </g>
    </g>
    <g id="ytick_9">
     <g id="line2d_27">
      <path d="M 103.663594 184.104675 
L 605.863594 184.104675 
" clip-path="url(#pff49fb35d4)" style="fill: none; stroke: #b0b0b0; stroke-opacity: 0.25; stroke-width: 0.8; stroke-linecap: square"/>
     </g>
     <g id="line2d_28">
      <g>
       <use xlink:href="#mfab1578788" x="103.663594" y="184.104675" style="stroke: #000000"/>
      </g>
     </g>
     <g id="text_15">
      <!-- age -->
      <g transform="translate(79.897656 187.913425) scale(0.11 -0.11)">
       <use xlink:href="#TimesNewRomanPSMT-61"/>
       <use xlink:href="#TimesNewRomanPSMT-67" transform="translate(44.384766 0)"/>
       <use xlink:href="#TimesNewRomanPSMT-65" transform="translate(94.384766 0)"/>
      </g>
     </g>
    </g>
    <g id="ytick_10">
     <g id="line2d_29">
      <path d="M 103.663594 154.20637 
L 605.863594 154.20637 
" clip-path="url(#pff49fb35d4)" style="fill: none; stroke: #b0b0b0; stroke-opacity: 0.25; stroke-width: 0.8; stroke-linecap: square"/>
     </g>
     <g id="line2d_30">
      <g>
       <use xlink:href="#mfab1578788" x="103.663594" y="154.20637" style="stroke: #000000"/>
      </g>
     </g>
     <g id="text_16">
      <!-- BMI -->
      <g transform="translate(74.382188 158.025432) scale(0.11 -0.11)">
       <defs>
        <path id="TimesNewRomanPSMT-42" d="M 2956 2163 
Q 3397 2069 3616 1863 
Q 3919 1575 3919 1159 
Q 3919 844 3719 555 
Q 3519 266 3170 133 
Q 2822 0 2106 0 
L 106 0 
L 106 116 
L 266 116 
Q 531 116 647 284 
Q 719 394 719 750 
L 719 3488 
Q 719 3881 628 3984 
Q 506 4122 266 4122 
L 106 4122 
L 106 4238 
L 1938 4238 
Q 2450 4238 2759 4163 
Q 3228 4050 3475 3764 
Q 3722 3478 3722 3106 
Q 3722 2788 3528 2536 
Q 3334 2284 2956 2163 
z
M 1319 2331 
Q 1434 2309 1582 2298 
Q 1731 2288 1909 2288 
Q 2366 2288 2595 2386 
Q 2825 2484 2947 2687 
Q 3069 2891 3069 3131 
Q 3069 3503 2766 3765 
Q 2463 4028 1881 4028 
Q 1569 4028 1319 3959 
L 1319 2331 
z
M 1319 306 
Q 1681 222 2034 222 
Q 2600 222 2897 476 
Q 3194 731 3194 1106 
Q 3194 1353 3059 1581 
Q 2925 1809 2622 1940 
Q 2319 2072 1872 2072 
Q 1678 2072 1540 2065 
Q 1403 2059 1319 2044 
L 1319 306 
z
" transform="scale(0.015625)"/>
        <path id="TimesNewRomanPSMT-4d" d="M 2619 0 
L 981 3566 
L 981 734 
Q 981 344 1066 247 
Q 1181 116 1431 116 
L 1581 116 
L 1581 0 
L 106 0 
L 106 116 
L 256 116 
Q 525 116 638 278 
Q 706 378 706 734 
L 706 3503 
Q 706 3784 644 3909 
Q 600 4000 483 4061 
Q 366 4122 106 4122 
L 106 4238 
L 1306 4238 
L 2844 922 
L 4356 4238 
L 5556 4238 
L 5556 4122 
L 5409 4122 
Q 5138 4122 5025 3959 
Q 4956 3859 4956 3503 
L 4956 734 
Q 4956 344 5044 247 
Q 5159 116 5409 116 
L 5556 116 
L 5556 0 
L 3756 0 
L 3756 116 
L 3906 116 
Q 4178 116 4288 278 
Q 4356 378 4356 734 
L 4356 3566 
L 2722 0 
L 2619 0 
z
" transform="scale(0.015625)"/>
        <path id="TimesNewRomanPSMT-49" d="M 1975 116 
L 1975 0 
L 159 0 
L 159 116 
L 309 116 
Q 572 116 691 269 
Q 766 369 766 750 
L 766 3488 
Q 766 3809 725 3913 
Q 694 3991 597 4047 
Q 459 4122 309 4122 
L 159 4122 
L 159 4238 
L 1975 4238 
L 1975 4122 
L 1822 4122 
Q 1563 4122 1444 3969 
Q 1366 3869 1366 3488 
L 1366 750 
Q 1366 428 1406 325 
Q 1438 247 1538 191 
Q 1672 116 1822 116 
L 1975 116 
z
" transform="scale(0.015625)"/>
       </defs>
       <use xlink:href="#TimesNewRomanPSMT-42"/>
       <use xlink:href="#TimesNewRomanPSMT-4d" transform="translate(66.699219 0)"/>
       <use xlink:href="#TimesNewRomanPSMT-49" transform="translate(155.615234 0)"/>
      </g>
     </g>
    </g>
    <g id="ytick_11">
     <g id="line2d_31">
      <path d="M 103.663594 124.308065 
L 605.863594 124.308065 
" clip-path="url(#pff49fb35d4)" style="fill: none; stroke: #b0b0b0; stroke-opacity: 0.25; stroke-width: 0.8; stroke-linecap: square"/>
     </g>
     <g id="line2d_32">
      <g>
       <use xlink:href="#mfab1578788" x="103.663594" y="124.308065" style="stroke: #000000"/>
      </g>
     </g>
     <g id="text_17">
      <!-- gluc -->
      <g transform="translate(76.224688 128.127127) scale(0.11 -0.11)">
       <use xlink:href="#TimesNewRomanPSMT-67"/>
       <use xlink:href="#TimesNewRomanPSMT-6c" transform="translate(50 0)"/>
       <use xlink:href="#TimesNewRomanPSMT-75" transform="translate(77.783203 0)"/>
       <use xlink:href="#TimesNewRomanPSMT-63" transform="translate(127.783203 0)"/>
      </g>
     </g>
    </g>
    <g id="ytick_12">
     <g id="line2d_33">
      <path d="M 103.663594 94.40976 
L 605.863594 94.40976 
" clip-path="url(#pff49fb35d4)" style="fill: none; stroke: #b0b0b0; stroke-opacity: 0.25; stroke-width: 0.8; stroke-linecap: square"/>
     </g>
     <g id="line2d_34">
      <g>
       <use xlink:href="#mfab1578788" x="103.663594" y="94.40976" style="stroke: #000000"/>
      </g>
     </g>
     <g id="text_18">
      <!-- active -->
      <g transform="translate(68.902813 98.228822) scale(0.11 -0.11)">
       <defs>
        <path id="TimesNewRomanPSMT-76" d="M 53 2863 
L 1400 2863 
L 1400 2747 
L 1313 2747 
Q 1191 2747 1127 2687 
Q 1063 2628 1063 2528 
Q 1063 2419 1128 2269 
L 1794 688 
L 2463 2328 
Q 2534 2503 2534 2594 
Q 2534 2638 2509 2666 
Q 2475 2713 2422 2730 
Q 2369 2747 2206 2747 
L 2206 2863 
L 3141 2863 
L 3141 2747 
Q 2978 2734 2916 2681 
Q 2806 2588 2719 2369 
L 1703 -88 
L 1575 -88 
L 553 2328 
Q 484 2497 421 2570 
Q 359 2644 263 2694 
Q 209 2722 53 2747 
L 53 2863 
z
" transform="scale(0.015625)"/>
       </defs>
       <use xlink:href="#TimesNewRomanPSMT-61"/>
       <use xlink:href="#TimesNewRomanPSMT-63" transform="translate(44.384766 0)"/>
       <use xlink:href="#TimesNewRomanPSMT-74" transform="translate(88.769531 0)"/>
       <use xlink:href="#TimesNewRomanPSMT-69" transform="translate(116.552734 0)"/>
       <use xlink:href="#TimesNewRomanPSMT-76" transform="translate(144.335938 0)"/>
       <use xlink:href="#TimesNewRomanPSMT-65" transform="translate(194.335938 0)"/>
      </g>
     </g>
    </g>
    <g id="text_19">
     <!-- Features -->
     <g transform="translate(23.008437 282.921766) rotate(-90) scale(0.13 -0.13)">
      <defs>
       <path id="TimesNewRomanPS-BoldMT-46" d="M 1759 3994 
L 1759 2253 
L 1881 2253 
Q 2163 2253 2341 2337 
Q 2519 2422 2642 2622 
Q 2766 2822 2803 3163 
L 2913 3163 
L 2913 1034 
L 2803 1034 
Q 2744 1638 2480 1830 
Q 2216 2022 1881 2022 
L 1759 2022 
L 1759 725 
Q 1759 400 1795 319 
Q 1831 238 1936 177 
Q 2041 116 2219 116 
L 2359 116 
L 2359 0 
L 144 0 
L 144 116 
L 284 116 
Q 469 116 581 181 
Q 663 225 706 331 
Q 741 406 741 725 
L 741 3513 
Q 741 3838 706 3919 
Q 672 4000 567 4061 
Q 463 4122 284 4122 
L 144 4122 
L 144 4238 
L 3719 4238 
L 3719 3022 
L 3591 3022 
Q 3547 3450 3367 3656 
Q 3188 3863 2847 3947 
Q 2659 3994 2153 3994 
L 1759 3994 
z
" transform="scale(0.015625)"/>
       <path id="TimesNewRomanPS-BoldMT-65" d="M 2691 1566 
L 1088 1566 
Q 1116 984 1397 647 
Q 1613 388 1916 388 
Q 2103 388 2256 492 
Q 2409 597 2584 869 
L 2691 800 
Q 2453 316 2165 114 
Q 1878 -88 1500 -88 
Q 850 -88 516 413 
Q 247 816 247 1413 
Q 247 2144 642 2576 
Q 1038 3009 1569 3009 
Q 2013 3009 2339 2645 
Q 2666 2281 2691 1566 
z
M 1922 1775 
Q 1922 2278 1867 2465 
Q 1813 2653 1697 2750 
Q 1631 2806 1522 2806 
Q 1359 2806 1256 2647 
Q 1072 2369 1072 1884 
L 1072 1775 
L 1922 1775 
z
" transform="scale(0.015625)"/>
       <path id="TimesNewRomanPS-BoldMT-75" d="M 3038 2922 
L 3038 634 
Q 3038 300 3100 217 
Q 3163 134 3353 113 
L 3353 0 
L 2163 0 
L 2163 391 
Q 1953 141 1743 26 
Q 1534 -88 1275 -88 
Q 1028 -88 836 64 
Q 644 216 578 419 
Q 513 622 513 1128 
L 513 2288 
Q 513 2619 452 2700 
Q 391 2781 197 2806 
L 197 2922 
L 1388 2922 
L 1388 925 
Q 1388 613 1417 522 
Q 1447 431 1511 384 
Q 1575 338 1659 338 
Q 1772 338 1863 397 
Q 1988 478 2163 725 
L 2163 2288 
Q 2163 2619 2102 2700 
Q 2041 2781 1847 2806 
L 1847 2922 
L 3038 2922 
z
" transform="scale(0.015625)"/>
       <path id="TimesNewRomanPS-BoldMT-73" d="M 2063 3003 
L 2109 2006 
L 2003 2006 
Q 1813 2450 1608 2612 
Q 1403 2775 1200 2775 
Q 1072 2775 981 2689 
Q 891 2603 891 2491 
Q 891 2406 953 2328 
Q 1053 2200 1512 1889 
Q 1972 1578 2117 1361 
Q 2263 1144 2263 875 
Q 2263 631 2141 397 
Q 2019 163 1797 37 
Q 1575 -88 1306 -88 
Q 1097 -88 747 44 
Q 653 78 619 78 
Q 516 78 447 -78 
L 344 -78 
L 294 972 
L 400 972 
Q 541 559 786 353 
Q 1031 147 1250 147 
Q 1400 147 1495 239 
Q 1591 331 1591 463 
Q 1591 613 1497 722 
Q 1403 831 1078 1053 
Q 600 1384 459 1559 
Q 253 1816 253 2125 
Q 253 2463 486 2736 
Q 719 3009 1159 3009 
Q 1397 3009 1619 2894 
Q 1703 2847 1756 2847 
Q 1813 2847 1847 2870 
Q 1881 2894 1956 3003 
L 2063 3003 
z
" transform="scale(0.015625)"/>
      </defs>
      <use xlink:href="#TimesNewRomanPS-BoldMT-46"/>
      <use xlink:href="#TimesNewRomanPS-BoldMT-65" transform="translate(61.083984 0)"/>
      <use xlink:href="#TimesNewRomanPS-BoldMT-61" transform="translate(105.46875 0)"/>
      <use xlink:href="#TimesNewRomanPS-BoldMT-74" transform="translate(155.46875 0)"/>
      <use xlink:href="#TimesNewRomanPS-BoldMT-75" transform="translate(188.769531 0)"/>
      <use xlink:href="#TimesNewRomanPS-BoldMT-72" transform="translate(244.384766 0)"/>
      <use xlink:href="#TimesNewRomanPS-BoldMT-65" transform="translate(287.019531 0)"/>
      <use xlink:href="#TimesNewRomanPS-BoldMT-73" transform="translate(331.404297 0)"/>
     </g>
    </g>
   </g>
   <g id="patch_15">
    <path d="M 103.663594 452.890438 
L 103.663594 64.810438 
" style="fill: none; stroke: #000000; stroke-linejoin: miter; stroke-linecap: square"/>
   </g>
   <g id="patch_16">
    <path d="M 605.863594 452.890438 
L 605.863594 64.810438 
" style="fill: none; stroke: #000000; stroke-linejoin: miter; stroke-linecap: square"/>
   </g>
   <g id="patch_17">
    <path d="M 103.663594 452.890438 
L 605.863594 452.890438 
" style="fill: none; stroke: #000000; stroke-linejoin: miter; stroke-linecap: square"/>
   </g>
   <g id="patch_18">
    <path d="M 103.663594 64.810438 
L 605.863594 64.810438 
" style="fill: none; stroke: #000000; stroke-linejoin: miter; stroke-linecap: square"/>
   </g>
   <g id="text_20">
    <!-- 0.023 -->
    <g transform="translate(130.202594 425.693459) scale(0.1 -0.1)">
     <use xlink:href="#TimesNewRomanPSMT-30"/>
     <use xlink:href="#TimesNewRomanPSMT-2e" transform="translate(50 0)"/>
     <use xlink:href="#TimesNewRomanPSMT-30" transform="translate(75 0)"/>
     <use xlink:href="#TimesNewRomanPSMT-32" transform="translate(125 0)"/>
     <use xlink:href="#TimesNewRomanPSMT-33" transform="translate(175 0)"/>
    </g>
   </g>
   <g id="text_21">
    <!-- 0.027 -->
    <g transform="translate(133.887088 395.795154) scale(0.1 -0.1)">
     <defs>
      <path id="TimesNewRomanPSMT-37" d="M 644 4238 
L 2916 4238 
L 2916 4119 
L 1503 -88 
L 1153 -88 
L 2419 3728 
L 1253 3728 
Q 900 3728 750 3644 
Q 488 3500 328 3200 
L 238 3234 
L 644 4238 
z
" transform="scale(0.015625)"/>
     </defs>
     <use xlink:href="#TimesNewRomanPSMT-30"/>
     <use xlink:href="#TimesNewRomanPSMT-2e" transform="translate(50 0)"/>
     <use xlink:href="#TimesNewRomanPSMT-30" transform="translate(75 0)"/>
     <use xlink:href="#TimesNewRomanPSMT-32" transform="translate(125 0)"/>
     <use xlink:href="#TimesNewRomanPSMT-37" transform="translate(175 0)"/>
    </g>
   </g>
   <g id="text_22">
    <!-- 0.029 -->
    <g transform="translate(135.906763 365.896849) scale(0.1 -0.1)">
     <defs>
      <path id="TimesNewRomanPSMT-39" d="M 338 -88 
L 338 28 
Q 744 34 1094 217 
Q 1444 400 1770 856 
Q 2097 1313 2225 1859 
Q 1734 1544 1338 1544 
Q 891 1544 572 1889 
Q 253 2234 253 2806 
Q 253 3363 572 3797 
Q 956 4325 1575 4325 
Q 2097 4325 2469 3894 
Q 2925 3359 2925 2575 
Q 2925 1869 2578 1258 
Q 2231 647 1613 244 
Q 1109 -88 516 -88 
L 338 -88 
z
M 2275 2091 
Q 2331 2497 2331 2741 
Q 2331 3044 2228 3395 
Q 2125 3747 1936 3934 
Q 1747 4122 1506 4122 
Q 1228 4122 1018 3872 
Q 809 3622 809 3128 
Q 809 2469 1088 2097 
Q 1291 1828 1588 1828 
Q 1731 1828 1928 1897 
Q 2125 1966 2275 2091 
z
" transform="scale(0.015625)"/>
     </defs>
     <use xlink:href="#TimesNewRomanPSMT-30"/>
     <use xlink:href="#TimesNewRomanPSMT-2e" transform="translate(50 0)"/>
     <use xlink:href="#TimesNewRomanPSMT-30" transform="translate(75 0)"/>
     <use xlink:href="#TimesNewRomanPSMT-32" transform="translate(125 0)"/>
     <use xlink:href="#TimesNewRomanPSMT-39" transform="translate(175 0)"/>
    </g>
   </g>
   <g id="text_23">
    <!-- 0.029 -->
    <g transform="translate(136.516116 335.998544) scale(0.1 -0.1)">
     <use xlink:href="#TimesNewRomanPSMT-30"/>
     <use xlink:href="#TimesNewRomanPSMT-2e" transform="translate(50 0)"/>
     <use xlink:href="#TimesNewRomanPSMT-30" transform="translate(75 0)"/>
     <use xlink:href="#TimesNewRomanPSMT-32" transform="translate(125 0)"/>
     <use xlink:href="#TimesNewRomanPSMT-39" transform="translate(175 0)"/>
    </g>
   </g>
   <g id="text_24">
    <!-- 0.030 -->
    <g transform="translate(137.888488 306.100239) scale(0.1 -0.1)">
     <use xlink:href="#TimesNewRomanPSMT-30"/>
     <use xlink:href="#TimesNewRomanPSMT-2e" transform="translate(50 0)"/>
     <use xlink:href="#TimesNewRomanPSMT-30" transform="translate(75 0)"/>
     <use xlink:href="#TimesNewRomanPSMT-33" transform="translate(125 0)"/>
     <use xlink:href="#TimesNewRomanPSMT-30" transform="translate(175 0)"/>
    </g>
   </g>
   <g id="text_25">
    <!-- 0.031 -->
    <g transform="translate(138.15331 276.201934) scale(0.1 -0.1)">
     <use xlink:href="#TimesNewRomanPSMT-30"/>
     <use xlink:href="#TimesNewRomanPSMT-2e" transform="translate(50 0)"/>
     <use xlink:href="#TimesNewRomanPSMT-30" transform="translate(75 0)"/>
     <use xlink:href="#TimesNewRomanPSMT-33" transform="translate(125 0)"/>
     <use xlink:href="#TimesNewRomanPSMT-31" transform="translate(175 0)"/>
    </g>
   </g>
   <g id="text_26">
    <!-- 0.034 -->
    <g transform="translate(141.812019 246.303629) scale(0.1 -0.1)">
     <use xlink:href="#TimesNewRomanPSMT-30"/>
     <use xlink:href="#TimesNewRomanPSMT-2e" transform="translate(50 0)"/>
     <use xlink:href="#TimesNewRomanPSMT-30" transform="translate(75 0)"/>
     <use xlink:href="#TimesNewRomanPSMT-33" transform="translate(125 0)"/>
     <use xlink:href="#TimesNewRomanPSMT-34" transform="translate(175 0)"/>
    </g>
   </g>
   <g id="text_27">
    <!-- 0.042 -->
    <g transform="translate(150.563715 216.405324) scale(0.1 -0.1)">
     <use xlink:href="#TimesNewRomanPSMT-30"/>
     <use xlink:href="#TimesNewRomanPSMT-2e" transform="translate(50 0)"/>
     <use xlink:href="#TimesNewRomanPSMT-30" transform="translate(75 0)"/>
     <use xlink:href="#TimesNewRomanPSMT-34" transform="translate(125 0)"/>
     <use xlink:href="#TimesNewRomanPSMT-32" transform="translate(175 0)"/>
    </g>
   </g>
   <g id="text_28">
    <!-- 0.077 -->
    <g transform="translate(187.463636 186.507019) scale(0.1 -0.1)">
     <use xlink:href="#TimesNewRomanPSMT-30"/>
     <use xlink:href="#TimesNewRomanPSMT-2e" transform="translate(50 0)"/>
     <use xlink:href="#TimesNewRomanPSMT-30" transform="translate(75 0)"/>
     <use xlink:href="#TimesNewRomanPSMT-37" transform="translate(125 0)"/>
     <use xlink:href="#TimesNewRomanPSMT-37" transform="translate(175 0)"/>
    </g>
   </g>
   <g id="text_29">
    <!-- 0.092 -->
    <g transform="translate(203.266963 156.608713) scale(0.1 -0.1)">
     <use xlink:href="#TimesNewRomanPSMT-30"/>
     <use xlink:href="#TimesNewRomanPSMT-2e" transform="translate(50 0)"/>
     <use xlink:href="#TimesNewRomanPSMT-30" transform="translate(75 0)"/>
     <use xlink:href="#TimesNewRomanPSMT-39" transform="translate(125 0)"/>
     <use xlink:href="#TimesNewRomanPSMT-32" transform="translate(175 0)"/>
    </g>
   </g>
   <g id="text_30">
    <!-- 0.131 -->
    <g transform="translate(244.311432 126.710408) scale(0.1 -0.1)">
     <use xlink:href="#TimesNewRomanPSMT-30"/>
     <use xlink:href="#TimesNewRomanPSMT-2e" transform="translate(50 0)"/>
     <use xlink:href="#TimesNewRomanPSMT-31" transform="translate(75 0)"/>
     <use xlink:href="#TimesNewRomanPSMT-33" transform="translate(125 0)"/>
     <use xlink:href="#TimesNewRomanPSMT-31" transform="translate(175 0)"/>
    </g>
   </g>
   <g id="text_31">
    <!-- 0.453 -->
    <g transform="translate(584.058816 96.812103) scale(0.1 -0.1)">
     <defs>
      <path id="TimesNewRomanPSMT-35" d="M 2778 4238 
L 2534 3706 
L 1259 3706 
L 981 3138 
Q 1809 3016 2294 2522 
Q 2709 2097 2709 1522 
Q 2709 1188 2573 903 
Q 2438 619 2231 419 
Q 2025 219 1772 97 
Q 1413 -75 1034 -75 
Q 653 -75 479 54 
Q 306 184 306 341 
Q 306 428 378 495 
Q 450 563 559 563 
Q 641 563 702 538 
Q 763 513 909 409 
Q 1144 247 1384 247 
Q 1750 247 2026 523 
Q 2303 800 2303 1197 
Q 2303 1581 2056 1914 
Q 1809 2247 1375 2428 
Q 1034 2569 447 2591 
L 1259 4238 
L 2778 4238 
z
" transform="scale(0.015625)"/>
     </defs>
     <use xlink:href="#TimesNewRomanPSMT-30"/>
     <use xlink:href="#TimesNewRomanPSMT-2e" transform="translate(50 0)"/>
     <use xlink:href="#TimesNewRomanPSMT-34" transform="translate(75 0)"/>
     <use xlink:href="#TimesNewRomanPSMT-35" transform="translate(125 0)"/>
     <use xlink:href="#TimesNewRomanPSMT-33" transform="translate(175 0)"/>
    </g>
   </g>
   <g id="text_32">
    <!-- XGBoost -->
    <g transform="translate(319.760625 26.319375) scale(0.18 -0.18)">
     <defs>
      <path id="TimesNewRomanPS-BoldMT-58" d="M 2703 2484 
L 3872 750 
Q 4163 319 4286 226 
Q 4409 134 4578 116 
L 4578 0 
L 2513 0 
L 2513 116 
Q 2759 134 2831 190 
Q 2903 247 2903 328 
Q 2903 384 2881 428 
Q 2838 522 2663 778 
L 2044 1694 
L 1397 903 
Q 1106 544 1106 416 
Q 1106 325 1181 247 
Q 1256 169 1403 134 
Q 1469 116 1672 116 
L 1672 0 
L 44 0 
L 44 116 
Q 322 156 481 266 
Q 691 409 1066 866 
L 1906 1891 
L 828 3475 
Q 563 3866 525 3909 
Q 441 4013 359 4056 
Q 278 4100 134 4122 
L 134 4238 
L 2238 4238 
L 2238 4122 
L 2131 4122 
Q 1950 4122 1878 4064 
Q 1806 4006 1806 3919 
Q 1806 3850 1828 3800 
L 2044 3475 
L 2569 2675 
L 3016 3222 
Q 3359 3644 3359 3813 
Q 3359 3897 3311 3969 
Q 3263 4041 3172 4081 
Q 3081 4122 2891 4122 
L 2891 4238 
L 4450 4238 
L 4450 4122 
Q 4266 4119 4153 4076 
Q 4041 4034 3913 3919 
Q 3831 3844 3506 3453 
L 2703 2484 
z
" transform="scale(0.015625)"/>
      <path id="TimesNewRomanPS-BoldMT-47" d="M 4416 4334 
L 4416 2841 
L 4300 2841 
Q 4091 3453 3672 3772 
Q 3253 4091 2756 4091 
Q 2281 4091 1965 3823 
Q 1650 3556 1519 3078 
Q 1388 2600 1388 2097 
Q 1388 1488 1531 1028 
Q 1675 569 1995 353 
Q 2316 138 2756 138 
Q 2909 138 3070 170 
Q 3231 203 3400 266 
L 3400 1147 
Q 3400 1397 3365 1470 
Q 3331 1544 3223 1603 
Q 3116 1663 2963 1663 
L 2853 1663 
L 2853 1778 
L 4913 1778 
L 4913 1663 
Q 4678 1647 4586 1598 
Q 4494 1550 4444 1438 
Q 4416 1378 4416 1147 
L 4416 266 
Q 4009 84 3570 -8 
Q 3131 -100 2659 -100 
Q 2056 -100 1657 64 
Q 1259 228 954 495 
Q 650 763 478 1097 
Q 259 1528 259 2063 
Q 259 3019 931 3678 
Q 1603 4338 2622 4338 
Q 2938 4338 3191 4288 
Q 3328 4263 3636 4145 
Q 3944 4028 4000 4028 
Q 4088 4028 4163 4092 
Q 4238 4156 4300 4334 
L 4416 4334 
z
" transform="scale(0.015625)"/>
      <path id="TimesNewRomanPS-BoldMT-42" d="M 2847 2247 
Q 3450 2106 3694 1906 
Q 4044 1622 4044 1169 
Q 4044 691 3659 378 
Q 3188 0 2288 0 
L 134 0 
L 134 116 
Q 428 116 533 170 
Q 638 225 680 312 
Q 722 400 722 744 
L 722 3494 
Q 722 3838 680 3927 
Q 638 4016 531 4069 
Q 425 4122 134 4122 
L 134 4238 
L 2166 4238 
Q 2894 4238 3197 4108 
Q 3500 3978 3675 3720 
Q 3850 3463 3850 3172 
Q 3850 2866 3628 2627 
Q 3406 2388 2847 2247 
z
M 1709 2331 
Q 2153 2331 2364 2431 
Q 2575 2531 2687 2712 
Q 2800 2894 2800 3175 
Q 2800 3456 2689 3636 
Q 2578 3816 2372 3909 
Q 2166 4003 1709 4000 
L 1709 2331 
z
M 1709 2088 
L 1709 728 
L 1706 572 
Q 1706 403 1792 317 
Q 1878 231 2047 231 
Q 2297 231 2508 342 
Q 2719 453 2831 664 
Q 2944 875 2944 1134 
Q 2944 1431 2806 1667 
Q 2669 1903 2428 1997 
Q 2188 2091 1709 2088 
z
" transform="scale(0.015625)"/>
     </defs>
     <use xlink:href="#TimesNewRomanPS-BoldMT-58"/>
     <use xlink:href="#TimesNewRomanPS-BoldMT-47" transform="translate(72.216797 0)"/>
     <use xlink:href="#TimesNewRomanPS-BoldMT-42" transform="translate(150 0)"/>
     <use xlink:href="#TimesNewRomanPS-BoldMT-6f" transform="translate(216.699219 0)"/>
     <use xlink:href="#TimesNewRomanPS-BoldMT-6f" transform="translate(266.699219 0)"/>
     <use xlink:href="#TimesNewRomanPS-BoldMT-73" transform="translate(316.699219 0)"/>
     <use xlink:href="#TimesNewRomanPS-BoldMT-74" transform="translate(355.615234 0)"/>
    </g>
    <!-- Top 15 Features Mais Importantes -->
    <g transform="translate(222.252656 44.810438) scale(0.18 -0.18)">
     <defs>
      <path id="TimesNewRomanPS-BoldMT-54" d="M 4038 4238 
L 4038 3091 
L 3925 3091 
Q 3825 3488 3703 3661 
Q 3581 3834 3369 3938 
Q 3250 3994 2953 3994 
L 2638 3994 
L 2638 725 
Q 2638 400 2673 319 
Q 2709 238 2814 177 
Q 2919 116 3100 116 
L 3241 116 
L 3241 0 
L 1022 0 
L 1022 116 
L 1163 116 
Q 1347 116 1459 181 
Q 1541 225 1588 331 
Q 1622 406 1622 725 
L 1622 3994 
L 1316 3994 
Q 888 3994 694 3813 
Q 422 3559 350 3091 
L 231 3091 
L 231 4238 
L 4038 4238 
z
" transform="scale(0.015625)"/>
      <path id="TimesNewRomanPS-BoldMT-31" d="M 2084 4325 
L 2084 859 
Q 2084 469 2118 361 
Q 2153 253 2262 184 
Q 2372 116 2613 116 
L 2709 116 
L 2709 0 
L 478 0 
L 478 116 
L 591 116 
Q 863 116 978 178 
Q 1094 241 1134 350 
Q 1175 459 1175 859 
L 1175 3056 
Q 1175 3350 1147 3423 
Q 1119 3497 1042 3548 
Q 966 3600 866 3600 
Q 706 3600 478 3500 
L 422 3613 
L 1981 4325 
L 2084 4325 
z
" transform="scale(0.015625)"/>
      <path id="TimesNewRomanPS-BoldMT-35" d="M 975 4238 
L 2959 4238 
L 2644 3431 
L 975 3431 
L 816 3009 
Q 1894 2969 2475 2472 
Q 2953 2063 2953 1453 
Q 2953 1063 2731 689 
Q 2509 316 2106 114 
Q 1703 -88 1222 -88 
Q 703 -88 425 106 
Q 231 244 231 419 
Q 231 553 332 656 
Q 434 759 569 759 
Q 691 759 816 709 
Q 941 659 1244 447 
Q 1434 316 1572 266 
Q 1669 228 1791 228 
Q 2047 228 2226 415 
Q 2406 603 2406 866 
Q 2406 1416 1856 1759 
Q 1306 2103 469 2103 
Q 384 2103 216 2100 
L 975 4238 
z
" transform="scale(0.015625)"/>
      <path id="TimesNewRomanPS-BoldMT-4d" d="M 3050 1444 
L 4200 4238 
L 5925 4238 
L 5925 4122 
L 5788 4122 
Q 5600 4122 5488 4056 
Q 5409 4013 5363 3909 
Q 5328 3834 5328 3519 
L 5328 725 
Q 5328 400 5362 319 
Q 5397 238 5503 177 
Q 5609 116 5788 116 
L 5925 116 
L 5925 0 
L 3713 0 
L 3713 116 
L 3850 116 
Q 4038 116 4150 181 
Q 4228 225 4275 331 
Q 4309 406 4309 725 
L 4309 3866 
L 2684 0 
L 2609 0 
L 959 3838 
L 959 853 
Q 959 541 975 469 
Q 1016 313 1152 214 
Q 1288 116 1578 116 
L 1578 0 
L 128 0 
L 128 116 
L 172 116 
Q 313 113 434 161 
Q 556 209 618 290 
Q 681 372 716 519 
Q 722 553 722 838 
L 722 3519 
Q 722 3841 687 3920 
Q 653 4000 547 4061 
Q 441 4122 263 4122 
L 128 4122 
L 128 4238 
L 1859 4238 
L 3050 1444 
z
" transform="scale(0.015625)"/>
     </defs>
     <use xlink:href="#TimesNewRomanPS-BoldMT-54"/>
     <use xlink:href="#TimesNewRomanPS-BoldMT-6f" transform="translate(57.574219 0)"/>
     <use xlink:href="#TimesNewRomanPS-BoldMT-70" transform="translate(107.574219 0)"/>
     <use xlink:href="#TimesNewRomanPS-BoldMT-20" transform="translate(163.189453 0)"/>
     <use xlink:href="#TimesNewRomanPS-BoldMT-31" transform="translate(188.189453 0)"/>
     <use xlink:href="#TimesNewRomanPS-BoldMT-35" transform="translate(238.189453 0)"/>
     <use xlink:href="#TimesNewRomanPS-BoldMT-20" transform="translate(288.189453 0)"/>
     <use xlink:href="#TimesNewRomanPS-BoldMT-46" transform="translate(313.189453 0)"/>
     <use xlink:href="#TimesNewRomanPS-BoldMT-65" transform="translate(374.273438 0)"/>
     <use xlink:href="#TimesNewRomanPS-BoldMT-61" transform="translate(418.658203 0)"/>
     <use xlink:href="#TimesNewRomanPS-BoldMT-74" transform="translate(468.658203 0)"/>
     <use xlink:href="#TimesNewRomanPS-BoldMT-75" transform="translate(501.958984 0)"/>
     <use xlink:href="#TimesNewRomanPS-BoldMT-72" transform="translate(557.574219 0)"/>
     <use xlink:href="#TimesNewRomanPS-BoldMT-65" transform="translate(600.208984 0)"/>
     <use xlink:href="#TimesNewRomanPS-BoldMT-73" transform="translate(644.59375 0)"/>
     <use xlink:href="#TimesNewRomanPS-BoldMT-20" transform="translate(683.509766 0)"/>
     <use xlink:href="#TimesNewRomanPS-BoldMT-4d" transform="translate(708.509766 0)"/>
     <use xlink:href="#TimesNewRomanPS-BoldMT-61" transform="translate(802.894531 0)"/>
     <use xlink:href="#TimesNewRomanPS-BoldMT-69" transform="translate(852.894531 0)"/>
     <use xlink:href="#TimesNewRomanPS-BoldMT-73" transform="translate(880.677734 0)"/>
     <use xlink:href="#TimesNewRomanPS-BoldMT-20" transform="translate(919.59375 0)"/>
     <use xlink:href="#TimesNewRomanPS-BoldMT-49" transform="translate(944.59375 0)"/>
     <use xlink:href="#TimesNewRomanPS-BoldMT-6d" transform="translate(983.509766 0)"/>
     <use xlink:href="#TimesNewRomanPS-BoldMT-70" transform="translate(1066.810547 0)"/>
     <use xlink:href="#TimesNewRomanPS-BoldMT-6f" transform="translate(1122.425781 0)"/>
     <use xlink:href="#TimesNewRomanPS-BoldMT-72" transform="translate(1172.425781 0)"/>
     <use xlink:href="#TimesNewRomanPS-BoldMT-74" transform="translate(1216.810547 0)"/>
     <use xlink:href="#TimesNewRomanPS-BoldMT-61" transform="translate(1250.111328 0)"/>
     <use xlink:href="#TimesNewRomanPS-BoldMT-6e" transform="translate(1300.111328 0)"/>
     <use xlink:href="#TimesNewRomanPS-BoldMT-74" transform="translate(1355.726562 0)"/>
     <use xlink:href="#TimesNewRomanPS-BoldMT-65" transform="translate(1389.027344 0)"/>
     <use xlink:href="#TimesNewRomanPS-BoldMT-73" transform="translate(1433.412109 0)"/>
    </g>
   </g>
  </g>
  <g id="text_33">
   <!-- Importancia de Features -->
   <g transform="translate(251.837344 26.611062) scale(0.18 -0.18)">
    <use xlink:href="#TimesNewRomanPS-BoldMT-49"/>
    <use xlink:href="#TimesNewRomanPS-BoldMT-6d" transform="translate(38.916016 0)"/>
    <use xlink:href="#TimesNewRomanPS-BoldMT-70" transform="translate(122.216797 0)"/>
    <use xlink:href="#TimesNewRomanPS-BoldMT-6f" transform="translate(177.832031 0)"/>
    <use xlink:href="#TimesNewRomanPS-BoldMT-72" transform="translate(227.832031 0)"/>
    <use xlink:href="#TimesNewRomanPS-BoldMT-74" transform="translate(272.216797 0)"/>
    <use xlink:href="#TimesNewRomanPS-BoldMT-61" transform="translate(305.517578 0)"/>
    <use xlink:href="#TimesNewRomanPS-BoldMT-6e" transform="translate(355.517578 0)"/>
    <use xlink:href="#TimesNewRomanPS-BoldMT-63" transform="translate(411.132812 0)"/>
    <use xlink:href="#TimesNewRomanPS-BoldMT-69" transform="translate(455.517578 0)"/>
    <use xlink:href="#TimesNewRomanPS-BoldMT-61" transform="translate(483.300781 0)"/>
    <use xlink:href="#TimesNewRomanPS-BoldMT-20" transform="translate(533.300781 0)"/>
    <use xlink:href="#TimesNewRomanPS-BoldMT-64" transform="translate(558.300781 0)"/>
    <use xlink:href="#TimesNewRomanPS-BoldMT-65" transform="translate(613.916016 0)"/>
    <use xlink:href="#TimesNewRomanPS-BoldMT-20" transform="translate(658.300781 0)"/>
    <use xlink:href="#TimesNewRomanPS-BoldMT-46" transform="translate(683.300781 0)"/>
    <use xlink:href="#TimesNewRomanPS-BoldMT-65" transform="translate(744.384766 0)"/>
    <use xlink:href="#TimesNewRomanPS-BoldMT-61" transform="translate(788.769531 0)"/>
    <use xlink:href="#TimesNewRomanPS-BoldMT-74" transform="translate(838.769531 0)"/>
    <use xlink:href="#TimesNewRomanPS-BoldMT-75" transform="translate(872.070312 0)"/>
    <use xlink:href="#TimesNewRomanPS-BoldMT-72" transform="translate(927.685547 0)"/>
    <use xlink:href="#TimesNewRomanPS-BoldMT-65" transform="translate(970.320312 0)"/>
    <use xlink:href="#TimesNewRomanPS-BoldMT-73" transform="translate(1014.705078 0)"/>
   </g>
  </g>
 </g>
 <defs>
  <clipPath id="pff49fb35d4">
   <rect x="103.663594" y="64.810438" width="502.2" height="388.08"/>
  </clipPath>
 </defs>
</svg>
