<?xml version="1.0" encoding="utf-8" standalone="no"?>
<!DOCTYPE svg PUBLIC "-//W3C//DTD SVG 1.1//EN"
  "http://www.w3.org/Graphics/SVG/1.1/DTD/svg11.dtd">
<svg xmlns:xlink="http://www.w3.org/1999/xlink" width="568.639219pt" height="438.723437pt" viewBox="0 0 568.639219 438.723437" xmlns="http://www.w3.org/2000/svg" version="1.1">
 <metadata>
  <rdf:RDF xmlns:dc="http://purl.org/dc/elements/1.1/" xmlns:cc="http://creativecommons.org/ns#" xmlns:rdf="http://www.w3.org/1999/02/22-rdf-syntax-ns#">
   <cc:Work>
    <dc:type rdf:resource="http://purl.org/dc/dcmitype/StillImage"/>
    <dc:date>2026-01-16T17:13:04.934177</dc:date>
    <dc:format>image/svg+xml</dc:format>
    <dc:creator>
     <cc:Agent>
      <dc:title>Matplotlib v3.10.1, https://matplotlib.org/</dc:title>
     </cc:Agent>
    </dc:creator>
   </cc:Work>
  </rdf:RDF>
 </metadata>
 <defs>
  <style type="text/css">*{stroke-linejoin: round; stroke-linecap: butt}</style>
 </defs>
 <g id="figure_1">
  <g id="patch_1">
   <path d="M 0 438.723437 
L 568.639219 438.723437 
L 568.639219 0 
L 0 0 
z
" style="fill: #ffffff"/>
  </g>
  <g id="axes_1">
   <g id="patch_2">
    <path d="M 52.039219 390.24 
L 554.239219 390.24 
L 554.239219 57.6 
L 52.039219 57.6 
z
" style="fill: #ffffff"/>
   </g>
   <g id="matplotlib.axis_1">
    <g id="xtick_1">
     <g id="line2d_1">
      <path d="M 114.814219 390.24 
L 114.814219 57.6 
" clip-path="url(#p87824c23ec)" style="fill: none; stroke: #b0b0b0; stroke-opacity: 0.25; stroke-width: 0.8; stroke-linecap: square"/>
     </g>
     <g id="line2d_2">
      <defs>
       <path id="mb3ff11661c" d="M 0 0 
L 0 5 
" style="stroke: #000000"/>
      </defs>
      <g>
       <use xlink:href="#mb3ff11661c" x="114.814219" y="390.24" style="stroke: #000000"/>
      </g>
     </g>
     <g id="text_1">
      <!-- TP -->
      <g transform="translate(108.396406 406.378125) scale(0.11 -0.11)">
       <defs>
        <path id="TimesNewRomanPSMT-54" d="M 3703 4238 
L 3750 3244 
L 3631 3244 
Q 3597 3506 3538 3619 
Q 3441 3800 3280 3886 
Q 3119 3972 2856 3972 
L 2259 3972 
L 2259 734 
Q 2259 344 2344 247 
Q 2463 116 2709 116 
L 2856 116 
L 2856 0 
L 1059 0 
L 1059 116 
L 1209 116 
Q 1478 116 1591 278 
Q 1659 378 1659 734 
L 1659 3972 
L 1150 3972 
Q 853 3972 728 3928 
Q 566 3869 450 3700 
Q 334 3531 313 3244 
L 194 3244 
L 244 4238 
L 3703 4238 
z
" transform="scale(0.015625)"/>
        <path id="TimesNewRomanPSMT-50" d="M 1313 1984 
L 1313 750 
Q 1313 350 1400 253 
Q 1519 116 1759 116 
L 1922 116 
L 1922 0 
L 106 0 
L 106 116 
L 266 116 
Q 534 116 650 291 
Q 713 388 713 750 
L 713 3488 
Q 713 3888 628 3984 
Q 506 4122 266 4122 
L 106 4122 
L 106 4238 
L 1659 4238 
Q 2228 4238 2556 4120 
Q 2884 4003 3109 3725 
Q 3334 3447 3334 3066 
Q 3334 2547 2992 2222 
Q 2650 1897 2025 1897 
Q 1872 1897 1694 1919 
Q 1516 1941 1313 1984 
z
M 1313 2163 
Q 1478 2131 1606 2115 
Q 1734 2100 1825 2100 
Q 2150 2100 2386 2351 
Q 2622 2603 2622 3003 
Q 2622 3278 2509 3514 
Q 2397 3750 2190 3867 
Q 1984 3984 1722 3984 
Q 1563 3984 1313 3925 
L 1313 2163 
z
" transform="scale(0.015625)"/>
       </defs>
       <use xlink:href="#TimesNewRomanPSMT-54"/>
       <use xlink:href="#TimesNewRomanPSMT-50" transform="translate(61.083984 0)"/>
      </g>
     </g>
    </g>
    <g id="xtick_2">
     <g id="line2d_3">
      <path d="M 240.364219 390.24 
L 240.364219 57.6 
" clip-path="url(#p87824c23ec)" style="fill: none; stroke: #b0b0b0; stroke-opacity: 0.25; stroke-width: 0.8; stroke-linecap: square"/>
     </g>
     <g id="line2d_4">
      <g>
       <use xlink:href="#mb3ff11661c" x="240.364219" y="390.24" style="stroke: #000000"/>
      </g>
     </g>
     <g id="text_2">
      <!-- TN -->
      <g transform="translate(233.032891 406.378125) scale(0.11 -0.11)">
       <defs>
        <path id="TimesNewRomanPSMT-4e" d="M -84 4238 
L 1066 4238 
L 3656 1059 
L 3656 3503 
Q 3656 3894 3569 3991 
Q 3453 4122 3203 4122 
L 3056 4122 
L 3056 4238 
L 4531 4238 
L 4531 4122 
L 4381 4122 
Q 4113 4122 4000 3959 
Q 3931 3859 3931 3503 
L 3931 -69 
L 3819 -69 
L 1025 3344 
L 1025 734 
Q 1025 344 1109 247 
Q 1228 116 1475 116 
L 1625 116 
L 1625 0 
L 150 0 
L 150 116 
L 297 116 
Q 569 116 681 278 
Q 750 378 750 734 
L 750 3681 
Q 566 3897 470 3965 
Q 375 4034 191 4094 
Q 100 4122 -84 4122 
L -84 4238 
z
" transform="scale(0.015625)"/>
       </defs>
       <use xlink:href="#TimesNewRomanPSMT-54"/>
       <use xlink:href="#TimesNewRomanPSMT-4e" transform="translate(61.083984 0)"/>
      </g>
     </g>
    </g>
    <g id="xtick_3">
     <g id="line2d_5">
      <path d="M 365.914219 390.24 
L 365.914219 57.6 
" clip-path="url(#p87824c23ec)" style="fill: none; stroke: #b0b0b0; stroke-opacity: 0.25; stroke-width: 0.8; stroke-linecap: square"/>
     </g>
     <g id="line2d_6">
      <g>
       <use xlink:href="#mb3ff11661c" x="365.914219" y="390.24" style="stroke: #000000"/>
      </g>
     </g>
     <g id="text_3">
      <!-- FN -->
      <g transform="translate(358.883672 406.378125) scale(0.11 -0.11)">
       <defs>
        <path id="TimesNewRomanPSMT-46" d="M 1309 4006 
L 1309 2341 
L 2081 2341 
Q 2347 2341 2470 2458 
Q 2594 2575 2634 2922 
L 2750 2922 
L 2750 1488 
L 2634 1488 
Q 2631 1734 2570 1850 
Q 2509 1966 2401 2023 
Q 2294 2081 2081 2081 
L 1309 2081 
L 1309 750 
Q 1309 428 1350 325 
Q 1381 247 1481 191 
Q 1619 116 1769 116 
L 1922 116 
L 1922 0 
L 103 0 
L 103 116 
L 253 116 
Q 516 116 634 269 
Q 709 369 709 750 
L 709 3488 
Q 709 3809 669 3913 
Q 638 3991 541 4047 
Q 406 4122 253 4122 
L 103 4122 
L 103 4238 
L 3256 4238 
L 3297 3306 
L 3188 3306 
Q 3106 3603 2998 3742 
Q 2891 3881 2733 3943 
Q 2575 4006 2244 4006 
L 1309 4006 
z
" transform="scale(0.015625)"/>
       </defs>
       <use xlink:href="#TimesNewRomanPSMT-46"/>
       <use xlink:href="#TimesNewRomanPSMT-4e" transform="translate(55.615234 0)"/>
      </g>
     </g>
    </g>
    <g id="xtick_4">
     <g id="line2d_7">
      <path d="M 491.464219 390.24 
L 491.464219 57.6 
" clip-path="url(#p87824c23ec)" style="fill: none; stroke: #b0b0b0; stroke-opacity: 0.25; stroke-width: 0.8; stroke-linecap: square"/>
     </g>
     <g id="line2d_8">
      <g>
       <use xlink:href="#mb3ff11661c" x="491.464219" y="390.24" style="stroke: #000000"/>
      </g>
     </g>
     <g id="text_4">
      <!-- FP -->
      <g transform="translate(485.347188 406.378125) scale(0.11 -0.11)">
       <use xlink:href="#TimesNewRomanPSMT-46"/>
       <use xlink:href="#TimesNewRomanPSMT-50" transform="translate(55.615234 0)"/>
      </g>
     </g>
    </g>
    <g id="text_5">
     <!-- Tipos de Classificacao -->
     <g transform="translate(241.860469 421.542656) scale(0.13 -0.13)">
      <defs>
       <path id="TimesNewRomanPS-BoldMT-54" d="M 4038 4238 
L 4038 3091 
L 3925 3091 
Q 3825 3488 3703 3661 
Q 3581 3834 3369 3938 
Q 3250 3994 2953 3994 
L 2638 3994 
L 2638 725 
Q 2638 400 2673 319 
Q 2709 238 2814 177 
Q 2919 116 3100 116 
L 3241 116 
L 3241 0 
L 1022 0 
L 1022 116 
L 1163 116 
Q 1347 116 1459 181 
Q 1541 225 1588 331 
Q 1622 406 1622 725 
L 1622 3994 
L 1316 3994 
Q 888 3994 694 3813 
Q 422 3559 350 3091 
L 231 3091 
L 231 4238 
L 4038 4238 
z
" transform="scale(0.015625)"/>
       <path id="TimesNewRomanPS-BoldMT-69" d="M 919 4338 
Q 1122 4338 1262 4195 
Q 1403 4053 1403 3853 
Q 1403 3653 1261 3512 
Q 1119 3372 919 3372 
Q 719 3372 578 3512 
Q 438 3653 438 3853 
Q 438 4053 578 4195 
Q 719 4338 919 4338 
z
M 1356 2922 
L 1356 606 
Q 1356 297 1428 211 
Q 1500 125 1709 113 
L 1709 0 
L 131 0 
L 131 113 
Q 325 119 419 225 
Q 481 297 481 606 
L 481 2313 
Q 481 2622 409 2708 
Q 338 2794 131 2806 
L 131 2922 
L 1356 2922 
z
" transform="scale(0.015625)"/>
       <path id="TimesNewRomanPS-BoldMT-70" d="M 1347 297 
L 1347 -791 
Q 1347 -1016 1383 -1097 
Q 1419 -1178 1494 -1215 
Q 1569 -1253 1788 -1253 
L 1788 -1369 
L 122 -1369 
L 122 -1253 
Q 316 -1247 409 -1144 
Q 472 -1072 472 -772 
L 472 2313 
Q 472 2622 400 2708 
Q 328 2794 122 2806 
L 122 2922 
L 1347 2922 
L 1347 2538 
Q 1500 2763 1659 2863 
Q 1888 3009 2156 3009 
Q 2478 3009 2742 2806 
Q 3006 2603 3143 2245 
Q 3281 1888 3281 1475 
Q 3281 1031 3139 664 
Q 2997 297 2726 104 
Q 2456 -88 2125 -88 
Q 1884 -88 1675 19 
Q 1519 100 1347 297 
z
M 1347 613 
Q 1616 231 1922 231 
Q 2091 231 2200 409 
Q 2363 672 2363 1409 
Q 2363 2166 2184 2444 
Q 2066 2628 1866 2628 
Q 1550 2628 1347 2172 
L 1347 613 
z
" transform="scale(0.015625)"/>
       <path id="TimesNewRomanPS-BoldMT-6f" d="M 1594 3009 
Q 1975 3009 2303 2812 
Q 2631 2616 2801 2253 
Q 2972 1891 2972 1459 
Q 2972 838 2656 419 
Q 2275 -88 1603 -88 
Q 944 -88 587 375 
Q 231 838 231 1447 
Q 231 2075 595 2542 
Q 959 3009 1594 3009 
z
M 1606 2788 
Q 1447 2788 1333 2667 
Q 1219 2547 1183 2192 
Q 1147 1838 1147 1206 
Q 1147 872 1191 581 
Q 1225 359 1337 243 
Q 1450 128 1594 128 
Q 1734 128 1828 206 
Q 1950 313 1991 503 
Q 2053 800 2053 1703 
Q 2053 2234 1993 2432 
Q 1934 2631 1819 2722 
Q 1738 2788 1606 2788 
z
" transform="scale(0.015625)"/>
       <path id="TimesNewRomanPS-BoldMT-73" d="M 2063 3003 
L 2109 2006 
L 2003 2006 
Q 1813 2450 1608 2612 
Q 1403 2775 1200 2775 
Q 1072 2775 981 2689 
Q 891 2603 891 2491 
Q 891 2406 953 2328 
Q 1053 2200 1512 1889 
Q 1972 1578 2117 1361 
Q 2263 1144 2263 875 
Q 2263 631 2141 397 
Q 2019 163 1797 37 
Q 1575 -88 1306 -88 
Q 1097 -88 747 44 
Q 653 78 619 78 
Q 516 78 447 -78 
L 344 -78 
L 294 972 
L 400 972 
Q 541 559 786 353 
Q 1031 147 1250 147 
Q 1400 147 1495 239 
Q 1591 331 1591 463 
Q 1591 613 1497 722 
Q 1403 831 1078 1053 
Q 600 1384 459 1559 
Q 253 1816 253 2125 
Q 253 2463 486 2736 
Q 719 3009 1159 3009 
Q 1397 3009 1619 2894 
Q 1703 2847 1756 2847 
Q 1813 2847 1847 2870 
Q 1881 2894 1956 3003 
L 2063 3003 
z
" transform="scale(0.015625)"/>
       <path id="TimesNewRomanPS-BoldMT-20" transform="scale(0.015625)"/>
       <path id="TimesNewRomanPS-BoldMT-64" d="M 3056 4238 
L 3056 875 
Q 3056 534 3075 472 
Q 3100 369 3170 319 
Q 3241 269 3416 256 
L 3416 153 
L 2181 -88 
L 2181 375 
Q 1959 106 1786 9 
Q 1613 -88 1394 -88 
Q 834 -88 509 413 
Q 247 819 247 1409 
Q 247 1881 409 2254 
Q 572 2628 855 2818 
Q 1138 3009 1463 3009 
Q 1672 3009 1834 2928 
Q 1997 2847 2181 2644 
L 2181 3525 
Q 2181 3859 2153 3928 
Q 2116 4019 2041 4062 
Q 1966 4106 1759 4106 
L 1759 4238 
L 3056 4238 
z
M 2181 2256 
Q 1950 2700 1616 2700 
Q 1500 2700 1425 2638 
Q 1309 2541 1236 2297 
Q 1163 2053 1163 1550 
Q 1163 997 1244 731 
Q 1325 466 1466 347 
Q 1538 288 1663 288 
Q 1938 288 2181 719 
L 2181 2256 
z
" transform="scale(0.015625)"/>
       <path id="TimesNewRomanPS-BoldMT-65" d="M 2691 1566 
L 1088 1566 
Q 1116 984 1397 647 
Q 1613 388 1916 388 
Q 2103 388 2256 492 
Q 2409 597 2584 869 
L 2691 800 
Q 2453 316 2165 114 
Q 1878 -88 1500 -88 
Q 850 -88 516 413 
Q 247 816 247 1413 
Q 247 2144 642 2576 
Q 1038 3009 1569 3009 
Q 2013 3009 2339 2645 
Q 2666 2281 2691 1566 
z
M 1922 1775 
Q 1922 2278 1867 2465 
Q 1813 2653 1697 2750 
Q 1631 2806 1522 2806 
Q 1359 2806 1256 2647 
Q 1072 2369 1072 1884 
L 1072 1775 
L 1922 1775 
z
" transform="scale(0.015625)"/>
       <path id="TimesNewRomanPS-BoldMT-43" d="M 4272 4334 
L 4272 2866 
L 4150 2866 
Q 4013 3441 3638 3747 
Q 3263 4053 2788 4053 
Q 2391 4053 2059 3825 
Q 1728 3597 1575 3228 
Q 1378 2756 1378 2178 
Q 1378 1609 1522 1142 
Q 1666 675 1972 436 
Q 2278 197 2766 197 
Q 3166 197 3498 372 
Q 3831 547 4200 975 
L 4200 609 
Q 3844 238 3458 70 
Q 3072 -97 2556 -97 
Q 1878 -97 1351 175 
Q 825 447 539 956 
Q 253 1466 253 2041 
Q 253 2647 570 3190 
Q 888 3734 1427 4034 
Q 1966 4334 2572 4334 
Q 3019 4334 3516 4141 
Q 3803 4028 3881 4028 
Q 3981 4028 4054 4101 
Q 4128 4175 4150 4334 
L 4272 4334 
z
" transform="scale(0.015625)"/>
       <path id="TimesNewRomanPS-BoldMT-6c" d="M 1359 4238 
L 1359 606 
Q 1359 297 1431 211 
Q 1503 125 1713 113 
L 1713 0 
L 134 0 
L 134 113 
Q 328 119 422 225 
Q 484 297 484 606 
L 484 3631 
Q 484 3938 412 4023 
Q 341 4109 134 4122 
L 134 4238 
L 1359 4238 
z
" transform="scale(0.015625)"/>
       <path id="TimesNewRomanPS-BoldMT-61" d="M 1828 431 
Q 1294 -41 869 -41 
Q 619 -41 453 123 
Q 288 288 288 534 
Q 288 869 575 1136 
Q 863 1403 1828 1847 
L 1828 2141 
Q 1828 2472 1792 2558 
Q 1756 2644 1656 2708 
Q 1556 2772 1431 2772 
Q 1228 2772 1097 2681 
Q 1016 2625 1016 2550 
Q 1016 2484 1103 2388 
Q 1222 2253 1222 2128 
Q 1222 1975 1108 1867 
Q 994 1759 809 1759 
Q 613 1759 480 1878 
Q 347 1997 347 2156 
Q 347 2381 525 2586 
Q 703 2791 1022 2900 
Q 1341 3009 1684 3009 
Q 2100 3009 2342 2832 
Q 2584 2656 2656 2450 
Q 2700 2319 2700 1847 
L 2700 713 
Q 2700 513 2715 461 
Q 2731 409 2762 384 
Q 2794 359 2834 359 
Q 2916 359 3000 475 
L 3094 400 
Q 2938 169 2770 64 
Q 2603 -41 2391 -41 
Q 2141 -41 2000 76 
Q 1859 194 1828 431 
z
M 1828 659 
L 1828 1638 
Q 1450 1416 1266 1163 
Q 1144 994 1144 822 
Q 1144 678 1247 569 
Q 1325 484 1466 484 
Q 1622 484 1828 659 
z
" transform="scale(0.015625)"/>
       <path id="TimesNewRomanPS-BoldMT-66" d="M 1497 2616 
L 1497 588 
Q 1497 294 1559 219 
Q 1659 103 1928 113 
L 1928 0 
L 206 0 
L 206 113 
Q 403 116 486 158 
Q 569 200 600 275 
Q 631 350 631 588 
L 631 2616 
L 206 2616 
L 206 2922 
L 631 2922 
L 631 3138 
L 628 3284 
Q 628 3734 958 4034 
Q 1288 4334 1850 4334 
Q 2234 4334 2420 4190 
Q 2606 4047 2606 3872 
Q 2606 3731 2490 3628 
Q 2375 3525 2184 3525 
Q 2022 3525 1926 3609 
Q 1831 3694 1831 3797 
Q 1831 3825 1850 3913 
Q 1863 3966 1863 4013 
Q 1863 4078 1825 4109 
Q 1775 4156 1703 4156 
Q 1613 4156 1552 4081 
Q 1491 4006 1491 3841 
L 1497 3294 
L 1497 2922 
L 1928 2922 
L 1928 2616 
L 1497 2616 
z
" transform="scale(0.015625)"/>
       <path id="TimesNewRomanPS-BoldMT-63" d="M 2600 753 
L 2697 678 
Q 2491 291 2183 101 
Q 1875 -88 1528 -88 
Q 944 -88 594 353 
Q 244 794 244 1413 
Q 244 2009 563 2463 
Q 947 3009 1622 3009 
Q 2075 3009 2342 2781 
Q 2609 2553 2609 2272 
Q 2609 2094 2501 1987 
Q 2394 1881 2219 1881 
Q 2034 1881 1914 2003 
Q 1794 2125 1766 2438 
Q 1747 2634 1675 2713 
Q 1603 2791 1506 2791 
Q 1356 2791 1250 2631 
Q 1088 2391 1088 1894 
Q 1088 1481 1219 1104 
Q 1350 728 1578 544 
Q 1750 409 1984 409 
Q 2138 409 2275 481 
Q 2413 553 2600 753 
z
" transform="scale(0.015625)"/>
      </defs>
      <use xlink:href="#TimesNewRomanPS-BoldMT-54"/>
      <use xlink:href="#TimesNewRomanPS-BoldMT-69" transform="translate(64.949219 0)"/>
      <use xlink:href="#TimesNewRomanPS-BoldMT-70" transform="translate(92.732422 0)"/>
      <use xlink:href="#TimesNewRomanPS-BoldMT-6f" transform="translate(148.347656 0)"/>
      <use xlink:href="#TimesNewRomanPS-BoldMT-73" transform="translate(198.347656 0)"/>
      <use xlink:href="#TimesNewRomanPS-BoldMT-20" transform="translate(237.263672 0)"/>
      <use xlink:href="#TimesNewRomanPS-BoldMT-64" transform="translate(262.263672 0)"/>
      <use xlink:href="#TimesNewRomanPS-BoldMT-65" transform="translate(317.878906 0)"/>
      <use xlink:href="#TimesNewRomanPS-BoldMT-20" transform="translate(362.263672 0)"/>
      <use xlink:href="#TimesNewRomanPS-BoldMT-43" transform="translate(387.263672 0)"/>
      <use xlink:href="#TimesNewRomanPS-BoldMT-6c" transform="translate(459.480469 0)"/>
      <use xlink:href="#TimesNewRomanPS-BoldMT-61" transform="translate(487.263672 0)"/>
      <use xlink:href="#TimesNewRomanPS-BoldMT-73" transform="translate(537.263672 0)"/>
      <use xlink:href="#TimesNewRomanPS-BoldMT-73" transform="translate(576.179688 0)"/>
      <use xlink:href="#TimesNewRomanPS-BoldMT-69" transform="translate(615.095703 0)"/>
      <use xlink:href="#TimesNewRomanPS-BoldMT-66" transform="translate(642.878906 0)"/>
      <use xlink:href="#TimesNewRomanPS-BoldMT-69" transform="translate(676.179688 0)"/>
      <use xlink:href="#TimesNewRomanPS-BoldMT-63" transform="translate(703.962891 0)"/>
      <use xlink:href="#TimesNewRomanPS-BoldMT-61" transform="translate(748.347656 0)"/>
      <use xlink:href="#TimesNewRomanPS-BoldMT-63" transform="translate(798.347656 0)"/>
      <use xlink:href="#TimesNewRomanPS-BoldMT-61" transform="translate(842.732422 0)"/>
      <use xlink:href="#TimesNewRomanPS-BoldMT-6f" transform="translate(892.732422 0)"/>
     </g>
    </g>
   </g>
   <g id="matplotlib.axis_2">
    <g id="ytick_1">
     <g id="line2d_9">
      <path d="M 52.039219 375.12 
L 554.239219 375.12 
" clip-path="url(#p87824c23ec)" style="fill: none; stroke: #b0b0b0; stroke-opacity: 0.25; stroke-width: 0.8; stroke-linecap: square"/>
     </g>
     <g id="line2d_10">
      <defs>
       <path id="m489cb04e1c" d="M 0 0 
L -5 0 
" style="stroke: #000000"/>
      </defs>
      <g>
       <use xlink:href="#m489cb04e1c" x="52.039219" y="375.12" style="stroke: #000000"/>
      </g>
     </g>
     <g id="text_6">
      <!-- 0.0 -->
      <g transform="translate(29.789219 378.939062) scale(0.11 -0.11)">
       <defs>
        <path id="TimesNewRomanPSMT-30" d="M 231 2094 
Q 231 2819 450 3342 
Q 669 3866 1031 4122 
Q 1313 4325 1613 4325 
Q 2100 4325 2488 3828 
Q 2972 3213 2972 2159 
Q 2972 1422 2759 906 
Q 2547 391 2217 158 
Q 1888 -75 1581 -75 
Q 975 -75 572 641 
Q 231 1244 231 2094 
z
M 844 2016 
Q 844 1141 1059 588 
Q 1238 122 1591 122 
Q 1759 122 1940 273 
Q 2122 425 2216 781 
Q 2359 1319 2359 2297 
Q 2359 3022 2209 3506 
Q 2097 3866 1919 4016 
Q 1791 4119 1609 4119 
Q 1397 4119 1231 3928 
Q 1006 3669 925 3112 
Q 844 2556 844 2016 
z
" transform="scale(0.015625)"/>
        <path id="TimesNewRomanPSMT-2e" d="M 800 606 
Q 947 606 1047 504 
Q 1147 403 1147 259 
Q 1147 116 1045 14 
Q 944 -88 800 -88 
Q 656 -88 554 14 
Q 453 116 453 259 
Q 453 406 554 506 
Q 656 606 800 606 
z
" transform="scale(0.015625)"/>
       </defs>
       <use xlink:href="#TimesNewRomanPSMT-30"/>
       <use xlink:href="#TimesNewRomanPSMT-2e" transform="translate(50 0)"/>
       <use xlink:href="#TimesNewRomanPSMT-30" transform="translate(75 0)"/>
      </g>
     </g>
    </g>
    <g id="ytick_2">
     <g id="line2d_11">
      <path d="M 52.039219 314.64 
L 554.239219 314.64 
" clip-path="url(#p87824c23ec)" style="fill: none; stroke: #b0b0b0; stroke-opacity: 0.25; stroke-width: 0.8; stroke-linecap: square"/>
     </g>
     <g id="line2d_12">
      <g>
       <use xlink:href="#m489cb04e1c" x="52.039219" y="314.64" style="stroke: #000000"/>
      </g>
     </g>
     <g id="text_7">
      <!-- 0.2 -->
      <g transform="translate(29.789219 318.459062) scale(0.11 -0.11)">
       <defs>
        <path id="TimesNewRomanPSMT-32" d="M 2934 816 
L 2638 0 
L 138 0 
L 138 116 
Q 1241 1122 1691 1759 
Q 2141 2397 2141 2925 
Q 2141 3328 1894 3587 
Q 1647 3847 1303 3847 
Q 991 3847 742 3664 
Q 494 3481 375 3128 
L 259 3128 
Q 338 3706 661 4015 
Q 984 4325 1469 4325 
Q 1984 4325 2329 3994 
Q 2675 3663 2675 3213 
Q 2675 2891 2525 2569 
Q 2294 2063 1775 1497 
Q 997 647 803 472 
L 1909 472 
Q 2247 472 2383 497 
Q 2519 522 2628 598 
Q 2738 675 2819 816 
L 2934 816 
z
" transform="scale(0.015625)"/>
       </defs>
       <use xlink:href="#TimesNewRomanPSMT-30"/>
       <use xlink:href="#TimesNewRomanPSMT-2e" transform="translate(50 0)"/>
       <use xlink:href="#TimesNewRomanPSMT-32" transform="translate(75 0)"/>
      </g>
     </g>
    </g>
    <g id="ytick_3">
     <g id="line2d_13">
      <path d="M 52.039219 254.16 
L 554.239219 254.16 
" clip-path="url(#p87824c23ec)" style="fill: none; stroke: #b0b0b0; stroke-opacity: 0.25; stroke-width: 0.8; stroke-linecap: square"/>
     </g>
     <g id="line2d_14">
      <g>
       <use xlink:href="#m489cb04e1c" x="52.039219" y="254.16" style="stroke: #000000"/>
      </g>
     </g>
     <g id="text_8">
      <!-- 0.4 -->
      <g transform="translate(29.789219 257.979062) scale(0.11 -0.11)">
       <defs>
        <path id="TimesNewRomanPSMT-34" d="M 2978 1563 
L 2978 1119 
L 2409 1119 
L 2409 0 
L 1894 0 
L 1894 1119 
L 100 1119 
L 100 1519 
L 2066 4325 
L 2409 4325 
L 2409 1563 
L 2978 1563 
z
M 1894 1563 
L 1894 3666 
L 406 1563 
L 1894 1563 
z
" transform="scale(0.015625)"/>
       </defs>
       <use xlink:href="#TimesNewRomanPSMT-30"/>
       <use xlink:href="#TimesNewRomanPSMT-2e" transform="translate(50 0)"/>
       <use xlink:href="#TimesNewRomanPSMT-34" transform="translate(75 0)"/>
      </g>
     </g>
    </g>
    <g id="ytick_4">
     <g id="line2d_15">
      <path d="M 52.039219 193.68 
L 554.239219 193.68 
" clip-path="url(#p87824c23ec)" style="fill: none; stroke: #b0b0b0; stroke-opacity: 0.25; stroke-width: 0.8; stroke-linecap: square"/>
     </g>
     <g id="line2d_16">
      <g>
       <use xlink:href="#m489cb04e1c" x="52.039219" y="193.68" style="stroke: #000000"/>
      </g>
     </g>
     <g id="text_9">
      <!-- 0.6 -->
      <g transform="translate(29.789219 197.499062) scale(0.11 -0.11)">
       <defs>
        <path id="TimesNewRomanPSMT-36" d="M 2869 4325 
L 2869 4209 
Q 2456 4169 2195 4045 
Q 1934 3922 1679 3669 
Q 1425 3416 1258 3105 
Q 1091 2794 978 2366 
Q 1428 2675 1881 2675 
Q 2316 2675 2634 2325 
Q 2953 1975 2953 1425 
Q 2953 894 2631 456 
Q 2244 -75 1606 -75 
Q 1172 -75 869 213 
Q 275 772 275 1663 
Q 275 2231 503 2743 
Q 731 3256 1154 3653 
Q 1578 4050 1965 4187 
Q 2353 4325 2688 4325 
L 2869 4325 
z
M 925 2138 
Q 869 1716 869 1456 
Q 869 1156 980 804 
Q 1091 453 1309 247 
Q 1469 100 1697 100 
Q 1969 100 2183 356 
Q 2397 613 2397 1088 
Q 2397 1622 2184 2012 
Q 1972 2403 1581 2403 
Q 1463 2403 1327 2353 
Q 1191 2303 925 2138 
z
" transform="scale(0.015625)"/>
       </defs>
       <use xlink:href="#TimesNewRomanPSMT-30"/>
       <use xlink:href="#TimesNewRomanPSMT-2e" transform="translate(50 0)"/>
       <use xlink:href="#TimesNewRomanPSMT-36" transform="translate(75 0)"/>
      </g>
     </g>
    </g>
    <g id="ytick_5">
     <g id="line2d_17">
      <path d="M 52.039219 133.2 
L 554.239219 133.2 
" clip-path="url(#p87824c23ec)" style="fill: none; stroke: #b0b0b0; stroke-opacity: 0.25; stroke-width: 0.8; stroke-linecap: square"/>
     </g>
     <g id="line2d_18">
      <g>
       <use xlink:href="#m489cb04e1c" x="52.039219" y="133.2" style="stroke: #000000"/>
      </g>
     </g>
     <g id="text_10">
      <!-- 0.8 -->
      <g transform="translate(29.789219 137.019062) scale(0.11 -0.11)">
       <defs>
        <path id="TimesNewRomanPSMT-38" d="M 1228 2134 
Q 725 2547 579 2797 
Q 434 3047 434 3316 
Q 434 3728 753 4026 
Q 1072 4325 1600 4325 
Q 2113 4325 2425 4047 
Q 2738 3769 2738 3413 
Q 2738 3175 2569 2928 
Q 2400 2681 1866 2347 
Q 2416 1922 2594 1678 
Q 2831 1359 2831 1006 
Q 2831 559 2490 242 
Q 2150 -75 1597 -75 
Q 994 -75 656 303 
Q 388 606 388 966 
Q 388 1247 577 1523 
Q 766 1800 1228 2134 
z
M 1719 2469 
Q 2094 2806 2194 3001 
Q 2294 3197 2294 3444 
Q 2294 3772 2109 3958 
Q 1925 4144 1606 4144 
Q 1288 4144 1088 3959 
Q 888 3775 888 3528 
Q 888 3366 970 3203 
Q 1053 3041 1206 2894 
L 1719 2469 
z
M 1375 2016 
Q 1116 1797 991 1539 
Q 866 1281 866 981 
Q 866 578 1086 336 
Q 1306 94 1647 94 
Q 1984 94 2187 284 
Q 2391 475 2391 747 
Q 2391 972 2272 1150 
Q 2050 1481 1375 2016 
z
" transform="scale(0.015625)"/>
       </defs>
       <use xlink:href="#TimesNewRomanPSMT-30"/>
       <use xlink:href="#TimesNewRomanPSMT-2e" transform="translate(50 0)"/>
       <use xlink:href="#TimesNewRomanPSMT-38" transform="translate(75 0)"/>
      </g>
     </g>
    </g>
    <g id="ytick_6">
     <g id="line2d_19">
      <path d="M 52.039219 72.72 
L 554.239219 72.72 
" clip-path="url(#p87824c23ec)" style="fill: none; stroke: #b0b0b0; stroke-opacity: 0.25; stroke-width: 0.8; stroke-linecap: square"/>
     </g>
     <g id="line2d_20">
      <g>
       <use xlink:href="#m489cb04e1c" x="52.039219" y="72.72" style="stroke: #000000"/>
      </g>
     </g>
     <g id="text_11">
      <!-- 1.0 -->
      <g transform="translate(29.789219 76.539062) scale(0.11 -0.11)">
       <defs>
        <path id="TimesNewRomanPSMT-31" d="M 750 3822 
L 1781 4325 
L 1884 4325 
L 1884 747 
Q 1884 391 1914 303 
Q 1944 216 2037 169 
Q 2131 122 2419 116 
L 2419 0 
L 825 0 
L 825 116 
Q 1125 122 1212 167 
Q 1300 213 1334 289 
Q 1369 366 1369 747 
L 1369 3034 
Q 1369 3497 1338 3628 
Q 1316 3728 1258 3775 
Q 1200 3822 1119 3822 
Q 1003 3822 797 3725 
L 750 3822 
z
" transform="scale(0.015625)"/>
       </defs>
       <use xlink:href="#TimesNewRomanPSMT-31"/>
       <use xlink:href="#TimesNewRomanPSMT-2e" transform="translate(50 0)"/>
       <use xlink:href="#TimesNewRomanPSMT-30" transform="translate(75 0)"/>
      </g>
     </g>
    </g>
    <g id="text_12">
     <!-- Probabilidade Predita -->
     <g transform="translate(23.008437 285.259687) rotate(-90) scale(0.13 -0.13)">
      <defs>
       <path id="TimesNewRomanPS-BoldMT-50" d="M 1728 1919 
L 1728 744 
Q 1728 400 1770 311 
Q 1813 222 1920 169 
Q 2028 116 2316 116 
L 2316 0 
L 163 0 
L 163 116 
Q 456 116 561 170 
Q 666 225 708 312 
Q 750 400 750 744 
L 750 3494 
Q 750 3838 708 3927 
Q 666 4016 559 4069 
Q 453 4122 163 4122 
L 163 4238 
L 2009 4238 
Q 2922 4238 3319 3913 
Q 3716 3588 3716 3100 
Q 3716 2688 3459 2394 
Q 3203 2100 2753 1994 
Q 2450 1919 1728 1919 
z
M 1728 3994 
L 1728 2163 
Q 1831 2156 1884 2156 
Q 2266 2156 2472 2382 
Q 2678 2609 2678 3084 
Q 2678 3556 2472 3775 
Q 2266 3994 1856 3994 
L 1728 3994 
z
" transform="scale(0.015625)"/>
       <path id="TimesNewRomanPS-BoldMT-72" d="M 1428 2922 
L 1428 2259 
Q 1719 2713 1937 2861 
Q 2156 3009 2359 3009 
Q 2534 3009 2639 2901 
Q 2744 2794 2744 2597 
Q 2744 2388 2642 2272 
Q 2541 2156 2397 2156 
Q 2231 2156 2109 2262 
Q 1988 2369 1966 2381 
Q 1934 2400 1894 2400 
Q 1803 2400 1722 2331 
Q 1594 2225 1528 2028 
Q 1428 1725 1428 1359 
L 1428 688 
L 1431 513 
Q 1431 334 1453 284 
Q 1491 200 1564 161 
Q 1638 122 1813 113 
L 1813 0 
L 234 0 
L 234 113 
Q 425 128 492 217 
Q 559 306 559 688 
L 559 2303 
Q 559 2553 534 2622 
Q 503 2709 443 2750 
Q 384 2791 234 2806 
L 234 2922 
L 1428 2922 
z
" transform="scale(0.015625)"/>
       <path id="TimesNewRomanPS-BoldMT-62" d="M 1347 4238 
L 1347 2628 
Q 1716 3009 2153 3009 
Q 2453 3009 2718 2832 
Q 2984 2656 3134 2331 
Q 3284 2006 3284 1581 
Q 3284 1103 3093 712 
Q 2903 322 2584 117 
Q 2266 -88 1856 -88 
Q 1619 -88 1434 -12 
Q 1250 63 1072 231 
L 588 -84 
L 481 -84 
L 481 3631 
Q 481 3884 459 3944 
Q 428 4031 361 4073 
Q 294 4116 134 4122 
L 134 4238 
L 1347 4238 
z
M 1347 2350 
L 1347 1050 
Q 1347 653 1366 544 
Q 1397 359 1515 245 
Q 1634 131 1819 131 
Q 1978 131 2092 222 
Q 2206 313 2282 581 
Q 2359 850 2359 1550 
Q 2359 2222 2191 2472 
Q 2069 2653 1863 2653 
Q 1594 2653 1347 2350 
z
" transform="scale(0.015625)"/>
       <path id="TimesNewRomanPS-BoldMT-74" d="M 1375 3991 
L 1375 2922 
L 2069 2922 
L 2069 2613 
L 1375 2613 
L 1375 809 
Q 1375 556 1398 482 
Q 1422 409 1481 364 
Q 1541 319 1591 319 
Q 1794 319 1975 628 
L 2069 559 
Q 1816 -41 1247 -41 
Q 969 -41 776 114 
Q 584 269 531 459 
Q 500 566 500 1034 
L 500 2613 
L 119 2613 
L 119 2722 
Q 513 3000 789 3306 
Q 1066 3613 1272 3991 
L 1375 3991 
z
" transform="scale(0.015625)"/>
      </defs>
      <use xlink:href="#TimesNewRomanPS-BoldMT-50"/>
      <use xlink:href="#TimesNewRomanPS-BoldMT-72" transform="translate(61.083984 0)"/>
      <use xlink:href="#TimesNewRomanPS-BoldMT-6f" transform="translate(103.71875 0)"/>
      <use xlink:href="#TimesNewRomanPS-BoldMT-62" transform="translate(153.71875 0)"/>
      <use xlink:href="#TimesNewRomanPS-BoldMT-61" transform="translate(209.333984 0)"/>
      <use xlink:href="#TimesNewRomanPS-BoldMT-62" transform="translate(259.333984 0)"/>
      <use xlink:href="#TimesNewRomanPS-BoldMT-69" transform="translate(314.949219 0)"/>
      <use xlink:href="#TimesNewRomanPS-BoldMT-6c" transform="translate(342.732422 0)"/>
      <use xlink:href="#TimesNewRomanPS-BoldMT-69" transform="translate(370.515625 0)"/>
      <use xlink:href="#TimesNewRomanPS-BoldMT-64" transform="translate(398.298828 0)"/>
      <use xlink:href="#TimesNewRomanPS-BoldMT-61" transform="translate(453.914062 0)"/>
      <use xlink:href="#TimesNewRomanPS-BoldMT-64" transform="translate(503.914062 0)"/>
      <use xlink:href="#TimesNewRomanPS-BoldMT-65" transform="translate(559.529297 0)"/>
      <use xlink:href="#TimesNewRomanPS-BoldMT-20" transform="translate(603.914062 0)"/>
      <use xlink:href="#TimesNewRomanPS-BoldMT-50" transform="translate(628.914062 0)"/>
      <use xlink:href="#TimesNewRomanPS-BoldMT-72" transform="translate(689.998047 0)"/>
      <use xlink:href="#TimesNewRomanPS-BoldMT-65" transform="translate(732.632812 0)"/>
      <use xlink:href="#TimesNewRomanPS-BoldMT-64" transform="translate(777.017578 0)"/>
      <use xlink:href="#TimesNewRomanPS-BoldMT-69" transform="translate(832.632812 0)"/>
      <use xlink:href="#TimesNewRomanPS-BoldMT-74" transform="translate(860.416016 0)"/>
      <use xlink:href="#TimesNewRomanPS-BoldMT-61" transform="translate(893.716797 0)"/>
     </g>
    </g>
   </g>
   <g id="line2d_21">
    <path d="M 86.565469 142.272 
L 143.062969 142.272 
L 143.062969 87.84 
L 86.565469 87.84 
L 86.565469 142.272 
" clip-path="url(#p87824c23ec)" style="fill: none; stroke: #000000; stroke-linecap: square"/>
   </g>
   <g id="line2d_22">
    <path d="M 114.814219 142.272 
L 114.814219 220.896 
" clip-path="url(#p87824c23ec)" style="fill: none; stroke: #000000; stroke-linecap: square"/>
   </g>
   <g id="line2d_23">
    <path d="M 114.814219 87.84 
L 114.814219 72.72 
" clip-path="url(#p87824c23ec)" style="fill: none; stroke: #000000; stroke-linecap: square"/>
   </g>
   <g id="line2d_24">
    <path d="M 100.689844 220.896 
L 128.938594 220.896 
" clip-path="url(#p87824c23ec)" style="fill: none; stroke: #000000; stroke-linecap: square"/>
   </g>
   <g id="line2d_25">
    <path d="M 100.689844 72.72 
L 128.938594 72.72 
" clip-path="url(#p87824c23ec)" style="fill: none; stroke: #000000; stroke-linecap: square"/>
   </g>
   <g id="line2d_26">
    <defs>
     <path id="mfb7304b40e" d="M 0 3 
C 0.795609 3 1.55874 2.683901 2.12132 2.12132 
C 2.683901 1.55874 3 0.795609 3 0 
C 3 -0.795609 2.683901 -1.55874 2.12132 -2.12132 
C 1.55874 -2.683901 0.795609 -3 0 -3 
C -0.795609 -3 -1.55874 -2.683901 -2.12132 -2.12132 
C -2.683901 -1.55874 -3 -0.795609 -3 0 
C -3 0.795609 -2.683901 1.55874 -2.12132 2.12132 
C -1.55874 2.683901 -0.795609 3 0 3 
z
" style="stroke: #000000"/>
    </defs>
    <g clip-path="url(#p87824c23ec)">
     <use xlink:href="#mfb7304b40e" x="114.814219" y="223.92" style="fill-opacity: 0; stroke: #000000"/>
     <use xlink:href="#mfb7304b40e" x="114.814219" y="223.92" style="fill-opacity: 0; stroke: #000000"/>
    </g>
   </g>
   <g id="line2d_27">
    <path d="M 212.115469 372.096 
L 268.612969 372.096 
L 268.612969 347.904 
L 212.115469 347.904 
L 212.115469 372.096 
" clip-path="url(#p87824c23ec)" style="fill: none; stroke: #000000; stroke-linecap: square"/>
   </g>
   <g id="line2d_28">
    <path d="M 240.364219 372.096 
L 240.364219 375.12 
" clip-path="url(#p87824c23ec)" style="fill: none; stroke: #000000; stroke-linecap: square"/>
   </g>
   <g id="line2d_29">
    <path d="M 240.364219 347.904 
L 240.364219 311.616 
" clip-path="url(#p87824c23ec)" style="fill: none; stroke: #000000; stroke-linecap: square"/>
   </g>
   <g id="line2d_30">
    <path d="M 226.239844 375.12 
L 254.488594 375.12 
" clip-path="url(#p87824c23ec)" style="fill: none; stroke: #000000; stroke-linecap: square"/>
   </g>
   <g id="line2d_31">
    <path d="M 226.239844 311.616 
L 254.488594 311.616 
" clip-path="url(#p87824c23ec)" style="fill: none; stroke: #000000; stroke-linecap: square"/>
   </g>
   <g id="line2d_32">
    <g clip-path="url(#p87824c23ec)">
     <use xlink:href="#mfb7304b40e" x="240.364219" y="296.496" style="fill-opacity: 0; stroke: #000000"/>
     <use xlink:href="#mfb7304b40e" x="240.364219" y="305.568" style="fill-opacity: 0; stroke: #000000"/>
     <use xlink:href="#mfb7304b40e" x="240.364219" y="296.496" style="fill-opacity: 0; stroke: #000000"/>
     <use xlink:href="#mfb7304b40e" x="240.364219" y="299.52" style="fill-opacity: 0; stroke: #000000"/>
     <use xlink:href="#mfb7304b40e" x="240.364219" y="242.064" style="fill-opacity: 0; stroke: #000000"/>
     <use xlink:href="#mfb7304b40e" x="240.364219" y="293.472" style="fill-opacity: 0; stroke: #000000"/>
     <use xlink:href="#mfb7304b40e" x="240.364219" y="257.184" style="fill-opacity: 0; stroke: #000000"/>
     <use xlink:href="#mfb7304b40e" x="240.364219" y="272.304" style="fill-opacity: 0; stroke: #000000"/>
     <use xlink:href="#mfb7304b40e" x="240.364219" y="269.28" style="fill-opacity: 0; stroke: #000000"/>
     <use xlink:href="#mfb7304b40e" x="240.364219" y="260.208" style="fill-opacity: 0; stroke: #000000"/>
     <use xlink:href="#mfb7304b40e" x="240.364219" y="260.208" style="fill-opacity: 0; stroke: #000000"/>
     <use xlink:href="#mfb7304b40e" x="240.364219" y="299.52" style="fill-opacity: 0; stroke: #000000"/>
     <use xlink:href="#mfb7304b40e" x="240.364219" y="305.568" style="fill-opacity: 0; stroke: #000000"/>
     <use xlink:href="#mfb7304b40e" x="240.364219" y="299.52" style="fill-opacity: 0; stroke: #000000"/>
     <use xlink:href="#mfb7304b40e" x="240.364219" y="308.592" style="fill-opacity: 0; stroke: #000000"/>
     <use xlink:href="#mfb7304b40e" x="240.364219" y="302.544" style="fill-opacity: 0; stroke: #000000"/>
     <use xlink:href="#mfb7304b40e" x="240.364219" y="302.544" style="fill-opacity: 0; stroke: #000000"/>
     <use xlink:href="#mfb7304b40e" x="240.364219" y="260.208" style="fill-opacity: 0; stroke: #000000"/>
     <use xlink:href="#mfb7304b40e" x="240.364219" y="226.944" style="fill-opacity: 0; stroke: #000000"/>
     <use xlink:href="#mfb7304b40e" x="240.364219" y="269.28" style="fill-opacity: 0; stroke: #000000"/>
     <use xlink:href="#mfb7304b40e" x="240.364219" y="269.28" style="fill-opacity: 0; stroke: #000000"/>
     <use xlink:href="#mfb7304b40e" x="240.364219" y="254.16" style="fill-opacity: 0; stroke: #000000"/>
     <use xlink:href="#mfb7304b40e" x="240.364219" y="290.448" style="fill-opacity: 0; stroke: #000000"/>
     <use xlink:href="#mfb7304b40e" x="240.364219" y="281.376" style="fill-opacity: 0; stroke: #000000"/>
     <use xlink:href="#mfb7304b40e" x="240.364219" y="293.472" style="fill-opacity: 0; stroke: #000000"/>
     <use xlink:href="#mfb7304b40e" x="240.364219" y="284.4" style="fill-opacity: 0; stroke: #000000"/>
     <use xlink:href="#mfb7304b40e" x="240.364219" y="305.568" style="fill-opacity: 0; stroke: #000000"/>
     <use xlink:href="#mfb7304b40e" x="240.364219" y="242.064" style="fill-opacity: 0; stroke: #000000"/>
     <use xlink:href="#mfb7304b40e" x="240.364219" y="284.4" style="fill-opacity: 0; stroke: #000000"/>
     <use xlink:href="#mfb7304b40e" x="240.364219" y="287.424" style="fill-opacity: 0; stroke: #000000"/>
     <use xlink:href="#mfb7304b40e" x="240.364219" y="296.496" style="fill-opacity: 0; stroke: #000000"/>
     <use xlink:href="#mfb7304b40e" x="240.364219" y="272.304" style="fill-opacity: 0; stroke: #000000"/>
     <use xlink:href="#mfb7304b40e" x="240.364219" y="305.568" style="fill-opacity: 0; stroke: #000000"/>
     <use xlink:href="#mfb7304b40e" x="240.364219" y="275.328" style="fill-opacity: 0; stroke: #000000"/>
     <use xlink:href="#mfb7304b40e" x="240.364219" y="284.4" style="fill-opacity: 0; stroke: #000000"/>
     <use xlink:href="#mfb7304b40e" x="240.364219" y="236.016" style="fill-opacity: 0; stroke: #000000"/>
     <use xlink:href="#mfb7304b40e" x="240.364219" y="290.448" style="fill-opacity: 0; stroke: #000000"/>
     <use xlink:href="#mfb7304b40e" x="240.364219" y="299.52" style="fill-opacity: 0; stroke: #000000"/>
     <use xlink:href="#mfb7304b40e" x="240.364219" y="305.568" style="fill-opacity: 0; stroke: #000000"/>
     <use xlink:href="#mfb7304b40e" x="240.364219" y="308.592" style="fill-opacity: 0; stroke: #000000"/>
     <use xlink:href="#mfb7304b40e" x="240.364219" y="308.592" style="fill-opacity: 0; stroke: #000000"/>
     <use xlink:href="#mfb7304b40e" x="240.364219" y="287.424" style="fill-opacity: 0; stroke: #000000"/>
     <use xlink:href="#mfb7304b40e" x="240.364219" y="257.184" style="fill-opacity: 0; stroke: #000000"/>
     <use xlink:href="#mfb7304b40e" x="240.364219" y="266.256" style="fill-opacity: 0; stroke: #000000"/>
     <use xlink:href="#mfb7304b40e" x="240.364219" y="278.352" style="fill-opacity: 0; stroke: #000000"/>
     <use xlink:href="#mfb7304b40e" x="240.364219" y="269.28" style="fill-opacity: 0; stroke: #000000"/>
     <use xlink:href="#mfb7304b40e" x="240.364219" y="236.016" style="fill-opacity: 0; stroke: #000000"/>
     <use xlink:href="#mfb7304b40e" x="240.364219" y="299.52" style="fill-opacity: 0; stroke: #000000"/>
     <use xlink:href="#mfb7304b40e" x="240.364219" y="287.424" style="fill-opacity: 0; stroke: #000000"/>
     <use xlink:href="#mfb7304b40e" x="240.364219" y="293.472" style="fill-opacity: 0; stroke: #000000"/>
     <use xlink:href="#mfb7304b40e" x="240.364219" y="260.208" style="fill-opacity: 0; stroke: #000000"/>
     <use xlink:href="#mfb7304b40e" x="240.364219" y="239.04" style="fill-opacity: 0; stroke: #000000"/>
     <use xlink:href="#mfb7304b40e" x="240.364219" y="296.496" style="fill-opacity: 0; stroke: #000000"/>
     <use xlink:href="#mfb7304b40e" x="240.364219" y="275.328" style="fill-opacity: 0; stroke: #000000"/>
     <use xlink:href="#mfb7304b40e" x="240.364219" y="293.472" style="fill-opacity: 0; stroke: #000000"/>
     <use xlink:href="#mfb7304b40e" x="240.364219" y="232.992" style="fill-opacity: 0; stroke: #000000"/>
     <use xlink:href="#mfb7304b40e" x="240.364219" y="272.304" style="fill-opacity: 0; stroke: #000000"/>
     <use xlink:href="#mfb7304b40e" x="240.364219" y="275.328" style="fill-opacity: 0; stroke: #000000"/>
     <use xlink:href="#mfb7304b40e" x="240.364219" y="308.592" style="fill-opacity: 0; stroke: #000000"/>
     <use xlink:href="#mfb7304b40e" x="240.364219" y="284.4" style="fill-opacity: 0; stroke: #000000"/>
     <use xlink:href="#mfb7304b40e" x="240.364219" y="287.424" style="fill-opacity: 0; stroke: #000000"/>
     <use xlink:href="#mfb7304b40e" x="240.364219" y="296.496" style="fill-opacity: 0; stroke: #000000"/>
     <use xlink:href="#mfb7304b40e" x="240.364219" y="242.064" style="fill-opacity: 0; stroke: #000000"/>
     <use xlink:href="#mfb7304b40e" x="240.364219" y="232.992" style="fill-opacity: 0; stroke: #000000"/>
     <use xlink:href="#mfb7304b40e" x="240.364219" y="281.376" style="fill-opacity: 0; stroke: #000000"/>
     <use xlink:href="#mfb7304b40e" x="240.364219" y="305.568" style="fill-opacity: 0; stroke: #000000"/>
     <use xlink:href="#mfb7304b40e" x="240.364219" y="308.592" style="fill-opacity: 0; stroke: #000000"/>
     <use xlink:href="#mfb7304b40e" x="240.364219" y="287.424" style="fill-opacity: 0; stroke: #000000"/>
     <use xlink:href="#mfb7304b40e" x="240.364219" y="275.328" style="fill-opacity: 0; stroke: #000000"/>
     <use xlink:href="#mfb7304b40e" x="240.364219" y="287.424" style="fill-opacity: 0; stroke: #000000"/>
     <use xlink:href="#mfb7304b40e" x="240.364219" y="269.28" style="fill-opacity: 0; stroke: #000000"/>
     <use xlink:href="#mfb7304b40e" x="240.364219" y="266.256" style="fill-opacity: 0; stroke: #000000"/>
     <use xlink:href="#mfb7304b40e" x="240.364219" y="290.448" style="fill-opacity: 0; stroke: #000000"/>
     <use xlink:href="#mfb7304b40e" x="240.364219" y="308.592" style="fill-opacity: 0; stroke: #000000"/>
     <use xlink:href="#mfb7304b40e" x="240.364219" y="284.4" style="fill-opacity: 0; stroke: #000000"/>
     <use xlink:href="#mfb7304b40e" x="240.364219" y="299.52" style="fill-opacity: 0; stroke: #000000"/>
     <use xlink:href="#mfb7304b40e" x="240.364219" y="305.568" style="fill-opacity: 0; stroke: #000000"/>
     <use xlink:href="#mfb7304b40e" x="240.364219" y="284.4" style="fill-opacity: 0; stroke: #000000"/>
     <use xlink:href="#mfb7304b40e" x="240.364219" y="245.088" style="fill-opacity: 0; stroke: #000000"/>
     <use xlink:href="#mfb7304b40e" x="240.364219" y="257.184" style="fill-opacity: 0; stroke: #000000"/>
     <use xlink:href="#mfb7304b40e" x="240.364219" y="302.544" style="fill-opacity: 0; stroke: #000000"/>
     <use xlink:href="#mfb7304b40e" x="240.364219" y="232.992" style="fill-opacity: 0; stroke: #000000"/>
     <use xlink:href="#mfb7304b40e" x="240.364219" y="293.472" style="fill-opacity: 0; stroke: #000000"/>
     <use xlink:href="#mfb7304b40e" x="240.364219" y="229.968" style="fill-opacity: 0; stroke: #000000"/>
     <use xlink:href="#mfb7304b40e" x="240.364219" y="278.352" style="fill-opacity: 0; stroke: #000000"/>
     <use xlink:href="#mfb7304b40e" x="240.364219" y="269.28" style="fill-opacity: 0; stroke: #000000"/>
     <use xlink:href="#mfb7304b40e" x="240.364219" y="263.232" style="fill-opacity: 0; stroke: #000000"/>
     <use xlink:href="#mfb7304b40e" x="240.364219" y="263.232" style="fill-opacity: 0; stroke: #000000"/>
     <use xlink:href="#mfb7304b40e" x="240.364219" y="275.328" style="fill-opacity: 0; stroke: #000000"/>
     <use xlink:href="#mfb7304b40e" x="240.364219" y="293.472" style="fill-opacity: 0; stroke: #000000"/>
     <use xlink:href="#mfb7304b40e" x="240.364219" y="302.544" style="fill-opacity: 0; stroke: #000000"/>
     <use xlink:href="#mfb7304b40e" x="240.364219" y="284.4" style="fill-opacity: 0; stroke: #000000"/>
     <use xlink:href="#mfb7304b40e" x="240.364219" y="232.992" style="fill-opacity: 0; stroke: #000000"/>
     <use xlink:href="#mfb7304b40e" x="240.364219" y="263.232" style="fill-opacity: 0; stroke: #000000"/>
     <use xlink:href="#mfb7304b40e" x="240.364219" y="284.4" style="fill-opacity: 0; stroke: #000000"/>
     <use xlink:href="#mfb7304b40e" x="240.364219" y="269.28" style="fill-opacity: 0; stroke: #000000"/>
     <use xlink:href="#mfb7304b40e" x="240.364219" y="290.448" style="fill-opacity: 0; stroke: #000000"/>
     <use xlink:href="#mfb7304b40e" x="240.364219" y="284.4" style="fill-opacity: 0; stroke: #000000"/>
     <use xlink:href="#mfb7304b40e" x="240.364219" y="287.424" style="fill-opacity: 0; stroke: #000000"/>
     <use xlink:href="#mfb7304b40e" x="240.364219" y="308.592" style="fill-opacity: 0; stroke: #000000"/>
     <use xlink:href="#mfb7304b40e" x="240.364219" y="263.232" style="fill-opacity: 0; stroke: #000000"/>
     <use xlink:href="#mfb7304b40e" x="240.364219" y="278.352" style="fill-opacity: 0; stroke: #000000"/>
     <use xlink:href="#mfb7304b40e" x="240.364219" y="248.112" style="fill-opacity: 0; stroke: #000000"/>
    </g>
   </g>
   <g id="line2d_33">
    <path d="M 337.665469 338.832 
L 394.162969 338.832 
L 394.162969 260.208 
L 337.665469 260.208 
L 337.665469 338.832 
" clip-path="url(#p87824c23ec)" style="fill: none; stroke: #000000; stroke-linecap: square"/>
   </g>
   <g id="line2d_34">
    <path d="M 365.914219 338.832 
L 365.914219 375.12 
" clip-path="url(#p87824c23ec)" style="fill: none; stroke: #000000; stroke-linecap: square"/>
   </g>
   <g id="line2d_35">
    <path d="M 365.914219 260.208 
L 365.914219 229.968 
" clip-path="url(#p87824c23ec)" style="fill: none; stroke: #000000; stroke-linecap: square"/>
   </g>
   <g id="line2d_36">
    <path d="M 351.789844 375.12 
L 380.038594 375.12 
" clip-path="url(#p87824c23ec)" style="fill: none; stroke: #000000; stroke-linecap: square"/>
   </g>
   <g id="line2d_37">
    <path d="M 351.789844 229.968 
L 380.038594 229.968 
" clip-path="url(#p87824c23ec)" style="fill: none; stroke: #000000; stroke-linecap: square"/>
   </g>
   <g id="line2d_38"/>
   <g id="line2d_39">
    <path d="M 463.215469 175.536 
L 519.712969 175.536 
L 519.712969 124.128 
L 463.215469 124.128 
L 463.215469 175.536 
" clip-path="url(#p87824c23ec)" style="fill: none; stroke: #000000; stroke-linecap: square"/>
   </g>
   <g id="line2d_40">
    <path d="M 491.464219 175.536 
L 491.464219 220.896 
" clip-path="url(#p87824c23ec)" style="fill: none; stroke: #000000; stroke-linecap: square"/>
   </g>
   <g id="line2d_41">
    <path d="M 491.464219 124.128 
L 491.464219 75.744 
" clip-path="url(#p87824c23ec)" style="fill: none; stroke: #000000; stroke-linecap: square"/>
   </g>
   <g id="line2d_42">
    <path d="M 477.339844 220.896 
L 505.588594 220.896 
" clip-path="url(#p87824c23ec)" style="fill: none; stroke: #000000; stroke-linecap: square"/>
   </g>
   <g id="line2d_43">
    <path d="M 477.339844 75.744 
L 505.588594 75.744 
" clip-path="url(#p87824c23ec)" style="fill: none; stroke: #000000; stroke-linecap: square"/>
   </g>
   <g id="line2d_44"/>
   <g id="line2d_45">
    <path d="M 52.039219 223.92 
L 554.239219 223.92 
" clip-path="url(#p87824c23ec)" style="fill: none; stroke-dasharray: 7.4,3.2; stroke-dashoffset: 0; stroke: #c73e1d; stroke-width: 2"/>
   </g>
   <g id="line2d_46">
    <path d="M 86.565469 109.008 
L 143.062969 109.008 
" clip-path="url(#p87824c23ec)" style="fill: none; stroke: #f18f01"/>
   </g>
   <g id="line2d_47">
    <path d="M 212.115469 366.048 
L 268.612969 366.048 
" clip-path="url(#p87824c23ec)" style="fill: none; stroke: #f18f01"/>
   </g>
   <g id="line2d_48">
    <path d="M 337.665469 308.592 
L 394.162969 308.592 
" clip-path="url(#p87824c23ec)" style="fill: none; stroke: #f18f01"/>
   </g>
   <g id="line2d_49">
    <path d="M 463.215469 148.32 
L 519.712969 148.32 
" clip-path="url(#p87824c23ec)" style="fill: none; stroke: #f18f01"/>
   </g>
   <g id="patch_3">
    <path d="M 52.039219 390.24 
L 52.039219 57.6 
" style="fill: none; stroke: #000000; stroke-linejoin: miter; stroke-linecap: square"/>
   </g>
   <g id="patch_4">
    <path d="M 554.239219 390.24 
L 554.239219 57.6 
" style="fill: none; stroke: #000000; stroke-linejoin: miter; stroke-linecap: square"/>
   </g>
   <g id="patch_5">
    <path d="M 52.039219 390.24 
L 554.239219 390.24 
" style="fill: none; stroke: #000000; stroke-linejoin: miter; stroke-linecap: square"/>
   </g>
   <g id="patch_6">
    <path d="M 52.039219 57.6 
L 554.239219 57.6 
" style="fill: none; stroke: #000000; stroke-linejoin: miter; stroke-linecap: square"/>
   </g>
   <g id="text_13">
    <!-- Distribuição de Probabilidades - Random Forest -->
    <g transform="translate(117.203438 37.6) scale(0.18 -0.18)">
     <defs>
      <path id="TimesNewRomanPS-BoldMT-44" d="M 84 0 
L 84 116 
L 225 116 
Q 409 116 507 173 
Q 606 231 653 331 
Q 681 397 681 725 
L 681 3513 
Q 681 3838 647 3919 
Q 613 4000 508 4061 
Q 403 4122 225 4122 
L 84 4122 
L 84 4238 
L 1981 4238 
Q 2741 4238 3203 4031 
Q 3769 3778 4061 3265 
Q 4353 2753 4353 2106 
Q 4353 1659 4209 1282 
Q 4066 906 3837 661 
Q 3609 416 3311 267 
Q 3013 119 2581 38 
Q 2391 0 1981 0 
L 84 0 
z
M 1700 3997 
L 1700 691 
Q 1700 428 1725 368 
Q 1750 309 1809 278 
Q 1894 231 2053 231 
Q 2575 231 2850 588 
Q 3225 1069 3225 2081 
Q 3225 2897 2969 3384 
Q 2766 3766 2447 3903 
Q 2222 4000 1700 3997 
z
" transform="scale(0.015625)"/>
      <path id="TimesNewRomanPS-BoldMT-75" d="M 3038 2922 
L 3038 634 
Q 3038 300 3100 217 
Q 3163 134 3353 113 
L 3353 0 
L 2163 0 
L 2163 391 
Q 1953 141 1743 26 
Q 1534 -88 1275 -88 
Q 1028 -88 836 64 
Q 644 216 578 419 
Q 513 622 513 1128 
L 513 2288 
Q 513 2619 452 2700 
Q 391 2781 197 2806 
L 197 2922 
L 1388 2922 
L 1388 925 
Q 1388 613 1417 522 
Q 1447 431 1511 384 
Q 1575 338 1659 338 
Q 1772 338 1863 397 
Q 1988 478 2163 725 
L 2163 2288 
Q 2163 2619 2102 2700 
Q 2041 2781 1847 2806 
L 1847 2922 
L 3038 2922 
z
" transform="scale(0.015625)"/>
      <path id="TimesNewRomanPS-BoldMT-e7" d="M 2600 753 
L 2697 678 
Q 2491 291 2183 101 
Q 1875 -88 1528 -88 
Q 944 -88 594 353 
Q 244 794 244 1413 
Q 244 2009 563 2463 
Q 947 3009 1622 3009 
Q 2075 3009 2342 2781 
Q 2609 2553 2609 2272 
Q 2609 2094 2501 1987 
Q 2394 1881 2219 1881 
Q 2034 1881 1914 2003 
Q 1794 2125 1766 2438 
Q 1747 2634 1675 2713 
Q 1603 2791 1506 2791 
Q 1356 2791 1250 2631 
Q 1088 2391 1088 1894 
Q 1088 1481 1219 1104 
Q 1350 728 1578 544 
Q 1750 409 1984 409 
Q 2138 409 2275 481 
Q 2413 553 2600 753 
z
M 1504 38 
L 1710 38 
L 1563 -191 
Q 1751 -222 1849 -342 
Q 1948 -463 1948 -644 
Q 1948 -806 1851 -940 
Q 1754 -1075 1604 -1128 
Q 1366 -1206 885 -1203 
L 885 -1056 
Q 1198 -1044 1309 -955 
Q 1420 -866 1420 -709 
Q 1420 -616 1346 -553 
Q 1273 -491 1135 -491 
L 1504 38 
z
" transform="scale(0.015625)"/>
      <path id="TimesNewRomanPS-BoldMT-e3" d="M 1828 431 
Q 1294 -41 869 -41 
Q 619 -41 453 123 
Q 288 288 288 534 
Q 288 869 575 1136 
Q 863 1403 1828 1847 
L 1828 2141 
Q 1828 2472 1792 2558 
Q 1756 2644 1656 2708 
Q 1556 2772 1431 2772 
Q 1228 2772 1097 2681 
Q 1016 2625 1016 2550 
Q 1016 2484 1103 2388 
Q 1222 2253 1222 2128 
Q 1222 1975 1108 1867 
Q 994 1759 809 1759 
Q 613 1759 480 1878 
Q 347 1997 347 2156 
Q 347 2381 525 2586 
Q 703 2791 1022 2900 
Q 1341 3009 1684 3009 
Q 2100 3009 2342 2832 
Q 2584 2656 2656 2450 
Q 2700 2319 2700 1847 
L 2700 713 
Q 2700 513 2715 461 
Q 2731 409 2762 384 
Q 2794 359 2834 359 
Q 2916 359 3000 475 
L 3094 400 
Q 2938 169 2770 64 
Q 2603 -41 2391 -41 
Q 2141 -41 2000 76 
Q 1859 194 1828 431 
z
M 1828 659 
L 1828 1638 
Q 1450 1416 1266 1163 
Q 1144 994 1144 822 
Q 1144 678 1247 569 
Q 1325 484 1466 484 
Q 1622 484 1828 659 
z
M 2428 4275 
L 2593 4275 
Q 2596 4213 2596 4169 
Q 2596 3825 2402 3615 
Q 2209 3406 1934 3406 
Q 1731 3406 1423 3553 
Q 1115 3700 1012 3700 
Q 918 3700 855 3637 
Q 793 3575 768 3413 
L 587 3413 
Q 575 3819 773 4050 
Q 971 4281 1262 4281 
Q 1356 4281 1418 4263 
Q 1506 4238 1718 4138 
Q 2040 3991 2178 3991 
Q 2246 3991 2308 4047 
Q 2371 4103 2428 4275 
z
" transform="scale(0.015625)"/>
      <path id="TimesNewRomanPS-BoldMT-2d" d="M 1978 1147 
L 156 1147 
L 156 1794 
L 1978 1794 
L 1978 1147 
z
" transform="scale(0.015625)"/>
      <path id="TimesNewRomanPS-BoldMT-52" d="M 1700 1931 
L 1700 744 
Q 1700 400 1742 311 
Q 1784 222 1890 169 
Q 1997 116 2288 116 
L 2288 0 
L 119 0 
L 119 116 
Q 413 116 517 170 
Q 622 225 664 312 
Q 706 400 706 744 
L 706 3494 
Q 706 3838 664 3927 
Q 622 4016 515 4069 
Q 409 4122 119 4122 
L 119 4238 
L 2088 4238 
Q 2856 4238 3212 4131 
Q 3569 4025 3794 3739 
Q 4019 3453 4019 3069 
Q 4019 2600 3681 2294 
Q 3466 2100 3078 2003 
L 4097 569 
Q 4297 291 4381 222 
Q 4509 125 4678 116 
L 4678 0 
L 3344 0 
L 1978 1931 
L 1700 1931 
z
M 1700 4009 
L 1700 2153 
L 1878 2153 
Q 2313 2153 2528 2233 
Q 2744 2313 2867 2520 
Q 2991 2728 2991 3063 
Q 2991 3547 2764 3778 
Q 2538 4009 2034 4009 
L 1700 4009 
z
" transform="scale(0.015625)"/>
      <path id="TimesNewRomanPS-BoldMT-6e" d="M 1409 2922 
L 1409 2544 
Q 1634 2788 1840 2898 
Q 2047 3009 2284 3009 
Q 2569 3009 2756 2851 
Q 2944 2694 3006 2459 
Q 3056 2281 3056 1775 
L 3056 638 
Q 3056 300 3117 217 
Q 3178 134 3372 113 
L 3372 0 
L 1894 0 
L 1894 113 
Q 2059 134 2131 250 
Q 2181 328 2181 638 
L 2181 1938 
Q 2181 2297 2153 2390 
Q 2125 2484 2058 2536 
Q 1991 2588 1909 2588 
Q 1641 2588 1409 2203 
L 1409 638 
Q 1409 309 1470 221 
Q 1531 134 1697 113 
L 1697 0 
L 219 0 
L 219 113 
Q 403 131 481 231 
Q 534 300 534 638 
L 534 2288 
Q 534 2619 473 2700 
Q 413 2781 219 2806 
L 219 2922 
L 1409 2922 
z
" transform="scale(0.015625)"/>
      <path id="TimesNewRomanPS-BoldMT-6d" d="M 1428 2922 
L 1428 2538 
Q 1669 2800 1873 2904 
Q 2078 3009 2322 3009 
Q 2603 3009 2793 2878 
Q 2984 2747 3088 2478 
Q 3338 2759 3567 2884 
Q 3797 3009 4047 3009 
Q 4350 3009 4529 2870 
Q 4709 2731 4779 2517 
Q 4850 2303 4850 1834 
L 4850 638 
Q 4850 300 4911 219 
Q 4972 138 5166 113 
L 5166 0 
L 3656 0 
L 3656 113 
Q 3834 128 3919 250 
Q 3975 334 3975 638 
L 3975 1894 
Q 3975 2284 3944 2390 
Q 3913 2497 3845 2548 
Q 3778 2600 3688 2600 
Q 3553 2600 3415 2501 
Q 3278 2403 3138 2206 
L 3138 638 
Q 3138 322 3191 241 
Q 3263 125 3466 113 
L 3466 0 
L 1953 0 
L 1953 113 
Q 2075 119 2145 173 
Q 2216 228 2239 304 
Q 2263 381 2263 638 
L 2263 1894 
Q 2263 2291 2231 2391 
Q 2200 2491 2126 2547 
Q 2053 2603 1969 2603 
Q 1844 2603 1741 2538 
Q 1594 2441 1428 2206 
L 1428 638 
Q 1428 328 1489 229 
Q 1550 131 1744 113 
L 1744 0 
L 238 0 
L 238 113 
Q 422 131 500 231 
Q 553 300 553 638 
L 553 2288 
Q 553 2619 492 2700 
Q 431 2781 238 2806 
L 238 2922 
L 1428 2922 
z
" transform="scale(0.015625)"/>
      <path id="TimesNewRomanPS-BoldMT-46" d="M 1759 3994 
L 1759 2253 
L 1881 2253 
Q 2163 2253 2341 2337 
Q 2519 2422 2642 2622 
Q 2766 2822 2803 3163 
L 2913 3163 
L 2913 1034 
L 2803 1034 
Q 2744 1638 2480 1830 
Q 2216 2022 1881 2022 
L 1759 2022 
L 1759 725 
Q 1759 400 1795 319 
Q 1831 238 1936 177 
Q 2041 116 2219 116 
L 2359 116 
L 2359 0 
L 144 0 
L 144 116 
L 284 116 
Q 469 116 581 181 
Q 663 225 706 331 
Q 741 406 741 725 
L 741 3513 
Q 741 3838 706 3919 
Q 672 4000 567 4061 
Q 463 4122 284 4122 
L 144 4122 
L 144 4238 
L 3719 4238 
L 3719 3022 
L 3591 3022 
Q 3547 3450 3367 3656 
Q 3188 3863 2847 3947 
Q 2659 3994 2153 3994 
L 1759 3994 
z
" transform="scale(0.015625)"/>
     </defs>
     <use xlink:href="#TimesNewRomanPS-BoldMT-44"/>
     <use xlink:href="#TimesNewRomanPS-BoldMT-69" transform="translate(72.216797 0)"/>
     <use xlink:href="#TimesNewRomanPS-BoldMT-73" transform="translate(100 0)"/>
     <use xlink:href="#TimesNewRomanPS-BoldMT-74" transform="translate(138.916016 0)"/>
     <use xlink:href="#TimesNewRomanPS-BoldMT-72" transform="translate(172.216797 0)"/>
     <use xlink:href="#TimesNewRomanPS-BoldMT-69" transform="translate(216.601562 0)"/>
     <use xlink:href="#TimesNewRomanPS-BoldMT-62" transform="translate(244.384766 0)"/>
     <use xlink:href="#TimesNewRomanPS-BoldMT-75" transform="translate(300 0)"/>
     <use xlink:href="#TimesNewRomanPS-BoldMT-69" transform="translate(355.615234 0)"/>
     <use xlink:href="#TimesNewRomanPS-BoldMT-e7" transform="translate(383.398438 0)"/>
     <use xlink:href="#TimesNewRomanPS-BoldMT-e3" transform="translate(427.783203 0)"/>
     <use xlink:href="#TimesNewRomanPS-BoldMT-6f" transform="translate(477.783203 0)"/>
     <use xlink:href="#TimesNewRomanPS-BoldMT-20" transform="translate(527.783203 0)"/>
     <use xlink:href="#TimesNewRomanPS-BoldMT-64" transform="translate(552.783203 0)"/>
     <use xlink:href="#TimesNewRomanPS-BoldMT-65" transform="translate(608.398438 0)"/>
     <use xlink:href="#TimesNewRomanPS-BoldMT-20" transform="translate(652.783203 0)"/>
     <use xlink:href="#TimesNewRomanPS-BoldMT-50" transform="translate(677.783203 0)"/>
     <use xlink:href="#TimesNewRomanPS-BoldMT-72" transform="translate(738.867188 0)"/>
     <use xlink:href="#TimesNewRomanPS-BoldMT-6f" transform="translate(781.501953 0)"/>
     <use xlink:href="#TimesNewRomanPS-BoldMT-62" transform="translate(831.501953 0)"/>
     <use xlink:href="#TimesNewRomanPS-BoldMT-61" transform="translate(887.117188 0)"/>
     <use xlink:href="#TimesNewRomanPS-BoldMT-62" transform="translate(937.117188 0)"/>
     <use xlink:href="#TimesNewRomanPS-BoldMT-69" transform="translate(992.732422 0)"/>
     <use xlink:href="#TimesNewRomanPS-BoldMT-6c" transform="translate(1020.515625 0)"/>
     <use xlink:href="#TimesNewRomanPS-BoldMT-69" transform="translate(1048.298828 0)"/>
     <use xlink:href="#TimesNewRomanPS-BoldMT-64" transform="translate(1076.082031 0)"/>
     <use xlink:href="#TimesNewRomanPS-BoldMT-61" transform="translate(1131.697266 0)"/>
     <use xlink:href="#TimesNewRomanPS-BoldMT-64" transform="translate(1181.697266 0)"/>
     <use xlink:href="#TimesNewRomanPS-BoldMT-65" transform="translate(1237.3125 0)"/>
     <use xlink:href="#TimesNewRomanPS-BoldMT-73" transform="translate(1281.697266 0)"/>
     <use xlink:href="#TimesNewRomanPS-BoldMT-20" transform="translate(1320.613281 0)"/>
     <use xlink:href="#TimesNewRomanPS-BoldMT-2d" transform="translate(1345.613281 0)"/>
     <use xlink:href="#TimesNewRomanPS-BoldMT-20" transform="translate(1378.914062 0)"/>
     <use xlink:href="#TimesNewRomanPS-BoldMT-52" transform="translate(1403.914062 0)"/>
     <use xlink:href="#TimesNewRomanPS-BoldMT-61" transform="translate(1476.130859 0)"/>
     <use xlink:href="#TimesNewRomanPS-BoldMT-6e" transform="translate(1526.130859 0)"/>
     <use xlink:href="#TimesNewRomanPS-BoldMT-64" transform="translate(1581.746094 0)"/>
     <use xlink:href="#TimesNewRomanPS-BoldMT-6f" transform="translate(1637.361328 0)"/>
     <use xlink:href="#TimesNewRomanPS-BoldMT-6d" transform="translate(1687.361328 0)"/>
     <use xlink:href="#TimesNewRomanPS-BoldMT-20" transform="translate(1770.662109 0)"/>
     <use xlink:href="#TimesNewRomanPS-BoldMT-46" transform="translate(1795.662109 0)"/>
     <use xlink:href="#TimesNewRomanPS-BoldMT-6f" transform="translate(1856.746094 0)"/>
     <use xlink:href="#TimesNewRomanPS-BoldMT-72" transform="translate(1906.746094 0)"/>
     <use xlink:href="#TimesNewRomanPS-BoldMT-65" transform="translate(1949.380859 0)"/>
     <use xlink:href="#TimesNewRomanPS-BoldMT-73" transform="translate(1993.765625 0)"/>
     <use xlink:href="#TimesNewRomanPS-BoldMT-74" transform="translate(2032.681641 0)"/>
    </g>
   </g>
   <g id="legend_1">
    <g id="patch_7">
     <path d="M 61.739219 99.444063 
L 158.040781 99.444063 
Q 160.240781 99.444063 160.240781 97.244063 
L 160.240781 67.3 
Q 160.240781 65.1 158.040781 65.1 
L 61.739219 65.1 
Q 59.539219 65.1 59.539219 67.3 
L 59.539219 97.244063 
Q 59.539219 99.444063 61.739219 99.444063 
z
" style="fill: #4d4d4d; opacity: 0.5; stroke: #4d4d4d; stroke-linejoin: miter"/>
    </g>
    <g id="patch_8">
     <path d="M 59.739219 97.444063 
L 156.040781 97.444063 
Q 158.240781 97.444063 158.240781 95.244063 
L 158.240781 65.3 
Q 158.240781 63.1 156.040781 63.1 
L 59.739219 63.1 
Q 57.539219 63.1 57.539219 65.3 
L 57.539219 95.244063 
Q 57.539219 97.444063 59.739219 97.444063 
z
" style="fill: #ffffff; opacity: 0.9; stroke: #808080; stroke-linejoin: miter"/>
    </g>
    <g id="text_14">
     <!-- Referencias -->
     <g transform="translate(81.932578 75.138125) scale(0.11 -0.11)">
      <defs>
       <path id="TimesNewRomanPSMT-52" d="M 4325 0 
L 3194 0 
L 1759 1981 
Q 1600 1975 1500 1975 
Q 1459 1975 1412 1976 
Q 1366 1978 1316 1981 
L 1316 750 
Q 1316 350 1403 253 
Q 1522 116 1759 116 
L 1925 116 
L 1925 0 
L 109 0 
L 109 116 
L 269 116 
Q 538 116 653 291 
Q 719 388 719 750 
L 719 3488 
Q 719 3888 631 3984 
Q 509 4122 269 4122 
L 109 4122 
L 109 4238 
L 1653 4238 
Q 2328 4238 2648 4139 
Q 2969 4041 3192 3777 
Q 3416 3513 3416 3147 
Q 3416 2756 3161 2468 
Q 2906 2181 2372 2063 
L 3247 847 
Q 3547 428 3762 290 
Q 3978 153 4325 116 
L 4325 0 
z
M 1316 2178 
Q 1375 2178 1419 2176 
Q 1463 2175 1491 2175 
Q 2097 2175 2405 2437 
Q 2713 2700 2713 3106 
Q 2713 3503 2464 3751 
Q 2216 4000 1806 4000 
Q 1625 4000 1316 3941 
L 1316 2178 
z
" transform="scale(0.015625)"/>
       <path id="TimesNewRomanPSMT-65" d="M 681 1784 
Q 678 1147 991 784 
Q 1303 422 1725 422 
Q 2006 422 2214 576 
Q 2422 731 2563 1106 
L 2659 1044 
Q 2594 616 2278 264 
Q 1963 -88 1488 -88 
Q 972 -88 605 314 
Q 238 716 238 1394 
Q 238 2128 614 2539 
Q 991 2950 1559 2950 
Q 2041 2950 2350 2633 
Q 2659 2316 2659 1784 
L 681 1784 
z
M 681 1966 
L 2006 1966 
Q 1991 2241 1941 2353 
Q 1863 2528 1708 2628 
Q 1553 2728 1384 2728 
Q 1125 2728 920 2526 
Q 716 2325 681 1966 
z
" transform="scale(0.015625)"/>
       <path id="TimesNewRomanPSMT-66" d="M 1319 2638 
L 1319 756 
Q 1319 356 1406 250 
Q 1522 113 1716 113 
L 1975 113 
L 1975 0 
L 266 0 
L 266 113 
L 394 113 
Q 519 113 622 175 
Q 725 238 764 344 
Q 803 450 803 756 
L 803 2638 
L 247 2638 
L 247 2863 
L 803 2863 
L 803 3050 
Q 803 3478 940 3775 
Q 1078 4072 1361 4255 
Q 1644 4438 1997 4438 
Q 2325 4438 2600 4225 
Q 2781 4084 2781 3909 
Q 2781 3816 2700 3733 
Q 2619 3650 2525 3650 
Q 2453 3650 2373 3701 
Q 2294 3753 2178 3923 
Q 2063 4094 1966 4153 
Q 1869 4213 1750 4213 
Q 1606 4213 1506 4136 
Q 1406 4059 1362 3898 
Q 1319 3738 1319 3069 
L 1319 2863 
L 2056 2863 
L 2056 2638 
L 1319 2638 
z
" transform="scale(0.015625)"/>
       <path id="TimesNewRomanPSMT-72" d="M 1038 2947 
L 1038 2303 
Q 1397 2947 1775 2947 
Q 1947 2947 2059 2842 
Q 2172 2738 2172 2600 
Q 2172 2478 2090 2393 
Q 2009 2309 1897 2309 
Q 1788 2309 1652 2417 
Q 1516 2525 1450 2525 
Q 1394 2525 1328 2463 
Q 1188 2334 1038 2041 
L 1038 669 
Q 1038 431 1097 309 
Q 1138 225 1241 169 
Q 1344 113 1538 113 
L 1538 0 
L 72 0 
L 72 113 
Q 291 113 397 181 
Q 475 231 506 341 
Q 522 394 522 644 
L 522 1753 
Q 522 2253 501 2348 
Q 481 2444 426 2487 
Q 372 2531 291 2531 
Q 194 2531 72 2484 
L 41 2597 
L 906 2947 
L 1038 2947 
z
" transform="scale(0.015625)"/>
       <path id="TimesNewRomanPSMT-6e" d="M 1034 2341 
Q 1538 2947 1994 2947 
Q 2228 2947 2397 2830 
Q 2566 2713 2666 2444 
Q 2734 2256 2734 1869 
L 2734 647 
Q 2734 375 2778 278 
Q 2813 200 2889 156 
Q 2966 113 3172 113 
L 3172 0 
L 1756 0 
L 1756 113 
L 1816 113 
Q 2016 113 2095 173 
Q 2175 234 2206 353 
Q 2219 400 2219 647 
L 2219 1819 
Q 2219 2209 2117 2386 
Q 2016 2563 1775 2563 
Q 1403 2563 1034 2156 
L 1034 647 
Q 1034 356 1069 288 
Q 1113 197 1189 155 
Q 1266 113 1500 113 
L 1500 0 
L 84 0 
L 84 113 
L 147 113 
Q 366 113 442 223 
Q 519 334 519 647 
L 519 1709 
Q 519 2225 495 2337 
Q 472 2450 423 2490 
Q 375 2531 294 2531 
Q 206 2531 84 2484 
L 38 2597 
L 900 2947 
L 1034 2947 
L 1034 2341 
z
" transform="scale(0.015625)"/>
       <path id="TimesNewRomanPSMT-63" d="M 2631 1088 
Q 2516 522 2178 217 
Q 1841 -88 1431 -88 
Q 944 -88 581 321 
Q 219 731 219 1428 
Q 219 2103 620 2525 
Q 1022 2947 1584 2947 
Q 2006 2947 2278 2723 
Q 2550 2500 2550 2259 
Q 2550 2141 2473 2067 
Q 2397 1994 2259 1994 
Q 2075 1994 1981 2113 
Q 1928 2178 1911 2362 
Q 1894 2547 1784 2644 
Q 1675 2738 1481 2738 
Q 1169 2738 978 2506 
Q 725 2200 725 1697 
Q 725 1184 976 792 
Q 1228 400 1656 400 
Q 1963 400 2206 609 
Q 2378 753 2541 1131 
L 2631 1088 
z
" transform="scale(0.015625)"/>
       <path id="TimesNewRomanPSMT-69" d="M 928 4444 
Q 1059 4444 1151 4351 
Q 1244 4259 1244 4128 
Q 1244 3997 1151 3903 
Q 1059 3809 928 3809 
Q 797 3809 703 3903 
Q 609 3997 609 4128 
Q 609 4259 701 4351 
Q 794 4444 928 4444 
z
M 1188 2947 
L 1188 647 
Q 1188 378 1227 289 
Q 1266 200 1342 156 
Q 1419 113 1622 113 
L 1622 0 
L 231 0 
L 231 113 
Q 441 113 512 153 
Q 584 194 626 287 
Q 669 381 669 647 
L 669 1750 
Q 669 2216 641 2353 
Q 619 2453 572 2492 
Q 525 2531 444 2531 
Q 356 2531 231 2484 
L 188 2597 
L 1050 2947 
L 1188 2947 
z
" transform="scale(0.015625)"/>
       <path id="TimesNewRomanPSMT-61" d="M 1822 413 
Q 1381 72 1269 19 
Q 1100 -59 909 -59 
Q 613 -59 420 144 
Q 228 347 228 678 
Q 228 888 322 1041 
Q 450 1253 767 1440 
Q 1084 1628 1822 1897 
L 1822 2009 
Q 1822 2438 1686 2597 
Q 1550 2756 1291 2756 
Q 1094 2756 978 2650 
Q 859 2544 859 2406 
L 866 2225 
Q 866 2081 792 2003 
Q 719 1925 600 1925 
Q 484 1925 411 2006 
Q 338 2088 338 2228 
Q 338 2497 613 2722 
Q 888 2947 1384 2947 
Q 1766 2947 2009 2819 
Q 2194 2722 2281 2516 
Q 2338 2381 2338 1966 
L 2338 994 
Q 2338 584 2353 492 
Q 2369 400 2405 369 
Q 2441 338 2488 338 
Q 2538 338 2575 359 
Q 2641 400 2828 588 
L 2828 413 
Q 2478 -56 2159 -56 
Q 2006 -56 1915 50 
Q 1825 156 1822 413 
z
M 1822 616 
L 1822 1706 
Q 1350 1519 1213 1441 
Q 966 1303 859 1153 
Q 753 1003 753 825 
Q 753 600 887 451 
Q 1022 303 1197 303 
Q 1434 303 1822 616 
z
" transform="scale(0.015625)"/>
       <path id="TimesNewRomanPSMT-73" d="M 2050 2947 
L 2050 1972 
L 1947 1972 
Q 1828 2431 1642 2597 
Q 1456 2763 1169 2763 
Q 950 2763 815 2647 
Q 681 2531 681 2391 
Q 681 2216 781 2091 
Q 878 1963 1175 1819 
L 1631 1597 
Q 2266 1288 2266 781 
Q 2266 391 1970 151 
Q 1675 -88 1309 -88 
Q 1047 -88 709 6 
Q 606 38 541 38 
Q 469 38 428 -44 
L 325 -44 
L 325 978 
L 428 978 
Q 516 541 762 319 
Q 1009 97 1316 97 
Q 1531 97 1667 223 
Q 1803 350 1803 528 
Q 1803 744 1651 891 
Q 1500 1038 1047 1263 
Q 594 1488 453 1669 
Q 313 1847 313 2119 
Q 313 2472 555 2709 
Q 797 2947 1181 2947 
Q 1350 2947 1591 2875 
Q 1750 2828 1803 2828 
Q 1853 2828 1881 2850 
Q 1909 2872 1947 2947 
L 2050 2947 
z
" transform="scale(0.015625)"/>
      </defs>
      <use xlink:href="#TimesNewRomanPSMT-52"/>
      <use xlink:href="#TimesNewRomanPSMT-65" transform="translate(66.699219 0)"/>
      <use xlink:href="#TimesNewRomanPSMT-66" transform="translate(111.083984 0)"/>
      <use xlink:href="#TimesNewRomanPSMT-65" transform="translate(144.384766 0)"/>
      <use xlink:href="#TimesNewRomanPSMT-72" transform="translate(188.769531 0)"/>
      <use xlink:href="#TimesNewRomanPSMT-65" transform="translate(222.070312 0)"/>
      <use xlink:href="#TimesNewRomanPSMT-6e" transform="translate(266.455078 0)"/>
      <use xlink:href="#TimesNewRomanPSMT-63" transform="translate(316.455078 0)"/>
      <use xlink:href="#TimesNewRomanPSMT-69" transform="translate(360.839844 0)"/>
      <use xlink:href="#TimesNewRomanPSMT-61" transform="translate(388.623047 0)"/>
      <use xlink:href="#TimesNewRomanPSMT-73" transform="translate(433.007812 0)"/>
     </g>
    </g>
    <g id="line2d_50">
     <path d="M 61.939219 86.841094 
L 72.939219 86.841094 
L 83.939219 86.841094 
" style="fill: none; stroke-dasharray: 7.4,3.2; stroke-dashoffset: 0; stroke: #c73e1d; stroke-width: 2"/>
    </g>
    <g id="text_15">
     <!-- Threshold 0.5 -->
     <g transform="translate(92.739219 90.691094) scale(0.11 -0.11)">
      <defs>
       <path id="TimesNewRomanPSMT-68" d="M 1041 4444 
L 1041 2350 
Q 1388 2731 1591 2839 
Q 1794 2947 1997 2947 
Q 2241 2947 2416 2812 
Q 2591 2678 2675 2391 
Q 2734 2191 2734 1659 
L 2734 647 
Q 2734 375 2778 275 
Q 2809 200 2884 156 
Q 2959 113 3159 113 
L 3159 0 
L 1753 0 
L 1753 113 
L 1819 113 
Q 2019 113 2097 173 
Q 2175 234 2206 353 
Q 2216 403 2216 647 
L 2216 1659 
Q 2216 2128 2167 2275 
Q 2119 2422 2012 2495 
Q 1906 2569 1756 2569 
Q 1603 2569 1437 2487 
Q 1272 2406 1041 2159 
L 1041 647 
Q 1041 353 1073 281 
Q 1106 209 1195 161 
Q 1284 113 1503 113 
L 1503 0 
L 84 0 
L 84 113 
Q 275 113 384 172 
Q 447 203 484 290 
Q 522 378 522 647 
L 522 3238 
Q 522 3728 498 3840 
Q 475 3953 426 3993 
Q 378 4034 297 4034 
Q 231 4034 84 3984 
L 41 4094 
L 897 4444 
L 1041 4444 
z
" transform="scale(0.015625)"/>
       <path id="TimesNewRomanPSMT-6f" d="M 1600 2947 
Q 2250 2947 2644 2453 
Q 2978 2031 2978 1484 
Q 2978 1100 2793 706 
Q 2609 313 2286 112 
Q 1963 -88 1566 -88 
Q 919 -88 538 428 
Q 216 863 216 1403 
Q 216 1797 411 2186 
Q 606 2575 925 2761 
Q 1244 2947 1600 2947 
z
M 1503 2744 
Q 1338 2744 1170 2645 
Q 1003 2547 900 2300 
Q 797 2053 797 1666 
Q 797 1041 1045 587 
Q 1294 134 1700 134 
Q 2003 134 2200 384 
Q 2397 634 2397 1244 
Q 2397 2006 2069 2444 
Q 1847 2744 1503 2744 
z
" transform="scale(0.015625)"/>
       <path id="TimesNewRomanPSMT-6c" d="M 1184 4444 
L 1184 647 
Q 1184 378 1223 290 
Q 1263 203 1344 158 
Q 1425 113 1647 113 
L 1647 0 
L 244 0 
L 244 113 
Q 441 113 512 153 
Q 584 194 625 287 
Q 666 381 666 647 
L 666 3247 
Q 666 3731 644 3842 
Q 622 3953 573 3993 
Q 525 4034 450 4034 
Q 369 4034 244 3984 
L 191 4094 
L 1044 4444 
L 1184 4444 
z
" transform="scale(0.015625)"/>
       <path id="TimesNewRomanPSMT-64" d="M 2222 322 
Q 2013 103 1813 7 
Q 1613 -88 1381 -88 
Q 913 -88 563 304 
Q 213 697 213 1313 
Q 213 1928 600 2439 
Q 988 2950 1597 2950 
Q 1975 2950 2222 2709 
L 2222 3238 
Q 2222 3728 2198 3840 
Q 2175 3953 2125 3993 
Q 2075 4034 2000 4034 
Q 1919 4034 1784 3984 
L 1744 4094 
L 2597 4444 
L 2738 4444 
L 2738 1134 
Q 2738 631 2761 520 
Q 2784 409 2836 365 
Q 2888 322 2956 322 
Q 3041 322 3181 375 
L 3216 266 
L 2366 -88 
L 2222 -88 
L 2222 322 
z
M 2222 541 
L 2222 2016 
Q 2203 2228 2109 2403 
Q 2016 2578 1861 2667 
Q 1706 2756 1559 2756 
Q 1284 2756 1069 2509 
Q 784 2184 784 1559 
Q 784 928 1059 592 
Q 1334 256 1672 256 
Q 1956 256 2222 541 
z
" transform="scale(0.015625)"/>
       <path id="TimesNewRomanPSMT-20" transform="scale(0.015625)"/>
       <path id="TimesNewRomanPSMT-35" d="M 2778 4238 
L 2534 3706 
L 1259 3706 
L 981 3138 
Q 1809 3016 2294 2522 
Q 2709 2097 2709 1522 
Q 2709 1188 2573 903 
Q 2438 619 2231 419 
Q 2025 219 1772 97 
Q 1413 -75 1034 -75 
Q 653 -75 479 54 
Q 306 184 306 341 
Q 306 428 378 495 
Q 450 563 559 563 
Q 641 563 702 538 
Q 763 513 909 409 
Q 1144 247 1384 247 
Q 1750 247 2026 523 
Q 2303 800 2303 1197 
Q 2303 1581 2056 1914 
Q 1809 2247 1375 2428 
Q 1034 2569 447 2591 
L 1259 4238 
L 2778 4238 
z
" transform="scale(0.015625)"/>
      </defs>
      <use xlink:href="#TimesNewRomanPSMT-54"/>
      <use xlink:href="#TimesNewRomanPSMT-68" transform="translate(61.083984 0)"/>
      <use xlink:href="#TimesNewRomanPSMT-72" transform="translate(111.083984 0)"/>
      <use xlink:href="#TimesNewRomanPSMT-65" transform="translate(144.384766 0)"/>
      <use xlink:href="#TimesNewRomanPSMT-73" transform="translate(188.769531 0)"/>
      <use xlink:href="#TimesNewRomanPSMT-68" transform="translate(227.685547 0)"/>
      <use xlink:href="#TimesNewRomanPSMT-6f" transform="translate(277.685547 0)"/>
      <use xlink:href="#TimesNewRomanPSMT-6c" transform="translate(327.685547 0)"/>
      <use xlink:href="#TimesNewRomanPSMT-64" transform="translate(355.46875 0)"/>
      <use xlink:href="#TimesNewRomanPSMT-20" transform="translate(405.46875 0)"/>
      <use xlink:href="#TimesNewRomanPSMT-30" transform="translate(430.46875 0)"/>
      <use xlink:href="#TimesNewRomanPSMT-2e" transform="translate(480.46875 0)"/>
      <use xlink:href="#TimesNewRomanPSMT-35" transform="translate(505.46875 0)"/>
     </g>
    </g>
   </g>
  </g>
  <g id="text_16">
   <!-- Boxplot de Probabilidades -->
   <g transform="translate(193.680938 26.600625) scale(0.18 -0.18)">
    <defs>
     <path id="TimesNewRomanPS-BoldMT-42" d="M 2847 2247 
Q 3450 2106 3694 1906 
Q 4044 1622 4044 1169 
Q 4044 691 3659 378 
Q 3188 0 2288 0 
L 134 0 
L 134 116 
Q 428 116 533 170 
Q 638 225 680 312 
Q 722 400 722 744 
L 722 3494 
Q 722 3838 680 3927 
Q 638 4016 531 4069 
Q 425 4122 134 4122 
L 134 4238 
L 2166 4238 
Q 2894 4238 3197 4108 
Q 3500 3978 3675 3720 
Q 3850 3463 3850 3172 
Q 3850 2866 3628 2627 
Q 3406 2388 2847 2247 
z
M 1709 2331 
Q 2153 2331 2364 2431 
Q 2575 2531 2687 2712 
Q 2800 2894 2800 3175 
Q 2800 3456 2689 3636 
Q 2578 3816 2372 3909 
Q 2166 4003 1709 4000 
L 1709 2331 
z
M 1709 2088 
L 1709 728 
L 1706 572 
Q 1706 403 1792 317 
Q 1878 231 2047 231 
Q 2297 231 2508 342 
Q 2719 453 2831 664 
Q 2944 875 2944 1134 
Q 2944 1431 2806 1667 
Q 2669 1903 2428 1997 
Q 2188 2091 1709 2088 
z
" transform="scale(0.015625)"/>
     <path id="TimesNewRomanPS-BoldMT-78" d="M 1944 1791 
L 2450 828 
Q 2713 325 2866 191 
Q 2950 119 3097 113 
L 3097 0 
L 1469 0 
L 1469 113 
Q 1659 128 1704 162 
Q 1750 197 1750 256 
Q 1750 344 1650 531 
L 1397 1006 
L 1181 691 
Q 1034 475 1016 434 
Q 991 375 991 328 
Q 991 256 1020 207 
Q 1050 159 1101 136 
Q 1153 113 1291 113 
L 1291 0 
L 147 0 
L 147 113 
Q 359 113 536 230 
Q 713 347 1050 844 
L 1291 1200 
L 788 2131 
Q 541 2588 419 2691 
Q 297 2794 147 2806 
L 147 2922 
L 1766 2922 
L 1766 2806 
L 1681 2803 
L 1519 2747 
Q 1494 2725 1494 2675 
Q 1494 2628 1509 2578 
Q 1519 2556 1597 2409 
L 1825 1984 
L 1944 2153 
Q 2194 2497 2194 2634 
Q 2194 2700 2139 2745 
Q 2084 2791 1944 2806 
L 1944 2922 
L 2978 2922 
L 2978 2806 
Q 2788 2800 2622 2689 
Q 2456 2578 2250 2259 
L 1944 1791 
z
" transform="scale(0.015625)"/>
    </defs>
    <use xlink:href="#TimesNewRomanPS-BoldMT-42"/>
    <use xlink:href="#TimesNewRomanPS-BoldMT-6f" transform="translate(66.699219 0)"/>
    <use xlink:href="#TimesNewRomanPS-BoldMT-78" transform="translate(116.699219 0)"/>
    <use xlink:href="#TimesNewRomanPS-BoldMT-70" transform="translate(166.699219 0)"/>
    <use xlink:href="#TimesNewRomanPS-BoldMT-6c" transform="translate(222.314453 0)"/>
    <use xlink:href="#TimesNewRomanPS-BoldMT-6f" transform="translate(250.097656 0)"/>
    <use xlink:href="#TimesNewRomanPS-BoldMT-74" transform="translate(300.097656 0)"/>
    <use xlink:href="#TimesNewRomanPS-BoldMT-20" transform="translate(333.398438 0)"/>
    <use xlink:href="#TimesNewRomanPS-BoldMT-64" transform="translate(358.398438 0)"/>
    <use xlink:href="#TimesNewRomanPS-BoldMT-65" transform="translate(414.013672 0)"/>
    <use xlink:href="#TimesNewRomanPS-BoldMT-20" transform="translate(458.398438 0)"/>
    <use xlink:href="#TimesNewRomanPS-BoldMT-50" transform="translate(483.398438 0)"/>
    <use xlink:href="#TimesNewRomanPS-BoldMT-72" transform="translate(544.482422 0)"/>
    <use xlink:href="#TimesNewRomanPS-BoldMT-6f" transform="translate(587.117188 0)"/>
    <use xlink:href="#TimesNewRomanPS-BoldMT-62" transform="translate(637.117188 0)"/>
    <use xlink:href="#TimesNewRomanPS-BoldMT-61" transform="translate(692.732422 0)"/>
    <use xlink:href="#TimesNewRomanPS-BoldMT-62" transform="translate(742.732422 0)"/>
    <use xlink:href="#TimesNewRomanPS-BoldMT-69" transform="translate(798.347656 0)"/>
    <use xlink:href="#TimesNewRomanPS-BoldMT-6c" transform="translate(826.130859 0)"/>
    <use xlink:href="#TimesNewRomanPS-BoldMT-69" transform="translate(853.914062 0)"/>
    <use xlink:href="#TimesNewRomanPS-BoldMT-64" transform="translate(881.697266 0)"/>
    <use xlink:href="#TimesNewRomanPS-BoldMT-61" transform="translate(937.3125 0)"/>
    <use xlink:href="#TimesNewRomanPS-BoldMT-64" transform="translate(987.3125 0)"/>
    <use xlink:href="#TimesNewRomanPS-BoldMT-65" transform="translate(1042.927734 0)"/>
    <use xlink:href="#TimesNewRomanPS-BoldMT-73" transform="translate(1087.3125 0)"/>
   </g>
  </g>
 </g>
 <defs>
  <clipPath id="p87824c23ec">
   <rect x="52.039219" y="57.6" width="502.2" height="332.64"/>
  </clipPath>
 </defs>
</svg>
