<?xml version="1.0" encoding="utf-8" standalone="no"?>
<!DOCTYPE svg PUBLIC "-//W3C//DTD SVG 1.1//EN"
  "http://www.w3.org/Graphics/SVG/1.1/DTD/svg11.dtd">
<svg xmlns:xlink="http://www.w3.org/1999/xlink" width="864pt" height="576pt" viewBox="0 0 864 576" xmlns="http://www.w3.org/2000/svg" version="1.1">
 <metadata>
  <rdf:RDF xmlns:dc="http://purl.org/dc/elements/1.1/" xmlns:cc="http://creativecommons.org/ns#" xmlns:rdf="http://www.w3.org/1999/02/22-rdf-syntax-ns#">
   <cc:Work>
    <dc:type rdf:resource="http://purl.org/dc/dcmitype/StillImage"/>
    <dc:date>2026-01-15T19:02:02.450731</dc:date>
    <dc:format>image/svg+xml</dc:format>
    <dc:creator>
     <cc:Agent>
      <dc:title>Matplotlib v3.10.1, https://matplotlib.org/</dc:title>
     </cc:Agent>
    </dc:creator>
   </cc:Work>
  </rdf:RDF>
 </metadata>
 <defs>
  <style type="text/css">*{stroke-linejoin: round; stroke-linecap: butt}</style>
 </defs>
 <g id="figure_1">
  <g id="patch_1">
   <path d="M 0 576 
L 864 576 
L 864 0 
L 0 0 
z
" style="fill: #ffffff"/>
  </g>
  <g id="axes_1">
   <g id="patch_2">
    <path d="M 51.774531 535.092969 
L 856.8 535.092969 
L 856.8 11.36625 
L 51.774531 11.36625 
z
" style="fill: #ffffff"/>
   </g>
   <g id="PathCollection_1">
    <defs>
     <path id="mef767d7ade" d="M 170.579789 -306.511296 
L 160.225267 -306.511296 
L 159.688534 -308.362855 
L 159.131559 -310.214414 
L 158.555269 -312.065973 
L 157.961074 -313.917532 
L 157.351202 -315.769091 
L 156.728964 -317.62065 
L 156.098905 -319.47221 
L 155.466787 -321.323769 
L 154.839394 -323.175328 
L 154.224153 -325.026887 
L 153.628625 -326.878446 
L 153.059904 -328.730005 
L 152.523992 -330.581564 
L 152.025244 -332.433123 
L 151.565916 -334.284682 
L 151.14589 -336.136241 
L 150.762595 -337.987801 
L 150.411126 -339.83936 
L 150.084571 -341.690919 
L 149.77449 -343.542478 
L 149.471528 -345.394037 
L 149.166111 -347.245596 
L 148.849174 -349.097155 
L 148.512866 -350.948714 
L 148.151187 -352.800273 
L 147.760486 -354.651833 
L 147.339789 -356.503392 
L 146.890882 -358.354951 
L 146.418147 -360.20651 
L 145.928111 -362.058069 
L 145.428746 -363.909628 
L 144.928554 -365.761187 
L 144.435529 -367.612746 
L 143.956104 -369.464305 
L 143.494207 -371.315864 
L 143.050557 -373.167424 
L 142.622294 -375.018983 
L 142.203024 -376.870542 
L 141.783287 -378.722101 
L 141.351406 -380.57366 
L 140.894619 -382.425219 
L 140.400353 -384.276778 
L 139.857463 -386.128337 
L 139.257286 -387.979896 
L 138.59436 -389.831456 
L 137.866715 -391.683015 
L 137.075716 -393.534574 
L 136.225507 -395.386133 
L 135.322141 -397.237692 
L 134.372572 -399.089251 
L 133.383658 -400.94081 
L 132.361355 -402.792369 
L 131.310225 -404.643928 
L 130.233337 -406.495488 
L 129.132572 -408.347047 
L 128.009262 -410.198606 
L 126.865058 -412.050165 
L 125.702853 -413.901724 
L 124.527595 -415.753283 
L 123.346819 -417.604842 
L 122.170773 -419.456401 
L 121.012061 -421.30796 
L 119.884795 -423.159519 
L 118.803327 -425.011079 
L 117.780673 -426.862638 
L 116.826796 -428.714197 
L 115.946963 -430.565756 
L 115.140352 -432.417315 
L 114.399102 -434.268874 
L 113.707946 -436.120433 
L 113.044515 -437.971992 
L 112.380331 -439.823551 
L 111.682466 -441.675111 
L 110.915767 -443.52667 
L 110.045496 -445.378229 
L 109.040222 -447.229788 
L 107.874759 -449.081347 
L 106.532943 -450.932906 
L 105.01007 -452.784465 
L 103.314804 -454.636024 
L 101.47042 -456.487583 
L 99.515269 -458.339143 
L 97.502389 -460.190702 
L 95.498234 -462.042261 
L 93.580526 -463.89382 
L 91.835269 -465.745379 
L 90.353052 -467.596938 
L 89.224752 -469.448497 
L 88.53685 -471.300056 
L 88.366598 -473.151615 
L 88.777323 -475.003174 
L 89.814177 -476.854734 
L 91.500658 -478.706293 
L 93.83622 -480.557852 
L 96.795204 -482.409411 
L 100.327285 -484.26097 
L 104.35947 -486.112529 
L 108.799582 -487.964088 
L 113.541011 -489.815647 
L 217.264045 -489.815647 
L 217.264045 -489.815647 
L 222.005474 -487.964088 
L 226.445586 -486.112529 
L 230.477771 -484.26097 
L 234.009852 -482.409411 
L 236.968836 -480.557852 
L 239.304398 -478.706293 
L 240.990879 -476.854734 
L 242.027733 -475.003174 
L 242.438458 -473.151615 
L 242.268206 -471.300056 
L 241.580304 -469.448497 
L 240.452004 -467.596938 
L 238.969787 -465.745379 
L 237.22453 -463.89382 
L 235.306822 -462.042261 
L 233.302668 -460.190702 
L 231.289787 -458.339143 
L 229.334636 -456.487583 
L 227.490252 -454.636024 
L 225.794986 -452.784465 
L 224.272113 -450.932906 
L 222.930297 -449.081347 
L 221.764834 -447.229788 
L 220.75956 -445.378229 
L 219.889289 -443.52667 
L 219.12259 -441.675111 
L 218.424725 -439.823551 
L 217.760541 -437.971992 
L 217.09711 -436.120433 
L 216.405954 -434.268874 
L 215.664704 -432.417315 
L 214.858093 -430.565756 
L 213.97826 -428.714197 
L 213.024383 -426.862638 
L 212.001729 -425.011079 
L 210.920262 -423.159519 
L 209.792995 -421.30796 
L 208.634283 -419.456401 
L 207.458237 -417.604842 
L 206.277461 -415.753283 
L 205.102203 -413.901724 
L 203.939998 -412.050165 
L 202.795794 -410.198606 
L 201.672484 -408.347047 
L 200.571719 -406.495488 
L 199.494831 -404.643928 
L 198.443701 -402.792369 
L 197.421398 -400.94081 
L 196.432484 -399.089251 
L 195.482915 -397.237692 
L 194.57955 -395.386133 
L 193.72934 -393.534574 
L 192.938341 -391.683015 
L 192.210696 -389.831456 
L 191.54777 -387.979896 
L 190.947593 -386.128337 
L 190.404703 -384.276778 
L 189.910437 -382.425219 
L 189.45365 -380.57366 
L 189.021769 -378.722101 
L 188.602032 -376.870542 
L 188.182762 -375.018983 
L 187.754499 -373.167424 
L 187.310849 -371.315864 
L 186.848952 -369.464305 
L 186.369527 -367.612746 
L 185.876502 -365.761187 
L 185.37631 -363.909628 
L 184.876945 -362.058069 
L 184.38691 -360.20651 
L 183.914174 -358.354951 
L 183.465267 -356.503392 
L 183.04457 -354.651833 
L 182.653869 -352.800273 
L 182.29219 -350.948714 
L 181.955882 -349.097155 
L 181.638945 -347.245596 
L 181.333528 -345.394037 
L 181.030566 -343.542478 
L 180.720485 -341.690919 
L 180.39393 -339.83936 
L 180.042462 -337.987801 
L 179.659166 -336.136241 
L 179.23914 -334.284682 
L 178.779812 -332.433123 
L 178.281064 -330.581564 
L 177.745153 -328.730005 
L 177.176431 -326.878446 
L 176.580903 -325.026887 
L 175.965662 -323.175328 
L 175.338269 -321.323769 
L 174.706151 -319.47221 
L 174.076092 -317.62065 
L 173.453854 -315.769091 
L 172.843982 -313.917532 
L 172.249787 -312.065973 
L 171.673497 -310.214414 
L 171.116522 -308.362855 
L 170.579789 -306.511296 
z
" style="stroke: #000000; stroke-opacity: 0.7"/>
    </defs>
    <g clip-path="url(#pcfbd26a8dc)">
     <use xlink:href="#mef767d7ade" x="1623.174907" y="431.342312" style="fill: #2e86ab; fill-opacity: 0.7; stroke: #000000; stroke-opacity: 0.7"/>
    </g>
   </g>
   <g id="PathCollection_2">
    <defs>
     <path id="me6f573b63a" d="M 425.082219 -115.725134 
L 290.902487 -115.725134 
L 285.948545 -117.576693 
L 282.586865 -119.428252 
L 280.956423 -121.279811 
L 281.050181 -123.13137 
L 282.726714 -124.982929 
L 285.739306 -126.834489 
L 289.775669 -128.686048 
L 294.500323 -130.537607 
L 299.592501 -132.389166 
L 304.774619 -134.240725 
L 309.829084 -136.092284 
L 314.603729 -137.943843 
L 319.007987 -139.795402 
L 323.002793 -141.646961 
L 326.587304 -143.498521 
L 329.785095 -145.35008 
L 332.631757 -147.201639 
L 335.165108 -149.053198 
L 337.418559 -150.904757 
L 339.417706 -152.756316 
L 341.179813 -154.607875 
L 342.715582 -156.459434 
L 344.032414 -158.310993 
L 345.138242 -160.162552 
L 346.045037 -162.014112 
L 346.771207 -163.865671 
L 347.342352 -165.71723 
L 347.790221 -167.568789 
L 348.150068 -169.420348 
L 348.45698 -171.271907 
L 348.74195 -173.123466 
L 349.028536 -174.975025 
L 349.33077 -176.826584 
L 349.652733 -178.678144 
L 349.98978 -180.529703 
L 350.331087 -182.381262 
L 350.662903 -184.232821 
L 350.971815 -186.08438 
L 351.247378 -187.935939 
L 351.483708 -189.787498 
L 351.679868 -191.639057 
L 351.839194 -193.490616 
L 351.967891 -195.342176 
L 352.073317 -197.193735 
L 352.1624 -199.045294 
L 352.240471 -200.896853 
L 352.310712 -202.748412 
L 352.374199 -204.599971 
L 352.430452 -206.45153 
L 352.478288 -208.303089 
L 352.516768 -210.154648 
L 352.546035 -212.006207 
L 352.56788 -213.857767 
L 352.585928 -215.709326 
L 352.605378 -217.560885 
L 352.632342 -219.412444 
L 352.672867 -221.264003 
L 352.731821 -223.115562 
L 352.81189 -224.967121 
L 352.912923 -226.81868 
L 353.031824 -228.670239 
L 353.163051 -230.521799 
L 353.299662 -232.373358 
L 353.434671 -234.224917 
L 353.562414 -236.076476 
L 353.679603 -237.928035 
L 353.78587 -239.779594 
L 353.883696 -241.631153 
L 353.977825 -243.482712 
L 354.074327 -245.334271 
L 354.179554 -247.185831 
L 354.299164 -249.03739 
L 354.43736 -250.888949 
L 354.596353 -252.740508 
L 354.776062 -254.592067 
L 354.974005 -256.443626 
L 355.185375 -258.295185 
L 355.40332 -260.146744 
L 355.619453 -261.998303 
L 355.824598 -263.849862 
L 356.00972 -265.701422 
L 356.166949 -267.552981 
L 356.290529 -269.40454 
L 356.377538 -271.256099 
L 356.428266 -273.107658 
L 356.446183 -274.959217 
L 356.437526 -276.810776 
L 356.410608 -278.662335 
L 356.374957 -280.513894 
L 356.340403 -282.365454 
L 356.316224 -284.217013 
L 356.310378 -286.068572 
L 356.328882 -287.920131 
L 356.375364 -289.77169 
L 356.450799 -291.623249 
L 356.553504 -293.474808 
L 356.679383 -295.326367 
L 356.822432 -297.177926 
L 356.975454 -299.029485 
L 359.009252 -299.029485 
L 359.009252 -299.029485 
L 359.162274 -297.177926 
L 359.305323 -295.326367 
L 359.431202 -293.474808 
L 359.533907 -291.623249 
L 359.609343 -289.77169 
L 359.655824 -287.920131 
L 359.674329 -286.068572 
L 359.668482 -284.217013 
L 359.644303 -282.365454 
L 359.60975 -280.513894 
L 359.574098 -278.662335 
L 359.54718 -276.810776 
L 359.538523 -274.959217 
L 359.55644 -273.107658 
L 359.607168 -271.256099 
L 359.694177 -269.40454 
L 359.817757 -267.552981 
L 359.974986 -265.701422 
L 360.160108 -263.849862 
L 360.365253 -261.998303 
L 360.581387 -260.146744 
L 360.799332 -258.295185 
L 361.010701 -256.443626 
L 361.208644 -254.592067 
L 361.388353 -252.740508 
L 361.547346 -250.888949 
L 361.685542 -249.03739 
L 361.805153 -247.185831 
L 361.910379 -245.334271 
L 362.006881 -243.482712 
L 362.10101 -241.631153 
L 362.198837 -239.779594 
L 362.305103 -237.928035 
L 362.422292 -236.076476 
L 362.550035 -234.224917 
L 362.685044 -232.373358 
L 362.821655 -230.521799 
L 362.952882 -228.670239 
L 363.071783 -226.81868 
L 363.172816 -224.967121 
L 363.252885 -223.115562 
L 363.311839 -221.264003 
L 363.352364 -219.412444 
L 363.379329 -217.560885 
L 363.398779 -215.709326 
L 363.416826 -213.857767 
L 363.438672 -212.006207 
L 363.467938 -210.154648 
L 363.506418 -208.303089 
L 363.554254 -206.45153 
L 363.610507 -204.599971 
L 363.673994 -202.748412 
L 363.744235 -200.896853 
L 363.822306 -199.045294 
L 363.911389 -197.193735 
L 364.016816 -195.342176 
L 364.145512 -193.490616 
L 364.304838 -191.639057 
L 364.500998 -189.787498 
L 364.737328 -187.935939 
L 365.012892 -186.08438 
L 365.321803 -184.232821 
L 365.653619 -182.381262 
L 365.994926 -180.529703 
L 366.331973 -178.678144 
L 366.653936 -176.826584 
L 366.956171 -174.975025 
L 367.242756 -173.123466 
L 367.527727 -171.271907 
L 367.834638 -169.420348 
L 368.194485 -167.568789 
L 368.642354 -165.71723 
L 369.213499 -163.865671 
L 369.939669 -162.014112 
L 370.846464 -160.162552 
L 371.952292 -158.310993 
L 373.269124 -156.459434 
L 374.804894 -154.607875 
L 376.567 -152.756316 
L 378.566147 -150.904757 
L 380.819598 -149.053198 
L 383.352949 -147.201639 
L 386.199612 -145.35008 
L 389.397402 -143.498521 
L 392.981913 -141.646961 
L 396.976719 -139.795402 
L 401.380977 -137.943843 
L 406.155622 -136.092284 
L 411.210087 -134.240725 
L 416.392205 -132.389166 
L 421.484383 -130.537607 
L 426.209037 -128.686048 
L 430.2454 -126.834489 
L 433.257992 -124.982929 
L 434.934525 -123.13137 
L 435.028283 -121.279811 
L 433.397841 -119.428252 
L 430.036161 -117.576693 
L 425.082219 -115.725134 
z
" style="stroke: #000000; stroke-opacity: 0.7"/>
    </defs>
    <g clip-path="url(#pcfbd26a8dc)">
     <use xlink:href="#me6f573b63a" x="1623.174907" y="431.342312" style="fill: #4a90a4; fill-opacity: 0.7; stroke: #000000; stroke-opacity: 0.7"/>
    </g>
   </g>
   <g id="PathCollection_3">
    <defs>
     <path id="m942711ec5a" d="M 595.002528 -115.725134 
L 506.161828 -115.725134 
L 504.112949 -117.61448 
L 502.086181 -119.503826 
L 500.087997 -121.393172 
L 498.124549 -123.282518 
L 496.201682 -125.171864 
L 494.324953 -127.06121 
L 492.499663 -128.950556 
L 490.7309 -130.839902 
L 489.023576 -132.729248 
L 487.382469 -134.618594 
L 485.812262 -136.50794 
L 484.317563 -138.397286 
L 482.902922 -140.286632 
L 481.57283 -142.175978 
L 480.331698 -144.065324 
L 479.18382 -145.95467 
L 478.133322 -147.844016 
L 477.184086 -149.733362 
L 476.339666 -151.622708 
L 475.60319 -153.512054 
L 474.977258 -155.401401 
L 474.463827 -157.290747 
L 474.064112 -159.180093 
L 473.778485 -161.069439 
L 473.606385 -162.958785 
L 473.546248 -164.848131 
L 473.595462 -166.737477 
L 473.750332 -168.626823 
L 474.006087 -170.516169 
L 474.356902 -172.405515 
L 474.795953 -174.294861 
L 475.315497 -176.184207 
L 475.906975 -178.073553 
L 476.561141 -179.962899 
L 477.268199 -181.852245 
L 478.01796 -183.741591 
L 478.800005 -185.630937 
L 479.603849 -187.520283 
L 480.419102 -189.409629 
L 481.235629 -191.298975 
L 482.043685 -193.188321 
L 482.834051 -195.077667 
L 483.598138 -196.967013 
L 484.328079 -198.856359 
L 485.016797 -200.745705 
L 485.658051 -202.635051 
L 486.246463 -204.524397 
L 486.777525 -206.413743 
L 487.24759 -208.303089 
L 487.653846 -210.192435 
L 487.994288 -212.081781 
L 488.267673 -213.971127 
L 488.473476 -215.860473 
L 488.611843 -217.749819 
L 488.683552 -219.639165 
L 488.689972 -221.528511 
L 488.633031 -223.417857 
L 488.515194 -225.307204 
L 488.339442 -227.19655 
L 488.109271 -229.085896 
L 487.828682 -230.975242 
L 487.502194 -232.864588 
L 487.134843 -234.753934 
L 486.732198 -236.64328 
L 486.30036 -238.532626 
L 485.845973 -240.421972 
L 485.376211 -242.311318 
L 484.898768 -244.200664 
L 484.421833 -246.09001 
L 483.954049 -247.979356 
L 483.504459 -249.868702 
L 483.082436 -251.758048 
L 482.6976 -253.647394 
L 482.359722 -255.53674 
L 482.078605 -257.426086 
L 481.863969 -259.315432 
L 481.72531 -261.204778 
L 481.671773 -263.094124 
L 481.712 -264.98347 
L 481.853996 -266.872816 
L 482.104992 -268.762162 
L 482.471312 -270.651508 
L 482.958258 -272.540854 
L 483.570002 -274.4302 
L 484.3095 -276.319546 
L 485.178418 -278.208892 
L 486.177084 -280.098238 
L 487.304461 -281.987584 
L 488.558139 -283.87693 
L 489.934353 -285.766276 
L 491.428023 -287.655622 
L 493.032817 -289.544968 
L 494.74123 -291.434314 
L 496.544687 -293.32366 
L 498.433663 -295.213007 
L 500.397808 -297.102353 
L 502.4261 -298.991699 
L 504.506992 -300.881045 
L 506.628569 -302.770391 
L 594.535787 -302.770391 
L 594.535787 -302.770391 
L 596.657365 -300.881045 
L 598.738256 -298.991699 
L 600.766548 -297.102353 
L 602.730694 -295.213007 
L 604.619669 -293.32366 
L 606.423127 -291.434314 
L 608.131539 -289.544968 
L 609.736333 -287.655622 
L 611.230004 -285.766276 
L 612.606217 -283.87693 
L 613.859895 -281.987584 
L 614.987272 -280.098238 
L 615.985939 -278.208892 
L 616.854856 -276.319546 
L 617.594354 -274.4302 
L 618.206099 -272.540854 
L 618.693045 -270.651508 
L 619.059365 -268.762162 
L 619.31036 -266.872816 
L 619.452357 -264.98347 
L 619.492583 -263.094124 
L 619.439046 -261.204778 
L 619.300388 -259.315432 
L 619.085751 -257.426086 
L 618.804634 -255.53674 
L 618.466756 -253.647394 
L 618.081921 -251.758048 
L 617.659897 -249.868702 
L 617.210307 -247.979356 
L 616.742523 -246.09001 
L 616.265588 -244.200664 
L 615.788146 -242.311318 
L 615.318383 -240.421972 
L 614.863996 -238.532626 
L 614.432159 -236.64328 
L 614.029513 -234.753934 
L 613.662163 -232.864588 
L 613.335674 -230.975242 
L 613.055086 -229.085896 
L 612.824914 -227.19655 
L 612.649163 -225.307204 
L 612.531325 -223.417857 
L 612.474384 -221.528511 
L 612.480805 -219.639165 
L 612.552514 -217.749819 
L 612.690881 -215.860473 
L 612.896683 -213.971127 
L 613.170068 -212.081781 
L 613.51051 -210.192435 
L 613.916767 -208.303089 
L 614.386831 -206.413743 
L 614.917893 -204.524397 
L 615.506305 -202.635051 
L 616.147559 -200.745705 
L 616.836277 -198.856359 
L 617.566218 -196.967013 
L 618.330305 -195.077667 
L 619.120671 -193.188321 
L 619.928727 -191.298975 
L 620.745254 -189.409629 
L 621.560508 -187.520283 
L 622.364351 -185.630937 
L 623.146396 -183.741591 
L 623.896157 -181.852245 
L 624.603215 -179.962899 
L 625.257381 -178.073553 
L 625.84886 -176.184207 
L 626.368403 -174.294861 
L 626.807454 -172.405515 
L 627.158269 -170.516169 
L 627.414024 -168.626823 
L 627.568895 -166.737477 
L 627.618108 -164.848131 
L 627.557972 -162.958785 
L 627.385871 -161.069439 
L 627.100244 -159.180093 
L 626.70053 -157.290747 
L 626.187099 -155.401401 
L 625.561166 -153.512054 
L 624.824691 -151.622708 
L 623.980271 -149.733362 
L 623.031034 -147.844016 
L 621.980536 -145.95467 
L 620.832659 -144.065324 
L 619.591526 -142.175978 
L 618.261434 -140.286632 
L 616.846793 -138.397286 
L 615.352094 -136.50794 
L 613.781887 -134.618594 
L 612.140781 -132.729248 
L 610.433456 -130.839902 
L 608.664693 -128.950556 
L 606.839404 -127.06121 
L 604.962674 -125.171864 
L 603.039807 -123.282518 
L 601.076359 -121.393172 
L 599.078175 -119.503826 
L 597.051407 -117.61448 
L 595.002528 -115.725134 
z
" style="stroke: #000000; stroke-opacity: 0.7"/>
    </defs>
    <g clip-path="url(#pcfbd26a8dc)">
     <use xlink:href="#m942711ec5a" x="1623.174907" y="431.342312" style="fill: #c73e1d; fill-opacity: 0.7; stroke: #000000; stroke-opacity: 0.7"/>
    </g>
   </g>
   <g id="PathCollection_4">
    <defs>
     <path id="m4e35612c53" d="M 765.770493 -306.511296 
L 720.573513 -306.511296 
L 718.87811 -308.325068 
L 717.198809 -310.13884 
L 715.549593 -311.952612 
L 713.943447 -313.766385 
L 712.391901 -315.580157 
L 710.904565 -317.393929 
L 709.488675 -319.207701 
L 708.148685 -321.021473 
L 706.885916 -322.835245 
L 705.698298 -324.649018 
L 704.580244 -326.46279 
L 703.522668 -328.276562 
L 702.513192 -330.090334 
L 701.536544 -331.904106 
L 700.575147 -333.717879 
L 699.609901 -335.531651 
L 698.621126 -337.345423 
L 697.589604 -339.159195 
L 696.497699 -340.972967 
L 695.330446 -342.786739 
L 694.076565 -344.600512 
L 692.729313 -346.414284 
L 691.287108 -348.228056 
L 689.753867 -350.041828 
L 688.139035 -351.8556 
L 686.457266 -353.669373 
L 684.727789 -355.483145 
L 682.973482 -357.296917 
L 681.21971 -359.110689 
L 679.493004 -360.924461 
L 677.819672 -362.738234 
L 676.224433 -364.552006 
L 674.729162 -366.365778 
L 673.351846 -368.17955 
L 672.105795 -369.993322 
L 670.999182 -371.807094 
L 670.034907 -373.620867 
L 669.210817 -375.434639 
L 668.520221 -377.248411 
L 667.95268 -379.062183 
L 667.494986 -380.875955 
L 667.132273 -382.689728 
L 666.849156 -384.5035 
L 666.630841 -386.317272 
L 666.464113 -388.131044 
L 666.338156 -389.944816 
L 666.245147 -391.758589 
L 666.180608 -393.572361 
L 666.1435 -395.386133 
L 666.136073 -397.199905 
L 666.163492 -399.013677 
L 666.233283 -400.827449 
L 666.354635 -402.641222 
L 666.53763 -404.454994 
L 666.792431 -406.268766 
L 667.128498 -408.082538 
L 667.553875 -409.89631 
L 668.074583 -411.710083 
L 668.694162 -413.523855 
L 669.413366 -415.337627 
L 670.230044 -417.151399 
L 671.139188 -418.965171 
L 672.133155 -420.778943 
L 673.202035 -422.592716 
L 674.334147 -424.406488 
L 675.516635 -426.22026 
L 676.736132 -428.034032 
L 677.979441 -429.847804 
L 679.234228 -431.661577 
L 680.489662 -433.475349 
L 681.736981 -435.289121 
L 682.969957 -437.102893 
L 684.185235 -438.916665 
L 685.382512 -440.730438 
L 686.564564 -442.54421 
L 687.737103 -444.357982 
L 688.908467 -446.171754 
L 690.089162 -447.985526 
L 691.291274 -449.799298 
L 692.527774 -451.613071 
L 693.811763 -453.426843 
L 695.15569 -455.240615 
L 696.570586 -457.054387 
L 698.065367 -458.868159 
L 699.646236 -460.681932 
L 701.316224 -462.495704 
L 703.074894 -464.309476 
L 704.918233 -466.123248 
L 706.838717 -467.93702 
L 708.825564 -469.750793 
L 710.865138 -471.564565 
L 712.941486 -473.378337 
L 715.036972 -475.192109 
L 717.132963 -477.005881 
L 719.210532 -478.819653 
L 721.251139 -480.633426 
L 723.23725 -482.447198 
L 725.152872 -484.26097 
L 726.983983 -486.074742 
L 759.360023 -486.074742 
L 759.360023 -486.074742 
L 761.191134 -484.26097 
L 763.106757 -482.447198 
L 765.092867 -480.633426 
L 767.133474 -478.819653 
L 769.211044 -477.005881 
L 771.307034 -475.192109 
L 773.40252 -473.378337 
L 775.478868 -471.564565 
L 777.518442 -469.750793 
L 779.505289 -467.93702 
L 781.425774 -466.123248 
L 783.269113 -464.309476 
L 785.027783 -462.495704 
L 786.69777 -460.681932 
L 788.278639 -458.868159 
L 789.77342 -457.054387 
L 791.188316 -455.240615 
L 792.532243 -453.426843 
L 793.816232 -451.613071 
L 795.052732 -449.799298 
L 796.254844 -447.985526 
L 797.43554 -446.171754 
L 798.606903 -444.357982 
L 799.779442 -442.54421 
L 800.961495 -440.730438 
L 802.158772 -438.916665 
L 803.374049 -437.102893 
L 804.607026 -435.289121 
L 805.854344 -433.475349 
L 807.109778 -431.661577 
L 808.364566 -429.847804 
L 809.607875 -428.034032 
L 810.827371 -426.22026 
L 812.00986 -424.406488 
L 813.141971 -422.592716 
L 814.210851 -420.778943 
L 815.204818 -418.965171 
L 816.113963 -417.151399 
L 816.930641 -415.337627 
L 817.649845 -413.523855 
L 818.269423 -411.710083 
L 818.790132 -409.89631 
L 819.215509 -408.082538 
L 819.551576 -406.268766 
L 819.806376 -404.454994 
L 819.989372 -402.641222 
L 820.110724 -400.827449 
L 820.180514 -399.013677 
L 820.207933 -397.199905 
L 820.200506 -395.386133 
L 820.163398 -393.572361 
L 820.098859 -391.758589 
L 820.00585 -389.944816 
L 819.879893 -388.131044 
L 819.713166 -386.317272 
L 819.494851 -384.5035 
L 819.211734 -382.689728 
L 818.84902 -380.875955 
L 818.391327 -379.062183 
L 817.823785 -377.248411 
L 817.13319 -375.434639 
L 816.3091 -373.620867 
L 815.344825 -371.807094 
L 814.238211 -369.993322 
L 812.992161 -368.17955 
L 811.614844 -366.365778 
L 810.119574 -364.552006 
L 808.524334 -362.738234 
L 806.851002 -360.924461 
L 805.124297 -359.110689 
L 803.370525 -357.296917 
L 801.616218 -355.483145 
L 799.886741 -353.669373 
L 798.204971 -351.8556 
L 796.590139 -350.041828 
L 795.056899 -348.228056 
L 793.614693 -346.414284 
L 792.267441 -344.600512 
L 791.01356 -342.786739 
L 789.846307 -340.972967 
L 788.754402 -339.159195 
L 787.722881 -337.345423 
L 786.734105 -335.531651 
L 785.76886 -333.717879 
L 784.807462 -331.904106 
L 783.830814 -330.090334 
L 782.821339 -328.276562 
L 781.763763 -326.46279 
L 780.645708 -324.649018 
L 779.45809 -322.835245 
L 778.195321 -321.021473 
L 776.855332 -319.207701 
L 775.439442 -317.393929 
L 773.952105 -315.580157 
L 772.40056 -313.766385 
L 770.794414 -311.952612 
L 769.145197 -310.13884 
L 767.465897 -308.325068 
L 765.770493 -306.511296 
z
" style="stroke: #000000; stroke-opacity: 0.7"/>
    </defs>
    <g clip-path="url(#pcfbd26a8dc)">
     <use xlink:href="#m4e35612c53" x="1623.174907" y="431.342312" style="fill: #f18f01; fill-opacity: 0.7; stroke: #000000; stroke-opacity: 0.7"/>
    </g>
   </g>
   <g id="PathCollection_5">
    <path clip-path="url(#pcfbd26a8dc)" style="fill: none; stroke: #ff0000; stroke-width: 2"/>
    <path clip-path="url(#pcfbd26a8dc)" style="fill: none; stroke: #ff0000; stroke-width: 2"/>
    <path clip-path="url(#pcfbd26a8dc)" style="fill: none; stroke: #ff0000; stroke-width: 2"/>
    <path clip-path="url(#pcfbd26a8dc)" style="fill: none; stroke: #ff0000; stroke-width: 2"/>
   </g>
   <g id="PathCollection_6">
    <path clip-path="url(#pcfbd26a8dc)" style="fill: none; stroke: #2e86ab; stroke-width: 1.5"/>
    <path clip-path="url(#pcfbd26a8dc)" style="fill: none; stroke: #2e86ab; stroke-width: 1.5"/>
    <path clip-path="url(#pcfbd26a8dc)" style="fill: none; stroke: #2e86ab; stroke-width: 1.5"/>
    <path clip-path="url(#pcfbd26a8dc)" style="fill: none; stroke: #2e86ab; stroke-width: 1.5"/>
   </g>
   <g id="PathCollection_7">
    <path clip-path="url(#pcfbd26a8dc)" style="fill: none; stroke: #2e86ab; stroke-width: 1.5"/>
    <path clip-path="url(#pcfbd26a8dc)" style="fill: none; stroke: #2e86ab; stroke-width: 1.5"/>
    <path clip-path="url(#pcfbd26a8dc)" style="fill: none; stroke: #2e86ab; stroke-width: 1.5"/>
    <path clip-path="url(#pcfbd26a8dc)" style="fill: none; stroke: #2e86ab; stroke-width: 1.5"/>
   </g>
   <g id="PathCollection_8">
    <path clip-path="url(#pcfbd26a8dc)" style="fill: none; stroke: #2e86ab; stroke-width: 1.5"/>
    <path clip-path="url(#pcfbd26a8dc)" style="fill: none; stroke: #2e86ab; stroke-width: 1.5"/>
    <path clip-path="url(#pcfbd26a8dc)" style="fill: none; stroke: #2e86ab; stroke-width: 1.5"/>
    <path clip-path="url(#pcfbd26a8dc)" style="fill: none; stroke: #2e86ab; stroke-width: 1.5"/>
   </g>
   <g id="PathCollection_9">
    <path clip-path="url(#pcfbd26a8dc)" style="fill: none; stroke: #000000; stroke-width: 2"/>
    <path clip-path="url(#pcfbd26a8dc)" style="fill: none; stroke: #000000; stroke-width: 2"/>
    <path clip-path="url(#pcfbd26a8dc)" style="fill: none; stroke: #000000; stroke-width: 2"/>
    <path clip-path="url(#pcfbd26a8dc)" style="fill: none; stroke: #000000; stroke-width: 2"/>
   </g>
   <g id="matplotlib.axis_1">
    <g id="xtick_1">
     <g id="line2d_1">
      <defs>
       <path id="ma1d7406e42" d="M 0 0 
L 0 3.5 
" style="stroke: #000000; stroke-width: 0.8"/>
      </defs>
      <g>
       <use xlink:href="#ma1d7406e42" x="165.402528" y="535.092969" style="stroke: #000000; stroke-width: 0.8"/>
      </g>
     </g>
     <g id="text_1">
      <!-- 0 -->
      <g transform="translate(162.402528 550.425469) scale(0.12 -0.12)">
       <defs>
        <path id="TimesNewRomanPSMT-30" d="M 231 2094 
Q 231 2819 450 3342 
Q 669 3866 1031 4122 
Q 1313 4325 1613 4325 
Q 2100 4325 2488 3828 
Q 2972 3213 2972 2159 
Q 2972 1422 2759 906 
Q 2547 391 2217 158 
Q 1888 -75 1581 -75 
Q 975 -75 572 641 
Q 231 1244 231 2094 
z
M 844 2016 
Q 844 1141 1059 588 
Q 1238 122 1591 122 
Q 1759 122 1940 273 
Q 2122 425 2216 781 
Q 2359 1319 2359 2297 
Q 2359 3022 2209 3506 
Q 2097 3866 1919 4016 
Q 1791 4119 1609 4119 
Q 1397 4119 1231 3928 
Q 1006 3669 925 3112 
Q 844 2556 844 2016 
z
" transform="scale(0.015625)"/>
       </defs>
       <use xlink:href="#TimesNewRomanPSMT-30"/>
      </g>
     </g>
    </g>
    <g id="xtick_2">
     <g id="line2d_2">
      <g>
       <use xlink:href="#ma1d7406e42" x="357.992353" y="535.092969" style="stroke: #000000; stroke-width: 0.8"/>
      </g>
     </g>
     <g id="text_2">
      <!-- 1 -->
      <g transform="translate(354.992353 550.425469) scale(0.12 -0.12)">
       <defs>
        <path id="TimesNewRomanPSMT-31" d="M 750 3822 
L 1781 4325 
L 1884 4325 
L 1884 747 
Q 1884 391 1914 303 
Q 1944 216 2037 169 
Q 2131 122 2419 116 
L 2419 0 
L 825 0 
L 825 116 
Q 1125 122 1212 167 
Q 1300 213 1334 289 
Q 1369 366 1369 747 
L 1369 3034 
Q 1369 3497 1338 3628 
Q 1316 3728 1258 3775 
Q 1200 3822 1119 3822 
Q 1003 3822 797 3725 
L 750 3822 
z
" transform="scale(0.015625)"/>
       </defs>
       <use xlink:href="#TimesNewRomanPSMT-31"/>
      </g>
     </g>
    </g>
    <g id="xtick_3">
     <g id="line2d_3">
      <g>
       <use xlink:href="#ma1d7406e42" x="550.582178" y="535.092969" style="stroke: #000000; stroke-width: 0.8"/>
      </g>
     </g>
     <g id="text_3">
      <!-- 2 -->
      <g transform="translate(547.582178 550.425469) scale(0.12 -0.12)">
       <defs>
        <path id="TimesNewRomanPSMT-32" d="M 2934 816 
L 2638 0 
L 138 0 
L 138 116 
Q 1241 1122 1691 1759 
Q 2141 2397 2141 2925 
Q 2141 3328 1894 3587 
Q 1647 3847 1303 3847 
Q 991 3847 742 3664 
Q 494 3481 375 3128 
L 259 3128 
Q 338 3706 661 4015 
Q 984 4325 1469 4325 
Q 1984 4325 2329 3994 
Q 2675 3663 2675 3213 
Q 2675 2891 2525 2569 
Q 2294 2063 1775 1497 
Q 997 647 803 472 
L 1909 472 
Q 2247 472 2383 497 
Q 2519 522 2628 598 
Q 2738 675 2819 816 
L 2934 816 
z
" transform="scale(0.015625)"/>
       </defs>
       <use xlink:href="#TimesNewRomanPSMT-32"/>
      </g>
     </g>
    </g>
    <g id="xtick_4">
     <g id="line2d_4">
      <g>
       <use xlink:href="#ma1d7406e42" x="743.172003" y="535.092969" style="stroke: #000000; stroke-width: 0.8"/>
      </g>
     </g>
     <g id="text_4">
      <!-- 3 -->
      <g transform="translate(740.172003 550.425469) scale(0.12 -0.12)">
       <defs>
        <path id="TimesNewRomanPSMT-33" d="M 325 3431 
Q 506 3859 782 4092 
Q 1059 4325 1472 4325 
Q 1981 4325 2253 3994 
Q 2459 3747 2459 3466 
Q 2459 3003 1878 2509 
Q 2269 2356 2469 2072 
Q 2669 1788 2669 1403 
Q 2669 853 2319 450 
Q 1863 -75 997 -75 
Q 569 -75 414 31 
Q 259 138 259 259 
Q 259 350 332 419 
Q 406 488 509 488 
Q 588 488 669 463 
Q 722 447 909 348 
Q 1097 250 1169 231 
Q 1284 197 1416 197 
Q 1734 197 1970 444 
Q 2206 691 2206 1028 
Q 2206 1275 2097 1509 
Q 2016 1684 1919 1775 
Q 1784 1900 1550 2001 
Q 1316 2103 1072 2103 
L 972 2103 
L 972 2197 
Q 1219 2228 1467 2375 
Q 1716 2522 1828 2728 
Q 1941 2934 1941 3181 
Q 1941 3503 1739 3701 
Q 1538 3900 1238 3900 
Q 753 3900 428 3381 
L 325 3431 
z
" transform="scale(0.015625)"/>
       </defs>
       <use xlink:href="#TimesNewRomanPSMT-33"/>
      </g>
     </g>
    </g>
    <g id="text_5">
     <!-- Tipos de Classificação -->
     <g transform="translate(395.669453 566.019219) scale(0.13 -0.13)">
      <defs>
       <path id="TimesNewRomanPSMT-54" d="M 3703 4238 
L 3750 3244 
L 3631 3244 
Q 3597 3506 3538 3619 
Q 3441 3800 3280 3886 
Q 3119 3972 2856 3972 
L 2259 3972 
L 2259 734 
Q 2259 344 2344 247 
Q 2463 116 2709 116 
L 2856 116 
L 2856 0 
L 1059 0 
L 1059 116 
L 1209 116 
Q 1478 116 1591 278 
Q 1659 378 1659 734 
L 1659 3972 
L 1150 3972 
Q 853 3972 728 3928 
Q 566 3869 450 3700 
Q 334 3531 313 3244 
L 194 3244 
L 244 4238 
L 3703 4238 
z
" transform="scale(0.015625)"/>
       <path id="TimesNewRomanPSMT-69" d="M 928 4444 
Q 1059 4444 1151 4351 
Q 1244 4259 1244 4128 
Q 1244 3997 1151 3903 
Q 1059 3809 928 3809 
Q 797 3809 703 3903 
Q 609 3997 609 4128 
Q 609 4259 701 4351 
Q 794 4444 928 4444 
z
M 1188 2947 
L 1188 647 
Q 1188 378 1227 289 
Q 1266 200 1342 156 
Q 1419 113 1622 113 
L 1622 0 
L 231 0 
L 231 113 
Q 441 113 512 153 
Q 584 194 626 287 
Q 669 381 669 647 
L 669 1750 
Q 669 2216 641 2353 
Q 619 2453 572 2492 
Q 525 2531 444 2531 
Q 356 2531 231 2484 
L 188 2597 
L 1050 2947 
L 1188 2947 
z
" transform="scale(0.015625)"/>
       <path id="TimesNewRomanPSMT-70" d="M -6 2578 
L 875 2934 
L 994 2934 
L 994 2266 
Q 1216 2644 1439 2795 
Q 1663 2947 1909 2947 
Q 2341 2947 2628 2609 
Q 2981 2197 2981 1534 
Q 2981 794 2556 309 
Q 2206 -88 1675 -88 
Q 1444 -88 1275 -22 
Q 1150 25 994 166 
L 994 -706 
Q 994 -1000 1030 -1079 
Q 1066 -1159 1155 -1206 
Q 1244 -1253 1478 -1253 
L 1478 -1369 
L -22 -1369 
L -22 -1253 
L 56 -1253 
Q 228 -1256 350 -1188 
Q 409 -1153 442 -1076 
Q 475 -1000 475 -688 
L 475 2019 
Q 475 2297 450 2372 
Q 425 2447 370 2484 
Q 316 2522 222 2522 
Q 147 2522 31 2478 
L -6 2578 
z
M 994 2081 
L 994 1013 
Q 994 666 1022 556 
Q 1066 375 1236 237 
Q 1406 100 1666 100 
Q 1978 100 2172 344 
Q 2425 663 2425 1241 
Q 2425 1897 2138 2250 
Q 1938 2494 1663 2494 
Q 1513 2494 1366 2419 
Q 1253 2363 994 2081 
z
" transform="scale(0.015625)"/>
       <path id="TimesNewRomanPSMT-6f" d="M 1600 2947 
Q 2250 2947 2644 2453 
Q 2978 2031 2978 1484 
Q 2978 1100 2793 706 
Q 2609 313 2286 112 
Q 1963 -88 1566 -88 
Q 919 -88 538 428 
Q 216 863 216 1403 
Q 216 1797 411 2186 
Q 606 2575 925 2761 
Q 1244 2947 1600 2947 
z
M 1503 2744 
Q 1338 2744 1170 2645 
Q 1003 2547 900 2300 
Q 797 2053 797 1666 
Q 797 1041 1045 587 
Q 1294 134 1700 134 
Q 2003 134 2200 384 
Q 2397 634 2397 1244 
Q 2397 2006 2069 2444 
Q 1847 2744 1503 2744 
z
" transform="scale(0.015625)"/>
       <path id="TimesNewRomanPSMT-73" d="M 2050 2947 
L 2050 1972 
L 1947 1972 
Q 1828 2431 1642 2597 
Q 1456 2763 1169 2763 
Q 950 2763 815 2647 
Q 681 2531 681 2391 
Q 681 2216 781 2091 
Q 878 1963 1175 1819 
L 1631 1597 
Q 2266 1288 2266 781 
Q 2266 391 1970 151 
Q 1675 -88 1309 -88 
Q 1047 -88 709 6 
Q 606 38 541 38 
Q 469 38 428 -44 
L 325 -44 
L 325 978 
L 428 978 
Q 516 541 762 319 
Q 1009 97 1316 97 
Q 1531 97 1667 223 
Q 1803 350 1803 528 
Q 1803 744 1651 891 
Q 1500 1038 1047 1263 
Q 594 1488 453 1669 
Q 313 1847 313 2119 
Q 313 2472 555 2709 
Q 797 2947 1181 2947 
Q 1350 2947 1591 2875 
Q 1750 2828 1803 2828 
Q 1853 2828 1881 2850 
Q 1909 2872 1947 2947 
L 2050 2947 
z
" transform="scale(0.015625)"/>
       <path id="TimesNewRomanPSMT-20" transform="scale(0.015625)"/>
       <path id="TimesNewRomanPSMT-64" d="M 2222 322 
Q 2013 103 1813 7 
Q 1613 -88 1381 -88 
Q 913 -88 563 304 
Q 213 697 213 1313 
Q 213 1928 600 2439 
Q 988 2950 1597 2950 
Q 1975 2950 2222 2709 
L 2222 3238 
Q 2222 3728 2198 3840 
Q 2175 3953 2125 3993 
Q 2075 4034 2000 4034 
Q 1919 4034 1784 3984 
L 1744 4094 
L 2597 4444 
L 2738 4444 
L 2738 1134 
Q 2738 631 2761 520 
Q 2784 409 2836 365 
Q 2888 322 2956 322 
Q 3041 322 3181 375 
L 3216 266 
L 2366 -88 
L 2222 -88 
L 2222 322 
z
M 2222 541 
L 2222 2016 
Q 2203 2228 2109 2403 
Q 2016 2578 1861 2667 
Q 1706 2756 1559 2756 
Q 1284 2756 1069 2509 
Q 784 2184 784 1559 
Q 784 928 1059 592 
Q 1334 256 1672 256 
Q 1956 256 2222 541 
z
" transform="scale(0.015625)"/>
       <path id="TimesNewRomanPSMT-65" d="M 681 1784 
Q 678 1147 991 784 
Q 1303 422 1725 422 
Q 2006 422 2214 576 
Q 2422 731 2563 1106 
L 2659 1044 
Q 2594 616 2278 264 
Q 1963 -88 1488 -88 
Q 972 -88 605 314 
Q 238 716 238 1394 
Q 238 2128 614 2539 
Q 991 2950 1559 2950 
Q 2041 2950 2350 2633 
Q 2659 2316 2659 1784 
L 681 1784 
z
M 681 1966 
L 2006 1966 
Q 1991 2241 1941 2353 
Q 1863 2528 1708 2628 
Q 1553 2728 1384 2728 
Q 1125 2728 920 2526 
Q 716 2325 681 1966 
z
" transform="scale(0.015625)"/>
       <path id="TimesNewRomanPSMT-43" d="M 3853 4334 
L 3950 2894 
L 3853 2894 
Q 3659 3541 3300 3825 
Q 2941 4109 2438 4109 
Q 2016 4109 1675 3895 
Q 1334 3681 1139 3212 
Q 944 2744 944 2047 
Q 944 1472 1128 1050 
Q 1313 628 1683 403 
Q 2053 178 2528 178 
Q 2941 178 3256 354 
Q 3572 531 3950 1056 
L 4047 994 
Q 3728 428 3303 165 
Q 2878 -97 2294 -97 
Q 1241 -97 663 684 
Q 231 1266 231 2053 
Q 231 2688 515 3219 
Q 800 3750 1298 4042 
Q 1797 4334 2388 4334 
Q 2847 4334 3294 4109 
Q 3425 4041 3481 4041 
Q 3566 4041 3628 4100 
Q 3709 4184 3744 4334 
L 3853 4334 
z
" transform="scale(0.015625)"/>
       <path id="TimesNewRomanPSMT-6c" d="M 1184 4444 
L 1184 647 
Q 1184 378 1223 290 
Q 1263 203 1344 158 
Q 1425 113 1647 113 
L 1647 0 
L 244 0 
L 244 113 
Q 441 113 512 153 
Q 584 194 625 287 
Q 666 381 666 647 
L 666 3247 
Q 666 3731 644 3842 
Q 622 3953 573 3993 
Q 525 4034 450 4034 
Q 369 4034 244 3984 
L 191 4094 
L 1044 4444 
L 1184 4444 
z
" transform="scale(0.015625)"/>
       <path id="TimesNewRomanPSMT-61" d="M 1822 413 
Q 1381 72 1269 19 
Q 1100 -59 909 -59 
Q 613 -59 420 144 
Q 228 347 228 678 
Q 228 888 322 1041 
Q 450 1253 767 1440 
Q 1084 1628 1822 1897 
L 1822 2009 
Q 1822 2438 1686 2597 
Q 1550 2756 1291 2756 
Q 1094 2756 978 2650 
Q 859 2544 859 2406 
L 866 2225 
Q 866 2081 792 2003 
Q 719 1925 600 1925 
Q 484 1925 411 2006 
Q 338 2088 338 2228 
Q 338 2497 613 2722 
Q 888 2947 1384 2947 
Q 1766 2947 2009 2819 
Q 2194 2722 2281 2516 
Q 2338 2381 2338 1966 
L 2338 994 
Q 2338 584 2353 492 
Q 2369 400 2405 369 
Q 2441 338 2488 338 
Q 2538 338 2575 359 
Q 2641 400 2828 588 
L 2828 413 
Q 2478 -56 2159 -56 
Q 2006 -56 1915 50 
Q 1825 156 1822 413 
z
M 1822 616 
L 1822 1706 
Q 1350 1519 1213 1441 
Q 966 1303 859 1153 
Q 753 1003 753 825 
Q 753 600 887 451 
Q 1022 303 1197 303 
Q 1434 303 1822 616 
z
" transform="scale(0.015625)"/>
       <path id="TimesNewRomanPSMT-66" d="M 1319 2638 
L 1319 756 
Q 1319 356 1406 250 
Q 1522 113 1716 113 
L 1975 113 
L 1975 0 
L 266 0 
L 266 113 
L 394 113 
Q 519 113 622 175 
Q 725 238 764 344 
Q 803 450 803 756 
L 803 2638 
L 247 2638 
L 247 2863 
L 803 2863 
L 803 3050 
Q 803 3478 940 3775 
Q 1078 4072 1361 4255 
Q 1644 4438 1997 4438 
Q 2325 4438 2600 4225 
Q 2781 4084 2781 3909 
Q 2781 3816 2700 3733 
Q 2619 3650 2525 3650 
Q 2453 3650 2373 3701 
Q 2294 3753 2178 3923 
Q 2063 4094 1966 4153 
Q 1869 4213 1750 4213 
Q 1606 4213 1506 4136 
Q 1406 4059 1362 3898 
Q 1319 3738 1319 3069 
L 1319 2863 
L 2056 2863 
L 2056 2638 
L 1319 2638 
z
" transform="scale(0.015625)"/>
       <path id="TimesNewRomanPSMT-63" d="M 2631 1088 
Q 2516 522 2178 217 
Q 1841 -88 1431 -88 
Q 944 -88 581 321 
Q 219 731 219 1428 
Q 219 2103 620 2525 
Q 1022 2947 1584 2947 
Q 2006 2947 2278 2723 
Q 2550 2500 2550 2259 
Q 2550 2141 2473 2067 
Q 2397 1994 2259 1994 
Q 2075 1994 1981 2113 
Q 1928 2178 1911 2362 
Q 1894 2547 1784 2644 
Q 1675 2738 1481 2738 
Q 1169 2738 978 2506 
Q 725 2200 725 1697 
Q 725 1184 976 792 
Q 1228 400 1656 400 
Q 1963 400 2206 609 
Q 2378 753 2541 1131 
L 2631 1088 
z
" transform="scale(0.015625)"/>
       <path id="TimesNewRomanPSMT-e7" d="M 2631 1088 
Q 2516 522 2178 217 
Q 1841 -88 1431 -88 
Q 944 -88 581 321 
Q 219 731 219 1428 
Q 219 2103 620 2525 
Q 1022 2947 1584 2947 
Q 2006 2947 2278 2723 
Q 2550 2500 2550 2259 
Q 2550 2141 2473 2067 
Q 2397 1994 2259 1994 
Q 2075 1994 1981 2113 
Q 1928 2178 1911 2362 
Q 1894 2547 1784 2644 
Q 1675 2738 1481 2738 
Q 1169 2738 978 2506 
Q 725 2200 725 1697 
Q 725 1184 976 792 
Q 1228 400 1656 400 
Q 1963 400 2206 609 
Q 2378 753 2541 1131 
L 2631 1088 
z
M 1472 50 
L 1660 50 
L 1503 -197 
Q 1700 -247 1797 -365 
Q 1894 -484 1894 -653 
Q 1894 -878 1706 -1048 
Q 1519 -1219 1222 -1219 
Q 1107 -1219 928 -1197 
L 928 -1063 
Q 1016 -1075 1078 -1075 
Q 1238 -1075 1347 -970 
Q 1457 -866 1457 -731 
Q 1457 -638 1385 -569 
Q 1313 -500 1207 -500 
Q 1175 -500 1125 -506 
L 1472 50 
z
" transform="scale(0.015625)"/>
       <path id="TimesNewRomanPSMT-e3" d="M 1822 413 
Q 1381 72 1269 19 
Q 1100 -59 909 -59 
Q 613 -59 420 144 
Q 228 347 228 678 
Q 228 888 322 1041 
Q 450 1253 767 1440 
Q 1084 1628 1822 1897 
L 1822 2009 
Q 1822 2438 1686 2597 
Q 1550 2756 1291 2756 
Q 1094 2756 978 2650 
Q 859 2544 859 2406 
L 866 2225 
Q 866 2081 792 2003 
Q 719 1925 600 1925 
Q 484 1925 411 2006 
Q 338 2088 338 2228 
Q 338 2497 613 2722 
Q 888 2947 1384 2947 
Q 1766 2947 2009 2819 
Q 2194 2722 2281 2516 
Q 2338 2381 2338 1966 
L 2338 994 
Q 2338 584 2353 492 
Q 2369 400 2405 369 
Q 2441 338 2488 338 
Q 2538 338 2575 359 
Q 2641 400 2828 588 
L 2828 413 
Q 2478 -56 2159 -56 
Q 2006 -56 1915 50 
Q 1825 156 1822 413 
z
M 1822 616 
L 1822 1706 
Q 1350 1519 1213 1441 
Q 966 1303 859 1153 
Q 753 1003 753 825 
Q 753 600 887 451 
Q 1022 303 1197 303 
Q 1434 303 1822 616 
z
M 537 3428 
L 437 3428 
Q 449 3856 615 4047 
Q 781 4238 1024 4238 
Q 1152 4238 1259 4197 
Q 1399 4144 1657 3973 
Q 1915 3803 2040 3803 
Q 2140 3803 2216 3887 
Q 2293 3972 2337 4238 
L 2434 4238 
Q 2437 3947 2357 3776 
Q 2277 3606 2132 3511 
Q 1987 3416 1840 3416 
Q 1593 3416 1227 3666 
Q 1031 3800 962 3828 
Q 893 3856 827 3856 
Q 699 3856 624 3744 
Q 590 3691 537 3428 
z
" transform="scale(0.015625)"/>
      </defs>
      <use xlink:href="#TimesNewRomanPSMT-54"/>
      <use xlink:href="#TimesNewRomanPSMT-69" transform="translate(57.583984 0)"/>
      <use xlink:href="#TimesNewRomanPSMT-70" transform="translate(85.367188 0)"/>
      <use xlink:href="#TimesNewRomanPSMT-6f" transform="translate(135.367188 0)"/>
      <use xlink:href="#TimesNewRomanPSMT-73" transform="translate(185.367188 0)"/>
      <use xlink:href="#TimesNewRomanPSMT-20" transform="translate(224.283203 0)"/>
      <use xlink:href="#TimesNewRomanPSMT-64" transform="translate(249.283203 0)"/>
      <use xlink:href="#TimesNewRomanPSMT-65" transform="translate(299.283203 0)"/>
      <use xlink:href="#TimesNewRomanPSMT-20" transform="translate(343.667969 0)"/>
      <use xlink:href="#TimesNewRomanPSMT-43" transform="translate(368.667969 0)"/>
      <use xlink:href="#TimesNewRomanPSMT-6c" transform="translate(435.367188 0)"/>
      <use xlink:href="#TimesNewRomanPSMT-61" transform="translate(463.150391 0)"/>
      <use xlink:href="#TimesNewRomanPSMT-73" transform="translate(507.535156 0)"/>
      <use xlink:href="#TimesNewRomanPSMT-73" transform="translate(546.451172 0)"/>
      <use xlink:href="#TimesNewRomanPSMT-69" transform="translate(585.367188 0)"/>
      <use xlink:href="#TimesNewRomanPSMT-66" transform="translate(613.150391 0)"/>
      <use xlink:href="#TimesNewRomanPSMT-69" transform="translate(646.451172 0)"/>
      <use xlink:href="#TimesNewRomanPSMT-63" transform="translate(674.234375 0)"/>
      <use xlink:href="#TimesNewRomanPSMT-61" transform="translate(718.619141 0)"/>
      <use xlink:href="#TimesNewRomanPSMT-e7" transform="translate(763.003906 0)"/>
      <use xlink:href="#TimesNewRomanPSMT-e3" transform="translate(807.388672 0)"/>
      <use xlink:href="#TimesNewRomanPSMT-6f" transform="translate(851.773438 0)"/>
     </g>
    </g>
   </g>
   <g id="matplotlib.axis_2">
    <g id="ytick_1">
     <g id="line2d_5">
      <defs>
       <path id="mffce1e89cb" d="M 0 0 
L -3.5 0 
" style="stroke: #000000; stroke-width: 0.8"/>
      </defs>
      <g>
       <use xlink:href="#mffce1e89cb" x="51.774531" y="535.092969" style="stroke: #000000; stroke-width: 0.8"/>
      </g>
     </g>
     <g id="text_6">
      <!-- −0.2 -->
      <g transform="translate(23.007656 539.259219) scale(0.12 -0.12)">
       <defs>
        <path id="TimesNewRomanPSMT-2212" d="M 3484 2000 
L 116 2000 
L 116 2256 
L 3484 2256 
L 3484 2000 
z
" transform="scale(0.015625)"/>
        <path id="TimesNewRomanPSMT-2e" d="M 800 606 
Q 947 606 1047 504 
Q 1147 403 1147 259 
Q 1147 116 1045 14 
Q 944 -88 800 -88 
Q 656 -88 554 14 
Q 453 116 453 259 
Q 453 406 554 506 
Q 656 606 800 606 
z
" transform="scale(0.015625)"/>
       </defs>
       <use xlink:href="#TimesNewRomanPSMT-2212"/>
       <use xlink:href="#TimesNewRomanPSMT-30" transform="translate(56.396484 0)"/>
       <use xlink:href="#TimesNewRomanPSMT-2e" transform="translate(106.396484 0)"/>
       <use xlink:href="#TimesNewRomanPSMT-32" transform="translate(131.396484 0)"/>
      </g>
     </g>
    </g>
    <g id="ytick_2">
     <g id="line2d_6">
      <g>
       <use xlink:href="#mffce1e89cb" x="51.774531" y="460.274866" style="stroke: #000000; stroke-width: 0.8"/>
      </g>
     </g>
     <g id="text_7">
      <!-- 0.0 -->
      <g transform="translate(29.774531 464.441116) scale(0.12 -0.12)">
       <use xlink:href="#TimesNewRomanPSMT-30"/>
       <use xlink:href="#TimesNewRomanPSMT-2e" transform="translate(50 0)"/>
       <use xlink:href="#TimesNewRomanPSMT-30" transform="translate(75 0)"/>
      </g>
     </g>
    </g>
    <g id="ytick_3">
     <g id="line2d_7">
      <g>
       <use xlink:href="#mffce1e89cb" x="51.774531" y="385.456763" style="stroke: #000000; stroke-width: 0.8"/>
      </g>
     </g>
     <g id="text_8">
      <!-- 0.2 -->
      <g transform="translate(29.774531 389.623013) scale(0.12 -0.12)">
       <use xlink:href="#TimesNewRomanPSMT-30"/>
       <use xlink:href="#TimesNewRomanPSMT-2e" transform="translate(50 0)"/>
       <use xlink:href="#TimesNewRomanPSMT-32" transform="translate(75 0)"/>
      </g>
     </g>
    </g>
    <g id="ytick_4">
     <g id="line2d_8">
      <g>
       <use xlink:href="#mffce1e89cb" x="51.774531" y="310.638661" style="stroke: #000000; stroke-width: 0.8"/>
      </g>
     </g>
     <g id="text_9">
      <!-- 0.4 -->
      <g transform="translate(29.774531 314.804911) scale(0.12 -0.12)">
       <defs>
        <path id="TimesNewRomanPSMT-34" d="M 2978 1563 
L 2978 1119 
L 2409 1119 
L 2409 0 
L 1894 0 
L 1894 1119 
L 100 1119 
L 100 1519 
L 2066 4325 
L 2409 4325 
L 2409 1563 
L 2978 1563 
z
M 1894 1563 
L 1894 3666 
L 406 1563 
L 1894 1563 
z
" transform="scale(0.015625)"/>
       </defs>
       <use xlink:href="#TimesNewRomanPSMT-30"/>
       <use xlink:href="#TimesNewRomanPSMT-2e" transform="translate(50 0)"/>
       <use xlink:href="#TimesNewRomanPSMT-34" transform="translate(75 0)"/>
      </g>
     </g>
    </g>
    <g id="ytick_5">
     <g id="line2d_9">
      <g>
       <use xlink:href="#mffce1e89cb" x="51.774531" y="235.820558" style="stroke: #000000; stroke-width: 0.8"/>
      </g>
     </g>
     <g id="text_10">
      <!-- 0.6 -->
      <g transform="translate(29.774531 239.986808) scale(0.12 -0.12)">
       <defs>
        <path id="TimesNewRomanPSMT-36" d="M 2869 4325 
L 2869 4209 
Q 2456 4169 2195 4045 
Q 1934 3922 1679 3669 
Q 1425 3416 1258 3105 
Q 1091 2794 978 2366 
Q 1428 2675 1881 2675 
Q 2316 2675 2634 2325 
Q 2953 1975 2953 1425 
Q 2953 894 2631 456 
Q 2244 -75 1606 -75 
Q 1172 -75 869 213 
Q 275 772 275 1663 
Q 275 2231 503 2743 
Q 731 3256 1154 3653 
Q 1578 4050 1965 4187 
Q 2353 4325 2688 4325 
L 2869 4325 
z
M 925 2138 
Q 869 1716 869 1456 
Q 869 1156 980 804 
Q 1091 453 1309 247 
Q 1469 100 1697 100 
Q 1969 100 2183 356 
Q 2397 613 2397 1088 
Q 2397 1622 2184 2012 
Q 1972 2403 1581 2403 
Q 1463 2403 1327 2353 
Q 1191 2303 925 2138 
z
" transform="scale(0.015625)"/>
       </defs>
       <use xlink:href="#TimesNewRomanPSMT-30"/>
       <use xlink:href="#TimesNewRomanPSMT-2e" transform="translate(50 0)"/>
       <use xlink:href="#TimesNewRomanPSMT-36" transform="translate(75 0)"/>
      </g>
     </g>
    </g>
    <g id="ytick_6">
     <g id="line2d_10">
      <g>
       <use xlink:href="#mffce1e89cb" x="51.774531" y="161.002455" style="stroke: #000000; stroke-width: 0.8"/>
      </g>
     </g>
     <g id="text_11">
      <!-- 0.8 -->
      <g transform="translate(29.774531 165.168705) scale(0.12 -0.12)">
       <defs>
        <path id="TimesNewRomanPSMT-38" d="M 1228 2134 
Q 725 2547 579 2797 
Q 434 3047 434 3316 
Q 434 3728 753 4026 
Q 1072 4325 1600 4325 
Q 2113 4325 2425 4047 
Q 2738 3769 2738 3413 
Q 2738 3175 2569 2928 
Q 2400 2681 1866 2347 
Q 2416 1922 2594 1678 
Q 2831 1359 2831 1006 
Q 2831 559 2490 242 
Q 2150 -75 1597 -75 
Q 994 -75 656 303 
Q 388 606 388 966 
Q 388 1247 577 1523 
Q 766 1800 1228 2134 
z
M 1719 2469 
Q 2094 2806 2194 3001 
Q 2294 3197 2294 3444 
Q 2294 3772 2109 3958 
Q 1925 4144 1606 4144 
Q 1288 4144 1088 3959 
Q 888 3775 888 3528 
Q 888 3366 970 3203 
Q 1053 3041 1206 2894 
L 1719 2469 
z
M 1375 2016 
Q 1116 1797 991 1539 
Q 866 1281 866 981 
Q 866 578 1086 336 
Q 1306 94 1647 94 
Q 1984 94 2187 284 
Q 2391 475 2391 747 
Q 2391 972 2272 1150 
Q 2050 1481 1375 2016 
z
" transform="scale(0.015625)"/>
       </defs>
       <use xlink:href="#TimesNewRomanPSMT-30"/>
       <use xlink:href="#TimesNewRomanPSMT-2e" transform="translate(50 0)"/>
       <use xlink:href="#TimesNewRomanPSMT-38" transform="translate(75 0)"/>
      </g>
     </g>
    </g>
    <g id="ytick_7">
     <g id="line2d_11">
      <g>
       <use xlink:href="#mffce1e89cb" x="51.774531" y="86.184353" style="stroke: #000000; stroke-width: 0.8"/>
      </g>
     </g>
     <g id="text_12">
      <!-- 1.0 -->
      <g transform="translate(29.774531 90.350603) scale(0.12 -0.12)">
       <use xlink:href="#TimesNewRomanPSMT-31"/>
       <use xlink:href="#TimesNewRomanPSMT-2e" transform="translate(50 0)"/>
       <use xlink:href="#TimesNewRomanPSMT-30" transform="translate(75 0)"/>
      </g>
     </g>
    </g>
    <g id="ytick_8">
     <g id="line2d_12">
      <g>
       <use xlink:href="#mffce1e89cb" x="51.774531" y="11.36625" style="stroke: #000000; stroke-width: 0.8"/>
      </g>
     </g>
     <g id="text_13">
      <!-- 1.2 -->
      <g transform="translate(29.774531 15.5325) scale(0.12 -0.12)">
       <use xlink:href="#TimesNewRomanPSMT-31"/>
       <use xlink:href="#TimesNewRomanPSMT-2e" transform="translate(50 0)"/>
       <use xlink:href="#TimesNewRomanPSMT-32" transform="translate(75 0)"/>
      </g>
     </g>
    </g>
    <g id="text_14">
     <!-- Densidade -->
     <g transform="translate(16.226875 300.665703) rotate(-90) scale(0.13 -0.13)">
      <defs>
       <path id="TimesNewRomanPSMT-44" d="M 109 0 
L 109 116 
L 269 116 
Q 538 116 650 288 
Q 719 391 719 750 
L 719 3488 
Q 719 3884 631 3984 
Q 509 4122 269 4122 
L 109 4122 
L 109 4238 
L 1834 4238 
Q 2784 4238 3279 4022 
Q 3775 3806 4076 3303 
Q 4378 2800 4378 2141 
Q 4378 1256 3841 663 
Q 3238 0 2003 0 
L 109 0 
z
M 1319 306 
Q 1716 219 1984 219 
Q 2709 219 3187 728 
Q 3666 1238 3666 2109 
Q 3666 2988 3187 3494 
Q 2709 4000 1959 4000 
Q 1678 4000 1319 3909 
L 1319 306 
z
" transform="scale(0.015625)"/>
       <path id="TimesNewRomanPSMT-6e" d="M 1034 2341 
Q 1538 2947 1994 2947 
Q 2228 2947 2397 2830 
Q 2566 2713 2666 2444 
Q 2734 2256 2734 1869 
L 2734 647 
Q 2734 375 2778 278 
Q 2813 200 2889 156 
Q 2966 113 3172 113 
L 3172 0 
L 1756 0 
L 1756 113 
L 1816 113 
Q 2016 113 2095 173 
Q 2175 234 2206 353 
Q 2219 400 2219 647 
L 2219 1819 
Q 2219 2209 2117 2386 
Q 2016 2563 1775 2563 
Q 1403 2563 1034 2156 
L 1034 647 
Q 1034 356 1069 288 
Q 1113 197 1189 155 
Q 1266 113 1500 113 
L 1500 0 
L 84 0 
L 84 113 
L 147 113 
Q 366 113 442 223 
Q 519 334 519 647 
L 519 1709 
Q 519 2225 495 2337 
Q 472 2450 423 2490 
Q 375 2531 294 2531 
Q 206 2531 84 2484 
L 38 2597 
L 900 2947 
L 1034 2947 
L 1034 2341 
z
" transform="scale(0.015625)"/>
      </defs>
      <use xlink:href="#TimesNewRomanPSMT-44"/>
      <use xlink:href="#TimesNewRomanPSMT-65" transform="translate(72.216797 0)"/>
      <use xlink:href="#TimesNewRomanPSMT-6e" transform="translate(116.601562 0)"/>
      <use xlink:href="#TimesNewRomanPSMT-73" transform="translate(166.601562 0)"/>
      <use xlink:href="#TimesNewRomanPSMT-69" transform="translate(205.517578 0)"/>
      <use xlink:href="#TimesNewRomanPSMT-64" transform="translate(233.300781 0)"/>
      <use xlink:href="#TimesNewRomanPSMT-61" transform="translate(283.300781 0)"/>
      <use xlink:href="#TimesNewRomanPSMT-64" transform="translate(327.685547 0)"/>
      <use xlink:href="#TimesNewRomanPSMT-65" transform="translate(377.685547 0)"/>
     </g>
    </g>
   </g>
   <g id="patch_3">
    <path d="M 51.774531 535.092969 
L 51.774531 11.36625 
" style="fill: none; stroke: #000000; stroke-linejoin: miter; stroke-linecap: square"/>
   </g>
   <g id="patch_4">
    <path d="M 856.8 535.092969 
L 856.8 11.36625 
" style="fill: none; stroke: #000000; stroke-linejoin: miter; stroke-linecap: square"/>
   </g>
   <g id="patch_5">
    <path d="M 51.774531 535.092969 
L 856.8 535.092969 
" style="fill: none; stroke: #000000; stroke-linejoin: miter; stroke-linecap: square"/>
   </g>
   <g id="patch_6">
    <path d="M 51.774531 11.36625 
L 856.8 11.36625 
" style="fill: none; stroke: #000000; stroke-linejoin: miter; stroke-linecap: square"/>
   </g>
  </g>
  <g id="text_15">
   <!-- Comparação de Densidades -->
   <g transform="translate(337.33125 22.365) scale(0.16 -0.16)">
    <defs>
     <path id="TimesNewRomanPS-BoldMT-43" d="M 4272 4334 
L 4272 2866 
L 4150 2866 
Q 4013 3441 3638 3747 
Q 3263 4053 2788 4053 
Q 2391 4053 2059 3825 
Q 1728 3597 1575 3228 
Q 1378 2756 1378 2178 
Q 1378 1609 1522 1142 
Q 1666 675 1972 436 
Q 2278 197 2766 197 
Q 3166 197 3498 372 
Q 3831 547 4200 975 
L 4200 609 
Q 3844 238 3458 70 
Q 3072 -97 2556 -97 
Q 1878 -97 1351 175 
Q 825 447 539 956 
Q 253 1466 253 2041 
Q 253 2647 570 3190 
Q 888 3734 1427 4034 
Q 1966 4334 2572 4334 
Q 3019 4334 3516 4141 
Q 3803 4028 3881 4028 
Q 3981 4028 4054 4101 
Q 4128 4175 4150 4334 
L 4272 4334 
z
" transform="scale(0.015625)"/>
     <path id="TimesNewRomanPS-BoldMT-6f" d="M 1594 3009 
Q 1975 3009 2303 2812 
Q 2631 2616 2801 2253 
Q 2972 1891 2972 1459 
Q 2972 838 2656 419 
Q 2275 -88 1603 -88 
Q 944 -88 587 375 
Q 231 838 231 1447 
Q 231 2075 595 2542 
Q 959 3009 1594 3009 
z
M 1606 2788 
Q 1447 2788 1333 2667 
Q 1219 2547 1183 2192 
Q 1147 1838 1147 1206 
Q 1147 872 1191 581 
Q 1225 359 1337 243 
Q 1450 128 1594 128 
Q 1734 128 1828 206 
Q 1950 313 1991 503 
Q 2053 800 2053 1703 
Q 2053 2234 1993 2432 
Q 1934 2631 1819 2722 
Q 1738 2788 1606 2788 
z
" transform="scale(0.015625)"/>
     <path id="TimesNewRomanPS-BoldMT-6d" d="M 1428 2922 
L 1428 2538 
Q 1669 2800 1873 2904 
Q 2078 3009 2322 3009 
Q 2603 3009 2793 2878 
Q 2984 2747 3088 2478 
Q 3338 2759 3567 2884 
Q 3797 3009 4047 3009 
Q 4350 3009 4529 2870 
Q 4709 2731 4779 2517 
Q 4850 2303 4850 1834 
L 4850 638 
Q 4850 300 4911 219 
Q 4972 138 5166 113 
L 5166 0 
L 3656 0 
L 3656 113 
Q 3834 128 3919 250 
Q 3975 334 3975 638 
L 3975 1894 
Q 3975 2284 3944 2390 
Q 3913 2497 3845 2548 
Q 3778 2600 3688 2600 
Q 3553 2600 3415 2501 
Q 3278 2403 3138 2206 
L 3138 638 
Q 3138 322 3191 241 
Q 3263 125 3466 113 
L 3466 0 
L 1953 0 
L 1953 113 
Q 2075 119 2145 173 
Q 2216 228 2239 304 
Q 2263 381 2263 638 
L 2263 1894 
Q 2263 2291 2231 2391 
Q 2200 2491 2126 2547 
Q 2053 2603 1969 2603 
Q 1844 2603 1741 2538 
Q 1594 2441 1428 2206 
L 1428 638 
Q 1428 328 1489 229 
Q 1550 131 1744 113 
L 1744 0 
L 238 0 
L 238 113 
Q 422 131 500 231 
Q 553 300 553 638 
L 553 2288 
Q 553 2619 492 2700 
Q 431 2781 238 2806 
L 238 2922 
L 1428 2922 
z
" transform="scale(0.015625)"/>
     <path id="TimesNewRomanPS-BoldMT-70" d="M 1347 297 
L 1347 -791 
Q 1347 -1016 1383 -1097 
Q 1419 -1178 1494 -1215 
Q 1569 -1253 1788 -1253 
L 1788 -1369 
L 122 -1369 
L 122 -1253 
Q 316 -1247 409 -1144 
Q 472 -1072 472 -772 
L 472 2313 
Q 472 2622 400 2708 
Q 328 2794 122 2806 
L 122 2922 
L 1347 2922 
L 1347 2538 
Q 1500 2763 1659 2863 
Q 1888 3009 2156 3009 
Q 2478 3009 2742 2806 
Q 3006 2603 3143 2245 
Q 3281 1888 3281 1475 
Q 3281 1031 3139 664 
Q 2997 297 2726 104 
Q 2456 -88 2125 -88 
Q 1884 -88 1675 19 
Q 1519 100 1347 297 
z
M 1347 613 
Q 1616 231 1922 231 
Q 2091 231 2200 409 
Q 2363 672 2363 1409 
Q 2363 2166 2184 2444 
Q 2066 2628 1866 2628 
Q 1550 2628 1347 2172 
L 1347 613 
z
" transform="scale(0.015625)"/>
     <path id="TimesNewRomanPS-BoldMT-61" d="M 1828 431 
Q 1294 -41 869 -41 
Q 619 -41 453 123 
Q 288 288 288 534 
Q 288 869 575 1136 
Q 863 1403 1828 1847 
L 1828 2141 
Q 1828 2472 1792 2558 
Q 1756 2644 1656 2708 
Q 1556 2772 1431 2772 
Q 1228 2772 1097 2681 
Q 1016 2625 1016 2550 
Q 1016 2484 1103 2388 
Q 1222 2253 1222 2128 
Q 1222 1975 1108 1867 
Q 994 1759 809 1759 
Q 613 1759 480 1878 
Q 347 1997 347 2156 
Q 347 2381 525 2586 
Q 703 2791 1022 2900 
Q 1341 3009 1684 3009 
Q 2100 3009 2342 2832 
Q 2584 2656 2656 2450 
Q 2700 2319 2700 1847 
L 2700 713 
Q 2700 513 2715 461 
Q 2731 409 2762 384 
Q 2794 359 2834 359 
Q 2916 359 3000 475 
L 3094 400 
Q 2938 169 2770 64 
Q 2603 -41 2391 -41 
Q 2141 -41 2000 76 
Q 1859 194 1828 431 
z
M 1828 659 
L 1828 1638 
Q 1450 1416 1266 1163 
Q 1144 994 1144 822 
Q 1144 678 1247 569 
Q 1325 484 1466 484 
Q 1622 484 1828 659 
z
" transform="scale(0.015625)"/>
     <path id="TimesNewRomanPS-BoldMT-72" d="M 1428 2922 
L 1428 2259 
Q 1719 2713 1937 2861 
Q 2156 3009 2359 3009 
Q 2534 3009 2639 2901 
Q 2744 2794 2744 2597 
Q 2744 2388 2642 2272 
Q 2541 2156 2397 2156 
Q 2231 2156 2109 2262 
Q 1988 2369 1966 2381 
Q 1934 2400 1894 2400 
Q 1803 2400 1722 2331 
Q 1594 2225 1528 2028 
Q 1428 1725 1428 1359 
L 1428 688 
L 1431 513 
Q 1431 334 1453 284 
Q 1491 200 1564 161 
Q 1638 122 1813 113 
L 1813 0 
L 234 0 
L 234 113 
Q 425 128 492 217 
Q 559 306 559 688 
L 559 2303 
Q 559 2553 534 2622 
Q 503 2709 443 2750 
Q 384 2791 234 2806 
L 234 2922 
L 1428 2922 
z
" transform="scale(0.015625)"/>
     <path id="TimesNewRomanPS-BoldMT-e7" d="M 2600 753 
L 2697 678 
Q 2491 291 2183 101 
Q 1875 -88 1528 -88 
Q 944 -88 594 353 
Q 244 794 244 1413 
Q 244 2009 563 2463 
Q 947 3009 1622 3009 
Q 2075 3009 2342 2781 
Q 2609 2553 2609 2272 
Q 2609 2094 2501 1987 
Q 2394 1881 2219 1881 
Q 2034 1881 1914 2003 
Q 1794 2125 1766 2438 
Q 1747 2634 1675 2713 
Q 1603 2791 1506 2791 
Q 1356 2791 1250 2631 
Q 1088 2391 1088 1894 
Q 1088 1481 1219 1104 
Q 1350 728 1578 544 
Q 1750 409 1984 409 
Q 2138 409 2275 481 
Q 2413 553 2600 753 
z
M 1504 38 
L 1710 38 
L 1563 -191 
Q 1751 -222 1849 -342 
Q 1948 -463 1948 -644 
Q 1948 -806 1851 -940 
Q 1754 -1075 1604 -1128 
Q 1366 -1206 885 -1203 
L 885 -1056 
Q 1198 -1044 1309 -955 
Q 1420 -866 1420 -709 
Q 1420 -616 1346 -553 
Q 1273 -491 1135 -491 
L 1504 38 
z
" transform="scale(0.015625)"/>
     <path id="TimesNewRomanPS-BoldMT-e3" d="M 1828 431 
Q 1294 -41 869 -41 
Q 619 -41 453 123 
Q 288 288 288 534 
Q 288 869 575 1136 
Q 863 1403 1828 1847 
L 1828 2141 
Q 1828 2472 1792 2558 
Q 1756 2644 1656 2708 
Q 1556 2772 1431 2772 
Q 1228 2772 1097 2681 
Q 1016 2625 1016 2550 
Q 1016 2484 1103 2388 
Q 1222 2253 1222 2128 
Q 1222 1975 1108 1867 
Q 994 1759 809 1759 
Q 613 1759 480 1878 
Q 347 1997 347 2156 
Q 347 2381 525 2586 
Q 703 2791 1022 2900 
Q 1341 3009 1684 3009 
Q 2100 3009 2342 2832 
Q 2584 2656 2656 2450 
Q 2700 2319 2700 1847 
L 2700 713 
Q 2700 513 2715 461 
Q 2731 409 2762 384 
Q 2794 359 2834 359 
Q 2916 359 3000 475 
L 3094 400 
Q 2938 169 2770 64 
Q 2603 -41 2391 -41 
Q 2141 -41 2000 76 
Q 1859 194 1828 431 
z
M 1828 659 
L 1828 1638 
Q 1450 1416 1266 1163 
Q 1144 994 1144 822 
Q 1144 678 1247 569 
Q 1325 484 1466 484 
Q 1622 484 1828 659 
z
M 2428 4275 
L 2593 4275 
Q 2596 4213 2596 4169 
Q 2596 3825 2402 3615 
Q 2209 3406 1934 3406 
Q 1731 3406 1423 3553 
Q 1115 3700 1012 3700 
Q 918 3700 855 3637 
Q 793 3575 768 3413 
L 587 3413 
Q 575 3819 773 4050 
Q 971 4281 1262 4281 
Q 1356 4281 1418 4263 
Q 1506 4238 1718 4138 
Q 2040 3991 2178 3991 
Q 2246 3991 2308 4047 
Q 2371 4103 2428 4275 
z
" transform="scale(0.015625)"/>
     <path id="TimesNewRomanPS-BoldMT-20" transform="scale(0.015625)"/>
     <path id="TimesNewRomanPS-BoldMT-64" d="M 3056 4238 
L 3056 875 
Q 3056 534 3075 472 
Q 3100 369 3170 319 
Q 3241 269 3416 256 
L 3416 153 
L 2181 -88 
L 2181 375 
Q 1959 106 1786 9 
Q 1613 -88 1394 -88 
Q 834 -88 509 413 
Q 247 819 247 1409 
Q 247 1881 409 2254 
Q 572 2628 855 2818 
Q 1138 3009 1463 3009 
Q 1672 3009 1834 2928 
Q 1997 2847 2181 2644 
L 2181 3525 
Q 2181 3859 2153 3928 
Q 2116 4019 2041 4062 
Q 1966 4106 1759 4106 
L 1759 4238 
L 3056 4238 
z
M 2181 2256 
Q 1950 2700 1616 2700 
Q 1500 2700 1425 2638 
Q 1309 2541 1236 2297 
Q 1163 2053 1163 1550 
Q 1163 997 1244 731 
Q 1325 466 1466 347 
Q 1538 288 1663 288 
Q 1938 288 2181 719 
L 2181 2256 
z
" transform="scale(0.015625)"/>
     <path id="TimesNewRomanPS-BoldMT-65" d="M 2691 1566 
L 1088 1566 
Q 1116 984 1397 647 
Q 1613 388 1916 388 
Q 2103 388 2256 492 
Q 2409 597 2584 869 
L 2691 800 
Q 2453 316 2165 114 
Q 1878 -88 1500 -88 
Q 850 -88 516 413 
Q 247 816 247 1413 
Q 247 2144 642 2576 
Q 1038 3009 1569 3009 
Q 2013 3009 2339 2645 
Q 2666 2281 2691 1566 
z
M 1922 1775 
Q 1922 2278 1867 2465 
Q 1813 2653 1697 2750 
Q 1631 2806 1522 2806 
Q 1359 2806 1256 2647 
Q 1072 2369 1072 1884 
L 1072 1775 
L 1922 1775 
z
" transform="scale(0.015625)"/>
     <path id="TimesNewRomanPS-BoldMT-44" d="M 84 0 
L 84 116 
L 225 116 
Q 409 116 507 173 
Q 606 231 653 331 
Q 681 397 681 725 
L 681 3513 
Q 681 3838 647 3919 
Q 613 4000 508 4061 
Q 403 4122 225 4122 
L 84 4122 
L 84 4238 
L 1981 4238 
Q 2741 4238 3203 4031 
Q 3769 3778 4061 3265 
Q 4353 2753 4353 2106 
Q 4353 1659 4209 1282 
Q 4066 906 3837 661 
Q 3609 416 3311 267 
Q 3013 119 2581 38 
Q 2391 0 1981 0 
L 84 0 
z
M 1700 3997 
L 1700 691 
Q 1700 428 1725 368 
Q 1750 309 1809 278 
Q 1894 231 2053 231 
Q 2575 231 2850 588 
Q 3225 1069 3225 2081 
Q 3225 2897 2969 3384 
Q 2766 3766 2447 3903 
Q 2222 4000 1700 3997 
z
" transform="scale(0.015625)"/>
     <path id="TimesNewRomanPS-BoldMT-6e" d="M 1409 2922 
L 1409 2544 
Q 1634 2788 1840 2898 
Q 2047 3009 2284 3009 
Q 2569 3009 2756 2851 
Q 2944 2694 3006 2459 
Q 3056 2281 3056 1775 
L 3056 638 
Q 3056 300 3117 217 
Q 3178 134 3372 113 
L 3372 0 
L 1894 0 
L 1894 113 
Q 2059 134 2131 250 
Q 2181 328 2181 638 
L 2181 1938 
Q 2181 2297 2153 2390 
Q 2125 2484 2058 2536 
Q 1991 2588 1909 2588 
Q 1641 2588 1409 2203 
L 1409 638 
Q 1409 309 1470 221 
Q 1531 134 1697 113 
L 1697 0 
L 219 0 
L 219 113 
Q 403 131 481 231 
Q 534 300 534 638 
L 534 2288 
Q 534 2619 473 2700 
Q 413 2781 219 2806 
L 219 2922 
L 1409 2922 
z
" transform="scale(0.015625)"/>
     <path id="TimesNewRomanPS-BoldMT-73" d="M 2063 3003 
L 2109 2006 
L 2003 2006 
Q 1813 2450 1608 2612 
Q 1403 2775 1200 2775 
Q 1072 2775 981 2689 
Q 891 2603 891 2491 
Q 891 2406 953 2328 
Q 1053 2200 1512 1889 
Q 1972 1578 2117 1361 
Q 2263 1144 2263 875 
Q 2263 631 2141 397 
Q 2019 163 1797 37 
Q 1575 -88 1306 -88 
Q 1097 -88 747 44 
Q 653 78 619 78 
Q 516 78 447 -78 
L 344 -78 
L 294 972 
L 400 972 
Q 541 559 786 353 
Q 1031 147 1250 147 
Q 1400 147 1495 239 
Q 1591 331 1591 463 
Q 1591 613 1497 722 
Q 1403 831 1078 1053 
Q 600 1384 459 1559 
Q 253 1816 253 2125 
Q 253 2463 486 2736 
Q 719 3009 1159 3009 
Q 1397 3009 1619 2894 
Q 1703 2847 1756 2847 
Q 1813 2847 1847 2870 
Q 1881 2894 1956 3003 
L 2063 3003 
z
" transform="scale(0.015625)"/>
     <path id="TimesNewRomanPS-BoldMT-69" d="M 919 4338 
Q 1122 4338 1262 4195 
Q 1403 4053 1403 3853 
Q 1403 3653 1261 3512 
Q 1119 3372 919 3372 
Q 719 3372 578 3512 
Q 438 3653 438 3853 
Q 438 4053 578 4195 
Q 719 4338 919 4338 
z
M 1356 2922 
L 1356 606 
Q 1356 297 1428 211 
Q 1500 125 1709 113 
L 1709 0 
L 131 0 
L 131 113 
Q 325 119 419 225 
Q 481 297 481 606 
L 481 2313 
Q 481 2622 409 2708 
Q 338 2794 131 2806 
L 131 2922 
L 1356 2922 
z
" transform="scale(0.015625)"/>
    </defs>
    <use xlink:href="#TimesNewRomanPS-BoldMT-43"/>
    <use xlink:href="#TimesNewRomanPS-BoldMT-6f" transform="translate(72.216797 0)"/>
    <use xlink:href="#TimesNewRomanPS-BoldMT-6d" transform="translate(122.216797 0)"/>
    <use xlink:href="#TimesNewRomanPS-BoldMT-70" transform="translate(205.517578 0)"/>
    <use xlink:href="#TimesNewRomanPS-BoldMT-61" transform="translate(261.132812 0)"/>
    <use xlink:href="#TimesNewRomanPS-BoldMT-72" transform="translate(311.132812 0)"/>
    <use xlink:href="#TimesNewRomanPS-BoldMT-61" transform="translate(355.517578 0)"/>
    <use xlink:href="#TimesNewRomanPS-BoldMT-e7" transform="translate(405.517578 0)"/>
    <use xlink:href="#TimesNewRomanPS-BoldMT-e3" transform="translate(449.902344 0)"/>
    <use xlink:href="#TimesNewRomanPS-BoldMT-6f" transform="translate(499.902344 0)"/>
    <use xlink:href="#TimesNewRomanPS-BoldMT-20" transform="translate(549.902344 0)"/>
    <use xlink:href="#TimesNewRomanPS-BoldMT-64" transform="translate(574.902344 0)"/>
    <use xlink:href="#TimesNewRomanPS-BoldMT-65" transform="translate(630.517578 0)"/>
    <use xlink:href="#TimesNewRomanPS-BoldMT-20" transform="translate(674.902344 0)"/>
    <use xlink:href="#TimesNewRomanPS-BoldMT-44" transform="translate(699.902344 0)"/>
    <use xlink:href="#TimesNewRomanPS-BoldMT-65" transform="translate(772.119141 0)"/>
    <use xlink:href="#TimesNewRomanPS-BoldMT-6e" transform="translate(816.503906 0)"/>
    <use xlink:href="#TimesNewRomanPS-BoldMT-73" transform="translate(872.119141 0)"/>
    <use xlink:href="#TimesNewRomanPS-BoldMT-69" transform="translate(911.035156 0)"/>
    <use xlink:href="#TimesNewRomanPS-BoldMT-64" transform="translate(938.818359 0)"/>
    <use xlink:href="#TimesNewRomanPS-BoldMT-61" transform="translate(994.433594 0)"/>
    <use xlink:href="#TimesNewRomanPS-BoldMT-64" transform="translate(1044.433594 0)"/>
    <use xlink:href="#TimesNewRomanPS-BoldMT-65" transform="translate(1100.048828 0)"/>
    <use xlink:href="#TimesNewRomanPS-BoldMT-73" transform="translate(1144.433594 0)"/>
   </g>
  </g>
 </g>
 <defs>
  <clipPath id="pcfbd26a8dc">
   <rect x="51.774531" y="11.36625" width="805.025469" height="523.726719"/>
  </clipPath>
 </defs>
</svg>
