<?xml version="1.0" encoding="utf-8" standalone="no"?>
<!DOCTYPE svg PUBLIC "-//W3C//DTD SVG 1.1//EN"
  "http://www.w3.org/Graphics/SVG/1.1/DTD/svg11.dtd">
<svg xmlns:xlink="http://www.w3.org/1999/xlink" width="568.639219pt" height="438.723437pt" viewBox="0 0 568.639219 438.723437" xmlns="http://www.w3.org/2000/svg" version="1.1">
 <metadata>
  <rdf:RDF xmlns:dc="http://purl.org/dc/elements/1.1/" xmlns:cc="http://creativecommons.org/ns#" xmlns:rdf="http://www.w3.org/1999/02/22-rdf-syntax-ns#">
   <cc:Work>
    <dc:type rdf:resource="http://purl.org/dc/dcmitype/StillImage"/>
    <dc:date>2026-01-16T17:13:06.793946</dc:date>
    <dc:format>image/svg+xml</dc:format>
    <dc:creator>
     <cc:Agent>
      <dc:title>Matplotlib v3.10.1, https://matplotlib.org/</dc:title>
     </cc:Agent>
    </dc:creator>
   </cc:Work>
  </rdf:RDF>
 </metadata>
 <defs>
  <style type="text/css">*{stroke-linejoin: round; stroke-linecap: butt}</style>
 </defs>
 <g id="figure_1">
  <g id="patch_1">
   <path d="M 0 438.723437 
L 568.639219 438.723437 
L 568.639219 0 
L 0 0 
z
" style="fill: #ffffff"/>
  </g>
  <g id="axes_1">
   <g id="patch_2">
    <path d="M 52.039219 390.24 
L 554.239219 390.24 
L 554.239219 57.6 
L 52.039219 57.6 
z
" style="fill: #ffffff"/>
   </g>
   <g id="FillBetweenPolyCollection_1">
    <path d="M 109.677475 223.92 
L 105.276287 223.92 
L 105.065906 222.392727 
L 104.852926 220.865455 
L 104.637251 219.338182 
L 104.418443 217.810909 
L 104.195915 216.283636 
L 103.96915 214.756364 
L 103.737941 213.229091 
L 103.502576 211.701818 
L 103.263973 210.174545 
L 103.023721 208.647273 
L 102.78401 207.12 
L 102.547482 205.592727 
L 102.31699 204.065455 
L 102.09532 202.538182 
L 101.884888 201.010909 
L 101.687475 199.483636 
L 101.50401 197.956364 
L 101.334431 196.429091 
L 101.177651 194.901818 
L 101.031608 193.374545 
L 100.893423 191.847273 
L 100.759616 190.32 
L 100.626394 188.792727 
L 100.489966 187.265455 
L 100.346863 185.738182 
L 100.194246 184.210909 
L 100.030157 182.683636 
L 99.853705 181.156364 
L 99.665153 179.629091 
L 99.46589 178.101818 
L 99.258286 176.574545 
L 99.045426 175.047273 
L 98.830747 173.52 
L 98.617606 171.992727 
L 98.40883 170.465455 
L 98.2063 168.938182 
L 98.01062 167.410909 
L 97.820922 165.883636 
L 97.634849 164.356364 
L 97.448709 162.829091 
L 97.257802 161.301818 
L 97.05688 159.774545 
L 96.840672 158.247273 
L 96.604415 156.72 
L 96.344308 155.192727 
L 96.057836 153.665455 
L 95.743923 152.138182 
L 95.402887 150.610909 
L 95.036229 149.083636 
L 94.646293 147.556364 
L 94.235853 146.029091 
L 93.807707 144.501818 
L 93.364355 142.974545 
L 92.907796 141.447273 
L 92.439496 139.92 
L 91.960518 138.392727 
L 91.471786 136.865455 
L 90.97444 135.338182 
L 90.470196 133.810909 
L 89.961655 132.283636 
L 89.452472 130.756364 
L 88.947352 129.229091 
L 88.451835 127.701818 
L 87.971876 126.174545 
L 87.513256 124.647273 
L 87.080886 123.12 
L 86.678077 121.592727 
L 86.305871 120.065455 
L 85.962512 118.538182 
L 85.643141 117.010909 
L 85.339766 115.483636 
L 85.041531 113.956364 
L 84.735302 112.429091 
L 84.406517 110.901818 
L 84.040278 109.374545 
L 83.622581 107.847273 
L 83.141622 106.32 
L 82.589073 104.792727 
L 81.961243 103.265455 
L 81.260025 101.738182 
L 80.493575 100.210909 
L 79.676644 98.683636 
L 78.830527 97.156364 
L 77.982613 95.629091 
L 77.165526 94.101818 
L 76.415872 92.574545 
L 75.772643 91.047273 
L 75.275338 89.52 
L 74.961887 87.992727 
L 74.866491 86.465455 
L 75.017508 84.938182 
L 75.435527 83.410909 
L 76.13178 81.883636 
L 77.107034 80.356364 
L 78.351071 78.829091 
L 79.84284 77.301818 
L 81.551306 75.774545 
L 83.436958 74.247273 
L 85.453889 72.72 
L 129.499873 72.72 
L 129.499873 72.72 
L 131.516804 74.247273 
L 133.402456 75.774545 
L 135.110922 77.301818 
L 136.602691 78.829091 
L 137.846728 80.356364 
L 138.821982 81.883636 
L 139.518235 83.410909 
L 139.936254 84.938182 
L 140.087271 86.465455 
L 139.991875 87.992727 
L 139.678425 89.52 
L 139.18112 91.047273 
L 138.53789 92.574545 
L 137.788236 94.101818 
L 136.971149 95.629091 
L 136.123236 97.156364 
L 135.277118 98.683636 
L 134.460187 100.210909 
L 133.693737 101.738182 
L 132.99252 103.265455 
L 132.364689 104.792727 
L 131.81214 106.32 
L 131.331181 107.847273 
L 130.913484 109.374545 
L 130.547245 110.901818 
L 130.21846 112.429091 
L 129.912231 113.956364 
L 129.613996 115.483636 
L 129.310621 117.010909 
L 128.99125 118.538182 
L 128.647891 120.065455 
L 128.275685 121.592727 
L 127.872876 123.12 
L 127.440506 124.647273 
L 126.981886 126.174545 
L 126.501927 127.701818 
L 126.00641 129.229091 
L 125.50129 130.756364 
L 124.992107 132.283636 
L 124.483566 133.810909 
L 123.979322 135.338182 
L 123.481976 136.865455 
L 122.993245 138.392727 
L 122.514266 139.92 
L 122.045966 141.447273 
L 121.589407 142.974545 
L 121.146055 144.501818 
L 120.717909 146.029091 
L 120.307469 147.556364 
L 119.917533 149.083636 
L 119.550876 150.610909 
L 119.209839 152.138182 
L 118.895926 153.665455 
L 118.609454 155.192727 
L 118.349347 156.72 
L 118.11309 158.247273 
L 117.896882 159.774545 
L 117.69596 161.301818 
L 117.505053 162.829091 
L 117.318913 164.356364 
L 117.13284 165.883636 
L 116.943142 167.410909 
L 116.747462 168.938182 
L 116.544932 170.465455 
L 116.336156 171.992727 
L 116.123015 173.52 
L 115.908336 175.047273 
L 115.695476 176.574545 
L 115.487872 178.101818 
L 115.288609 179.629091 
L 115.100057 181.156364 
L 114.923605 182.683636 
L 114.759516 184.210909 
L 114.606899 185.738182 
L 114.463796 187.265455 
L 114.327368 188.792727 
L 114.194146 190.32 
L 114.060339 191.847273 
L 113.922154 193.374545 
L 113.776112 194.901818 
L 113.619331 196.429091 
L 113.449752 197.956364 
L 113.266287 199.483636 
L 113.068874 201.010909 
L 112.858443 202.538182 
L 112.636772 204.065455 
L 112.406281 205.592727 
L 112.169752 207.12 
L 111.930042 208.647273 
L 111.689789 210.174545 
L 111.451187 211.701818 
L 111.215821 213.229091 
L 110.984612 214.756364 
L 110.757848 216.283636 
L 110.535319 217.810909 
L 110.316511 219.338182 
L 110.100836 220.865455 
L 109.887856 222.392727 
L 109.677475 223.92 
z
" clip-path="url(#pa5422ea5ae)" style="fill: #2e86ab; fill-opacity: 0.3"/>
   </g>
   <g id="FillBetweenPolyCollection_2">
    <path d="M 266.318521 375.12 
L 209.518358 375.12 
L 207.421285 373.623273 
L 205.998239 372.126545 
L 205.30805 370.629818 
L 205.347739 369.133091 
L 206.057439 367.636364 
L 207.332712 366.139636 
L 209.041361 364.642909 
L 211.041373 363.146182 
L 213.196963 361.649455 
L 215.390626 360.152727 
L 217.530252 358.656 
L 219.551426 357.159273 
L 221.415811 355.662545 
L 223.106868 354.165818 
L 224.624242 352.669091 
L 225.977911 351.172364 
L 227.182944 349.675636 
L 228.255347 348.178909 
L 229.209264 346.682182 
L 230.055531 345.185455 
L 230.801455 343.688727 
L 231.451568 342.192 
L 232.009002 340.695273 
L 232.477114 339.198545 
L 232.860973 337.701818 
L 233.168371 336.205091 
L 233.410145 334.708364 
L 233.599734 333.211636 
L 233.752062 331.714909 
L 233.881982 330.218182 
L 234.002614 328.721455 
L 234.12393 327.224727 
L 234.25187 325.728 
L 234.388161 324.231273 
L 234.530838 322.734545 
L 234.675318 321.237818 
L 234.815781 319.741091 
L 234.946547 318.244364 
L 235.063197 316.747636 
L 235.163239 315.250909 
L 235.246276 313.754182 
L 235.313721 312.257455 
L 235.3682 310.760727 
L 235.412829 309.264 
L 235.450539 307.767273 
L 235.483587 306.270545 
L 235.513321 304.773818 
L 235.540196 303.277091 
L 235.564009 301.780364 
L 235.584259 300.283636 
L 235.600547 298.786909 
L 235.612936 297.290182 
L 235.622184 295.793455 
L 235.629824 294.296727 
L 235.638057 292.8 
L 235.649472 291.303273 
L 235.666627 289.806545 
L 235.691583 288.309818 
L 235.725477 286.813091 
L 235.768246 285.316364 
L 235.818578 283.819636 
L 235.874128 282.322909 
L 235.931958 280.826182 
L 235.989109 279.329455 
L 236.043184 277.832727 
L 236.092792 276.336 
L 236.137776 274.839273 
L 236.179187 273.342545 
L 236.219033 271.845818 
L 236.259884 270.349091 
L 236.304428 268.852364 
L 236.355061 267.355636 
L 236.413561 265.858909 
L 236.480865 264.362182 
L 236.556939 262.865455 
L 236.640731 261.368727 
L 236.730206 259.872 
L 236.822465 258.375273 
L 236.913958 256.878545 
L 237.000798 255.381818 
L 237.079163 253.885091 
L 237.145721 252.388364 
L 237.198033 250.891636 
L 237.234866 249.394909 
L 237.25634 247.898182 
L 237.263924 246.401455 
L 237.260259 244.904727 
L 237.248865 243.408 
L 237.233773 241.911273 
L 237.219146 240.414545 
L 237.208911 238.917818 
L 237.206436 237.421091 
L 237.214269 235.924364 
L 237.233945 234.427636 
L 237.265878 232.930909 
L 237.309355 231.434182 
L 237.362641 229.937455 
L 237.423196 228.440727 
L 237.487972 226.944 
L 238.348907 226.944 
L 238.348907 226.944 
L 238.413683 228.440727 
L 238.474238 229.937455 
L 238.527524 231.434182 
L 238.571001 232.930909 
L 238.602934 234.427636 
L 238.62261 235.924364 
L 238.630443 237.421091 
L 238.627968 238.917818 
L 238.617733 240.414545 
L 238.603106 241.911273 
L 238.588014 243.408 
L 238.57662 244.904727 
L 238.572955 246.401455 
L 238.580539 247.898182 
L 238.602013 249.394909 
L 238.638846 250.891636 
L 238.691158 252.388364 
L 238.757716 253.885091 
L 238.836081 255.381818 
L 238.922921 256.878545 
L 239.014414 258.375273 
L 239.106673 259.872 
L 239.196149 261.368727 
L 239.27994 262.865455 
L 239.356014 264.362182 
L 239.423318 265.858909 
L 239.481818 267.355636 
L 239.532451 268.852364 
L 239.576995 270.349091 
L 239.617846 271.845818 
L 239.657692 273.342545 
L 239.699103 274.839273 
L 239.744087 276.336 
L 239.793695 277.832727 
L 239.84777 279.329455 
L 239.904922 280.826182 
L 239.962751 282.322909 
L 240.018301 283.819636 
L 240.068633 285.316364 
L 240.111402 286.813091 
L 240.145297 288.309818 
L 240.170252 289.806545 
L 240.187407 291.303273 
L 240.198822 292.8 
L 240.207055 294.296727 
L 240.214695 295.793455 
L 240.223943 297.290182 
L 240.236332 298.786909 
L 240.252621 300.283636 
L 240.27287 301.780364 
L 240.296683 303.277091 
L 240.323558 304.773818 
L 240.353292 306.270545 
L 240.386341 307.767273 
L 240.42405 309.264 
L 240.468679 310.760727 
L 240.523158 312.257455 
L 240.590603 313.754182 
L 240.67364 315.250909 
L 240.773682 316.747636 
L 240.890332 318.244364 
L 241.021099 319.741091 
L 241.161561 321.237818 
L 241.306041 322.734545 
L 241.448718 324.231273 
L 241.585009 325.728 
L 241.712949 327.224727 
L 241.834265 328.721455 
L 241.954897 330.218182 
L 242.084817 331.714909 
L 242.237145 333.211636 
L 242.426734 334.708364 
L 242.668508 336.205091 
L 242.975906 337.701818 
L 243.359765 339.198545 
L 243.827877 340.695273 
L 244.385311 342.192 
L 245.035424 343.688727 
L 245.781348 345.185455 
L 246.627615 346.682182 
L 247.581532 348.178909 
L 248.653935 349.675636 
L 249.858968 351.172364 
L 251.212637 352.669091 
L 252.730011 354.165818 
L 254.421068 355.662545 
L 256.285453 357.159273 
L 258.306627 358.656 
L 260.446253 360.152727 
L 262.639916 361.649455 
L 264.795506 363.146182 
L 266.795518 364.642909 
L 268.504168 366.139636 
L 269.77944 367.636364 
L 270.48914 369.133091 
L 270.528829 370.629818 
L 269.83864 372.126545 
L 268.415594 373.623273 
L 266.318521 375.12 
z
" clip-path="url(#pa5422ea5ae)" style="fill: #2e86ab; fill-opacity: 0.3"/>
   </g>
   <g id="FillBetweenPolyCollection_3">
    <path d="M 387.017307 375.12 
L 349.702689 375.12 
L 348.858866 373.653818 
L 348.024528 372.187636 
L 347.202085 370.721455 
L 346.393786 369.255273 
L 345.601729 367.789091 
L 344.827873 366.322909 
L 344.07406 364.856727 
L 343.34204 363.390545 
L 342.633497 361.924364 
L 341.950072 360.458182 
L 341.293394 358.992 
L 340.665096 357.525818 
L 340.066834 356.059636 
L 339.500294 354.593455 
L 338.967192 353.127273 
L 338.469272 351.661091 
L 338.008283 350.194909 
L 337.585956 348.728727 
L 337.203974 347.262545 
L 336.863923 345.796364 
L 336.567257 344.330182 
L 336.315239 342.864 
L 336.108894 341.397818 
L 335.948956 339.931636 
L 335.835821 338.465455 
L 335.769506 336.999273 
L 335.749608 335.533091 
L 335.775284 334.066909 
L 335.845227 332.600727 
L 335.957667 331.134545 
L 336.110377 329.668364 
L 336.30069 328.202182 
L 336.525531 326.736 
L 336.78146 325.269818 
L 337.064724 323.803636 
L 337.371313 322.337455 
L 337.69703 320.871273 
L 338.037559 319.405091 
L 338.388534 317.938909 
L 338.745614 316.472727 
L 339.104545 315.006545 
L 339.461231 313.540364 
L 339.811784 312.074182 
L 340.152577 310.608 
L 340.480286 309.141818 
L 340.791916 307.675636 
L 341.084828 306.209455 
L 341.356749 304.743273 
L 341.605774 303.277091 
L 341.830368 301.810909 
L 342.029347 300.344727 
L 342.20187 298.878545 
L 342.347411 297.412364 
L 342.465745 295.946182 
L 342.556918 294.48 
L 342.621231 293.013818 
L 342.659215 291.547636 
L 342.671616 290.081455 
L 342.659384 288.615273 
L 342.623658 287.149091 
L 342.565766 285.682909 
L 342.487221 284.216727 
L 342.389726 282.750545 
L 342.275179 281.284364 
L 342.14568 279.818182 
L 342.003538 278.352 
L 341.851281 276.885818 
L 341.69166 275.419636 
L 341.52765 273.953455 
L 341.36245 272.487273 
L 341.199473 271.021091 
L 341.042331 269.554909 
L 340.894815 268.088727 
L 340.760864 266.622545 
L 340.644525 265.156364 
L 340.549912 263.690182 
L 340.481154 262.224 
L 340.442335 260.757818 
L 340.437432 259.291636 
L 340.470251 257.825455 
L 340.544359 256.359273 
L 340.663017 254.893091 
L 340.829113 253.426909 
L 341.045102 251.960727 
L 341.312951 250.494545 
L 341.634087 249.028364 
L 342.009359 247.562182 
L 342.439011 246.096 
L 342.922656 244.629818 
L 343.459275 243.163636 
L 344.047219 241.697455 
L 344.684226 240.231273 
L 345.367451 238.765091 
L 346.093504 237.298909 
L 346.858503 235.832727 
L 347.658128 234.366545 
L 348.487695 232.900364 
L 349.342223 231.434182 
L 350.216514 229.968 
L 386.503482 229.968 
L 386.503482 229.968 
L 387.377773 231.434182 
L 388.232301 232.900364 
L 389.061868 234.366545 
L 389.861493 235.832727 
L 390.626492 237.298909 
L 391.352545 238.765091 
L 392.03577 240.231273 
L 392.672777 241.697455 
L 393.260721 243.163636 
L 393.79734 244.629818 
L 394.280985 246.096 
L 394.710637 247.562182 
L 395.085909 249.028364 
L 395.407045 250.494545 
L 395.674893 251.960727 
L 395.890883 253.426909 
L 396.056979 254.893091 
L 396.175636 256.359273 
L 396.249745 257.825455 
L 396.282564 259.291636 
L 396.277661 260.757818 
L 396.238842 262.224 
L 396.170084 263.690182 
L 396.075471 265.156364 
L 395.959132 266.622545 
L 395.825181 268.088727 
L 395.677665 269.554909 
L 395.520523 271.021091 
L 395.357546 272.487273 
L 395.192346 273.953455 
L 395.028336 275.419636 
L 394.868715 276.885818 
L 394.716458 278.352 
L 394.574316 279.818182 
L 394.444817 281.284364 
L 394.33027 282.750545 
L 394.232775 284.216727 
L 394.15423 285.682909 
L 394.096338 287.149091 
L 394.060612 288.615273 
L 394.04838 290.081455 
L 394.060781 291.547636 
L 394.098765 293.013818 
L 394.163078 294.48 
L 394.254251 295.946182 
L 394.372585 297.412364 
L 394.518126 298.878545 
L 394.690649 300.344727 
L 394.889628 301.810909 
L 395.114222 303.277091 
L 395.363247 304.743273 
L 395.635168 306.209455 
L 395.92808 307.675636 
L 396.23971 309.141818 
L 396.567419 310.608 
L 396.908212 312.074182 
L 397.258765 313.540364 
L 397.615451 315.006545 
L 397.974382 316.472727 
L 398.331462 317.938909 
L 398.682437 319.405091 
L 399.022966 320.871273 
L 399.348683 322.337455 
L 399.655272 323.803636 
L 399.938536 325.269818 
L 400.194465 326.736 
L 400.419306 328.202182 
L 400.609619 329.668364 
L 400.762329 331.134545 
L 400.874769 332.600727 
L 400.944712 334.066909 
L 400.970388 335.533091 
L 400.95049 336.999273 
L 400.884175 338.465455 
L 400.77104 339.931636 
L 400.611102 341.397818 
L 400.404757 342.864 
L 400.152739 344.330182 
L 399.856073 345.796364 
L 399.516022 347.262545 
L 399.13404 348.728727 
L 398.711713 350.194909 
L 398.250724 351.661091 
L 397.752804 353.127273 
L 397.219702 354.593455 
L 396.653162 356.059636 
L 396.0549 357.525818 
L 395.426602 358.992 
L 394.769924 360.458182 
L 394.086499 361.924364 
L 393.377955 363.390545 
L 392.645936 364.856727 
L 391.892123 366.322909 
L 391.118267 367.789091 
L 390.32621 369.255273 
L 389.517911 370.721455 
L 388.695468 372.187636 
L 387.86113 373.653818 
L 387.017307 375.12 
z
" clip-path="url(#pa5422ea5ae)" style="fill: #2e86ab; fill-opacity: 0.3"/>
   </g>
   <g id="FillBetweenPolyCollection_4">
    <path d="M 508.367814 220.896 
L 489.235299 220.896 
L 488.517611 219.429818 
L 487.806739 217.963636 
L 487.108603 216.497455 
L 486.428698 215.031273 
L 485.771907 213.565091 
L 485.142297 212.098909 
L 484.542931 210.632727 
L 483.975695 209.166545 
L 483.441147 207.700364 
L 482.938412 206.234182 
L 482.465123 204.768 
L 482.017437 203.301818 
L 481.590112 201.835636 
L 481.176683 200.369455 
L 480.76971 198.903273 
L 480.361108 197.437091 
L 479.942545 195.970909 
L 479.505888 194.504727 
L 479.043669 193.038545 
L 478.549554 191.572364 
L 478.018769 190.106182 
L 477.448458 188.64 
L 476.837952 187.173818 
L 476.18891 185.707636 
L 475.505329 184.241455 
L 474.793413 182.775273 
L 474.061301 181.309091 
L 473.318678 179.842909 
L 472.576282 178.376727 
L 471.845343 176.910545 
L 471.136998 175.444364 
L 470.461711 173.978182 
L 469.828742 172.512 
L 469.245705 171.045818 
L 468.718234 169.579636 
L 468.249789 168.113455 
L 467.841598 166.647273 
L 467.492749 165.181091 
L 467.20041 163.714909 
L 466.960162 162.248727 
L 466.766414 160.782545 
L 466.612872 159.316364 
L 466.493025 157.850182 
L 466.400609 156.384 
L 466.330031 154.917818 
L 466.276711 153.451636 
L 466.237339 151.985455 
L 466.210019 150.519273 
L 466.194311 149.053091 
L 466.191167 147.586909 
L 466.202774 146.120727 
L 466.232317 144.654545 
L 466.283687 143.188364 
L 466.361151 141.722182 
L 466.469012 140.256 
L 466.611274 138.789818 
L 466.791342 137.323636 
L 467.011765 135.857455 
L 467.274042 134.391273 
L 467.578491 132.925091 
L 467.924202 131.458909 
L 468.309056 129.992727 
L 468.729816 128.526545 
L 469.182288 127.060364 
L 469.661526 125.594182 
L 470.16209 124.128 
L 470.67832 122.661818 
L 471.20463 121.195636 
L 471.7358 119.729455 
L 472.267242 118.263273 
L 472.79525 116.797091 
L 473.317186 115.330909 
L 473.83163 113.864727 
L 474.338454 112.398545 
L 474.838834 110.932364 
L 475.335186 109.466182 
L 475.83104 108 
L 476.330845 106.533818 
L 476.839716 105.067636 
L 477.363144 103.601455 
L 477.906675 102.135273 
L 478.475578 100.669091 
L 479.074523 99.202909 
L 479.707285 97.736727 
L 480.376489 96.270545 
L 481.083418 94.804364 
L 481.827888 93.338182 
L 482.608199 91.872 
L 483.421167 90.405818 
L 484.262227 88.939636 
L 485.125607 87.473455 
L 486.004555 86.007273 
L 486.891603 84.541091 
L 487.778865 83.074909 
L 488.65833 81.608727 
L 489.522147 80.142545 
L 490.362896 78.676364 
L 491.173805 77.210182 
L 491.948941 75.744 
L 505.654172 75.744 
L 505.654172 75.744 
L 506.429307 77.210182 
L 507.240217 78.676364 
L 508.080966 80.142545 
L 508.944783 81.608727 
L 509.824247 83.074909 
L 510.71151 84.541091 
L 511.598558 86.007273 
L 512.477505 87.473455 
L 513.340886 88.939636 
L 514.181946 90.405818 
L 514.994914 91.872 
L 515.775225 93.338182 
L 516.519695 94.804364 
L 517.226624 96.270545 
L 517.895828 97.736727 
L 518.52859 99.202909 
L 519.127535 100.669091 
L 519.696438 102.135273 
L 520.239969 103.601455 
L 520.763397 105.067636 
L 521.272268 106.533818 
L 521.772072 108 
L 522.267927 109.466182 
L 522.764279 110.932364 
L 523.264659 112.398545 
L 523.771483 113.864727 
L 524.285927 115.330909 
L 524.807863 116.797091 
L 525.335871 118.263273 
L 525.867313 119.729455 
L 526.398482 121.195636 
L 526.924793 122.661818 
L 527.441022 124.128 
L 527.941586 125.594182 
L 528.420825 127.060364 
L 528.873297 128.526545 
L 529.294057 129.992727 
L 529.678911 131.458909 
L 530.024622 132.925091 
L 530.329071 134.391273 
L 530.591348 135.857455 
L 530.811771 137.323636 
L 530.991839 138.789818 
L 531.134101 140.256 
L 531.241961 141.722182 
L 531.319426 143.188364 
L 531.370796 144.654545 
L 531.400339 146.120727 
L 531.411946 147.586909 
L 531.408802 149.053091 
L 531.393094 150.519273 
L 531.365773 151.985455 
L 531.326401 153.451636 
L 531.273082 154.917818 
L 531.202504 156.384 
L 531.110088 157.850182 
L 530.990241 159.316364 
L 530.836699 160.782545 
L 530.642951 162.248727 
L 530.402703 163.714909 
L 530.110364 165.181091 
L 529.761515 166.647273 
L 529.353324 168.113455 
L 528.884879 169.579636 
L 528.357408 171.045818 
L 527.774371 172.512 
L 527.141402 173.978182 
L 526.466115 175.444364 
L 525.75777 176.910545 
L 525.026831 178.376727 
L 524.284435 179.842909 
L 523.541812 181.309091 
L 522.8097 182.775273 
L 522.097784 184.241455 
L 521.414203 185.707636 
L 520.76516 187.173818 
L 520.154655 188.64 
L 519.584344 190.106182 
L 519.053559 191.572364 
L 518.559444 193.038545 
L 518.097225 194.504727 
L 517.660568 195.970909 
L 517.242005 197.437091 
L 516.833403 198.903273 
L 516.42643 200.369455 
L 516.013001 201.835636 
L 515.585676 203.301818 
L 515.137989 204.768 
L 514.664701 206.234182 
L 514.161966 207.700364 
L 513.627418 209.166545 
L 513.060182 210.632727 
L 512.460816 212.098909 
L 511.831205 213.565091 
L 511.174414 215.031273 
L 510.49451 216.497455 
L 509.796374 217.963636 
L 509.085502 219.429818 
L 508.367814 220.896 
z
" clip-path="url(#pa5422ea5ae)" style="fill: #2e86ab; fill-opacity: 0.3"/>
   </g>
   <g id="matplotlib.axis_1">
    <g id="xtick_1">
     <g id="line2d_1">
      <path d="M 107.476881 390.24 
L 107.476881 57.6 
" clip-path="url(#pa5422ea5ae)" style="fill: none; stroke: #b0b0b0; stroke-opacity: 0.25; stroke-width: 0.8; stroke-linecap: square"/>
     </g>
     <g id="line2d_2">
      <defs>
       <path id="meb90675e42" d="M 0 0 
L 0 5 
" style="stroke: #000000"/>
      </defs>
      <g>
       <use xlink:href="#meb90675e42" x="107.476881" y="390.24" style="stroke: #000000"/>
      </g>
     </g>
     <g id="text_1">
      <!-- TP -->
      <g transform="translate(101.059069 406.378125) scale(0.11 -0.11)">
       <defs>
        <path id="TimesNewRomanPSMT-54" d="M 3703 4238 
L 3750 3244 
L 3631 3244 
Q 3597 3506 3538 3619 
Q 3441 3800 3280 3886 
Q 3119 3972 2856 3972 
L 2259 3972 
L 2259 734 
Q 2259 344 2344 247 
Q 2463 116 2709 116 
L 2856 116 
L 2856 0 
L 1059 0 
L 1059 116 
L 1209 116 
Q 1478 116 1591 278 
Q 1659 378 1659 734 
L 1659 3972 
L 1150 3972 
Q 853 3972 728 3928 
Q 566 3869 450 3700 
Q 334 3531 313 3244 
L 194 3244 
L 244 4238 
L 3703 4238 
z
" transform="scale(0.015625)"/>
        <path id="TimesNewRomanPSMT-50" d="M 1313 1984 
L 1313 750 
Q 1313 350 1400 253 
Q 1519 116 1759 116 
L 1922 116 
L 1922 0 
L 106 0 
L 106 116 
L 266 116 
Q 534 116 650 291 
Q 713 388 713 750 
L 713 3488 
Q 713 3888 628 3984 
Q 506 4122 266 4122 
L 106 4122 
L 106 4238 
L 1659 4238 
Q 2228 4238 2556 4120 
Q 2884 4003 3109 3725 
Q 3334 3447 3334 3066 
Q 3334 2547 2992 2222 
Q 2650 1897 2025 1897 
Q 1872 1897 1694 1919 
Q 1516 1941 1313 1984 
z
M 1313 2163 
Q 1478 2131 1606 2115 
Q 1734 2100 1825 2100 
Q 2150 2100 2386 2351 
Q 2622 2603 2622 3003 
Q 2622 3278 2509 3514 
Q 2397 3750 2190 3867 
Q 1984 3984 1722 3984 
Q 1563 3984 1313 3925 
L 1313 2163 
z
" transform="scale(0.015625)"/>
       </defs>
       <use xlink:href="#TimesNewRomanPSMT-54"/>
       <use xlink:href="#TimesNewRomanPSMT-50" transform="translate(61.083984 0)"/>
      </g>
     </g>
    </g>
    <g id="xtick_2">
     <g id="line2d_3">
      <path d="M 237.91844 390.24 
L 237.91844 57.6 
" clip-path="url(#pa5422ea5ae)" style="fill: none; stroke: #b0b0b0; stroke-opacity: 0.25; stroke-width: 0.8; stroke-linecap: square"/>
     </g>
     <g id="line2d_4">
      <g>
       <use xlink:href="#meb90675e42" x="237.91844" y="390.24" style="stroke: #000000"/>
      </g>
     </g>
     <g id="text_2">
      <!-- TN -->
      <g transform="translate(230.587111 406.378125) scale(0.11 -0.11)">
       <defs>
        <path id="TimesNewRomanPSMT-4e" d="M -84 4238 
L 1066 4238 
L 3656 1059 
L 3656 3503 
Q 3656 3894 3569 3991 
Q 3453 4122 3203 4122 
L 3056 4122 
L 3056 4238 
L 4531 4238 
L 4531 4122 
L 4381 4122 
Q 4113 4122 4000 3959 
Q 3931 3859 3931 3503 
L 3931 -69 
L 3819 -69 
L 1025 3344 
L 1025 734 
Q 1025 344 1109 247 
Q 1228 116 1475 116 
L 1625 116 
L 1625 0 
L 150 0 
L 150 116 
L 297 116 
Q 569 116 681 278 
Q 750 378 750 734 
L 750 3681 
Q 566 3897 470 3965 
Q 375 4034 191 4094 
Q 100 4122 -84 4122 
L -84 4238 
z
" transform="scale(0.015625)"/>
       </defs>
       <use xlink:href="#TimesNewRomanPSMT-54"/>
       <use xlink:href="#TimesNewRomanPSMT-4e" transform="translate(61.083984 0)"/>
      </g>
     </g>
    </g>
    <g id="xtick_3">
     <g id="line2d_5">
      <path d="M 368.359998 390.24 
L 368.359998 57.6 
" clip-path="url(#pa5422ea5ae)" style="fill: none; stroke: #b0b0b0; stroke-opacity: 0.25; stroke-width: 0.8; stroke-linecap: square"/>
     </g>
     <g id="line2d_6">
      <g>
       <use xlink:href="#meb90675e42" x="368.359998" y="390.24" style="stroke: #000000"/>
      </g>
     </g>
     <g id="text_3">
      <!-- FN -->
      <g transform="translate(361.329451 406.378125) scale(0.11 -0.11)">
       <defs>
        <path id="TimesNewRomanPSMT-46" d="M 1309 4006 
L 1309 2341 
L 2081 2341 
Q 2347 2341 2470 2458 
Q 2594 2575 2634 2922 
L 2750 2922 
L 2750 1488 
L 2634 1488 
Q 2631 1734 2570 1850 
Q 2509 1966 2401 2023 
Q 2294 2081 2081 2081 
L 1309 2081 
L 1309 750 
Q 1309 428 1350 325 
Q 1381 247 1481 191 
Q 1619 116 1769 116 
L 1922 116 
L 1922 0 
L 103 0 
L 103 116 
L 253 116 
Q 516 116 634 269 
Q 709 369 709 750 
L 709 3488 
Q 709 3809 669 3913 
Q 638 3991 541 4047 
Q 406 4122 253 4122 
L 103 4122 
L 103 4238 
L 3256 4238 
L 3297 3306 
L 3188 3306 
Q 3106 3603 2998 3742 
Q 2891 3881 2733 3943 
Q 2575 4006 2244 4006 
L 1309 4006 
z
" transform="scale(0.015625)"/>
       </defs>
       <use xlink:href="#TimesNewRomanPSMT-46"/>
       <use xlink:href="#TimesNewRomanPSMT-4e" transform="translate(55.615234 0)"/>
      </g>
     </g>
    </g>
    <g id="xtick_4">
     <g id="line2d_7">
      <path d="M 498.801556 390.24 
L 498.801556 57.6 
" clip-path="url(#pa5422ea5ae)" style="fill: none; stroke: #b0b0b0; stroke-opacity: 0.25; stroke-width: 0.8; stroke-linecap: square"/>
     </g>
     <g id="line2d_8">
      <g>
       <use xlink:href="#meb90675e42" x="498.801556" y="390.24" style="stroke: #000000"/>
      </g>
     </g>
     <g id="text_4">
      <!-- FP -->
      <g transform="translate(492.684525 406.378125) scale(0.11 -0.11)">
       <use xlink:href="#TimesNewRomanPSMT-46"/>
       <use xlink:href="#TimesNewRomanPSMT-50" transform="translate(55.615234 0)"/>
      </g>
     </g>
    </g>
    <g id="text_5">
     <!-- Tipos de Classificacao -->
     <g transform="translate(241.860469 421.542656) scale(0.13 -0.13)">
      <defs>
       <path id="TimesNewRomanPS-BoldMT-54" d="M 4038 4238 
L 4038 3091 
L 3925 3091 
Q 3825 3488 3703 3661 
Q 3581 3834 3369 3938 
Q 3250 3994 2953 3994 
L 2638 3994 
L 2638 725 
Q 2638 400 2673 319 
Q 2709 238 2814 177 
Q 2919 116 3100 116 
L 3241 116 
L 3241 0 
L 1022 0 
L 1022 116 
L 1163 116 
Q 1347 116 1459 181 
Q 1541 225 1588 331 
Q 1622 406 1622 725 
L 1622 3994 
L 1316 3994 
Q 888 3994 694 3813 
Q 422 3559 350 3091 
L 231 3091 
L 231 4238 
L 4038 4238 
z
" transform="scale(0.015625)"/>
       <path id="TimesNewRomanPS-BoldMT-69" d="M 919 4338 
Q 1122 4338 1262 4195 
Q 1403 4053 1403 3853 
Q 1403 3653 1261 3512 
Q 1119 3372 919 3372 
Q 719 3372 578 3512 
Q 438 3653 438 3853 
Q 438 4053 578 4195 
Q 719 4338 919 4338 
z
M 1356 2922 
L 1356 606 
Q 1356 297 1428 211 
Q 1500 125 1709 113 
L 1709 0 
L 131 0 
L 131 113 
Q 325 119 419 225 
Q 481 297 481 606 
L 481 2313 
Q 481 2622 409 2708 
Q 338 2794 131 2806 
L 131 2922 
L 1356 2922 
z
" transform="scale(0.015625)"/>
       <path id="TimesNewRomanPS-BoldMT-70" d="M 1347 297 
L 1347 -791 
Q 1347 -1016 1383 -1097 
Q 1419 -1178 1494 -1215 
Q 1569 -1253 1788 -1253 
L 1788 -1369 
L 122 -1369 
L 122 -1253 
Q 316 -1247 409 -1144 
Q 472 -1072 472 -772 
L 472 2313 
Q 472 2622 400 2708 
Q 328 2794 122 2806 
L 122 2922 
L 1347 2922 
L 1347 2538 
Q 1500 2763 1659 2863 
Q 1888 3009 2156 3009 
Q 2478 3009 2742 2806 
Q 3006 2603 3143 2245 
Q 3281 1888 3281 1475 
Q 3281 1031 3139 664 
Q 2997 297 2726 104 
Q 2456 -88 2125 -88 
Q 1884 -88 1675 19 
Q 1519 100 1347 297 
z
M 1347 613 
Q 1616 231 1922 231 
Q 2091 231 2200 409 
Q 2363 672 2363 1409 
Q 2363 2166 2184 2444 
Q 2066 2628 1866 2628 
Q 1550 2628 1347 2172 
L 1347 613 
z
" transform="scale(0.015625)"/>
       <path id="TimesNewRomanPS-BoldMT-6f" d="M 1594 3009 
Q 1975 3009 2303 2812 
Q 2631 2616 2801 2253 
Q 2972 1891 2972 1459 
Q 2972 838 2656 419 
Q 2275 -88 1603 -88 
Q 944 -88 587 375 
Q 231 838 231 1447 
Q 231 2075 595 2542 
Q 959 3009 1594 3009 
z
M 1606 2788 
Q 1447 2788 1333 2667 
Q 1219 2547 1183 2192 
Q 1147 1838 1147 1206 
Q 1147 872 1191 581 
Q 1225 359 1337 243 
Q 1450 128 1594 128 
Q 1734 128 1828 206 
Q 1950 313 1991 503 
Q 2053 800 2053 1703 
Q 2053 2234 1993 2432 
Q 1934 2631 1819 2722 
Q 1738 2788 1606 2788 
z
" transform="scale(0.015625)"/>
       <path id="TimesNewRomanPS-BoldMT-73" d="M 2063 3003 
L 2109 2006 
L 2003 2006 
Q 1813 2450 1608 2612 
Q 1403 2775 1200 2775 
Q 1072 2775 981 2689 
Q 891 2603 891 2491 
Q 891 2406 953 2328 
Q 1053 2200 1512 1889 
Q 1972 1578 2117 1361 
Q 2263 1144 2263 875 
Q 2263 631 2141 397 
Q 2019 163 1797 37 
Q 1575 -88 1306 -88 
Q 1097 -88 747 44 
Q 653 78 619 78 
Q 516 78 447 -78 
L 344 -78 
L 294 972 
L 400 972 
Q 541 559 786 353 
Q 1031 147 1250 147 
Q 1400 147 1495 239 
Q 1591 331 1591 463 
Q 1591 613 1497 722 
Q 1403 831 1078 1053 
Q 600 1384 459 1559 
Q 253 1816 253 2125 
Q 253 2463 486 2736 
Q 719 3009 1159 3009 
Q 1397 3009 1619 2894 
Q 1703 2847 1756 2847 
Q 1813 2847 1847 2870 
Q 1881 2894 1956 3003 
L 2063 3003 
z
" transform="scale(0.015625)"/>
       <path id="TimesNewRomanPS-BoldMT-20" transform="scale(0.015625)"/>
       <path id="TimesNewRomanPS-BoldMT-64" d="M 3056 4238 
L 3056 875 
Q 3056 534 3075 472 
Q 3100 369 3170 319 
Q 3241 269 3416 256 
L 3416 153 
L 2181 -88 
L 2181 375 
Q 1959 106 1786 9 
Q 1613 -88 1394 -88 
Q 834 -88 509 413 
Q 247 819 247 1409 
Q 247 1881 409 2254 
Q 572 2628 855 2818 
Q 1138 3009 1463 3009 
Q 1672 3009 1834 2928 
Q 1997 2847 2181 2644 
L 2181 3525 
Q 2181 3859 2153 3928 
Q 2116 4019 2041 4062 
Q 1966 4106 1759 4106 
L 1759 4238 
L 3056 4238 
z
M 2181 2256 
Q 1950 2700 1616 2700 
Q 1500 2700 1425 2638 
Q 1309 2541 1236 2297 
Q 1163 2053 1163 1550 
Q 1163 997 1244 731 
Q 1325 466 1466 347 
Q 1538 288 1663 288 
Q 1938 288 2181 719 
L 2181 2256 
z
" transform="scale(0.015625)"/>
       <path id="TimesNewRomanPS-BoldMT-65" d="M 2691 1566 
L 1088 1566 
Q 1116 984 1397 647 
Q 1613 388 1916 388 
Q 2103 388 2256 492 
Q 2409 597 2584 869 
L 2691 800 
Q 2453 316 2165 114 
Q 1878 -88 1500 -88 
Q 850 -88 516 413 
Q 247 816 247 1413 
Q 247 2144 642 2576 
Q 1038 3009 1569 3009 
Q 2013 3009 2339 2645 
Q 2666 2281 2691 1566 
z
M 1922 1775 
Q 1922 2278 1867 2465 
Q 1813 2653 1697 2750 
Q 1631 2806 1522 2806 
Q 1359 2806 1256 2647 
Q 1072 2369 1072 1884 
L 1072 1775 
L 1922 1775 
z
" transform="scale(0.015625)"/>
       <path id="TimesNewRomanPS-BoldMT-43" d="M 4272 4334 
L 4272 2866 
L 4150 2866 
Q 4013 3441 3638 3747 
Q 3263 4053 2788 4053 
Q 2391 4053 2059 3825 
Q 1728 3597 1575 3228 
Q 1378 2756 1378 2178 
Q 1378 1609 1522 1142 
Q 1666 675 1972 436 
Q 2278 197 2766 197 
Q 3166 197 3498 372 
Q 3831 547 4200 975 
L 4200 609 
Q 3844 238 3458 70 
Q 3072 -97 2556 -97 
Q 1878 -97 1351 175 
Q 825 447 539 956 
Q 253 1466 253 2041 
Q 253 2647 570 3190 
Q 888 3734 1427 4034 
Q 1966 4334 2572 4334 
Q 3019 4334 3516 4141 
Q 3803 4028 3881 4028 
Q 3981 4028 4054 4101 
Q 4128 4175 4150 4334 
L 4272 4334 
z
" transform="scale(0.015625)"/>
       <path id="TimesNewRomanPS-BoldMT-6c" d="M 1359 4238 
L 1359 606 
Q 1359 297 1431 211 
Q 1503 125 1713 113 
L 1713 0 
L 134 0 
L 134 113 
Q 328 119 422 225 
Q 484 297 484 606 
L 484 3631 
Q 484 3938 412 4023 
Q 341 4109 134 4122 
L 134 4238 
L 1359 4238 
z
" transform="scale(0.015625)"/>
       <path id="TimesNewRomanPS-BoldMT-61" d="M 1828 431 
Q 1294 -41 869 -41 
Q 619 -41 453 123 
Q 288 288 288 534 
Q 288 869 575 1136 
Q 863 1403 1828 1847 
L 1828 2141 
Q 1828 2472 1792 2558 
Q 1756 2644 1656 2708 
Q 1556 2772 1431 2772 
Q 1228 2772 1097 2681 
Q 1016 2625 1016 2550 
Q 1016 2484 1103 2388 
Q 1222 2253 1222 2128 
Q 1222 1975 1108 1867 
Q 994 1759 809 1759 
Q 613 1759 480 1878 
Q 347 1997 347 2156 
Q 347 2381 525 2586 
Q 703 2791 1022 2900 
Q 1341 3009 1684 3009 
Q 2100 3009 2342 2832 
Q 2584 2656 2656 2450 
Q 2700 2319 2700 1847 
L 2700 713 
Q 2700 513 2715 461 
Q 2731 409 2762 384 
Q 2794 359 2834 359 
Q 2916 359 3000 475 
L 3094 400 
Q 2938 169 2770 64 
Q 2603 -41 2391 -41 
Q 2141 -41 2000 76 
Q 1859 194 1828 431 
z
M 1828 659 
L 1828 1638 
Q 1450 1416 1266 1163 
Q 1144 994 1144 822 
Q 1144 678 1247 569 
Q 1325 484 1466 484 
Q 1622 484 1828 659 
z
" transform="scale(0.015625)"/>
       <path id="TimesNewRomanPS-BoldMT-66" d="M 1497 2616 
L 1497 588 
Q 1497 294 1559 219 
Q 1659 103 1928 113 
L 1928 0 
L 206 0 
L 206 113 
Q 403 116 486 158 
Q 569 200 600 275 
Q 631 350 631 588 
L 631 2616 
L 206 2616 
L 206 2922 
L 631 2922 
L 631 3138 
L 628 3284 
Q 628 3734 958 4034 
Q 1288 4334 1850 4334 
Q 2234 4334 2420 4190 
Q 2606 4047 2606 3872 
Q 2606 3731 2490 3628 
Q 2375 3525 2184 3525 
Q 2022 3525 1926 3609 
Q 1831 3694 1831 3797 
Q 1831 3825 1850 3913 
Q 1863 3966 1863 4013 
Q 1863 4078 1825 4109 
Q 1775 4156 1703 4156 
Q 1613 4156 1552 4081 
Q 1491 4006 1491 3841 
L 1497 3294 
L 1497 2922 
L 1928 2922 
L 1928 2616 
L 1497 2616 
z
" transform="scale(0.015625)"/>
       <path id="TimesNewRomanPS-BoldMT-63" d="M 2600 753 
L 2697 678 
Q 2491 291 2183 101 
Q 1875 -88 1528 -88 
Q 944 -88 594 353 
Q 244 794 244 1413 
Q 244 2009 563 2463 
Q 947 3009 1622 3009 
Q 2075 3009 2342 2781 
Q 2609 2553 2609 2272 
Q 2609 2094 2501 1987 
Q 2394 1881 2219 1881 
Q 2034 1881 1914 2003 
Q 1794 2125 1766 2438 
Q 1747 2634 1675 2713 
Q 1603 2791 1506 2791 
Q 1356 2791 1250 2631 
Q 1088 2391 1088 1894 
Q 1088 1481 1219 1104 
Q 1350 728 1578 544 
Q 1750 409 1984 409 
Q 2138 409 2275 481 
Q 2413 553 2600 753 
z
" transform="scale(0.015625)"/>
      </defs>
      <use xlink:href="#TimesNewRomanPS-BoldMT-54"/>
      <use xlink:href="#TimesNewRomanPS-BoldMT-69" transform="translate(64.949219 0)"/>
      <use xlink:href="#TimesNewRomanPS-BoldMT-70" transform="translate(92.732422 0)"/>
      <use xlink:href="#TimesNewRomanPS-BoldMT-6f" transform="translate(148.347656 0)"/>
      <use xlink:href="#TimesNewRomanPS-BoldMT-73" transform="translate(198.347656 0)"/>
      <use xlink:href="#TimesNewRomanPS-BoldMT-20" transform="translate(237.263672 0)"/>
      <use xlink:href="#TimesNewRomanPS-BoldMT-64" transform="translate(262.263672 0)"/>
      <use xlink:href="#TimesNewRomanPS-BoldMT-65" transform="translate(317.878906 0)"/>
      <use xlink:href="#TimesNewRomanPS-BoldMT-20" transform="translate(362.263672 0)"/>
      <use xlink:href="#TimesNewRomanPS-BoldMT-43" transform="translate(387.263672 0)"/>
      <use xlink:href="#TimesNewRomanPS-BoldMT-6c" transform="translate(459.480469 0)"/>
      <use xlink:href="#TimesNewRomanPS-BoldMT-61" transform="translate(487.263672 0)"/>
      <use xlink:href="#TimesNewRomanPS-BoldMT-73" transform="translate(537.263672 0)"/>
      <use xlink:href="#TimesNewRomanPS-BoldMT-73" transform="translate(576.179688 0)"/>
      <use xlink:href="#TimesNewRomanPS-BoldMT-69" transform="translate(615.095703 0)"/>
      <use xlink:href="#TimesNewRomanPS-BoldMT-66" transform="translate(642.878906 0)"/>
      <use xlink:href="#TimesNewRomanPS-BoldMT-69" transform="translate(676.179688 0)"/>
      <use xlink:href="#TimesNewRomanPS-BoldMT-63" transform="translate(703.962891 0)"/>
      <use xlink:href="#TimesNewRomanPS-BoldMT-61" transform="translate(748.347656 0)"/>
      <use xlink:href="#TimesNewRomanPS-BoldMT-63" transform="translate(798.347656 0)"/>
      <use xlink:href="#TimesNewRomanPS-BoldMT-61" transform="translate(842.732422 0)"/>
      <use xlink:href="#TimesNewRomanPS-BoldMT-6f" transform="translate(892.732422 0)"/>
     </g>
    </g>
   </g>
   <g id="matplotlib.axis_2">
    <g id="ytick_1">
     <g id="line2d_9">
      <path d="M 52.039219 375.12 
L 554.239219 375.12 
" clip-path="url(#pa5422ea5ae)" style="fill: none; stroke: #b0b0b0; stroke-opacity: 0.25; stroke-width: 0.8; stroke-linecap: square"/>
     </g>
     <g id="line2d_10">
      <defs>
       <path id="m9eeb2b2245" d="M 0 0 
L -5 0 
" style="stroke: #000000"/>
      </defs>
      <g>
       <use xlink:href="#m9eeb2b2245" x="52.039219" y="375.12" style="stroke: #000000"/>
      </g>
     </g>
     <g id="text_6">
      <!-- 0.0 -->
      <g transform="translate(29.789219 378.939062) scale(0.11 -0.11)">
       <defs>
        <path id="TimesNewRomanPSMT-30" d="M 231 2094 
Q 231 2819 450 3342 
Q 669 3866 1031 4122 
Q 1313 4325 1613 4325 
Q 2100 4325 2488 3828 
Q 2972 3213 2972 2159 
Q 2972 1422 2759 906 
Q 2547 391 2217 158 
Q 1888 -75 1581 -75 
Q 975 -75 572 641 
Q 231 1244 231 2094 
z
M 844 2016 
Q 844 1141 1059 588 
Q 1238 122 1591 122 
Q 1759 122 1940 273 
Q 2122 425 2216 781 
Q 2359 1319 2359 2297 
Q 2359 3022 2209 3506 
Q 2097 3866 1919 4016 
Q 1791 4119 1609 4119 
Q 1397 4119 1231 3928 
Q 1006 3669 925 3112 
Q 844 2556 844 2016 
z
" transform="scale(0.015625)"/>
        <path id="TimesNewRomanPSMT-2e" d="M 800 606 
Q 947 606 1047 504 
Q 1147 403 1147 259 
Q 1147 116 1045 14 
Q 944 -88 800 -88 
Q 656 -88 554 14 
Q 453 116 453 259 
Q 453 406 554 506 
Q 656 606 800 606 
z
" transform="scale(0.015625)"/>
       </defs>
       <use xlink:href="#TimesNewRomanPSMT-30"/>
       <use xlink:href="#TimesNewRomanPSMT-2e" transform="translate(50 0)"/>
       <use xlink:href="#TimesNewRomanPSMT-30" transform="translate(75 0)"/>
      </g>
     </g>
    </g>
    <g id="ytick_2">
     <g id="line2d_11">
      <path d="M 52.039219 314.64 
L 554.239219 314.64 
" clip-path="url(#pa5422ea5ae)" style="fill: none; stroke: #b0b0b0; stroke-opacity: 0.25; stroke-width: 0.8; stroke-linecap: square"/>
     </g>
     <g id="line2d_12">
      <g>
       <use xlink:href="#m9eeb2b2245" x="52.039219" y="314.64" style="stroke: #000000"/>
      </g>
     </g>
     <g id="text_7">
      <!-- 0.2 -->
      <g transform="translate(29.789219 318.459062) scale(0.11 -0.11)">
       <defs>
        <path id="TimesNewRomanPSMT-32" d="M 2934 816 
L 2638 0 
L 138 0 
L 138 116 
Q 1241 1122 1691 1759 
Q 2141 2397 2141 2925 
Q 2141 3328 1894 3587 
Q 1647 3847 1303 3847 
Q 991 3847 742 3664 
Q 494 3481 375 3128 
L 259 3128 
Q 338 3706 661 4015 
Q 984 4325 1469 4325 
Q 1984 4325 2329 3994 
Q 2675 3663 2675 3213 
Q 2675 2891 2525 2569 
Q 2294 2063 1775 1497 
Q 997 647 803 472 
L 1909 472 
Q 2247 472 2383 497 
Q 2519 522 2628 598 
Q 2738 675 2819 816 
L 2934 816 
z
" transform="scale(0.015625)"/>
       </defs>
       <use xlink:href="#TimesNewRomanPSMT-30"/>
       <use xlink:href="#TimesNewRomanPSMT-2e" transform="translate(50 0)"/>
       <use xlink:href="#TimesNewRomanPSMT-32" transform="translate(75 0)"/>
      </g>
     </g>
    </g>
    <g id="ytick_3">
     <g id="line2d_13">
      <path d="M 52.039219 254.16 
L 554.239219 254.16 
" clip-path="url(#pa5422ea5ae)" style="fill: none; stroke: #b0b0b0; stroke-opacity: 0.25; stroke-width: 0.8; stroke-linecap: square"/>
     </g>
     <g id="line2d_14">
      <g>
       <use xlink:href="#m9eeb2b2245" x="52.039219" y="254.16" style="stroke: #000000"/>
      </g>
     </g>
     <g id="text_8">
      <!-- 0.4 -->
      <g transform="translate(29.789219 257.979062) scale(0.11 -0.11)">
       <defs>
        <path id="TimesNewRomanPSMT-34" d="M 2978 1563 
L 2978 1119 
L 2409 1119 
L 2409 0 
L 1894 0 
L 1894 1119 
L 100 1119 
L 100 1519 
L 2066 4325 
L 2409 4325 
L 2409 1563 
L 2978 1563 
z
M 1894 1563 
L 1894 3666 
L 406 1563 
L 1894 1563 
z
" transform="scale(0.015625)"/>
       </defs>
       <use xlink:href="#TimesNewRomanPSMT-30"/>
       <use xlink:href="#TimesNewRomanPSMT-2e" transform="translate(50 0)"/>
       <use xlink:href="#TimesNewRomanPSMT-34" transform="translate(75 0)"/>
      </g>
     </g>
    </g>
    <g id="ytick_4">
     <g id="line2d_15">
      <path d="M 52.039219 193.68 
L 554.239219 193.68 
" clip-path="url(#pa5422ea5ae)" style="fill: none; stroke: #b0b0b0; stroke-opacity: 0.25; stroke-width: 0.8; stroke-linecap: square"/>
     </g>
     <g id="line2d_16">
      <g>
       <use xlink:href="#m9eeb2b2245" x="52.039219" y="193.68" style="stroke: #000000"/>
      </g>
     </g>
     <g id="text_9">
      <!-- 0.6 -->
      <g transform="translate(29.789219 197.499062) scale(0.11 -0.11)">
       <defs>
        <path id="TimesNewRomanPSMT-36" d="M 2869 4325 
L 2869 4209 
Q 2456 4169 2195 4045 
Q 1934 3922 1679 3669 
Q 1425 3416 1258 3105 
Q 1091 2794 978 2366 
Q 1428 2675 1881 2675 
Q 2316 2675 2634 2325 
Q 2953 1975 2953 1425 
Q 2953 894 2631 456 
Q 2244 -75 1606 -75 
Q 1172 -75 869 213 
Q 275 772 275 1663 
Q 275 2231 503 2743 
Q 731 3256 1154 3653 
Q 1578 4050 1965 4187 
Q 2353 4325 2688 4325 
L 2869 4325 
z
M 925 2138 
Q 869 1716 869 1456 
Q 869 1156 980 804 
Q 1091 453 1309 247 
Q 1469 100 1697 100 
Q 1969 100 2183 356 
Q 2397 613 2397 1088 
Q 2397 1622 2184 2012 
Q 1972 2403 1581 2403 
Q 1463 2403 1327 2353 
Q 1191 2303 925 2138 
z
" transform="scale(0.015625)"/>
       </defs>
       <use xlink:href="#TimesNewRomanPSMT-30"/>
       <use xlink:href="#TimesNewRomanPSMT-2e" transform="translate(50 0)"/>
       <use xlink:href="#TimesNewRomanPSMT-36" transform="translate(75 0)"/>
      </g>
     </g>
    </g>
    <g id="ytick_5">
     <g id="line2d_17">
      <path d="M 52.039219 133.2 
L 554.239219 133.2 
" clip-path="url(#pa5422ea5ae)" style="fill: none; stroke: #b0b0b0; stroke-opacity: 0.25; stroke-width: 0.8; stroke-linecap: square"/>
     </g>
     <g id="line2d_18">
      <g>
       <use xlink:href="#m9eeb2b2245" x="52.039219" y="133.2" style="stroke: #000000"/>
      </g>
     </g>
     <g id="text_10">
      <!-- 0.8 -->
      <g transform="translate(29.789219 137.019062) scale(0.11 -0.11)">
       <defs>
        <path id="TimesNewRomanPSMT-38" d="M 1228 2134 
Q 725 2547 579 2797 
Q 434 3047 434 3316 
Q 434 3728 753 4026 
Q 1072 4325 1600 4325 
Q 2113 4325 2425 4047 
Q 2738 3769 2738 3413 
Q 2738 3175 2569 2928 
Q 2400 2681 1866 2347 
Q 2416 1922 2594 1678 
Q 2831 1359 2831 1006 
Q 2831 559 2490 242 
Q 2150 -75 1597 -75 
Q 994 -75 656 303 
Q 388 606 388 966 
Q 388 1247 577 1523 
Q 766 1800 1228 2134 
z
M 1719 2469 
Q 2094 2806 2194 3001 
Q 2294 3197 2294 3444 
Q 2294 3772 2109 3958 
Q 1925 4144 1606 4144 
Q 1288 4144 1088 3959 
Q 888 3775 888 3528 
Q 888 3366 970 3203 
Q 1053 3041 1206 2894 
L 1719 2469 
z
M 1375 2016 
Q 1116 1797 991 1539 
Q 866 1281 866 981 
Q 866 578 1086 336 
Q 1306 94 1647 94 
Q 1984 94 2187 284 
Q 2391 475 2391 747 
Q 2391 972 2272 1150 
Q 2050 1481 1375 2016 
z
" transform="scale(0.015625)"/>
       </defs>
       <use xlink:href="#TimesNewRomanPSMT-30"/>
       <use xlink:href="#TimesNewRomanPSMT-2e" transform="translate(50 0)"/>
       <use xlink:href="#TimesNewRomanPSMT-38" transform="translate(75 0)"/>
      </g>
     </g>
    </g>
    <g id="ytick_6">
     <g id="line2d_19">
      <path d="M 52.039219 72.72 
L 554.239219 72.72 
" clip-path="url(#pa5422ea5ae)" style="fill: none; stroke: #b0b0b0; stroke-opacity: 0.25; stroke-width: 0.8; stroke-linecap: square"/>
     </g>
     <g id="line2d_20">
      <g>
       <use xlink:href="#m9eeb2b2245" x="52.039219" y="72.72" style="stroke: #000000"/>
      </g>
     </g>
     <g id="text_11">
      <!-- 1.0 -->
      <g transform="translate(29.789219 76.539062) scale(0.11 -0.11)">
       <defs>
        <path id="TimesNewRomanPSMT-31" d="M 750 3822 
L 1781 4325 
L 1884 4325 
L 1884 747 
Q 1884 391 1914 303 
Q 1944 216 2037 169 
Q 2131 122 2419 116 
L 2419 0 
L 825 0 
L 825 116 
Q 1125 122 1212 167 
Q 1300 213 1334 289 
Q 1369 366 1369 747 
L 1369 3034 
Q 1369 3497 1338 3628 
Q 1316 3728 1258 3775 
Q 1200 3822 1119 3822 
Q 1003 3822 797 3725 
L 750 3822 
z
" transform="scale(0.015625)"/>
       </defs>
       <use xlink:href="#TimesNewRomanPSMT-31"/>
       <use xlink:href="#TimesNewRomanPSMT-2e" transform="translate(50 0)"/>
       <use xlink:href="#TimesNewRomanPSMT-30" transform="translate(75 0)"/>
      </g>
     </g>
    </g>
    <g id="text_12">
     <!-- Densidade -->
     <g transform="translate(23.008437 252.814531) rotate(-90) scale(0.13 -0.13)">
      <defs>
       <path id="TimesNewRomanPS-BoldMT-44" d="M 84 0 
L 84 116 
L 225 116 
Q 409 116 507 173 
Q 606 231 653 331 
Q 681 397 681 725 
L 681 3513 
Q 681 3838 647 3919 
Q 613 4000 508 4061 
Q 403 4122 225 4122 
L 84 4122 
L 84 4238 
L 1981 4238 
Q 2741 4238 3203 4031 
Q 3769 3778 4061 3265 
Q 4353 2753 4353 2106 
Q 4353 1659 4209 1282 
Q 4066 906 3837 661 
Q 3609 416 3311 267 
Q 3013 119 2581 38 
Q 2391 0 1981 0 
L 84 0 
z
M 1700 3997 
L 1700 691 
Q 1700 428 1725 368 
Q 1750 309 1809 278 
Q 1894 231 2053 231 
Q 2575 231 2850 588 
Q 3225 1069 3225 2081 
Q 3225 2897 2969 3384 
Q 2766 3766 2447 3903 
Q 2222 4000 1700 3997 
z
" transform="scale(0.015625)"/>
       <path id="TimesNewRomanPS-BoldMT-6e" d="M 1409 2922 
L 1409 2544 
Q 1634 2788 1840 2898 
Q 2047 3009 2284 3009 
Q 2569 3009 2756 2851 
Q 2944 2694 3006 2459 
Q 3056 2281 3056 1775 
L 3056 638 
Q 3056 300 3117 217 
Q 3178 134 3372 113 
L 3372 0 
L 1894 0 
L 1894 113 
Q 2059 134 2131 250 
Q 2181 328 2181 638 
L 2181 1938 
Q 2181 2297 2153 2390 
Q 2125 2484 2058 2536 
Q 1991 2588 1909 2588 
Q 1641 2588 1409 2203 
L 1409 638 
Q 1409 309 1470 221 
Q 1531 134 1697 113 
L 1697 0 
L 219 0 
L 219 113 
Q 403 131 481 231 
Q 534 300 534 638 
L 534 2288 
Q 534 2619 473 2700 
Q 413 2781 219 2806 
L 219 2922 
L 1409 2922 
z
" transform="scale(0.015625)"/>
      </defs>
      <use xlink:href="#TimesNewRomanPS-BoldMT-44"/>
      <use xlink:href="#TimesNewRomanPS-BoldMT-65" transform="translate(72.216797 0)"/>
      <use xlink:href="#TimesNewRomanPS-BoldMT-6e" transform="translate(116.601562 0)"/>
      <use xlink:href="#TimesNewRomanPS-BoldMT-73" transform="translate(172.216797 0)"/>
      <use xlink:href="#TimesNewRomanPS-BoldMT-69" transform="translate(211.132812 0)"/>
      <use xlink:href="#TimesNewRomanPS-BoldMT-64" transform="translate(238.916016 0)"/>
      <use xlink:href="#TimesNewRomanPS-BoldMT-61" transform="translate(294.53125 0)"/>
      <use xlink:href="#TimesNewRomanPS-BoldMT-64" transform="translate(344.53125 0)"/>
      <use xlink:href="#TimesNewRomanPS-BoldMT-65" transform="translate(400.146484 0)"/>
     </g>
    </g>
   </g>
   <g id="LineCollection_1">
    <path d="M 91.171686 118.686243 
L 123.782076 118.686243 
" clip-path="url(#pa5422ea5ae)" style="fill: none; stroke: #2e86ab; stroke-width: 1.5"/>
    <path d="M 221.613245 353.102118 
L 254.223634 353.102118 
" clip-path="url(#pa5422ea5ae)" style="fill: none; stroke: #2e86ab; stroke-width: 1.5"/>
    <path d="M 352.054803 304.56 
L 384.665193 304.56 
" clip-path="url(#pa5422ea5ae)" style="fill: none; stroke: #2e86ab; stroke-width: 1.5"/>
    <path d="M 482.496362 149.6736 
L 515.106751 149.6736 
" clip-path="url(#pa5422ea5ae)" style="fill: none; stroke: #2e86ab; stroke-width: 1.5"/>
   </g>
   <g id="LineCollection_2">
    <path d="M 91.171686 72.72 
L 123.782076 72.72 
" clip-path="url(#pa5422ea5ae)" style="fill: none; stroke: #2e86ab; stroke-width: 1.5"/>
    <path d="M 221.613245 226.944 
L 254.223634 226.944 
" clip-path="url(#pa5422ea5ae)" style="fill: none; stroke: #2e86ab; stroke-width: 1.5"/>
    <path d="M 352.054803 229.968 
L 384.665193 229.968 
" clip-path="url(#pa5422ea5ae)" style="fill: none; stroke: #2e86ab; stroke-width: 1.5"/>
    <path d="M 482.496362 75.744 
L 515.106751 75.744 
" clip-path="url(#pa5422ea5ae)" style="fill: none; stroke: #2e86ab; stroke-width: 1.5"/>
   </g>
   <g id="LineCollection_3">
    <path d="M 91.171686 223.92 
L 123.782076 223.92 
" clip-path="url(#pa5422ea5ae)" style="fill: none; stroke: #2e86ab; stroke-width: 1.5"/>
    <path d="M 221.613245 375.12 
L 254.223634 375.12 
" clip-path="url(#pa5422ea5ae)" style="fill: none; stroke: #2e86ab; stroke-width: 1.5"/>
    <path d="M 352.054803 375.12 
L 384.665193 375.12 
" clip-path="url(#pa5422ea5ae)" style="fill: none; stroke: #2e86ab; stroke-width: 1.5"/>
    <path d="M 482.496362 220.896 
L 515.106751 220.896 
" clip-path="url(#pa5422ea5ae)" style="fill: none; stroke: #2e86ab; stroke-width: 1.5"/>
   </g>
   <g id="LineCollection_4">
    <path d="M 107.476881 223.92 
L 107.476881 72.72 
" clip-path="url(#pa5422ea5ae)" style="fill: none; stroke: #2e86ab; stroke-width: 1.5"/>
    <path d="M 237.91844 375.12 
L 237.91844 226.944 
" clip-path="url(#pa5422ea5ae)" style="fill: none; stroke: #2e86ab; stroke-width: 1.5"/>
    <path d="M 368.359998 375.12 
L 368.359998 229.968 
" clip-path="url(#pa5422ea5ae)" style="fill: none; stroke: #2e86ab; stroke-width: 1.5"/>
    <path d="M 498.801556 220.896 
L 498.801556 75.744 
" clip-path="url(#pa5422ea5ae)" style="fill: none; stroke: #2e86ab; stroke-width: 1.5"/>
   </g>
   <g id="LineCollection_5">
    <path d="M 91.171686 109.008 
L 123.782076 109.008 
" clip-path="url(#pa5422ea5ae)" style="fill: none; stroke: #2e86ab; stroke-width: 1.5"/>
    <path d="M 221.613245 366.048 
L 254.223634 366.048 
" clip-path="url(#pa5422ea5ae)" style="fill: none; stroke: #2e86ab; stroke-width: 1.5"/>
    <path d="M 352.054803 308.592 
L 384.665193 308.592 
" clip-path="url(#pa5422ea5ae)" style="fill: none; stroke: #2e86ab; stroke-width: 1.5"/>
    <path d="M 482.496362 148.32 
L 515.106751 148.32 
" clip-path="url(#pa5422ea5ae)" style="fill: none; stroke: #2e86ab; stroke-width: 1.5"/>
   </g>
   <g id="patch_3">
    <path d="M 52.039219 390.24 
L 52.039219 57.6 
" style="fill: none; stroke: #000000; stroke-linejoin: miter; stroke-linecap: square"/>
   </g>
   <g id="patch_4">
    <path d="M 554.239219 390.24 
L 554.239219 57.6 
" style="fill: none; stroke: #000000; stroke-linejoin: miter; stroke-linecap: square"/>
   </g>
   <g id="patch_5">
    <path d="M 52.039219 390.24 
L 554.239219 390.24 
" style="fill: none; stroke: #000000; stroke-linejoin: miter; stroke-linecap: square"/>
   </g>
   <g id="patch_6">
    <path d="M 52.039219 57.6 
L 554.239219 57.6 
" style="fill: none; stroke: #000000; stroke-linejoin: miter; stroke-linecap: square"/>
   </g>
   <g id="text_13">
    <!-- Densidade de Probabilidades por Classe -->
    <g transform="translate(149.434688 37.6) scale(0.18 -0.18)">
     <defs>
      <path id="TimesNewRomanPS-BoldMT-50" d="M 1728 1919 
L 1728 744 
Q 1728 400 1770 311 
Q 1813 222 1920 169 
Q 2028 116 2316 116 
L 2316 0 
L 163 0 
L 163 116 
Q 456 116 561 170 
Q 666 225 708 312 
Q 750 400 750 744 
L 750 3494 
Q 750 3838 708 3927 
Q 666 4016 559 4069 
Q 453 4122 163 4122 
L 163 4238 
L 2009 4238 
Q 2922 4238 3319 3913 
Q 3716 3588 3716 3100 
Q 3716 2688 3459 2394 
Q 3203 2100 2753 1994 
Q 2450 1919 1728 1919 
z
M 1728 3994 
L 1728 2163 
Q 1831 2156 1884 2156 
Q 2266 2156 2472 2382 
Q 2678 2609 2678 3084 
Q 2678 3556 2472 3775 
Q 2266 3994 1856 3994 
L 1728 3994 
z
" transform="scale(0.015625)"/>
      <path id="TimesNewRomanPS-BoldMT-72" d="M 1428 2922 
L 1428 2259 
Q 1719 2713 1937 2861 
Q 2156 3009 2359 3009 
Q 2534 3009 2639 2901 
Q 2744 2794 2744 2597 
Q 2744 2388 2642 2272 
Q 2541 2156 2397 2156 
Q 2231 2156 2109 2262 
Q 1988 2369 1966 2381 
Q 1934 2400 1894 2400 
Q 1803 2400 1722 2331 
Q 1594 2225 1528 2028 
Q 1428 1725 1428 1359 
L 1428 688 
L 1431 513 
Q 1431 334 1453 284 
Q 1491 200 1564 161 
Q 1638 122 1813 113 
L 1813 0 
L 234 0 
L 234 113 
Q 425 128 492 217 
Q 559 306 559 688 
L 559 2303 
Q 559 2553 534 2622 
Q 503 2709 443 2750 
Q 384 2791 234 2806 
L 234 2922 
L 1428 2922 
z
" transform="scale(0.015625)"/>
      <path id="TimesNewRomanPS-BoldMT-62" d="M 1347 4238 
L 1347 2628 
Q 1716 3009 2153 3009 
Q 2453 3009 2718 2832 
Q 2984 2656 3134 2331 
Q 3284 2006 3284 1581 
Q 3284 1103 3093 712 
Q 2903 322 2584 117 
Q 2266 -88 1856 -88 
Q 1619 -88 1434 -12 
Q 1250 63 1072 231 
L 588 -84 
L 481 -84 
L 481 3631 
Q 481 3884 459 3944 
Q 428 4031 361 4073 
Q 294 4116 134 4122 
L 134 4238 
L 1347 4238 
z
M 1347 2350 
L 1347 1050 
Q 1347 653 1366 544 
Q 1397 359 1515 245 
Q 1634 131 1819 131 
Q 1978 131 2092 222 
Q 2206 313 2282 581 
Q 2359 850 2359 1550 
Q 2359 2222 2191 2472 
Q 2069 2653 1863 2653 
Q 1594 2653 1347 2350 
z
" transform="scale(0.015625)"/>
     </defs>
     <use xlink:href="#TimesNewRomanPS-BoldMT-44"/>
     <use xlink:href="#TimesNewRomanPS-BoldMT-65" transform="translate(72.216797 0)"/>
     <use xlink:href="#TimesNewRomanPS-BoldMT-6e" transform="translate(116.601562 0)"/>
     <use xlink:href="#TimesNewRomanPS-BoldMT-73" transform="translate(172.216797 0)"/>
     <use xlink:href="#TimesNewRomanPS-BoldMT-69" transform="translate(211.132812 0)"/>
     <use xlink:href="#TimesNewRomanPS-BoldMT-64" transform="translate(238.916016 0)"/>
     <use xlink:href="#TimesNewRomanPS-BoldMT-61" transform="translate(294.53125 0)"/>
     <use xlink:href="#TimesNewRomanPS-BoldMT-64" transform="translate(344.53125 0)"/>
     <use xlink:href="#TimesNewRomanPS-BoldMT-65" transform="translate(400.146484 0)"/>
     <use xlink:href="#TimesNewRomanPS-BoldMT-20" transform="translate(444.53125 0)"/>
     <use xlink:href="#TimesNewRomanPS-BoldMT-64" transform="translate(469.53125 0)"/>
     <use xlink:href="#TimesNewRomanPS-BoldMT-65" transform="translate(525.146484 0)"/>
     <use xlink:href="#TimesNewRomanPS-BoldMT-20" transform="translate(569.53125 0)"/>
     <use xlink:href="#TimesNewRomanPS-BoldMT-50" transform="translate(594.53125 0)"/>
     <use xlink:href="#TimesNewRomanPS-BoldMT-72" transform="translate(655.615234 0)"/>
     <use xlink:href="#TimesNewRomanPS-BoldMT-6f" transform="translate(698.25 0)"/>
     <use xlink:href="#TimesNewRomanPS-BoldMT-62" transform="translate(748.25 0)"/>
     <use xlink:href="#TimesNewRomanPS-BoldMT-61" transform="translate(803.865234 0)"/>
     <use xlink:href="#TimesNewRomanPS-BoldMT-62" transform="translate(853.865234 0)"/>
     <use xlink:href="#TimesNewRomanPS-BoldMT-69" transform="translate(909.480469 0)"/>
     <use xlink:href="#TimesNewRomanPS-BoldMT-6c" transform="translate(937.263672 0)"/>
     <use xlink:href="#TimesNewRomanPS-BoldMT-69" transform="translate(965.046875 0)"/>
     <use xlink:href="#TimesNewRomanPS-BoldMT-64" transform="translate(992.830078 0)"/>
     <use xlink:href="#TimesNewRomanPS-BoldMT-61" transform="translate(1048.445312 0)"/>
     <use xlink:href="#TimesNewRomanPS-BoldMT-64" transform="translate(1098.445312 0)"/>
     <use xlink:href="#TimesNewRomanPS-BoldMT-65" transform="translate(1154.060547 0)"/>
     <use xlink:href="#TimesNewRomanPS-BoldMT-73" transform="translate(1198.445312 0)"/>
     <use xlink:href="#TimesNewRomanPS-BoldMT-20" transform="translate(1237.361328 0)"/>
     <use xlink:href="#TimesNewRomanPS-BoldMT-70" transform="translate(1262.361328 0)"/>
     <use xlink:href="#TimesNewRomanPS-BoldMT-6f" transform="translate(1317.976562 0)"/>
     <use xlink:href="#TimesNewRomanPS-BoldMT-72" transform="translate(1367.976562 0)"/>
     <use xlink:href="#TimesNewRomanPS-BoldMT-20" transform="translate(1410.611328 0)"/>
     <use xlink:href="#TimesNewRomanPS-BoldMT-43" transform="translate(1435.611328 0)"/>
     <use xlink:href="#TimesNewRomanPS-BoldMT-6c" transform="translate(1507.828125 0)"/>
     <use xlink:href="#TimesNewRomanPS-BoldMT-61" transform="translate(1535.611328 0)"/>
     <use xlink:href="#TimesNewRomanPS-BoldMT-73" transform="translate(1585.611328 0)"/>
     <use xlink:href="#TimesNewRomanPS-BoldMT-73" transform="translate(1624.527344 0)"/>
     <use xlink:href="#TimesNewRomanPS-BoldMT-65" transform="translate(1663.443359 0)"/>
    </g>
   </g>
  </g>
  <g id="text_14">
   <!-- Violin Plot -->
   <g transform="translate(254.127188 26.319375) scale(0.18 -0.18)">
    <defs>
     <path id="TimesNewRomanPS-BoldMT-56" d="M 4556 4238 
L 4556 4122 
Q 4325 4084 4144 3875 
Q 4013 3719 3753 3141 
L 2294 -97 
L 2191 -97 
L 738 3272 
Q 475 3881 386 3987 
Q 297 4094 50 4122 
L 50 4238 
L 2081 4238 
L 2081 4122 
L 2013 4122 
Q 1738 4122 1638 4053 
Q 1566 4006 1566 3916 
Q 1566 3859 1591 3782 
Q 1616 3706 1759 3372 
L 2663 1263 
L 3500 3141 
Q 3650 3481 3684 3597 
Q 3719 3713 3719 3794 
Q 3719 3888 3669 3959 
Q 3619 4031 3522 4069 
Q 3388 4122 3166 4122 
L 3166 4238 
L 4556 4238 
z
" transform="scale(0.015625)"/>
     <path id="TimesNewRomanPS-BoldMT-74" d="M 1375 3991 
L 1375 2922 
L 2069 2922 
L 2069 2613 
L 1375 2613 
L 1375 809 
Q 1375 556 1398 482 
Q 1422 409 1481 364 
Q 1541 319 1591 319 
Q 1794 319 1975 628 
L 2069 559 
Q 1816 -41 1247 -41 
Q 969 -41 776 114 
Q 584 269 531 459 
Q 500 566 500 1034 
L 500 2613 
L 119 2613 
L 119 2722 
Q 513 3000 789 3306 
Q 1066 3613 1272 3991 
L 1375 3991 
z
" transform="scale(0.015625)"/>
    </defs>
    <use xlink:href="#TimesNewRomanPS-BoldMT-56"/>
    <use xlink:href="#TimesNewRomanPS-BoldMT-69" transform="translate(68.466797 0)"/>
    <use xlink:href="#TimesNewRomanPS-BoldMT-6f" transform="translate(96.25 0)"/>
    <use xlink:href="#TimesNewRomanPS-BoldMT-6c" transform="translate(146.25 0)"/>
    <use xlink:href="#TimesNewRomanPS-BoldMT-69" transform="translate(174.033203 0)"/>
    <use xlink:href="#TimesNewRomanPS-BoldMT-6e" transform="translate(201.816406 0)"/>
    <use xlink:href="#TimesNewRomanPS-BoldMT-20" transform="translate(257.431641 0)"/>
    <use xlink:href="#TimesNewRomanPS-BoldMT-50" transform="translate(282.431641 0)"/>
    <use xlink:href="#TimesNewRomanPS-BoldMT-6c" transform="translate(343.515625 0)"/>
    <use xlink:href="#TimesNewRomanPS-BoldMT-6f" transform="translate(371.298828 0)"/>
    <use xlink:href="#TimesNewRomanPS-BoldMT-74" transform="translate(421.298828 0)"/>
   </g>
  </g>
 </g>
 <defs>
  <clipPath id="pa5422ea5ae">
   <rect x="52.039219" y="57.6" width="502.2" height="332.64"/>
  </clipPath>
 </defs>
</svg>
